<svg width="1440" height="1024" viewBox="0 0 1440 1024" fill="none" xmlns="http://www.w3.org/2000/svg">
<path d="M1234.02 216.109C1288.72 275.5 1280.95 362.404 1223.86 455.014C1166.79 547.596 1060.49 645.745 918.48 727.492C776.471 809.239 625.682 859.082 496.705 873.599C367.691 888.12 260.689 867.283 205.987 807.891C151.284 748.5 159.052 661.596 216.142 568.987C273.216 476.404 379.514 378.255 521.522 296.508C663.531 214.761 814.321 164.919 943.297 150.402C1072.31 135.881 1179.31 156.718 1234.02 216.109Z" stroke="white" stroke-opacity="0.2"/>
<path d="M1270.67 763.341C1224.21 826.951 1120.6 856.607 990.357 852.934C860.158 849.263 703.55 812.283 551.415 742.843C399.279 673.403 280.465 584.673 211.344 497.368C142.199 410.033 122.881 324.269 169.335 260.659C215.789 197.049 319.399 167.393 449.644 171.066C579.842 174.737 736.45 211.717 888.585 281.157C1040.72 350.596 1159.54 439.327 1228.66 526.632C1297.8 613.967 1317.12 699.731 1270.67 763.341Z" stroke="white" stroke-opacity="0.2"/>
<path d="M1334.21 381.892C1346.22 417.346 1340.56 454.786 1319.95 492.16C1299.35 529.536 1263.81 566.816 1216.13 601.912C1120.77 672.103 976.951 733.503 807.259 769.449C637.566 805.395 474.18 809.072 347.208 785.976C283.721 774.428 229.363 756.191 187.877 731.968C146.394 707.747 117.812 677.561 105.795 642.107C93.779 606.654 99.4404 569.213 120.047 531.84C140.655 494.464 176.196 457.184 223.873 422.088C319.227 351.896 463.05 290.497 632.742 254.551C802.435 218.605 965.821 214.928 1092.79 238.024C1156.28 249.572 1210.64 267.808 1252.12 292.031C1293.61 316.252 1322.19 346.439 1334.21 381.892Z" stroke="white" stroke-opacity="0.2"/>
<path d="M1334.21 642.107C1322.19 677.561 1293.61 707.747 1252.12 731.968C1210.64 756.191 1156.28 774.428 1092.79 785.976C965.822 809.072 802.435 805.395 632.742 769.449C463.05 733.502 319.228 672.103 223.874 601.912C176.196 566.816 140.655 529.536 120.047 492.16C99.4406 454.786 93.7792 417.346 105.796 381.892C117.812 346.439 146.395 316.252 187.878 292.031C229.363 267.808 283.721 249.572 347.208 238.024C474.18 214.928 637.567 218.605 807.259 254.551C976.952 290.497 1120.77 351.896 1216.13 422.088C1263.81 457.184 1299.35 494.464 1319.95 531.84C1340.56 569.213 1346.22 606.654 1334.21 642.107Z" stroke="white" stroke-opacity="0.2"/>
</svg>
