<svg width="243" height="131" viewBox="0 0 243 131" fill="none" xmlns="http://www.w3.org/2000/svg">
<g filter="url(#filter0_dd_1_1574)">
<rect width="184" height="60" rx="13.0358" transform="matrix(-1 0 0 1 216 14)" fill="white"/>
<path d="M88.5256 52L95.9896 35.08H97.6696L105.134 52H103.094L101.222 47.68H92.4136L90.5656 52H88.5256ZM96.8056 37.384L93.1336 46.024H100.526L96.8536 37.384H96.8056Z" fill="#000C2E"/>
<path d="M111.801 52.216C110.761 52.216 109.849 51.968 109.065 51.472C108.297 50.976 107.697 50.28 107.265 49.384C106.849 48.472 106.641 47.4 106.641 46.168C106.641 44.92 106.849 43.848 107.265 42.952C107.697 42.04 108.297 41.344 109.065 40.864C109.849 40.368 110.761 40.12 111.801 40.12C112.713 40.12 113.513 40.32 114.201 40.72C114.905 41.12 115.425 41.672 115.761 42.376V35.08H117.705V52H115.809V49.864C115.473 50.6 114.953 51.176 114.249 51.592C113.545 52.008 112.729 52.216 111.801 52.216ZM112.209 50.656C113.297 50.656 114.169 50.272 114.825 49.504C115.481 48.72 115.809 47.608 115.809 46.168C115.809 44.712 115.481 43.6 114.825 42.832C114.169 42.064 113.297 41.68 112.209 41.68C111.105 41.68 110.225 42.064 109.569 42.832C108.929 43.6 108.609 44.712 108.609 46.168C108.609 47.608 108.929 48.72 109.569 49.504C110.225 50.272 111.105 50.656 112.209 50.656Z" fill="#000C2E"/>
<path d="M126.301 52.216C125.165 52.216 124.181 51.968 123.349 51.472C122.517 50.976 121.869 50.28 121.405 49.384C120.957 48.472 120.733 47.4 120.733 46.168C120.733 44.936 120.957 43.872 121.405 42.976C121.869 42.064 122.517 41.36 123.349 40.864C124.181 40.368 125.165 40.12 126.301 40.12C127.421 40.12 128.397 40.368 129.229 40.864C130.077 41.36 130.725 42.064 131.173 42.976C131.637 43.872 131.869 44.936 131.869 46.168C131.869 47.4 131.637 48.472 131.173 49.384C130.725 50.28 130.077 50.976 129.229 51.472C128.397 51.968 127.421 52.216 126.301 52.216ZM126.301 50.656C127.389 50.656 128.261 50.272 128.917 49.504C129.573 48.72 129.901 47.608 129.901 46.168C129.901 44.712 129.573 43.6 128.917 42.832C128.261 42.064 127.389 41.68 126.301 41.68C125.197 41.68 124.317 42.064 123.661 42.832C123.021 43.6 122.701 44.712 122.701 46.168C122.701 47.608 123.021 48.72 123.661 49.504C124.317 50.272 125.197 50.656 126.301 50.656Z" fill="#000C2E"/>
<path d="M140.793 52.216C139.865 52.216 139.049 52.008 138.345 51.592C137.657 51.176 137.137 50.608 136.785 49.888V52H134.889V35.08H136.833V42.352C137.169 41.664 137.689 41.12 138.393 40.72C139.097 40.32 139.897 40.12 140.793 40.12C141.833 40.12 142.737 40.368 143.505 40.864C144.289 41.344 144.889 42.04 145.305 42.952C145.737 43.848 145.953 44.92 145.953 46.168C145.953 47.4 145.737 48.472 145.305 49.384C144.889 50.28 144.289 50.976 143.505 51.472C142.737 51.968 141.833 52.216 140.793 52.216ZM140.385 50.656C141.473 50.656 142.345 50.272 143.001 49.504C143.657 48.72 143.985 47.608 143.985 46.168C143.985 44.712 143.657 43.6 143.001 42.832C142.345 42.064 141.473 41.68 140.385 41.68C139.297 41.68 138.425 42.064 137.769 42.832C137.113 43.6 136.785 44.712 136.785 46.168C136.785 47.608 137.113 48.72 137.769 49.504C138.425 50.272 139.297 50.656 140.385 50.656Z" fill="#000C2E"/>
<path d="M154.237 52.216C152.397 52.216 150.941 51.68 149.869 50.608C148.797 49.52 148.261 48.048 148.261 46.192C148.261 44.992 148.501 43.936 148.981 43.024C149.461 42.096 150.117 41.384 150.949 40.888C151.797 40.376 152.773 40.12 153.877 40.12C155.461 40.12 156.701 40.632 157.597 41.656C158.493 42.664 158.941 44.056 158.941 45.832V46.576H150.157C150.221 47.904 150.605 48.92 151.309 49.624C152.013 50.312 152.989 50.656 154.237 50.656C154.941 50.656 155.613 50.552 156.253 50.344C156.893 50.12 157.501 49.76 158.077 49.264L158.749 50.632C158.221 51.128 157.549 51.52 156.733 51.808C155.917 52.08 155.085 52.216 154.237 52.216ZM153.925 41.56C152.821 41.56 151.949 41.904 151.309 42.592C150.669 43.28 150.293 44.184 150.181 45.304H157.261C157.213 44.12 156.901 43.2 156.325 42.544C155.765 41.888 154.965 41.56 153.925 41.56Z" fill="#000C2E"/>
<rect x="-1.62947" y="1.62947" width="180.741" height="56.7411" rx="11.4063" transform="matrix(-1 0 0 1 212.741 14)" stroke="#00ADB5" stroke-width="3.25895"/>
</g>
<g filter="url(#filter1_dd_1_1574)">
<circle cx="6" cy="6" r="6" transform="matrix(-1 0 0 1 129 66)" fill="white"/>
<circle cx="6" cy="6" r="4.77789" transform="matrix(-1 0 0 1 129 66)" stroke="#00ADB5" stroke-width="2.44421"/>
</g>
<g filter="url(#filter2_dd_1_1574)">
<circle cx="6" cy="6" r="6" transform="matrix(-1 0 0 1 39 38)" fill="white"/>
<circle cx="6" cy="6" r="4.77789" transform="matrix(-1 0 0 1 39 38)" stroke="#00ADB5" stroke-width="2.44421"/>
</g>
<defs>
<filter id="filter0_dd_1_1574" x="5.92842" y="0.964211" width="236.143" height="125.179" filterUnits="userSpaceOnUse" color-interpolation-filters="sRGB">
<feFlood flood-opacity="0" result="BackgroundImageFix"/>
<feColorMatrix in="SourceAlpha" type="matrix" values="0 0 0 0 0 0 0 0 0 0 0 0 0 0 0 0 0 0 127 0" result="hardAlpha"/>
<feOffset dy="26.0716"/>
<feGaussianBlur stdDeviation="13.0358"/>
<feColorMatrix type="matrix" values="0 0 0 0 0 0 0 0 0 0 0 0 0 0 0 0 0 0 0.16 0"/>
<feBlend mode="normal" in2="BackgroundImageFix" result="effect1_dropShadow_1_1574"/>
<feColorMatrix in="SourceAlpha" type="matrix" values="0 0 0 0 0 0 0 0 0 0 0 0 0 0 0 0 0 0 127 0" result="hardAlpha"/>
<feOffset/>
<feGaussianBlur stdDeviation="6.51789"/>
<feColorMatrix type="matrix" values="0 0 0 0 0 0 0 0 0 0 0 0 0 0 0 0 0 0 0.12 0"/>
<feBlend mode="normal" in2="effect1_dropShadow_1_1574" result="effect2_dropShadow_1_1574"/>
<feBlend mode="normal" in="SourceGraphic" in2="effect2_dropShadow_1_1574" result="shape"/>
</filter>
<filter id="filter1_dd_1_1574" x="90.9284" y="52.9642" width="64.1432" height="77.1789" filterUnits="userSpaceOnUse" color-interpolation-filters="sRGB">
<feFlood flood-opacity="0" result="BackgroundImageFix"/>
<feColorMatrix in="SourceAlpha" type="matrix" values="0 0 0 0 0 0 0 0 0 0 0 0 0 0 0 0 0 0 127 0" result="hardAlpha"/>
<feOffset dy="26.0716"/>
<feGaussianBlur stdDeviation="13.0358"/>
<feColorMatrix type="matrix" values="0 0 0 0 0 0 0 0 0 0 0 0 0 0 0 0 0 0 0.16 0"/>
<feBlend mode="normal" in2="BackgroundImageFix" result="effect1_dropShadow_1_1574"/>
<feColorMatrix in="SourceAlpha" type="matrix" values="0 0 0 0 0 0 0 0 0 0 0 0 0 0 0 0 0 0 127 0" result="hardAlpha"/>
<feOffset/>
<feGaussianBlur stdDeviation="6.51789"/>
<feColorMatrix type="matrix" values="0 0 0 0 0 0 0 0 0 0 0 0 0 0 0 0 0 0 0.12 0"/>
<feBlend mode="normal" in2="effect1_dropShadow_1_1574" result="effect2_dropShadow_1_1574"/>
<feBlend mode="normal" in="SourceGraphic" in2="effect2_dropShadow_1_1574" result="shape"/>
</filter>
<filter id="filter2_dd_1_1574" x="0.928423" y="24.9642" width="64.1432" height="77.1789" filterUnits="userSpaceOnUse" color-interpolation-filters="sRGB">
<feFlood flood-opacity="0" result="BackgroundImageFix"/>
<feColorMatrix in="SourceAlpha" type="matrix" values="0 0 0 0 0 0 0 0 0 0 0 0 0 0 0 0 0 0 127 0" result="hardAlpha"/>
<feOffset dy="26.0716"/>
<feGaussianBlur stdDeviation="13.0358"/>
<feColorMatrix type="matrix" values="0 0 0 0 0 0 0 0 0 0 0 0 0 0 0 0 0 0 0.16 0"/>
<feBlend mode="normal" in2="BackgroundImageFix" result="effect1_dropShadow_1_1574"/>
<feColorMatrix in="SourceAlpha" type="matrix" values="0 0 0 0 0 0 0 0 0 0 0 0 0 0 0 0 0 0 127 0" result="hardAlpha"/>
<feOffset/>
<feGaussianBlur stdDeviation="6.51789"/>
<feColorMatrix type="matrix" values="0 0 0 0 0 0 0 0 0 0 0 0 0 0 0 0 0 0 0.12 0"/>
<feBlend mode="normal" in2="effect1_dropShadow_1_1574" result="effect2_dropShadow_1_1574"/>
<feBlend mode="normal" in="SourceGraphic" in2="effect2_dropShadow_1_1574" result="shape"/>
</filter>
</defs>
</svg>
