<svg width="242" height="131" viewBox="0 0 242 131" fill="none" xmlns="http://www.w3.org/2000/svg">
<g filter="url(#filter0_dd_1_1647)">
<rect x="27" y="18" width="184" height="60" rx="13.0358" fill="white"/>
<path d="M54.6441 55.18C52.3774 55.18 50.6507 54.54 49.4641 53.26C48.2774 51.98 47.6841 50.2133 47.6841 47.96C47.6841 46.4666 47.9507 45.18 48.4841 44.1C49.0174 43.02 49.7841 42.1866 50.7841 41.6C51.7841 41.0133 52.9907 40.72 54.4041 40.72C55.4041 40.72 56.3241 40.8733 57.1641 41.18C58.0041 41.4733 58.7174 41.9066 59.3041 42.48L58.6641 43.8C58.0241 43.24 57.3641 42.8333 56.6841 42.58C56.0041 42.3266 55.2374 42.2 54.3841 42.2C52.7841 42.2 51.5574 42.7066 50.7041 43.72C49.8507 44.72 49.4241 46.1333 49.4241 47.96C49.4241 49.8266 49.8641 51.2533 50.7441 52.24C51.6241 53.2266 52.9374 53.72 54.6841 53.72C55.8174 53.72 56.9041 53.5266 57.9441 53.14V48.96H54.3641V47.66H59.3641V54.18C58.9907 54.38 58.5374 54.5533 58.0041 54.7C57.4841 54.8466 56.9307 54.96 56.3441 55.04C55.7574 55.1333 55.1907 55.18 54.6441 55.18Z" fill="#000C2E"/>
<path d="M66.6358 55.18C65.6891 55.18 64.8691 54.9733 64.1758 54.56C63.4825 54.1466 62.9425 53.5666 62.5558 52.82C62.1825 52.06 61.9958 51.1666 61.9958 50.14C61.9958 49.1133 62.1825 48.2266 62.5558 47.48C62.9425 46.72 63.4825 46.1333 64.1758 45.72C64.8691 45.3066 65.6891 45.1 66.6358 45.1C67.5691 45.1 68.3825 45.3066 69.0758 45.72C69.7825 46.1333 70.3225 46.72 70.6958 47.48C71.0825 48.2266 71.2758 49.1133 71.2758 50.14C71.2758 51.1666 71.0825 52.06 70.6958 52.82C70.3225 53.5666 69.7825 54.1466 69.0758 54.56C68.3825 54.9733 67.5691 55.18 66.6358 55.18ZM66.6358 53.88C67.5425 53.88 68.2691 53.56 68.8158 52.92C69.3625 52.2666 69.6358 51.34 69.6358 50.14C69.6358 48.9266 69.3625 48 68.8158 47.36C68.2691 46.72 67.5425 46.4 66.6358 46.4C65.7158 46.4 64.9825 46.72 64.4358 47.36C63.9025 48 63.6358 48.9266 63.6358 50.14C63.6358 51.34 63.9025 52.2666 64.4358 52.92C64.9825 53.56 65.7158 53.88 66.6358 53.88Z" fill="#000C2E"/>
<path d="M77.8491 55.18C76.9024 55.18 76.0824 54.9733 75.3891 54.56C74.6957 54.1466 74.1557 53.5666 73.7691 52.82C73.3957 52.06 73.2091 51.1666 73.2091 50.14C73.2091 49.1133 73.3957 48.2266 73.7691 47.48C74.1557 46.72 74.6957 46.1333 75.3891 45.72C76.0824 45.3066 76.9024 45.1 77.8491 45.1C78.7824 45.1 79.5957 45.3066 80.2891 45.72C80.9957 46.1333 81.5358 46.72 81.9091 47.48C82.2958 48.2266 82.4891 49.1133 82.4891 50.14C82.4891 51.1666 82.2958 52.06 81.9091 52.82C81.5358 53.5666 80.9957 54.1466 80.2891 54.56C79.5957 54.9733 78.7824 55.18 77.8491 55.18ZM77.8491 53.88C78.7557 53.88 79.4824 53.56 80.0291 52.92C80.5758 52.2666 80.8491 51.34 80.8491 50.14C80.8491 48.9266 80.5758 48 80.0291 47.36C79.4824 46.72 78.7557 46.4 77.8491 46.4C76.9291 46.4 76.1957 46.72 75.6491 47.36C75.1157 48 74.8491 48.9266 74.8491 50.14C74.8491 51.34 75.1157 52.2666 75.6491 52.92C76.1957 53.56 76.9291 53.88 77.8491 53.88Z" fill="#000C2E"/>
<path d="M89.3224 58.78C88.4824 58.78 87.689 58.6666 86.9424 58.44C86.209 58.2266 85.5557 57.9 84.9824 57.46L85.5224 56.28C86.1224 56.7066 86.7157 57.0133 87.3024 57.2C87.9024 57.3866 88.549 57.48 89.2424 57.48C91.1624 57.48 92.1224 56.4933 92.1224 54.52V52.8C91.8424 53.4133 91.4024 53.9 90.8024 54.26C90.2157 54.6066 89.5424 54.78 88.7824 54.78C87.889 54.78 87.1157 54.5733 86.4624 54.16C85.809 53.7466 85.3024 53.18 84.9424 52.46C84.5957 51.7266 84.4224 50.88 84.4224 49.92C84.4224 48.96 84.5957 48.12 84.9424 47.4C85.3024 46.6666 85.809 46.1 86.4624 45.7C87.1157 45.3 87.889 45.1 88.7824 45.1C89.5424 45.1 90.2157 45.2733 90.8024 45.62C91.4024 45.9666 91.8424 46.44 92.1224 47.04V45.28H93.7024V54.3C93.7024 55.7933 93.329 56.9133 92.5824 57.66C91.849 58.4066 90.7624 58.78 89.3224 58.78ZM89.0824 53.46C90.0157 53.46 90.7557 53.14 91.3024 52.5C91.849 51.86 92.1224 51 92.1224 49.92C92.1224 48.84 91.849 47.9866 91.3024 47.36C90.7557 46.72 90.0157 46.4 89.0824 46.4C88.1624 46.4 87.429 46.72 86.8824 47.36C86.3357 47.9866 86.0624 48.84 86.0624 49.92C86.0624 51 86.3357 51.86 86.8824 52.5C87.429 53.14 88.1624 53.46 89.0824 53.46Z" fill="#000C2E"/>
<path d="M99.8211 55.18C98.8344 55.18 98.0878 54.8933 97.5811 54.32C97.0878 53.7333 96.8411 52.8866 96.8411 51.78V40.9H98.4611V51.66C98.4611 53.0866 99.0278 53.8 100.161 53.8C100.494 53.8 100.794 53.76 101.061 53.68L101.021 55.04C100.608 55.1333 100.208 55.18 99.8211 55.18Z" fill="#000C2E"/>
<path d="M107.141 55.18C105.608 55.18 104.395 54.7333 103.501 53.84C102.608 52.9333 102.161 51.7066 102.161 50.16C102.161 49.16 102.361 48.28 102.761 47.52C103.161 46.7466 103.708 46.1533 104.401 45.74C105.108 45.3133 105.921 45.1 106.841 45.1C108.161 45.1 109.195 45.5266 109.941 46.38C110.688 47.22 111.061 48.38 111.061 49.86V50.48H103.741C103.795 51.5866 104.115 52.4333 104.701 53.02C105.288 53.5933 106.101 53.88 107.141 53.88C107.728 53.88 108.288 53.7933 108.821 53.62C109.355 53.4333 109.861 53.1333 110.341 52.72L110.901 53.86C110.461 54.2733 109.901 54.6 109.221 54.84C108.541 55.0666 107.848 55.18 107.141 55.18ZM106.881 46.3C105.961 46.3 105.235 46.5866 104.701 47.16C104.168 47.7333 103.855 48.4866 103.761 49.42H109.661C109.621 48.4333 109.361 47.6666 108.881 47.12C108.415 46.5733 107.748 46.3 106.881 46.3Z" fill="#000C2E"/>
<path d="M117.603 55L123.823 40.9H125.223L131.443 55H129.743L128.183 51.4H120.843L119.303 55H117.603ZM124.503 42.82L121.443 50.02H127.603L124.543 42.82H124.503Z" fill="#000C2E"/>
<path d="M133.413 55V45.28H134.993V46.94C135.313 46.3266 135.766 45.8666 136.353 45.56C136.94 45.2533 137.6 45.1 138.333 45.1C140.64 45.1 141.793 46.38 141.793 48.94V55H140.173V49.04C140.173 48.1333 139.993 47.4733 139.633 47.06C139.286 46.6333 138.726 46.42 137.953 46.42C137.06 46.42 136.346 46.7 135.813 47.26C135.293 47.8066 135.033 48.54 135.033 49.46V55H133.413Z" fill="#000C2E"/>
<path d="M147.94 55.18C147.274 55.18 146.674 55.0533 146.14 54.8C145.62 54.5333 145.207 54.1733 144.9 53.72C144.594 53.2666 144.44 52.76 144.44 52.2C144.44 51.4933 144.62 50.9333 144.98 50.52C145.354 50.1066 145.96 49.8133 146.8 49.64C147.654 49.4533 148.814 49.36 150.28 49.36H150.92V48.74C150.92 47.9133 150.747 47.32 150.4 46.96C150.067 46.5866 149.527 46.4 148.78 46.4C148.194 46.4 147.627 46.4866 147.08 46.66C146.534 46.82 145.974 47.0866 145.4 47.46L144.84 46.28C145.347 45.92 145.96 45.6333 146.68 45.42C147.414 45.2066 148.114 45.1 148.78 45.1C150.034 45.1 150.96 45.4066 151.56 46.02C152.174 46.6333 152.48 47.5866 152.48 48.88V55H150.96V53.32C150.707 53.8933 150.314 54.3466 149.78 54.68C149.26 55.0133 148.647 55.18 147.94 55.18ZM148.2 53.96C149 53.96 149.654 53.6866 150.16 53.14C150.667 52.58 150.92 51.8733 150.92 51.02V50.42H150.3C149.22 50.42 148.367 50.4733 147.74 50.58C147.127 50.6733 146.694 50.8466 146.44 51.1C146.2 51.34 146.08 51.6733 146.08 52.1C146.08 52.6466 146.267 53.0933 146.64 53.44C147.027 53.7866 147.547 53.96 148.2 53.96Z" fill="#000C2E"/>
<path d="M158.566 55.18C157.579 55.18 156.832 54.8933 156.326 54.32C155.832 53.7333 155.586 52.8866 155.586 51.78V40.9H157.206V51.66C157.206 53.0866 157.772 53.8 158.906 53.8C159.239 53.8 159.539 53.76 159.806 53.68L159.766 55.04C159.352 55.1333 158.952 55.18 158.566 55.18Z" fill="#000C2E"/>
<path d="M162.509 58.6L164.169 54.84L160.069 45.28H161.829L165.049 53.16L168.289 45.28H169.989L164.209 58.6H162.509Z" fill="#000C2E"/>
<path d="M175.858 55.18C174.711 55.18 173.851 54.88 173.278 54.28C172.704 53.6666 172.418 52.7866 172.418 51.64V46.54H170.518V45.28H172.418V42.3H174.038V45.28H177.118V46.54H174.038V51.48C174.038 52.24 174.198 52.82 174.518 53.22C174.838 53.6066 175.358 53.8 176.078 53.8C176.291 53.8 176.504 53.7733 176.718 53.72C176.931 53.6666 177.124 53.6133 177.298 53.56L177.578 54.8C177.404 54.8933 177.151 54.98 176.818 55.06C176.484 55.14 176.164 55.18 175.858 55.18Z" fill="#000C2E"/>
<path d="M178.85 42.86V41.04H180.85V42.86H178.85ZM179.05 55V45.28H180.67V55H179.05Z" fill="#000C2E"/>
<path d="M187.918 55.18C186.945 55.18 186.105 54.9733 185.398 54.56C184.691 54.1333 184.145 53.54 183.758 52.78C183.385 52.0066 183.198 51.1066 183.198 50.08C183.198 48.5333 183.618 47.32 184.458 46.44C185.298 45.5466 186.451 45.1 187.918 45.1C188.518 45.1 189.111 45.2066 189.698 45.42C190.285 45.6333 190.771 45.9333 191.158 46.32L190.598 47.5C190.211 47.1266 189.785 46.8533 189.318 46.68C188.865 46.5066 188.431 46.42 188.018 46.42C187.005 46.42 186.225 46.74 185.678 47.38C185.131 48.0066 184.858 48.9133 184.858 50.1C184.858 51.26 185.131 52.18 185.678 52.86C186.225 53.5266 187.005 53.86 188.018 53.86C188.431 53.86 188.865 53.7733 189.318 53.6C189.785 53.4266 190.211 53.1466 190.598 52.76L191.158 53.94C190.771 54.3266 190.278 54.6333 189.678 54.86C189.091 55.0733 188.505 55.18 187.918 55.18Z" fill="#000C2E"/>
<rect x="28.6295" y="19.6295" width="180.741" height="56.7411" rx="11.4063" stroke="#00ADB5" stroke-width="3.25895"/>
</g>
<g filter="url(#filter1_dd_1_1647)">
<circle cx="119" cy="20" r="6" fill="white"/>
<circle cx="119" cy="20" r="4.77789" stroke="#00ADB5" stroke-width="2.44421"/>
</g>
<g filter="url(#filter2_dd_1_1647)">
<circle cx="209" cy="48" r="6" fill="white"/>
<circle cx="209" cy="48" r="4.77789" stroke="#00ADB5" stroke-width="2.44421"/>
</g>
<defs>
<filter id="filter0_dd_1_1647" x="0.928423" y="4.96421" width="236.143" height="125.179" filterUnits="userSpaceOnUse" color-interpolation-filters="sRGB">
<feFlood flood-opacity="0" result="BackgroundImageFix"/>
<feColorMatrix in="SourceAlpha" type="matrix" values="0 0 0 0 0 0 0 0 0 0 0 0 0 0 0 0 0 0 127 0" result="hardAlpha"/>
<feOffset dy="26.0716"/>
<feGaussianBlur stdDeviation="13.0358"/>
<feColorMatrix type="matrix" values="0 0 0 0 0 0 0 0 0 0 0 0 0 0 0 0 0 0 0.16 0"/>
<feBlend mode="normal" in2="BackgroundImageFix" result="effect1_dropShadow_1_1647"/>
<feColorMatrix in="SourceAlpha" type="matrix" values="0 0 0 0 0 0 0 0 0 0 0 0 0 0 0 0 0 0 127 0" result="hardAlpha"/>
<feOffset/>
<feGaussianBlur stdDeviation="6.51789"/>
<feColorMatrix type="matrix" values="0 0 0 0 0 0 0 0 0 0 0 0 0 0 0 0 0 0 0.12 0"/>
<feBlend mode="normal" in2="effect1_dropShadow_1_1647" result="effect2_dropShadow_1_1647"/>
<feBlend mode="normal" in="SourceGraphic" in2="effect2_dropShadow_1_1647" result="shape"/>
</filter>
<filter id="filter1_dd_1_1647" x="86.9284" y="0.964211" width="64.1432" height="77.1789" filterUnits="userSpaceOnUse" color-interpolation-filters="sRGB">
<feFlood flood-opacity="0" result="BackgroundImageFix"/>
<feColorMatrix in="SourceAlpha" type="matrix" values="0 0 0 0 0 0 0 0 0 0 0 0 0 0 0 0 0 0 127 0" result="hardAlpha"/>
<feOffset dy="26.0716"/>
<feGaussianBlur stdDeviation="13.0358"/>
<feColorMatrix type="matrix" values="0 0 0 0 0 0 0 0 0 0 0 0 0 0 0 0 0 0 0.16 0"/>
<feBlend mode="normal" in2="BackgroundImageFix" result="effect1_dropShadow_1_1647"/>
<feColorMatrix in="SourceAlpha" type="matrix" values="0 0 0 0 0 0 0 0 0 0 0 0 0 0 0 0 0 0 127 0" result="hardAlpha"/>
<feOffset/>
<feGaussianBlur stdDeviation="6.51789"/>
<feColorMatrix type="matrix" values="0 0 0 0 0 0 0 0 0 0 0 0 0 0 0 0 0 0 0.12 0"/>
<feBlend mode="normal" in2="effect1_dropShadow_1_1647" result="effect2_dropShadow_1_1647"/>
<feBlend mode="normal" in="SourceGraphic" in2="effect2_dropShadow_1_1647" result="shape"/>
</filter>
<filter id="filter2_dd_1_1647" x="176.928" y="28.9642" width="64.1432" height="77.1789" filterUnits="userSpaceOnUse" color-interpolation-filters="sRGB">
<feFlood flood-opacity="0" result="BackgroundImageFix"/>
<feColorMatrix in="SourceAlpha" type="matrix" values="0 0 0 0 0 0 0 0 0 0 0 0 0 0 0 0 0 0 127 0" result="hardAlpha"/>
<feOffset dy="26.0716"/>
<feGaussianBlur stdDeviation="13.0358"/>
<feColorMatrix type="matrix" values="0 0 0 0 0 0 0 0 0 0 0 0 0 0 0 0 0 0 0.16 0"/>
<feBlend mode="normal" in2="BackgroundImageFix" result="effect1_dropShadow_1_1647"/>
<feColorMatrix in="SourceAlpha" type="matrix" values="0 0 0 0 0 0 0 0 0 0 0 0 0 0 0 0 0 0 127 0" result="hardAlpha"/>
<feOffset/>
<feGaussianBlur stdDeviation="6.51789"/>
<feColorMatrix type="matrix" values="0 0 0 0 0 0 0 0 0 0 0 0 0 0 0 0 0 0 0.12 0"/>
<feBlend mode="normal" in2="effect1_dropShadow_1_1647" result="effect2_dropShadow_1_1647"/>
<feBlend mode="normal" in="SourceGraphic" in2="effect2_dropShadow_1_1647" result="shape"/>
</filter>
</defs>
</svg>
