<svg width="243" height="127" viewBox="0 0 243 127" fill="none" xmlns="http://www.w3.org/2000/svg">
<g filter="url(#filter0_dd_931_14846)">
<rect width="184" height="60" rx="13.0358" transform="matrix(-1 0 0 1 216 14)" fill="white"/>
<path d="M59.2587 51.18C57.872 51.18 56.6853 50.8866 55.6987 50.3C54.712 49.7133 53.952 48.88 53.4187 47.8C52.8987 46.72 52.6387 45.4333 52.6387 43.94C52.6387 42.46 52.8987 41.18 53.4187 40.1C53.952 39.02 54.712 38.1866 55.6987 37.6C56.6853 37.0133 57.872 36.72 59.2587 36.72C60.232 36.72 61.1253 36.8733 61.9387 37.18C62.7653 37.4866 63.4653 37.9333 64.0387 38.52L63.3987 39.86C62.7853 39.2866 62.1453 38.8733 61.4787 38.62C60.8253 38.3533 60.0987 38.22 59.2987 38.22C57.712 38.22 56.4987 38.72 55.6587 39.72C54.8187 40.72 54.3987 42.1266 54.3987 43.94C54.3987 45.7666 54.8187 47.18 55.6587 48.18C56.4987 49.18 57.712 49.68 59.2987 49.68C60.0987 49.68 60.8253 49.5533 61.4787 49.3C62.1453 49.0333 62.7853 48.6133 63.3987 48.04L64.0387 49.38C63.4653 49.9533 62.7653 50.4 61.9387 50.72C61.1253 51.0266 60.232 51.18 59.2587 51.18Z" fill="#000C2E"/>
<path d="M69.9804 51V38.32H64.8604V36.9H76.7604V38.32H71.6404V51H69.9804Z" fill="#000C2E"/>
<path d="M78.6516 51V36.9H84.2316C85.7516 36.9 86.9116 37.2533 87.7116 37.96C88.525 38.6666 88.9316 39.6733 88.9316 40.98C88.9316 42.02 88.645 42.8733 88.0716 43.54C87.5116 44.2066 86.7116 44.64 85.6716 44.84C86.285 45.0533 86.8116 45.5733 87.2516 46.4L89.7316 51H87.9316L85.4916 46.48C85.185 45.92 84.8316 45.54 84.4316 45.34C84.0316 45.14 83.505 45.04 82.8516 45.04H80.2916V51H78.6516ZM80.2916 43.74H83.9916C86.205 43.74 87.3116 42.82 87.3116 40.98C87.3116 39.1666 86.205 38.26 83.9916 38.26H80.2916V43.74Z" fill="#000C2E"/>
<path d="M91.8374 52.26L90.5574 51.88L95.6774 35.96L96.9774 36.34L91.8374 52.26Z" fill="#000C2E"/>
<path d="M104.346 51.18C102.96 51.18 101.773 50.8866 100.786 50.3C99.7995 49.7133 99.0395 48.88 98.5062 47.8C97.9862 46.72 97.7262 45.4333 97.7262 43.94C97.7262 42.46 97.9862 41.18 98.5062 40.1C99.0395 39.02 99.7995 38.1866 100.786 37.6C101.773 37.0133 102.96 36.72 104.346 36.72C105.32 36.72 106.213 36.8733 107.026 37.18C107.853 37.4866 108.553 37.9333 109.126 38.52L108.486 39.86C107.873 39.2866 107.233 38.8733 106.566 38.62C105.913 38.3533 105.186 38.22 104.386 38.22C102.8 38.22 101.586 38.72 100.746 39.72C99.9062 40.72 99.4862 42.1266 99.4862 43.94C99.4862 45.7666 99.9062 47.18 100.746 48.18C101.586 49.18 102.8 49.68 104.386 49.68C105.186 49.68 105.913 49.5533 106.566 49.3C107.233 49.0333 107.873 48.6133 108.486 48.04L109.126 49.38C108.553 49.9533 107.853 50.4 107.026 50.72C106.213 51.0266 105.32 51.18 104.346 51.18Z" fill="#000C2E"/>
<path d="M115.068 51V38.32H109.948V36.9H121.848V38.32H116.728V51H115.068Z" fill="#000C2E"/>
<path d="M120.856 51L127.076 36.9H128.476L134.696 51H132.996L131.436 47.4H124.096L122.556 51H120.856ZM127.756 38.82L124.696 46.02H130.856L127.796 38.82H127.756Z" fill="#000C2E"/>
<path d="M136.651 52.26L135.371 51.88L140.491 35.96L141.791 36.34L136.651 52.26Z" fill="#000C2E"/>
<path d="M141.505 51L147.725 36.9H149.125L155.345 51H153.645L152.085 47.4H144.745L143.205 51H141.505ZM148.405 38.82L145.345 46.02H151.505L148.445 38.82H148.405Z" fill="#000C2E"/>
<path d="M157.535 51V36.9H163.115C164.635 36.9 165.795 37.2666 166.595 38C167.409 38.7333 167.815 39.78 167.815 41.14C167.815 42.4866 167.409 43.5333 166.595 44.28C165.795 45.0133 164.635 45.38 163.115 45.38H159.175V51H157.535ZM159.175 44H162.915C165.102 44 166.195 43.0466 166.195 41.14C166.195 39.22 165.102 38.26 162.915 38.26H159.175V44Z" fill="#000C2E"/>
<path d="M170.291 51V36.9H175.871C177.391 36.9 178.551 37.2533 179.351 37.96C180.165 38.6666 180.571 39.6733 180.571 40.98C180.571 42.02 180.285 42.8733 179.711 43.54C179.151 44.2066 178.351 44.64 177.311 44.84C177.925 45.0533 178.451 45.5733 178.891 46.4L181.371 51H179.571L177.131 46.48C176.825 45.92 176.471 45.54 176.071 45.34C175.671 45.14 175.145 45.04 174.491 45.04H171.931V51H170.291ZM171.931 43.74H175.631C177.845 43.74 178.951 42.82 178.951 40.98C178.951 39.1666 177.845 38.26 175.631 38.26H171.931V43.74Z" fill="#000C2E"/>
<path d="M189.33 51.18C187.477 51.18 186.07 50.6933 185.11 49.72C184.15 48.7333 183.67 47.3 183.67 45.42V36.9H185.31V45.34C185.31 48.26 186.65 49.72 189.33 49.72C191.984 49.72 193.31 48.26 193.31 45.34V36.9H194.95V45.42C194.95 47.3 194.47 48.7333 193.51 49.72C192.564 50.6933 191.17 51.18 189.33 51.18Z" fill="#000C2E"/>
<rect x="-1.62947" y="1.62947" width="180.741" height="56.7411" rx="11.4063" transform="matrix(-1 0 0 1 212.741 14)" stroke="#00ADB5" stroke-width="3.25895"/>
</g>
<g filter="url(#filter1_dd_931_14846)">
<circle cx="6" cy="6" r="6" transform="matrix(-1 0 0 1 39 38)" fill="white"/>
<circle cx="6" cy="6" r="4.77789" transform="matrix(-1 0 0 1 39 38)" stroke="#00ADB5" stroke-width="2.44421"/>
</g>
<defs>
<filter id="filter0_dd_931_14846" x="5.92842" y="0.964211" width="236.143" height="125.179" filterUnits="userSpaceOnUse" color-interpolation-filters="sRGB">
<feFlood flood-opacity="0" result="BackgroundImageFix"/>
<feColorMatrix in="SourceAlpha" type="matrix" values="0 0 0 0 0 0 0 0 0 0 0 0 0 0 0 0 0 0 127 0" result="hardAlpha"/>
<feOffset dy="26.0716"/>
<feGaussianBlur stdDeviation="13.0358"/>
<feColorMatrix type="matrix" values="0 0 0 0 0 0 0 0 0 0 0 0 0 0 0 0 0 0 0.16 0"/>
<feBlend mode="normal" in2="BackgroundImageFix" result="effect1_dropShadow_931_14846"/>
<feColorMatrix in="SourceAlpha" type="matrix" values="0 0 0 0 0 0 0 0 0 0 0 0 0 0 0 0 0 0 127 0" result="hardAlpha"/>
<feOffset/>
<feGaussianBlur stdDeviation="6.51789"/>
<feColorMatrix type="matrix" values="0 0 0 0 0 0 0 0 0 0 0 0 0 0 0 0 0 0 0.12 0"/>
<feBlend mode="normal" in2="effect1_dropShadow_931_14846" result="effect2_dropShadow_931_14846"/>
<feBlend mode="normal" in="SourceGraphic" in2="effect2_dropShadow_931_14846" result="shape"/>
</filter>
<filter id="filter1_dd_931_14846" x="0.928423" y="24.9642" width="64.1432" height="77.1789" filterUnits="userSpaceOnUse" color-interpolation-filters="sRGB">
<feFlood flood-opacity="0" result="BackgroundImageFix"/>
<feColorMatrix in="SourceAlpha" type="matrix" values="0 0 0 0 0 0 0 0 0 0 0 0 0 0 0 0 0 0 127 0" result="hardAlpha"/>
<feOffset dy="26.0716"/>
<feGaussianBlur stdDeviation="13.0358"/>
<feColorMatrix type="matrix" values="0 0 0 0 0 0 0 0 0 0 0 0 0 0 0 0 0 0 0.16 0"/>
<feBlend mode="normal" in2="BackgroundImageFix" result="effect1_dropShadow_931_14846"/>
<feColorMatrix in="SourceAlpha" type="matrix" values="0 0 0 0 0 0 0 0 0 0 0 0 0 0 0 0 0 0 127 0" result="hardAlpha"/>
<feOffset/>
<feGaussianBlur stdDeviation="6.51789"/>
<feColorMatrix type="matrix" values="0 0 0 0 0 0 0 0 0 0 0 0 0 0 0 0 0 0 0.12 0"/>
<feBlend mode="normal" in2="effect1_dropShadow_931_14846" result="effect2_dropShadow_931_14846"/>
<feBlend mode="normal" in="SourceGraphic" in2="effect2_dropShadow_931_14846" result="shape"/>
</filter>
</defs>
</svg>
