<svg width="243" height="131" viewBox="0 0 243 131" fill="none" xmlns="http://www.w3.org/2000/svg">
<g filter="url(#filter0_dd_1_1467)">
<rect width="184" height="60" rx="13.0358" transform="matrix(-1 0 0 1 216 18)" fill="white"/>
<path d="M91.9987 56.216C90.3347 56.216 88.9107 55.864 87.7267 55.16C86.5427 54.456 85.6307 53.456 84.9907 52.16C84.3667 50.864 84.0547 49.32 84.0547 47.528C84.0547 45.752 84.3667 44.216 84.9907 42.92C85.6307 41.624 86.5427 40.624 87.7267 39.92C88.9107 39.216 90.3347 38.864 91.9987 38.864C93.1667 38.864 94.2387 39.048 95.2147 39.416C96.2067 39.784 97.0467 40.32 97.7347 41.024L96.9667 42.632C96.2307 41.944 95.4627 41.448 94.6627 41.144C93.8787 40.824 93.0067 40.664 92.0467 40.664C90.1427 40.664 88.6867 41.264 87.6787 42.464C86.6707 43.664 86.1667 45.352 86.1667 47.528C86.1667 49.72 86.6707 51.416 87.6787 52.616C88.6867 53.816 90.1427 54.416 92.0467 54.416C93.0067 54.416 93.8787 54.264 94.6627 53.96C95.4627 53.64 96.2307 53.136 96.9667 52.448L97.7347 54.056C97.0467 54.744 96.2067 55.28 95.2147 55.664C94.2387 56.032 93.1667 56.216 91.9987 56.216Z" fill="#000C2E"/>
<path d="M104.667 56.216C103.531 56.216 102.547 55.968 101.715 55.472C100.883 54.976 100.235 54.28 99.7714 53.384C99.3234 52.472 99.0994 51.4 99.0994 50.168C99.0994 48.936 99.3234 47.872 99.7714 46.976C100.235 46.064 100.883 45.36 101.715 44.864C102.547 44.368 103.531 44.12 104.667 44.12C105.787 44.12 106.763 44.368 107.595 44.864C108.443 45.36 109.091 46.064 109.539 46.976C110.003 47.872 110.235 48.936 110.235 50.168C110.235 51.4 110.003 52.472 109.539 53.384C109.091 54.28 108.443 54.976 107.595 55.472C106.763 55.968 105.787 56.216 104.667 56.216ZM104.667 54.656C105.755 54.656 106.627 54.272 107.283 53.504C107.939 52.72 108.267 51.608 108.267 50.168C108.267 48.712 107.939 47.6 107.283 46.832C106.627 46.064 105.755 45.68 104.667 45.68C103.563 45.68 102.683 46.064 102.027 46.832C101.387 47.6 101.067 48.712 101.067 50.168C101.067 51.608 101.387 52.72 102.027 53.504C102.683 54.272 103.563 54.656 104.667 54.656Z" fill="#000C2E"/>
<path d="M113.255 56V44.336H115.151V46.424C115.775 45.016 117.055 44.24 118.991 44.096L119.687 44.024L119.831 45.704L118.607 45.848C117.503 45.944 116.663 46.296 116.087 46.904C115.511 47.496 115.223 48.312 115.223 49.352V56H113.255Z" fill="#000C2E"/>
<path d="M127.072 56.216C125.232 56.216 123.776 55.68 122.704 54.608C121.632 53.52 121.096 52.048 121.096 50.192C121.096 48.992 121.336 47.936 121.816 47.024C122.296 46.096 122.952 45.384 123.784 44.888C124.632 44.376 125.608 44.12 126.712 44.12C128.296 44.12 129.536 44.632 130.432 45.656C131.328 46.664 131.776 48.056 131.776 49.832V50.576H122.992C123.056 51.904 123.44 52.92 124.144 53.624C124.848 54.312 125.824 54.656 127.072 54.656C127.776 54.656 128.448 54.552 129.088 54.344C129.728 54.12 130.336 53.76 130.912 53.264L131.584 54.632C131.056 55.128 130.384 55.52 129.568 55.808C128.752 56.08 127.92 56.216 127.072 56.216ZM126.76 45.56C125.656 45.56 124.784 45.904 124.144 46.592C123.504 47.28 123.128 48.184 123.016 49.304H130.096C130.048 48.12 129.736 47.2 129.16 46.544C128.6 45.888 127.8 45.56 126.76 45.56Z" fill="#000C2E"/>
<path d="M134.852 50.408V48.8H141.572V50.408H134.852Z" fill="#000C2E"/>
<path d="M142.667 56.168L142.523 54.512L143.963 54.416C144.779 54.352 145.403 54.072 145.835 53.576C146.267 53.064 146.483 52.368 146.483 51.488V39.08H148.451V51.512C148.451 52.904 148.091 53.992 147.371 54.776C146.651 55.544 145.603 55.976 144.227 56.072L142.667 56.168Z" fill="#000C2E"/>
<path d="M158.204 56.216C156.876 56.216 155.676 56.048 154.604 55.712C153.532 55.36 152.604 54.856 151.82 54.2L152.516 52.616C153.332 53.24 154.188 53.704 155.084 54.008C155.98 54.312 157.02 54.464 158.204 54.464C159.644 54.464 160.708 54.2 161.396 53.672C162.1 53.128 162.452 52.416 162.452 51.536C162.452 50.832 162.196 50.272 161.684 49.856C161.188 49.44 160.348 49.112 159.164 48.872L156.668 48.368C155.164 48.048 154.036 47.528 153.284 46.808C152.548 46.072 152.18 45.096 152.18 43.88C152.18 42.872 152.436 41.992 152.948 41.24C153.476 40.488 154.204 39.904 155.132 39.488C156.06 39.072 157.132 38.864 158.348 38.864C159.484 38.864 160.54 39.048 161.516 39.416C162.492 39.768 163.316 40.28 163.988 40.952L163.292 42.488C162.572 41.832 161.812 41.36 161.012 41.072C160.212 40.768 159.316 40.616 158.324 40.616C157.06 40.616 156.052 40.912 155.3 41.504C154.548 42.08 154.172 42.848 154.172 43.808C154.172 44.576 154.404 45.184 154.868 45.632C155.348 46.08 156.124 46.408 157.196 46.616L159.692 47.144C161.308 47.48 162.5 47.992 163.268 48.68C164.052 49.352 164.444 50.272 164.444 51.44C164.444 52.384 164.188 53.216 163.676 53.936C163.18 54.656 162.46 55.216 161.516 55.616C160.588 56.016 159.484 56.216 158.204 56.216Z" fill="#000C2E"/>
<rect x="-1.62947" y="1.62947" width="180.741" height="56.7411" rx="11.4063" transform="matrix(-1 0 0 1 212.741 18)" stroke="#00ADB5" stroke-width="3.25895"/>
</g>
<g filter="url(#filter1_dd_1_1467)">
<circle cx="6" cy="6" r="6" transform="matrix(-1 0 0 1 129 14)" fill="white"/>
<circle cx="6" cy="6" r="4.77789" transform="matrix(-1 0 0 1 129 14)" stroke="#00ADB5" stroke-width="2.44421"/>
</g>
<g filter="url(#filter2_dd_1_1467)">
<circle cx="6" cy="6" r="6" transform="matrix(-1 0 0 1 39 42)" fill="white"/>
<circle cx="6" cy="6" r="4.77789" transform="matrix(-1 0 0 1 39 42)" stroke="#00ADB5" stroke-width="2.44421"/>
</g>
<defs>
<filter id="filter0_dd_1_1467" x="5.92842" y="4.96421" width="236.143" height="125.179" filterUnits="userSpaceOnUse" color-interpolation-filters="sRGB">
<feFlood flood-opacity="0" result="BackgroundImageFix"/>
<feColorMatrix in="SourceAlpha" type="matrix" values="0 0 0 0 0 0 0 0 0 0 0 0 0 0 0 0 0 0 127 0" result="hardAlpha"/>
<feOffset dy="26.0716"/>
<feGaussianBlur stdDeviation="13.0358"/>
<feColorMatrix type="matrix" values="0 0 0 0 0 0 0 0 0 0 0 0 0 0 0 0 0 0 0.16 0"/>
<feBlend mode="normal" in2="BackgroundImageFix" result="effect1_dropShadow_1_1467"/>
<feColorMatrix in="SourceAlpha" type="matrix" values="0 0 0 0 0 0 0 0 0 0 0 0 0 0 0 0 0 0 127 0" result="hardAlpha"/>
<feOffset/>
<feGaussianBlur stdDeviation="6.51789"/>
<feColorMatrix type="matrix" values="0 0 0 0 0 0 0 0 0 0 0 0 0 0 0 0 0 0 0.12 0"/>
<feBlend mode="normal" in2="effect1_dropShadow_1_1467" result="effect2_dropShadow_1_1467"/>
<feBlend mode="normal" in="SourceGraphic" in2="effect2_dropShadow_1_1467" result="shape"/>
</filter>
<filter id="filter1_dd_1_1467" x="90.9284" y="0.964211" width="64.1432" height="77.1789" filterUnits="userSpaceOnUse" color-interpolation-filters="sRGB">
<feFlood flood-opacity="0" result="BackgroundImageFix"/>
<feColorMatrix in="SourceAlpha" type="matrix" values="0 0 0 0 0 0 0 0 0 0 0 0 0 0 0 0 0 0 127 0" result="hardAlpha"/>
<feOffset dy="26.0716"/>
<feGaussianBlur stdDeviation="13.0358"/>
<feColorMatrix type="matrix" values="0 0 0 0 0 0 0 0 0 0 0 0 0 0 0 0 0 0 0.16 0"/>
<feBlend mode="normal" in2="BackgroundImageFix" result="effect1_dropShadow_1_1467"/>
<feColorMatrix in="SourceAlpha" type="matrix" values="0 0 0 0 0 0 0 0 0 0 0 0 0 0 0 0 0 0 127 0" result="hardAlpha"/>
<feOffset/>
<feGaussianBlur stdDeviation="6.51789"/>
<feColorMatrix type="matrix" values="0 0 0 0 0 0 0 0 0 0 0 0 0 0 0 0 0 0 0.12 0"/>
<feBlend mode="normal" in2="effect1_dropShadow_1_1467" result="effect2_dropShadow_1_1467"/>
<feBlend mode="normal" in="SourceGraphic" in2="effect2_dropShadow_1_1467" result="shape"/>
</filter>
<filter id="filter2_dd_1_1467" x="0.928423" y="28.9642" width="64.1432" height="77.1789" filterUnits="userSpaceOnUse" color-interpolation-filters="sRGB">
<feFlood flood-opacity="0" result="BackgroundImageFix"/>
<feColorMatrix in="SourceAlpha" type="matrix" values="0 0 0 0 0 0 0 0 0 0 0 0 0 0 0 0 0 0 127 0" result="hardAlpha"/>
<feOffset dy="26.0716"/>
<feGaussianBlur stdDeviation="13.0358"/>
<feColorMatrix type="matrix" values="0 0 0 0 0 0 0 0 0 0 0 0 0 0 0 0 0 0 0.16 0"/>
<feBlend mode="normal" in2="BackgroundImageFix" result="effect1_dropShadow_1_1467"/>
<feColorMatrix in="SourceAlpha" type="matrix" values="0 0 0 0 0 0 0 0 0 0 0 0 0 0 0 0 0 0 127 0" result="hardAlpha"/>
<feOffset/>
<feGaussianBlur stdDeviation="6.51789"/>
<feColorMatrix type="matrix" values="0 0 0 0 0 0 0 0 0 0 0 0 0 0 0 0 0 0 0.12 0"/>
<feBlend mode="normal" in2="effect1_dropShadow_1_1467" result="effect2_dropShadow_1_1467"/>
<feBlend mode="normal" in="SourceGraphic" in2="effect2_dropShadow_1_1467" result="shape"/>
</filter>
</defs>
</svg>
