<svg width="243" height="131" viewBox="0 0 243 131" fill="none" xmlns="http://www.w3.org/2000/svg">
<g filter="url(#filter0_dd_1_1487)">
<rect width="184" height="60" rx="13.0358" transform="matrix(-1 0 0 1 216 14)" fill="white"/>
<path d="M110.609 52.216C108.945 52.216 107.521 51.864 106.337 51.16C105.153 50.456 104.241 49.456 103.601 48.16C102.977 46.864 102.665 45.32 102.665 43.528C102.665 41.752 102.977 40.216 103.601 38.92C104.241 37.624 105.153 36.624 106.337 35.92C107.521 35.216 108.945 34.864 110.609 34.864C111.777 34.864 112.849 35.048 113.825 35.416C114.817 35.784 115.657 36.32 116.345 37.024L115.577 38.632C114.841 37.944 114.073 37.448 113.273 37.144C112.489 36.824 111.617 36.664 110.657 36.664C108.753 36.664 107.297 37.264 106.289 38.464C105.281 39.664 104.777 41.352 104.777 43.528C104.777 45.72 105.281 47.416 106.289 48.616C107.297 49.816 108.753 50.416 110.657 50.416C111.617 50.416 112.489 50.264 113.273 49.96C114.073 49.64 114.841 49.136 115.577 48.448L116.345 50.056C115.657 50.744 114.817 51.28 113.825 51.664C112.849 52.032 111.777 52.216 110.609 52.216Z" fill="#000C2E"/>
<path d="M124.728 52.216C123.4 52.216 122.2 52.048 121.128 51.712C120.056 51.36 119.128 50.856 118.344 50.2L119.04 48.616C119.856 49.24 120.712 49.704 121.608 50.008C122.504 50.312 123.544 50.464 124.728 50.464C126.168 50.464 127.232 50.2 127.92 49.672C128.624 49.128 128.976 48.416 128.976 47.536C128.976 46.832 128.72 46.272 128.208 45.856C127.712 45.44 126.872 45.112 125.688 44.872L123.192 44.368C121.688 44.048 120.56 43.528 119.808 42.808C119.072 42.072 118.704 41.096 118.704 39.88C118.704 38.872 118.96 37.992 119.472 37.24C120 36.488 120.728 35.904 121.656 35.488C122.584 35.072 123.656 34.864 124.872 34.864C126.008 34.864 127.064 35.048 128.04 35.416C129.016 35.768 129.84 36.28 130.512 36.952L129.816 38.488C129.096 37.832 128.336 37.36 127.536 37.072C126.736 36.768 125.84 36.616 124.848 36.616C123.584 36.616 122.576 36.912 121.824 37.504C121.072 38.08 120.696 38.848 120.696 39.808C120.696 40.576 120.928 41.184 121.392 41.632C121.872 42.08 122.648 42.408 123.72 42.616L126.216 43.144C127.832 43.48 129.024 43.992 129.792 44.68C130.576 45.352 130.968 46.272 130.968 47.44C130.968 48.384 130.712 49.216 130.2 49.936C129.704 50.656 128.984 51.216 128.04 51.616C127.112 52.016 126.008 52.216 124.728 52.216Z" fill="#000C2E"/>
<path d="M139.594 52.216C138.266 52.216 137.066 52.048 135.994 51.712C134.922 51.36 133.994 50.856 133.21 50.2L133.906 48.616C134.722 49.24 135.578 49.704 136.474 50.008C137.37 50.312 138.41 50.464 139.594 50.464C141.034 50.464 142.098 50.2 142.786 49.672C143.49 49.128 143.842 48.416 143.842 47.536C143.842 46.832 143.586 46.272 143.074 45.856C142.578 45.44 141.738 45.112 140.554 44.872L138.058 44.368C136.554 44.048 135.426 43.528 134.674 42.808C133.938 42.072 133.57 41.096 133.57 39.88C133.57 38.872 133.826 37.992 134.338 37.24C134.866 36.488 135.594 35.904 136.522 35.488C137.45 35.072 138.522 34.864 139.738 34.864C140.874 34.864 141.93 35.048 142.906 35.416C143.882 35.768 144.706 36.28 145.378 36.952L144.682 38.488C143.962 37.832 143.202 37.36 142.402 37.072C141.602 36.768 140.706 36.616 139.714 36.616C138.45 36.616 137.442 36.912 136.69 37.504C135.938 38.08 135.562 38.848 135.562 39.808C135.562 40.576 135.794 41.184 136.258 41.632C136.738 42.08 137.514 42.408 138.586 42.616L141.082 43.144C142.698 43.48 143.89 43.992 144.658 44.68C145.442 45.352 145.834 46.272 145.834 47.44C145.834 48.384 145.578 49.216 145.066 49.936C144.57 50.656 143.85 51.216 142.906 51.616C141.978 52.016 140.874 52.216 139.594 52.216Z" fill="#000C2E"/>
<rect x="-1.62947" y="1.62947" width="180.741" height="56.7411" rx="11.4063" transform="matrix(-1 0 0 1 212.741 14)" stroke="#00ADB5" stroke-width="3.25895"/>
</g>
<g filter="url(#filter1_dd_1_1487)">
<circle cx="6" cy="6" r="6" transform="matrix(-1 0 0 1 129 66)" fill="white"/>
<circle cx="6" cy="6" r="4.77789" transform="matrix(-1 0 0 1 129 66)" stroke="#00ADB5" stroke-width="2.44421"/>
</g>
<g filter="url(#filter2_dd_1_1487)">
<circle cx="6" cy="6" r="6" transform="matrix(-1 0 0 1 39 38)" fill="white"/>
<circle cx="6" cy="6" r="4.77789" transform="matrix(-1 0 0 1 39 38)" stroke="#00ADB5" stroke-width="2.44421"/>
</g>
<defs>
<filter id="filter0_dd_1_1487" x="5.92842" y="0.964211" width="236.143" height="125.179" filterUnits="userSpaceOnUse" color-interpolation-filters="sRGB">
<feFlood flood-opacity="0" result="BackgroundImageFix"/>
<feColorMatrix in="SourceAlpha" type="matrix" values="0 0 0 0 0 0 0 0 0 0 0 0 0 0 0 0 0 0 127 0" result="hardAlpha"/>
<feOffset dy="26.0716"/>
<feGaussianBlur stdDeviation="13.0358"/>
<feColorMatrix type="matrix" values="0 0 0 0 0 0 0 0 0 0 0 0 0 0 0 0 0 0 0.16 0"/>
<feBlend mode="normal" in2="BackgroundImageFix" result="effect1_dropShadow_1_1487"/>
<feColorMatrix in="SourceAlpha" type="matrix" values="0 0 0 0 0 0 0 0 0 0 0 0 0 0 0 0 0 0 127 0" result="hardAlpha"/>
<feOffset/>
<feGaussianBlur stdDeviation="6.51789"/>
<feColorMatrix type="matrix" values="0 0 0 0 0 0 0 0 0 0 0 0 0 0 0 0 0 0 0.12 0"/>
<feBlend mode="normal" in2="effect1_dropShadow_1_1487" result="effect2_dropShadow_1_1487"/>
<feBlend mode="normal" in="SourceGraphic" in2="effect2_dropShadow_1_1487" result="shape"/>
</filter>
<filter id="filter1_dd_1_1487" x="90.9284" y="52.9642" width="64.1432" height="77.1789" filterUnits="userSpaceOnUse" color-interpolation-filters="sRGB">
<feFlood flood-opacity="0" result="BackgroundImageFix"/>
<feColorMatrix in="SourceAlpha" type="matrix" values="0 0 0 0 0 0 0 0 0 0 0 0 0 0 0 0 0 0 127 0" result="hardAlpha"/>
<feOffset dy="26.0716"/>
<feGaussianBlur stdDeviation="13.0358"/>
<feColorMatrix type="matrix" values="0 0 0 0 0 0 0 0 0 0 0 0 0 0 0 0 0 0 0.16 0"/>
<feBlend mode="normal" in2="BackgroundImageFix" result="effect1_dropShadow_1_1487"/>
<feColorMatrix in="SourceAlpha" type="matrix" values="0 0 0 0 0 0 0 0 0 0 0 0 0 0 0 0 0 0 127 0" result="hardAlpha"/>
<feOffset/>
<feGaussianBlur stdDeviation="6.51789"/>
<feColorMatrix type="matrix" values="0 0 0 0 0 0 0 0 0 0 0 0 0 0 0 0 0 0 0.12 0"/>
<feBlend mode="normal" in2="effect1_dropShadow_1_1487" result="effect2_dropShadow_1_1487"/>
<feBlend mode="normal" in="SourceGraphic" in2="effect2_dropShadow_1_1487" result="shape"/>
</filter>
<filter id="filter2_dd_1_1487" x="0.928423" y="24.9642" width="64.1432" height="77.1789" filterUnits="userSpaceOnUse" color-interpolation-filters="sRGB">
<feFlood flood-opacity="0" result="BackgroundImageFix"/>
<feColorMatrix in="SourceAlpha" type="matrix" values="0 0 0 0 0 0 0 0 0 0 0 0 0 0 0 0 0 0 127 0" result="hardAlpha"/>
<feOffset dy="26.0716"/>
<feGaussianBlur stdDeviation="13.0358"/>
<feColorMatrix type="matrix" values="0 0 0 0 0 0 0 0 0 0 0 0 0 0 0 0 0 0 0.16 0"/>
<feBlend mode="normal" in2="BackgroundImageFix" result="effect1_dropShadow_1_1487"/>
<feColorMatrix in="SourceAlpha" type="matrix" values="0 0 0 0 0 0 0 0 0 0 0 0 0 0 0 0 0 0 127 0" result="hardAlpha"/>
<feOffset/>
<feGaussianBlur stdDeviation="6.51789"/>
<feColorMatrix type="matrix" values="0 0 0 0 0 0 0 0 0 0 0 0 0 0 0 0 0 0 0.12 0"/>
<feBlend mode="normal" in2="effect1_dropShadow_1_1487" result="effect2_dropShadow_1_1487"/>
<feBlend mode="normal" in="SourceGraphic" in2="effect2_dropShadow_1_1487" result="shape"/>
</filter>
</defs>
</svg>
