<svg width="243" height="131" viewBox="0 0 243 131" fill="none" xmlns="http://www.w3.org/2000/svg">
<g filter="url(#filter0_dd_1_1492)">
<rect x="27" y="18" width="184" height="60" rx="13.0358" fill="white"/>
<path d="M52.1475 56V41.168H46.1475V39.08H60.6195V41.168H54.6195V56H52.1475Z" fill="#000C2E"/>
<path d="M64.4198 56.216C63.6038 56.216 62.8758 56.056 62.2358 55.736C61.5958 55.416 61.0838 54.984 60.6998 54.44C60.3318 53.896 60.1478 53.28 60.1478 52.592C60.1478 51.728 60.3638 51.048 60.7958 50.552C61.2438 50.056 61.9718 49.696 62.9798 49.472C64.0038 49.248 65.3798 49.136 67.1078 49.136H67.9238V48.512C67.9238 47.6 67.7318 46.944 67.3478 46.544C66.9638 46.144 66.3318 45.944 65.4518 45.944C64.7798 45.944 64.1078 46.048 63.4358 46.256C62.7638 46.448 62.0758 46.76 61.3718 47.192L60.6278 45.488C61.2358 45.056 61.9958 44.712 62.9078 44.456C63.8198 44.2 64.6918 44.072 65.5238 44.072C67.1238 44.072 68.3078 44.456 69.0758 45.224C69.8438 45.976 70.2278 47.16 70.2278 48.776V56H67.9478V54.056C67.6598 54.728 67.2118 55.256 66.6038 55.64C65.9958 56.024 65.2678 56.216 64.4198 56.216ZM64.8998 54.488C65.7638 54.488 66.4838 54.184 67.0598 53.576C67.6358 52.968 67.9238 52.2 67.9238 51.272V50.624H67.1318C65.9638 50.624 65.0438 50.68 64.3718 50.792C63.7158 50.904 63.2438 51.096 62.9558 51.368C62.6838 51.624 62.5478 51.984 62.5478 52.448C62.5478 53.056 62.7558 53.552 63.1718 53.936C63.5878 54.304 64.1638 54.488 64.8998 54.488Z" fill="#000C2E"/>
<path d="M73.4504 41.576V39.056H76.2824V41.576H73.4504ZM73.6664 56V44.288H76.0904V56H73.6664Z" fill="#000C2E"/>
<path d="M83.4183 56.216C82.1383 56.216 81.1783 55.856 80.5383 55.136C79.9143 54.416 79.6023 53.36 79.6023 51.968V39.08H82.0263V51.824C82.0263 53.408 82.6743 54.2 83.9703 54.2C84.1623 54.2 84.3383 54.192 84.4983 54.176C84.6743 54.16 84.8503 54.128 85.0263 54.08L84.9783 56.024C84.4343 56.152 83.9143 56.216 83.4183 56.216Z" fill="#000C2E"/>
<path d="M89.925 56L85.461 44.288H87.957L91.101 53.168L94.341 44.288H96.213L99.405 53.216L102.597 44.288H104.973L100.509 56H98.301L95.205 47.624L92.133 56H89.925Z" fill="#000C2E"/>
<path d="M106.938 41.576V39.056H109.77V41.576H106.938ZM107.154 56V44.288H109.578V56H107.154Z" fill="#000C2E"/>
<path d="M113.09 56V44.288H115.442V46.232C115.842 45.528 116.386 44.992 117.074 44.624C117.778 44.256 118.562 44.072 119.426 44.072C122.194 44.072 123.578 45.64 123.578 48.776V56H121.154V48.92C121.154 47.912 120.954 47.176 120.554 46.712C120.17 46.248 119.562 46.016 118.73 46.016C117.754 46.016 116.97 46.328 116.378 46.952C115.802 47.56 115.514 48.368 115.514 49.376V56H113.09Z" fill="#000C2E"/>
<path d="M131.482 56.216C130.458 56.216 129.554 55.976 128.77 55.496C128.002 55 127.402 54.296 126.97 53.384C126.538 52.472 126.322 51.392 126.322 50.144C126.322 48.896 126.538 47.824 126.97 46.928C127.402 46.016 128.002 45.312 128.77 44.816C129.538 44.32 130.442 44.072 131.482 44.072C132.362 44.072 133.146 44.264 133.834 44.648C134.522 45.032 135.034 45.552 135.37 46.208V39.08H137.794V56H135.418V53.96C135.082 54.664 134.562 55.216 133.858 55.616C133.17 56.016 132.378 56.216 131.482 56.216ZM132.106 54.344C133.098 54.344 133.898 53.984 134.506 53.264C135.114 52.544 135.418 51.504 135.418 50.144C135.418 48.784 135.114 47.752 134.506 47.048C133.898 46.328 133.098 45.968 132.106 45.968C131.098 45.968 130.29 46.328 129.682 47.048C129.074 47.752 128.77 48.784 128.77 50.144C128.77 51.504 129.074 52.544 129.682 53.264C130.29 53.984 131.098 54.344 132.106 54.344Z" fill="#000C2E"/>
<path d="M155.55 56.216C153.838 56.216 152.374 55.864 151.158 55.16C149.942 54.456 149.006 53.456 148.35 52.16C147.71 50.848 147.39 49.304 147.39 47.528C147.39 45.752 147.71 44.216 148.35 42.92C149.006 41.624 149.942 40.624 151.158 39.92C152.374 39.216 153.838 38.864 155.55 38.864C156.702 38.864 157.774 39.048 158.766 39.416C159.774 39.768 160.614 40.28 161.286 40.952L160.422 42.944C159.686 42.288 158.926 41.816 158.142 41.528C157.374 41.224 156.534 41.072 155.622 41.072C153.798 41.072 152.406 41.632 151.446 42.752C150.486 43.872 150.006 45.464 150.006 47.528C150.006 49.592 150.486 51.192 151.446 52.328C152.406 53.448 153.798 54.008 155.622 54.008C156.534 54.008 157.374 53.864 158.142 53.576C158.926 53.272 159.686 52.792 160.422 52.136L161.286 54.128C160.614 54.784 159.774 55.296 158.766 55.664C157.774 56.032 156.702 56.216 155.55 56.216Z" fill="#000C2E"/>
<path d="M169.597 56.216C168.269 56.216 167.053 56.048 165.949 55.712C164.845 55.36 163.909 54.872 163.141 54.248L163.933 52.28C164.733 52.888 165.589 53.344 166.501 53.648C167.413 53.952 168.445 54.104 169.597 54.104C170.957 54.104 171.957 53.864 172.597 53.384C173.253 52.888 173.581 52.248 173.581 51.464C173.581 50.824 173.349 50.32 172.885 49.952C172.421 49.568 171.645 49.264 170.557 49.04L167.989 48.512C166.469 48.192 165.333 47.664 164.581 46.928C163.845 46.192 163.477 45.2 163.477 43.952C163.477 42.944 163.741 42.056 164.269 41.288C164.813 40.52 165.565 39.928 166.525 39.512C167.485 39.08 168.589 38.864 169.837 38.864C170.989 38.864 172.053 39.04 173.029 39.392C174.021 39.728 174.861 40.224 175.549 40.88L174.733 42.776C173.373 41.576 171.733 40.976 169.813 40.976C168.629 40.976 167.685 41.24 166.981 41.768C166.293 42.296 165.949 43 165.949 43.88C165.949 44.552 166.165 45.088 166.597 45.488C167.029 45.888 167.749 46.192 168.757 46.4L171.301 46.928C172.901 47.264 174.093 47.784 174.877 48.488C175.661 49.176 176.053 50.112 176.053 51.296C176.053 52.288 175.789 53.152 175.261 53.888C174.733 54.624 173.989 55.2 173.029 55.616C172.069 56.016 170.925 56.216 169.597 56.216Z" fill="#000C2E"/>
<path d="M184.627 56.216C183.299 56.216 182.083 56.048 180.979 55.712C179.875 55.36 178.939 54.872 178.171 54.248L178.963 52.28C179.763 52.888 180.619 53.344 181.531 53.648C182.443 53.952 183.475 54.104 184.627 54.104C185.987 54.104 186.987 53.864 187.627 53.384C188.283 52.888 188.611 52.248 188.611 51.464C188.611 50.824 188.379 50.32 187.915 49.952C187.451 49.568 186.675 49.264 185.587 49.04L183.019 48.512C181.499 48.192 180.363 47.664 179.611 46.928C178.875 46.192 178.507 45.2 178.507 43.952C178.507 42.944 178.771 42.056 179.299 41.288C179.843 40.52 180.595 39.928 181.555 39.512C182.515 39.08 183.619 38.864 184.867 38.864C186.019 38.864 187.083 39.04 188.059 39.392C189.051 39.728 189.891 40.224 190.579 40.88L189.763 42.776C188.403 41.576 186.763 40.976 184.843 40.976C183.659 40.976 182.715 41.24 182.011 41.768C181.323 42.296 180.979 43 180.979 43.88C180.979 44.552 181.195 45.088 181.627 45.488C182.059 45.888 182.779 46.192 183.787 46.4L186.331 46.928C187.931 47.264 189.123 47.784 189.907 48.488C190.691 49.176 191.083 50.112 191.083 51.296C191.083 52.288 190.819 53.152 190.291 53.888C189.763 54.624 189.019 55.2 188.059 55.616C187.099 56.016 185.955 56.216 184.627 56.216Z" fill="#000C2E"/>
<rect x="28.6295" y="19.6295" width="180.741" height="56.7411" rx="11.4063" stroke="#00ADB5" stroke-width="3.25895"/>
</g>
<g filter="url(#filter1_dd_1_1492)">
<circle cx="210" cy="48" r="6" fill="white"/>
<circle cx="210" cy="48" r="4.77789" stroke="#00ADB5" stroke-width="2.44421"/>
</g>
<g filter="url(#filter2_dd_1_1492)">
<circle cx="119" cy="20" r="6" fill="white"/>
<circle cx="119" cy="20" r="4.77789" stroke="#00ADB5" stroke-width="2.44421"/>
</g>
<defs>
<filter id="filter0_dd_1_1492" x="0.928423" y="4.96421" width="236.143" height="125.179" filterUnits="userSpaceOnUse" color-interpolation-filters="sRGB">
<feFlood flood-opacity="0" result="BackgroundImageFix"/>
<feColorMatrix in="SourceAlpha" type="matrix" values="0 0 0 0 0 0 0 0 0 0 0 0 0 0 0 0 0 0 127 0" result="hardAlpha"/>
<feOffset dy="26.0716"/>
<feGaussianBlur stdDeviation="13.0358"/>
<feColorMatrix type="matrix" values="0 0 0 0 0 0 0 0 0 0 0 0 0 0 0 0 0 0 0.16 0"/>
<feBlend mode="normal" in2="BackgroundImageFix" result="effect1_dropShadow_1_1492"/>
<feColorMatrix in="SourceAlpha" type="matrix" values="0 0 0 0 0 0 0 0 0 0 0 0 0 0 0 0 0 0 127 0" result="hardAlpha"/>
<feOffset/>
<feGaussianBlur stdDeviation="6.51789"/>
<feColorMatrix type="matrix" values="0 0 0 0 0 0 0 0 0 0 0 0 0 0 0 0 0 0 0.12 0"/>
<feBlend mode="normal" in2="effect1_dropShadow_1_1492" result="effect2_dropShadow_1_1492"/>
<feBlend mode="normal" in="SourceGraphic" in2="effect2_dropShadow_1_1492" result="shape"/>
</filter>
<filter id="filter1_dd_1_1492" x="177.928" y="28.9642" width="64.1432" height="77.1789" filterUnits="userSpaceOnUse" color-interpolation-filters="sRGB">
<feFlood flood-opacity="0" result="BackgroundImageFix"/>
<feColorMatrix in="SourceAlpha" type="matrix" values="0 0 0 0 0 0 0 0 0 0 0 0 0 0 0 0 0 0 127 0" result="hardAlpha"/>
<feOffset dy="26.0716"/>
<feGaussianBlur stdDeviation="13.0358"/>
<feColorMatrix type="matrix" values="0 0 0 0 0 0 0 0 0 0 0 0 0 0 0 0 0 0 0.16 0"/>
<feBlend mode="normal" in2="BackgroundImageFix" result="effect1_dropShadow_1_1492"/>
<feColorMatrix in="SourceAlpha" type="matrix" values="0 0 0 0 0 0 0 0 0 0 0 0 0 0 0 0 0 0 127 0" result="hardAlpha"/>
<feOffset/>
<feGaussianBlur stdDeviation="6.51789"/>
<feColorMatrix type="matrix" values="0 0 0 0 0 0 0 0 0 0 0 0 0 0 0 0 0 0 0.12 0"/>
<feBlend mode="normal" in2="effect1_dropShadow_1_1492" result="effect2_dropShadow_1_1492"/>
<feBlend mode="normal" in="SourceGraphic" in2="effect2_dropShadow_1_1492" result="shape"/>
</filter>
<filter id="filter2_dd_1_1492" x="86.9284" y="0.964211" width="64.1432" height="77.1789" filterUnits="userSpaceOnUse" color-interpolation-filters="sRGB">
<feFlood flood-opacity="0" result="BackgroundImageFix"/>
<feColorMatrix in="SourceAlpha" type="matrix" values="0 0 0 0 0 0 0 0 0 0 0 0 0 0 0 0 0 0 127 0" result="hardAlpha"/>
<feOffset dy="26.0716"/>
<feGaussianBlur stdDeviation="13.0358"/>
<feColorMatrix type="matrix" values="0 0 0 0 0 0 0 0 0 0 0 0 0 0 0 0 0 0 0.16 0"/>
<feBlend mode="normal" in2="BackgroundImageFix" result="effect1_dropShadow_1_1492"/>
<feColorMatrix in="SourceAlpha" type="matrix" values="0 0 0 0 0 0 0 0 0 0 0 0 0 0 0 0 0 0 127 0" result="hardAlpha"/>
<feOffset/>
<feGaussianBlur stdDeviation="6.51789"/>
<feColorMatrix type="matrix" values="0 0 0 0 0 0 0 0 0 0 0 0 0 0 0 0 0 0 0.12 0"/>
<feBlend mode="normal" in2="effect1_dropShadow_1_1492" result="effect2_dropShadow_1_1492"/>
<feBlend mode="normal" in="SourceGraphic" in2="effect2_dropShadow_1_1492" result="shape"/>
</filter>
</defs>
</svg>
