<svg width="249" height="131" viewBox="0 0 249 131" fill="none" xmlns="http://www.w3.org/2000/svg">
<g filter="url(#filter0_dd_1_1523)">
<rect x="32" y="18" width="184" height="60" rx="13.0358" fill="white"/>
<path d="M57.9133 55V40.9H62.6733C64.9533 40.9 66.7133 41.5066 67.9533 42.72C69.1933 43.92 69.8133 45.66 69.8133 47.94C69.8133 50.22 69.1933 51.9666 67.9533 53.18C66.7133 54.3933 64.9533 55 62.6733 55H57.9133ZM59.5533 53.6H62.5533C66.2333 53.6 68.0733 51.7133 68.0733 47.94C68.0733 44.18 66.2333 42.3 62.5533 42.3H59.5533V53.6Z" fill="#000C2E"/>
<path d="M77.0171 55.18C75.4837 55.18 74.2704 54.7333 73.3771 53.84C72.4837 52.9333 72.0371 51.7066 72.0371 50.16C72.0371 49.16 72.2371 48.28 72.6371 47.52C73.0371 46.7466 73.5837 46.1533 74.2771 45.74C74.9837 45.3133 75.7971 45.1 76.7171 45.1C78.0371 45.1 79.0704 45.5266 79.8171 46.38C80.5637 47.22 80.9371 48.38 80.9371 49.86V50.48H73.6171C73.6704 51.5866 73.9904 52.4333 74.5771 53.02C75.1637 53.5933 75.9771 53.88 77.0171 53.88C77.6037 53.88 78.1637 53.7933 78.6971 53.62C79.2304 53.4333 79.7371 53.1333 80.2171 52.72L80.7771 53.86C80.3371 54.2733 79.7771 54.6 79.0971 54.84C78.4171 55.0666 77.7237 55.18 77.0171 55.18ZM76.7571 46.3C75.8371 46.3 75.1104 46.5866 74.5771 47.16C74.0437 47.7333 73.7304 48.4866 73.6371 49.42H79.5371C79.4971 48.4333 79.2371 47.6666 78.7571 47.12C78.2904 46.5733 77.6237 46.3 76.7571 46.3Z" fill="#000C2E"/>
<path d="M86.6616 55.18C85.9016 55.18 85.1816 55.0733 84.5016 54.86C83.8216 54.6466 83.2616 54.3466 82.8216 53.96L83.3416 52.82C83.8216 53.2066 84.3483 53.4933 84.9216 53.68C85.5083 53.8533 86.1016 53.94 86.7016 53.94C87.4616 53.94 88.0349 53.8 88.4216 53.52C88.8083 53.24 89.0016 52.86 89.0016 52.38C89.0016 52.0066 88.8749 51.7133 88.6216 51.5C88.3683 51.2733 87.9683 51.1 87.4216 50.98L85.6016 50.58C83.9483 50.22 83.1216 49.3666 83.1216 48.02C83.1216 47.14 83.4683 46.4333 84.1616 45.9C84.8683 45.3666 85.7883 45.1 86.9216 45.1C87.5883 45.1 88.2216 45.2066 88.8216 45.42C89.4349 45.62 89.9416 45.92 90.3416 46.32L89.8016 47.46C89.4149 47.1 88.9616 46.8266 88.4416 46.64C87.9349 46.44 87.4283 46.34 86.9216 46.34C86.1749 46.34 85.6083 46.4866 85.2216 46.78C84.8349 47.0733 84.6416 47.46 84.6416 47.94C84.6416 48.6866 85.1349 49.1666 86.1216 49.38L87.9416 49.76C88.7949 49.9466 89.4416 50.2466 89.8816 50.66C90.3216 51.06 90.5416 51.6066 90.5416 52.3C90.5416 53.1933 90.1883 53.9 89.4816 54.42C88.7749 54.9266 87.8349 55.18 86.6616 55.18Z" fill="#000C2E"/>
<path d="M92.9105 42.86V41.04H94.9105V42.86H92.9105ZM93.1105 55V45.28H94.7305V55H93.1105Z" fill="#000C2E"/>
<path d="M102.159 58.78C101.319 58.78 100.526 58.6666 99.779 58.44C99.0456 58.2266 98.3923 57.9 97.819 57.46L98.359 56.28C98.959 56.7066 99.5523 57.0133 100.139 57.2C100.739 57.3866 101.386 57.48 102.079 57.48C103.999 57.48 104.959 56.4933 104.959 54.52V52.8C104.679 53.4133 104.239 53.9 103.639 54.26C103.052 54.6066 102.379 54.78 101.619 54.78C100.726 54.78 99.9523 54.5733 99.299 54.16C98.6456 53.7466 98.139 53.18 97.779 52.46C97.4323 51.7266 97.259 50.88 97.259 49.92C97.259 48.96 97.4323 48.12 97.779 47.4C98.139 46.6666 98.6456 46.1 99.299 45.7C99.9523 45.3 100.726 45.1 101.619 45.1C102.379 45.1 103.052 45.2733 103.639 45.62C104.239 45.9666 104.679 46.44 104.959 47.04V45.28H106.539V54.3C106.539 55.7933 106.166 56.9133 105.419 57.66C104.686 58.4066 103.599 58.78 102.159 58.78ZM101.919 53.46C102.852 53.46 103.592 53.14 104.139 52.5C104.686 51.86 104.959 51 104.959 49.92C104.959 48.84 104.686 47.9866 104.139 47.36C103.592 46.72 102.852 46.4 101.919 46.4C100.999 46.4 100.266 46.72 99.719 47.36C99.1723 47.9866 98.899 48.84 98.899 49.92C98.899 51 99.1723 51.86 99.719 52.5C100.266 53.14 100.999 53.46 101.919 53.46Z" fill="#000C2E"/>
<path d="M109.678 55V45.28H111.258V46.94C111.578 46.3266 112.031 45.8666 112.618 45.56C113.204 45.2533 113.864 45.1 114.598 45.1C116.904 45.1 118.058 46.38 118.058 48.94V55H116.438V49.04C116.438 48.1333 116.258 47.4733 115.898 47.06C115.551 46.6333 114.991 46.42 114.218 46.42C113.324 46.42 112.611 46.7 112.078 47.26C111.558 47.8066 111.298 48.54 111.298 49.46V55H109.678Z" fill="#000C2E"/>
<path d="M131.162 55.18C130.055 55.18 129.055 55.04 128.162 54.76C127.268 54.4666 126.495 54.0466 125.842 53.5L126.422 52.18C127.102 52.7 127.815 53.0866 128.562 53.34C129.308 53.5933 130.175 53.72 131.162 53.72C132.362 53.72 133.248 53.5 133.822 53.06C134.408 52.6066 134.702 52.0133 134.702 51.28C134.702 50.6933 134.488 50.2266 134.062 49.88C133.648 49.5333 132.948 49.26 131.962 49.06L129.882 48.64C128.628 48.3733 127.688 47.94 127.062 47.34C126.448 46.7266 126.142 45.9133 126.142 44.9C126.142 44.06 126.355 43.3266 126.782 42.7C127.222 42.0733 127.828 41.5866 128.602 41.24C129.375 40.8933 130.268 40.72 131.282 40.72C132.228 40.72 133.108 40.8733 133.922 41.18C134.735 41.4733 135.422 41.9 135.982 42.46L135.402 43.74C134.802 43.1933 134.168 42.8 133.502 42.56C132.835 42.3066 132.088 42.18 131.262 42.18C130.208 42.18 129.368 42.4266 128.742 42.92C128.115 43.4 127.802 44.04 127.802 44.84C127.802 45.48 127.995 45.9866 128.382 46.36C128.782 46.7333 129.428 47.0066 130.322 47.18L132.402 47.62C133.748 47.9 134.742 48.3266 135.382 48.9C136.035 49.46 136.362 50.2266 136.362 51.2C136.362 51.9866 136.148 52.68 135.722 53.28C135.308 53.88 134.708 54.3466 133.922 54.68C133.148 55.0133 132.228 55.18 131.162 55.18Z" fill="#000C2E"/>
<path d="M139.789 58.6L141.449 54.84L137.349 45.28H139.109L142.329 53.16L145.569 45.28H147.269L141.489 58.6H139.789Z" fill="#000C2E"/>
<path d="M152.127 55.18C151.367 55.18 150.647 55.0733 149.967 54.86C149.287 54.6466 148.727 54.3466 148.287 53.96L148.807 52.82C149.287 53.2066 149.814 53.4933 150.387 53.68C150.974 53.8533 151.567 53.94 152.167 53.94C152.927 53.94 153.501 53.8 153.887 53.52C154.274 53.24 154.467 52.86 154.467 52.38C154.467 52.0066 154.341 51.7133 154.087 51.5C153.834 51.2733 153.434 51.1 152.887 50.98L151.067 50.58C149.414 50.22 148.587 49.3666 148.587 48.02C148.587 47.14 148.934 46.4333 149.627 45.9C150.334 45.3666 151.254 45.1 152.387 45.1C153.054 45.1 153.687 45.2066 154.287 45.42C154.901 45.62 155.407 45.92 155.807 46.32L155.267 47.46C154.881 47.1 154.427 46.8266 153.907 46.64C153.401 46.44 152.894 46.34 152.387 46.34C151.641 46.34 151.074 46.4866 150.687 46.78C150.301 47.0733 150.107 47.46 150.107 47.94C150.107 48.6866 150.601 49.1666 151.587 49.38L153.407 49.76C154.261 49.9466 154.907 50.2466 155.347 50.66C155.787 51.06 156.007 51.6066 156.007 52.3C156.007 53.1933 155.654 53.9 154.947 54.42C154.241 54.9266 153.301 55.18 152.127 55.18Z" fill="#000C2E"/>
<path d="M162.378 55.18C161.232 55.18 160.372 54.88 159.798 54.28C159.225 53.6666 158.938 52.7866 158.938 51.64V46.54H157.038V45.28H158.938V42.3H160.558V45.28H163.638V46.54H160.558V51.48C160.558 52.24 160.718 52.82 161.038 53.22C161.358 53.6066 161.878 53.8 162.598 53.8C162.812 53.8 163.025 53.7733 163.238 53.72C163.452 53.6666 163.645 53.6133 163.818 53.56L164.098 54.8C163.925 54.8933 163.672 54.98 163.338 55.06C163.005 55.14 162.685 55.18 162.378 55.18Z" fill="#000C2E"/>
<path d="M169.853 55.18C168.32 55.18 167.106 54.7333 166.213 53.84C165.32 52.9333 164.873 51.7066 164.873 50.16C164.873 49.16 165.073 48.28 165.473 47.52C165.873 46.7466 166.42 46.1533 167.113 45.74C167.82 45.3133 168.633 45.1 169.553 45.1C170.873 45.1 171.906 45.5266 172.653 46.38C173.4 47.22 173.773 48.38 173.773 49.86V50.48H166.453C166.506 51.5866 166.826 52.4333 167.413 53.02C168 53.5933 168.813 53.88 169.853 53.88C170.44 53.88 171 53.7933 171.533 53.62C172.066 53.4333 172.573 53.1333 173.053 52.72L173.613 53.86C173.173 54.2733 172.613 54.6 171.933 54.84C171.253 55.0666 170.56 55.18 169.853 55.18ZM169.593 46.3C168.673 46.3 167.946 46.5866 167.413 47.16C166.88 47.7333 166.566 48.4866 166.473 49.42H172.373C172.333 48.4333 172.073 47.6666 171.593 47.12C171.126 46.5733 170.46 46.3 169.593 46.3Z" fill="#000C2E"/>
<path d="M176.258 55V45.28H177.838V46.92C178.131 46.3333 178.538 45.8866 179.058 45.58C179.578 45.26 180.184 45.1 180.878 45.1C182.398 45.1 183.371 45.76 183.798 47.08C184.091 46.4666 184.524 45.9866 185.098 45.64C185.671 45.28 186.331 45.1 187.078 45.1C189.238 45.1 190.318 46.38 190.318 48.94V55H188.698V49.02C188.698 48.1266 188.538 47.4733 188.218 47.06C187.911 46.6333 187.398 46.42 186.678 46.42C185.891 46.42 185.264 46.7 184.798 47.26C184.331 47.82 184.098 48.5666 184.098 49.5V55H182.478V49.02C182.478 48.1266 182.318 47.4733 181.998 47.06C181.691 46.6333 181.178 46.42 180.458 46.42C179.658 46.42 179.024 46.7 178.558 47.26C178.104 47.82 177.878 48.5666 177.878 49.5V55H176.258Z" fill="#000C2E"/>
<rect x="33.6295" y="19.6295" width="180.741" height="56.7411" rx="11.4063" stroke="#00ADB5" stroke-width="3.25895"/>
</g>
<g filter="url(#filter1_dd_1_1523)">
<circle cx="216" cy="48" r="6" fill="white"/>
<circle cx="216" cy="48" r="4.77789" stroke="#00ADB5" stroke-width="2.44421"/>
</g>
<g filter="url(#filter2_dd_1_1523)">
<circle cx="33" cy="48" r="6" fill="white"/>
<circle cx="33" cy="48" r="4.77789" stroke="#00ADB5" stroke-width="2.44421"/>
</g>
<g filter="url(#filter3_dd_1_1523)">
<circle cx="6" cy="6" r="6" transform="matrix(-1 0 0 1 130 14)" fill="white"/>
<circle cx="6" cy="6" r="4.77789" transform="matrix(-1 0 0 1 130 14)" stroke="#00ADB5" stroke-width="2.44421"/>
</g>
<defs>
<filter id="filter0_dd_1_1523" x="5.92842" y="4.96421" width="236.143" height="125.179" filterUnits="userSpaceOnUse" color-interpolation-filters="sRGB">
<feFlood flood-opacity="0" result="BackgroundImageFix"/>
<feColorMatrix in="SourceAlpha" type="matrix" values="0 0 0 0 0 0 0 0 0 0 0 0 0 0 0 0 0 0 127 0" result="hardAlpha"/>
<feOffset dy="26.0716"/>
<feGaussianBlur stdDeviation="13.0358"/>
<feColorMatrix type="matrix" values="0 0 0 0 0 0 0 0 0 0 0 0 0 0 0 0 0 0 0.16 0"/>
<feBlend mode="normal" in2="BackgroundImageFix" result="effect1_dropShadow_1_1523"/>
<feColorMatrix in="SourceAlpha" type="matrix" values="0 0 0 0 0 0 0 0 0 0 0 0 0 0 0 0 0 0 127 0" result="hardAlpha"/>
<feOffset/>
<feGaussianBlur stdDeviation="6.51789"/>
<feColorMatrix type="matrix" values="0 0 0 0 0 0 0 0 0 0 0 0 0 0 0 0 0 0 0.12 0"/>
<feBlend mode="normal" in2="effect1_dropShadow_1_1523" result="effect2_dropShadow_1_1523"/>
<feBlend mode="normal" in="SourceGraphic" in2="effect2_dropShadow_1_1523" result="shape"/>
</filter>
<filter id="filter1_dd_1_1523" x="183.928" y="28.9642" width="64.1432" height="77.1789" filterUnits="userSpaceOnUse" color-interpolation-filters="sRGB">
<feFlood flood-opacity="0" result="BackgroundImageFix"/>
<feColorMatrix in="SourceAlpha" type="matrix" values="0 0 0 0 0 0 0 0 0 0 0 0 0 0 0 0 0 0 127 0" result="hardAlpha"/>
<feOffset dy="26.0716"/>
<feGaussianBlur stdDeviation="13.0358"/>
<feColorMatrix type="matrix" values="0 0 0 0 0 0 0 0 0 0 0 0 0 0 0 0 0 0 0.16 0"/>
<feBlend mode="normal" in2="BackgroundImageFix" result="effect1_dropShadow_1_1523"/>
<feColorMatrix in="SourceAlpha" type="matrix" values="0 0 0 0 0 0 0 0 0 0 0 0 0 0 0 0 0 0 127 0" result="hardAlpha"/>
<feOffset/>
<feGaussianBlur stdDeviation="6.51789"/>
<feColorMatrix type="matrix" values="0 0 0 0 0 0 0 0 0 0 0 0 0 0 0 0 0 0 0.12 0"/>
<feBlend mode="normal" in2="effect1_dropShadow_1_1523" result="effect2_dropShadow_1_1523"/>
<feBlend mode="normal" in="SourceGraphic" in2="effect2_dropShadow_1_1523" result="shape"/>
</filter>
<filter id="filter2_dd_1_1523" x="0.928423" y="28.9642" width="64.1432" height="77.1789" filterUnits="userSpaceOnUse" color-interpolation-filters="sRGB">
<feFlood flood-opacity="0" result="BackgroundImageFix"/>
<feColorMatrix in="SourceAlpha" type="matrix" values="0 0 0 0 0 0 0 0 0 0 0 0 0 0 0 0 0 0 127 0" result="hardAlpha"/>
<feOffset dy="26.0716"/>
<feGaussianBlur stdDeviation="13.0358"/>
<feColorMatrix type="matrix" values="0 0 0 0 0 0 0 0 0 0 0 0 0 0 0 0 0 0 0.16 0"/>
<feBlend mode="normal" in2="BackgroundImageFix" result="effect1_dropShadow_1_1523"/>
<feColorMatrix in="SourceAlpha" type="matrix" values="0 0 0 0 0 0 0 0 0 0 0 0 0 0 0 0 0 0 127 0" result="hardAlpha"/>
<feOffset/>
<feGaussianBlur stdDeviation="6.51789"/>
<feColorMatrix type="matrix" values="0 0 0 0 0 0 0 0 0 0 0 0 0 0 0 0 0 0 0.12 0"/>
<feBlend mode="normal" in2="effect1_dropShadow_1_1523" result="effect2_dropShadow_1_1523"/>
<feBlend mode="normal" in="SourceGraphic" in2="effect2_dropShadow_1_1523" result="shape"/>
</filter>
<filter id="filter3_dd_1_1523" x="91.9284" y="0.964211" width="64.1432" height="77.1789" filterUnits="userSpaceOnUse" color-interpolation-filters="sRGB">
<feFlood flood-opacity="0" result="BackgroundImageFix"/>
<feColorMatrix in="SourceAlpha" type="matrix" values="0 0 0 0 0 0 0 0 0 0 0 0 0 0 0 0 0 0 127 0" result="hardAlpha"/>
<feOffset dy="26.0716"/>
<feGaussianBlur stdDeviation="13.0358"/>
<feColorMatrix type="matrix" values="0 0 0 0 0 0 0 0 0 0 0 0 0 0 0 0 0 0 0.16 0"/>
<feBlend mode="normal" in2="BackgroundImageFix" result="effect1_dropShadow_1_1523"/>
<feColorMatrix in="SourceAlpha" type="matrix" values="0 0 0 0 0 0 0 0 0 0 0 0 0 0 0 0 0 0 127 0" result="hardAlpha"/>
<feOffset/>
<feGaussianBlur stdDeviation="6.51789"/>
<feColorMatrix type="matrix" values="0 0 0 0 0 0 0 0 0 0 0 0 0 0 0 0 0 0 0.12 0"/>
<feBlend mode="normal" in2="effect1_dropShadow_1_1523" result="effect2_dropShadow_1_1523"/>
<feBlend mode="normal" in="SourceGraphic" in2="effect2_dropShadow_1_1523" result="shape"/>
</filter>
</defs>
</svg>
