<svg width="243" height="127" viewBox="0 0 243 127" fill="none" xmlns="http://www.w3.org/2000/svg">
<g filter="url(#filter0_dd_1_1555)">
<rect width="184" height="60" rx="13.0358" transform="matrix(-1 0 0 1 216 14)" fill="white"/>
<path d="M94.0142 41V26.9H98.7742C101.054 26.9 102.814 27.5067 104.054 28.72C105.294 29.92 105.914 31.66 105.914 33.94C105.914 36.22 105.294 37.9667 104.054 39.18C102.814 40.3934 101.054 41 98.7742 41H94.0142ZM95.6542 39.6H98.6542C102.334 39.6 104.174 37.7134 104.174 33.94C104.174 30.18 102.334 28.3 98.6542 28.3H95.6542V39.6Z" fill="#000C2E"/>
<path d="M113.118 41.18C111.585 41.18 110.371 40.7334 109.478 39.84C108.585 38.9334 108.138 37.7067 108.138 36.16C108.138 35.16 108.338 34.28 108.738 33.52C109.138 32.7467 109.685 32.1534 110.378 31.74C111.085 31.3134 111.898 31.1 112.818 31.1C114.138 31.1 115.171 31.5267 115.918 32.38C116.665 33.22 117.038 34.38 117.038 35.86V36.48H109.718C109.771 37.5867 110.091 38.4334 110.678 39.02C111.265 39.5934 112.078 39.88 113.118 39.88C113.705 39.88 114.265 39.7934 114.798 39.62C115.331 39.4334 115.838 39.1334 116.318 38.72L116.878 39.86C116.438 40.2734 115.878 40.6 115.198 40.84C114.518 41.0667 113.825 41.18 113.118 41.18ZM112.858 32.3C111.938 32.3 111.211 32.5867 110.678 33.16C110.145 33.7334 109.831 34.4867 109.738 35.42H115.638C115.598 34.4334 115.338 33.6667 114.858 33.12C114.391 32.5734 113.725 32.3 112.858 32.3Z" fill="#000C2E"/>
<path d="M122.763 41.18C122.003 41.18 121.283 41.0734 120.603 40.86C119.923 40.6467 119.363 40.3467 118.923 39.96L119.443 38.82C119.923 39.2067 120.449 39.4934 121.023 39.68C121.609 39.8534 122.203 39.94 122.803 39.94C123.563 39.94 124.136 39.8 124.523 39.52C124.909 39.24 125.103 38.86 125.103 38.38C125.103 38.0067 124.976 37.7134 124.723 37.5C124.469 37.2734 124.069 37.1 123.523 36.98L121.703 36.58C120.049 36.22 119.223 35.3667 119.223 34.02C119.223 33.14 119.569 32.4334 120.263 31.9C120.969 31.3667 121.889 31.1 123.023 31.1C123.689 31.1 124.323 31.2067 124.923 31.42C125.536 31.62 126.043 31.92 126.443 32.32L125.903 33.46C125.516 33.1 125.063 32.8267 124.543 32.64C124.036 32.44 123.529 32.34 123.023 32.34C122.276 32.34 121.709 32.4867 121.323 32.78C120.936 33.0734 120.743 33.46 120.743 33.94C120.743 34.6867 121.236 35.1667 122.223 35.38L124.043 35.76C124.896 35.9467 125.543 36.2467 125.983 36.66C126.423 37.06 126.643 37.6067 126.643 38.3C126.643 39.1934 126.289 39.9 125.583 40.42C124.876 40.9267 123.936 41.18 122.763 41.18Z" fill="#000C2E"/>
<path d="M129.011 28.86V27.04H131.011V28.86H129.011ZM129.211 41V31.28H130.831V41H129.211Z" fill="#000C2E"/>
<path d="M138.26 44.78C137.42 44.78 136.627 44.6667 135.88 44.44C135.147 44.2267 134.493 43.9 133.92 43.46L134.46 42.28C135.06 42.7067 135.653 43.0134 136.24 43.2C136.84 43.3867 137.487 43.48 138.18 43.48C140.1 43.48 141.06 42.4934 141.06 40.52V38.8C140.78 39.4134 140.34 39.9 139.74 40.26C139.153 40.6067 138.48 40.78 137.72 40.78C136.827 40.78 136.053 40.5734 135.4 40.16C134.747 39.7467 134.24 39.18 133.88 38.46C133.533 37.7267 133.36 36.88 133.36 35.92C133.36 34.96 133.533 34.12 133.88 33.4C134.24 32.6667 134.747 32.1 135.4 31.7C136.053 31.3 136.827 31.1 137.72 31.1C138.48 31.1 139.153 31.2734 139.74 31.62C140.34 31.9667 140.78 32.44 141.06 33.04V31.28H142.64V40.3C142.64 41.7934 142.267 42.9134 141.52 43.66C140.787 44.4067 139.7 44.78 138.26 44.78ZM138.02 39.46C138.953 39.46 139.693 39.14 140.24 38.5C140.787 37.86 141.06 37 141.06 35.92C141.06 34.84 140.787 33.9867 140.24 33.36C139.693 32.72 138.953 32.4 138.02 32.4C137.1 32.4 136.367 32.72 135.82 33.36C135.273 33.9867 135 34.84 135 35.92C135 37 135.273 37.86 135.82 38.5C136.367 39.14 137.1 39.46 138.02 39.46Z" fill="#000C2E"/>
<path d="M145.779 41V31.28H147.359V32.94C147.679 32.3267 148.132 31.8667 148.719 31.56C149.305 31.2534 149.965 31.1 150.699 31.1C153.005 31.1 154.159 32.38 154.159 34.94V41H152.539V35.04C152.539 34.1334 152.359 33.4734 151.999 33.06C151.652 32.6334 151.092 32.42 150.319 32.42C149.425 32.42 148.712 32.7 148.179 33.26C147.659 33.8067 147.399 34.54 147.399 35.46V41H145.779Z" fill="#000C2E"/>
<path d="M68.9851 61L75.2051 46.9H76.6051L82.8251 61H81.1251L79.5651 57.4H72.2251L70.6851 61H68.9851ZM75.8851 48.82L72.8251 56.02H78.9851L75.9251 48.82H75.8851Z" fill="#000C2E"/>
<path d="M84.7954 61V51.28H86.3754V53.02C86.8954 51.8467 87.9621 51.2 89.5754 51.08L90.1554 51.02L90.2754 52.42L89.2554 52.54C88.3354 52.62 87.6354 52.9134 87.1554 53.42C86.6754 53.9134 86.4354 54.5934 86.4354 55.46V61H84.7954Z" fill="#000C2E"/>
<path d="M96.0662 61.18C95.0929 61.18 94.2529 60.9734 93.5462 60.56C92.8395 60.1334 92.2929 59.54 91.9062 58.78C91.5329 58.0067 91.3462 57.1067 91.3462 56.08C91.3462 54.5334 91.7662 53.32 92.6062 52.44C93.4462 51.5467 94.5995 51.1 96.0662 51.1C96.6662 51.1 97.2595 51.2067 97.8462 51.42C98.4329 51.6334 98.9195 51.9334 99.3062 52.32L98.7462 53.5C98.3595 53.1267 97.9329 52.8534 97.4662 52.68C97.0129 52.5067 96.5795 52.42 96.1662 52.42C95.1529 52.42 94.3729 52.74 93.8262 53.38C93.2795 54.0067 93.0062 54.9134 93.0062 56.1C93.0062 57.26 93.2795 58.18 93.8262 58.86C94.3729 59.5267 95.1529 59.86 96.1662 59.86C96.5795 59.86 97.0129 59.7734 97.4662 59.6C97.9329 59.4267 98.3595 59.1467 98.7462 58.76L99.3062 59.94C98.9195 60.3267 98.4262 60.6334 97.8262 60.86C97.2395 61.0734 96.6529 61.18 96.0662 61.18Z" fill="#000C2E"/>
<path d="M101.304 61V46.9H102.924V52.88C103.244 52.2934 103.691 51.8534 104.264 51.56C104.851 51.2534 105.504 51.1 106.224 51.1C108.531 51.1 109.684 52.38 109.684 54.94V61H108.064V55.04C108.064 54.1334 107.884 53.4734 107.524 53.06C107.177 52.6334 106.617 52.42 105.844 52.42C104.951 52.42 104.237 52.7 103.704 53.26C103.184 53.8067 102.924 54.54 102.924 55.46V61H101.304Z" fill="#000C2E"/>
<path d="M112.571 48.86V47.04H114.571V48.86H112.571ZM112.771 61V51.28H114.391V61H112.771Z" fill="#000C2E"/>
<path d="M121.42 61.18C120.273 61.18 119.413 60.88 118.84 60.28C118.266 59.6667 117.98 58.7867 117.98 57.64V52.54H116.08V51.28H117.98V48.3H119.6V51.28H122.68V52.54H119.6V57.48C119.6 58.24 119.76 58.82 120.08 59.22C120.4 59.6067 120.92 59.8 121.64 59.8C121.853 59.8 122.066 59.7734 122.28 59.72C122.493 59.6667 122.686 59.6134 122.86 59.56L123.14 60.8C122.966 60.8934 122.713 60.98 122.38 61.06C122.046 61.14 121.726 61.18 121.42 61.18Z" fill="#000C2E"/>
<path d="M128.894 61.18C127.361 61.18 126.148 60.7334 125.254 59.84C124.361 58.9334 123.914 57.7067 123.914 56.16C123.914 55.16 124.114 54.28 124.514 53.52C124.914 52.7467 125.461 52.1534 126.154 51.74C126.861 51.3134 127.674 51.1 128.594 51.1C129.914 51.1 130.948 51.5267 131.694 52.38C132.441 53.22 132.814 54.38 132.814 55.86V56.48H125.494C125.548 57.5867 125.868 58.4334 126.454 59.02C127.041 59.5934 127.854 59.88 128.894 59.88C129.481 59.88 130.041 59.7934 130.574 59.62C131.108 59.4334 131.614 59.1334 132.094 58.72L132.654 59.86C132.214 60.2734 131.654 60.6 130.974 60.84C130.294 61.0667 129.601 61.18 128.894 61.18ZM128.634 52.3C127.714 52.3 126.988 52.5867 126.454 53.16C125.921 53.7334 125.608 54.4867 125.514 55.42H131.414C131.374 54.4334 131.114 53.6667 130.634 53.12C130.168 52.5734 129.501 52.3 128.634 52.3Z" fill="#000C2E"/>
<path d="M139.379 61.18C138.405 61.18 137.565 60.9734 136.859 60.56C136.152 60.1334 135.605 59.54 135.219 58.78C134.845 58.0067 134.659 57.1067 134.659 56.08C134.659 54.5334 135.079 53.32 135.919 52.44C136.759 51.5467 137.912 51.1 139.379 51.1C139.979 51.1 140.572 51.2067 141.159 51.42C141.745 51.6334 142.232 51.9334 142.619 52.32L142.059 53.5C141.672 53.1267 141.245 52.8534 140.779 52.68C140.325 52.5067 139.892 52.42 139.479 52.42C138.465 52.42 137.685 52.74 137.139 53.38C136.592 54.0067 136.319 54.9134 136.319 56.1C136.319 57.26 136.592 58.18 137.139 58.86C137.685 59.5267 138.465 59.86 139.479 59.86C139.892 59.86 140.325 59.7734 140.779 59.6C141.245 59.4267 141.672 59.1467 142.059 58.76L142.619 59.94C142.232 60.3267 141.739 60.6334 141.139 60.86C140.552 61.0734 139.965 61.18 139.379 61.18Z" fill="#000C2E"/>
<path d="M148.517 61.18C147.37 61.18 146.51 60.88 145.937 60.28C145.363 59.6667 145.077 58.7867 145.077 57.64V52.54H143.177V51.28H145.077V48.3H146.697V51.28H149.777V52.54H146.697V57.48C146.697 58.24 146.857 58.82 147.177 59.22C147.497 59.6067 148.017 59.8 148.737 59.8C148.95 59.8 149.163 59.7734 149.377 59.72C149.59 59.6667 149.783 59.6134 149.957 59.56L150.237 60.8C150.063 60.8934 149.81 60.98 149.477 61.06C149.143 61.14 148.823 61.18 148.517 61.18Z" fill="#000C2E"/>
<path d="M155.149 61.18C152.815 61.18 151.649 59.8934 151.649 57.32V51.28H153.269V57.3C153.269 58.1667 153.442 58.8067 153.789 59.22C154.149 59.6334 154.709 59.84 155.469 59.84C156.295 59.84 156.969 59.5667 157.489 59.02C158.009 58.46 158.269 57.72 158.269 56.8V51.28H159.889V61H158.309V59.36C158.002 59.9467 157.569 60.4 157.009 60.72C156.462 61.0267 155.842 61.18 155.149 61.18Z" fill="#000C2E"/>
<path d="M163.02 61V51.28H164.6V53.02C165.12 51.8467 166.186 51.2 167.8 51.08L168.38 51.02L168.5 52.42L167.48 52.54C166.56 52.62 165.86 52.9134 165.38 53.42C164.9 53.9134 164.66 54.5934 164.66 55.46V61H163.02Z" fill="#000C2E"/>
<path d="M174.55 61.18C173.017 61.18 171.804 60.7334 170.91 59.84C170.017 58.9334 169.57 57.7067 169.57 56.16C169.57 55.16 169.77 54.28 170.17 53.52C170.57 52.7467 171.117 52.1534 171.81 51.74C172.517 51.3134 173.33 51.1 174.25 51.1C175.57 51.1 176.604 51.5267 177.35 52.38C178.097 53.22 178.47 54.38 178.47 55.86V56.48H171.15C171.204 57.5867 171.524 58.4334 172.11 59.02C172.697 59.5934 173.51 59.88 174.55 59.88C175.137 59.88 175.697 59.7934 176.23 59.62C176.764 59.4334 177.27 59.1334 177.75 58.72L178.31 59.86C177.87 60.2734 177.31 60.6 176.63 60.84C175.95 61.0667 175.257 61.18 174.55 61.18ZM174.29 52.3C173.37 52.3 172.644 52.5867 172.11 53.16C171.577 53.7334 171.264 54.4867 171.17 55.42H177.07C177.03 54.4334 176.77 53.6667 176.29 53.12C175.824 52.5734 175.157 52.3 174.29 52.3Z" fill="#000C2E"/>
<rect x="-1.62947" y="1.62947" width="180.741" height="56.7411" rx="11.4063" transform="matrix(-1 0 0 1 212.741 14)" stroke="#00ADB5" stroke-width="3.25895"/>
</g>
<g filter="url(#filter1_dd_1_1555)">
<circle cx="6" cy="6" r="6" transform="matrix(-1 0 0 1 39 38)" fill="white"/>
<circle cx="6" cy="6" r="4.77789" transform="matrix(-1 0 0 1 39 38)" stroke="#00ADB5" stroke-width="2.44421"/>
</g>
<defs>
<filter id="filter0_dd_1_1555" x="5.92842" y="0.964211" width="236.143" height="125.179" filterUnits="userSpaceOnUse" color-interpolation-filters="sRGB">
<feFlood flood-opacity="0" result="BackgroundImageFix"/>
<feColorMatrix in="SourceAlpha" type="matrix" values="0 0 0 0 0 0 0 0 0 0 0 0 0 0 0 0 0 0 127 0" result="hardAlpha"/>
<feOffset dy="26.0716"/>
<feGaussianBlur stdDeviation="13.0358"/>
<feColorMatrix type="matrix" values="0 0 0 0 0 0 0 0 0 0 0 0 0 0 0 0 0 0 0.16 0"/>
<feBlend mode="normal" in2="BackgroundImageFix" result="effect1_dropShadow_1_1555"/>
<feColorMatrix in="SourceAlpha" type="matrix" values="0 0 0 0 0 0 0 0 0 0 0 0 0 0 0 0 0 0 127 0" result="hardAlpha"/>
<feOffset/>
<feGaussianBlur stdDeviation="6.51789"/>
<feColorMatrix type="matrix" values="0 0 0 0 0 0 0 0 0 0 0 0 0 0 0 0 0 0 0.12 0"/>
<feBlend mode="normal" in2="effect1_dropShadow_1_1555" result="effect2_dropShadow_1_1555"/>
<feBlend mode="normal" in="SourceGraphic" in2="effect2_dropShadow_1_1555" result="shape"/>
</filter>
<filter id="filter1_dd_1_1555" x="0.928423" y="24.9642" width="64.1432" height="77.1789" filterUnits="userSpaceOnUse" color-interpolation-filters="sRGB">
<feFlood flood-opacity="0" result="BackgroundImageFix"/>
<feColorMatrix in="SourceAlpha" type="matrix" values="0 0 0 0 0 0 0 0 0 0 0 0 0 0 0 0 0 0 127 0" result="hardAlpha"/>
<feOffset dy="26.0716"/>
<feGaussianBlur stdDeviation="13.0358"/>
<feColorMatrix type="matrix" values="0 0 0 0 0 0 0 0 0 0 0 0 0 0 0 0 0 0 0.16 0"/>
<feBlend mode="normal" in2="BackgroundImageFix" result="effect1_dropShadow_1_1555"/>
<feColorMatrix in="SourceAlpha" type="matrix" values="0 0 0 0 0 0 0 0 0 0 0 0 0 0 0 0 0 0 127 0" result="hardAlpha"/>
<feOffset/>
<feGaussianBlur stdDeviation="6.51789"/>
<feColorMatrix type="matrix" values="0 0 0 0 0 0 0 0 0 0 0 0 0 0 0 0 0 0 0.12 0"/>
<feBlend mode="normal" in2="effect1_dropShadow_1_1555" result="effect2_dropShadow_1_1555"/>
<feBlend mode="normal" in="SourceGraphic" in2="effect2_dropShadow_1_1555" result="shape"/>
</filter>
</defs>
</svg>
