<svg width="242" height="127" viewBox="0 0 242 127" fill="none" xmlns="http://www.w3.org/2000/svg">
<g filter="url(#filter0_dd_1_1602)">
<rect x="27" y="14" width="184" height="60" rx="13.0358" fill="white"/>
<path d="M59.7485 52V35.08H61.4045L67.9085 47.296L74.3645 35.08H76.0205V52H74.1965V38.776L68.5565 49.384H67.2605L61.5485 38.8V52H59.7485Z" fill="#000C2E"/>
<path d="M79.8278 37.432V35.248H82.2278V37.432H79.8278ZM80.0678 52V40.336H82.0118V52H80.0678Z" fill="#000C2E"/>
<path d="M90.1859 52.216C89.1459 52.216 88.2339 51.968 87.4499 51.472C86.6819 50.976 86.0819 50.28 85.6499 49.384C85.2339 48.472 85.0259 47.4 85.0259 46.168C85.0259 44.92 85.2339 43.848 85.6499 42.952C86.0819 42.04 86.6819 41.344 87.4499 40.864C88.2339 40.368 89.1459 40.12 90.1859 40.12C91.0979 40.12 91.8979 40.32 92.5859 40.72C93.2899 41.12 93.8099 41.672 94.1459 42.376V35.08H96.0899V52H94.1939V49.864C93.8579 50.6 93.3379 51.176 92.6339 51.592C91.9299 52.008 91.1139 52.216 90.1859 52.216ZM90.5939 50.656C91.6819 50.656 92.5539 50.272 93.2099 49.504C93.8659 48.72 94.1939 47.608 94.1939 46.168C94.1939 44.712 93.8659 43.6 93.2099 42.832C92.5539 42.064 91.6819 41.68 90.5939 41.68C89.4899 41.68 88.6099 42.064 87.9539 42.832C87.3139 43.6 86.9939 44.712 86.9939 46.168C86.9939 47.608 87.3139 48.72 87.9539 49.504C88.6099 50.272 89.4899 50.656 90.5939 50.656Z" fill="#000C2E"/>
<path d="M97.9181 52.168L97.7741 50.512L99.2141 50.416C100.03 50.352 100.654 50.072 101.086 49.576C101.518 49.064 101.734 48.368 101.734 47.488V35.08H103.702V47.512C103.702 48.904 103.342 49.992 102.622 50.776C101.902 51.544 100.854 51.976 99.4781 52.072L97.9181 52.168Z" fill="#000C2E"/>
<path d="M112.567 52.216C111.431 52.216 110.447 51.968 109.615 51.472C108.783 50.976 108.135 50.28 107.671 49.384C107.223 48.472 106.999 47.4 106.999 46.168C106.999 44.936 107.223 43.872 107.671 42.976C108.135 42.064 108.783 41.36 109.615 40.864C110.447 40.368 111.431 40.12 112.567 40.12C113.687 40.12 114.663 40.368 115.495 40.864C116.343 41.36 116.991 42.064 117.439 42.976C117.903 43.872 118.135 44.936 118.135 46.168C118.135 47.4 117.903 48.472 117.439 49.384C116.991 50.28 116.343 50.976 115.495 51.472C114.663 51.968 113.687 52.216 112.567 52.216ZM112.567 50.656C113.655 50.656 114.527 50.272 115.183 49.504C115.839 48.72 116.167 47.608 116.167 46.168C116.167 44.712 115.839 43.6 115.183 42.832C114.527 42.064 113.655 41.68 112.567 41.68C111.463 41.68 110.583 42.064 109.927 42.832C109.287 43.6 108.967 44.712 108.967 46.168C108.967 47.608 109.287 48.72 109.927 49.504C110.583 50.272 111.463 50.656 112.567 50.656Z" fill="#000C2E"/>
<path d="M125.283 52.216C122.483 52.216 121.083 50.672 121.083 47.584V40.336H123.027V47.56C123.027 48.6 123.235 49.368 123.651 49.864C124.083 50.36 124.755 50.608 125.667 50.608C126.659 50.608 127.467 50.28 128.091 49.624C128.715 48.952 129.027 48.064 129.027 46.96V40.336H130.971V52H129.075V50.032C128.707 50.736 128.187 51.28 127.515 51.664C126.859 52.032 126.115 52.216 125.283 52.216Z" fill="#000C2E"/>
<path d="M134.708 52V40.336H136.604V42.424C137.228 41.016 138.508 40.24 140.444 40.096L141.14 40.024L141.284 41.704L140.06 41.848C138.956 41.944 138.116 42.296 137.54 42.904C136.964 43.496 136.676 44.312 136.676 45.352V52H134.708Z" fill="#000C2E"/>
<path d="M143.41 52V40.336H145.306V42.328C145.69 41.592 146.234 41.04 146.938 40.672C147.642 40.304 148.434 40.12 149.314 40.12C152.082 40.12 153.466 41.656 153.466 44.728V52H151.522V44.848C151.522 43.76 151.306 42.968 150.874 42.472C150.458 41.96 149.786 41.704 148.858 41.704C147.786 41.704 146.93 42.04 146.29 42.712C145.666 43.368 145.354 44.248 145.354 45.352V52H143.41Z" fill="#000C2E"/>
<path d="M162.407 52.216C160.567 52.216 159.111 51.68 158.039 50.608C156.967 49.52 156.431 48.048 156.431 46.192C156.431 44.992 156.671 43.936 157.151 43.024C157.631 42.096 158.287 41.384 159.119 40.888C159.967 40.376 160.943 40.12 162.047 40.12C163.631 40.12 164.871 40.632 165.767 41.656C166.663 42.664 167.111 44.056 167.111 45.832V46.576H158.327C158.391 47.904 158.775 48.92 159.479 49.624C160.183 50.312 161.159 50.656 162.407 50.656C163.111 50.656 163.783 50.552 164.423 50.344C165.063 50.12 165.671 49.76 166.247 49.264L166.919 50.632C166.391 51.128 165.719 51.52 164.903 51.808C164.087 52.08 163.255 52.216 162.407 52.216ZM162.095 41.56C160.991 41.56 160.119 41.904 159.479 42.592C158.839 43.28 158.463 44.184 158.351 45.304H165.431C165.383 44.12 165.071 43.2 164.495 42.544C163.935 41.888 163.135 41.56 162.095 41.56Z" fill="#000C2E"/>
<path d="M171.227 56.32L173.219 51.808L168.299 40.336H170.411L174.275 49.792L178.163 40.336H180.203L173.267 56.32H171.227Z" fill="#000C2E"/>
<rect x="28.6295" y="15.6295" width="180.741" height="56.7411" rx="11.4063" stroke="#00ADB5" stroke-width="3.25895"/>
</g>
<g filter="url(#filter1_dd_1_1602)">
<circle cx="209" cy="44" r="6" fill="white"/>
<circle cx="209" cy="44" r="4.77789" stroke="#00ADB5" stroke-width="2.44421"/>
</g>
<defs>
<filter id="filter0_dd_1_1602" x="0.928423" y="0.964211" width="236.143" height="125.179" filterUnits="userSpaceOnUse" color-interpolation-filters="sRGB">
<feFlood flood-opacity="0" result="BackgroundImageFix"/>
<feColorMatrix in="SourceAlpha" type="matrix" values="0 0 0 0 0 0 0 0 0 0 0 0 0 0 0 0 0 0 127 0" result="hardAlpha"/>
<feOffset dy="26.0716"/>
<feGaussianBlur stdDeviation="13.0358"/>
<feColorMatrix type="matrix" values="0 0 0 0 0 0 0 0 0 0 0 0 0 0 0 0 0 0 0.16 0"/>
<feBlend mode="normal" in2="BackgroundImageFix" result="effect1_dropShadow_1_1602"/>
<feColorMatrix in="SourceAlpha" type="matrix" values="0 0 0 0 0 0 0 0 0 0 0 0 0 0 0 0 0 0 127 0" result="hardAlpha"/>
<feOffset/>
<feGaussianBlur stdDeviation="6.51789"/>
<feColorMatrix type="matrix" values="0 0 0 0 0 0 0 0 0 0 0 0 0 0 0 0 0 0 0.12 0"/>
<feBlend mode="normal" in2="effect1_dropShadow_1_1602" result="effect2_dropShadow_1_1602"/>
<feBlend mode="normal" in="SourceGraphic" in2="effect2_dropShadow_1_1602" result="shape"/>
</filter>
<filter id="filter1_dd_1_1602" x="176.928" y="24.9642" width="64.1432" height="77.1789" filterUnits="userSpaceOnUse" color-interpolation-filters="sRGB">
<feFlood flood-opacity="0" result="BackgroundImageFix"/>
<feColorMatrix in="SourceAlpha" type="matrix" values="0 0 0 0 0 0 0 0 0 0 0 0 0 0 0 0 0 0 127 0" result="hardAlpha"/>
<feOffset dy="26.0716"/>
<feGaussianBlur stdDeviation="13.0358"/>
<feColorMatrix type="matrix" values="0 0 0 0 0 0 0 0 0 0 0 0 0 0 0 0 0 0 0.16 0"/>
<feBlend mode="normal" in2="BackgroundImageFix" result="effect1_dropShadow_1_1602"/>
<feColorMatrix in="SourceAlpha" type="matrix" values="0 0 0 0 0 0 0 0 0 0 0 0 0 0 0 0 0 0 127 0" result="hardAlpha"/>
<feOffset/>
<feGaussianBlur stdDeviation="6.51789"/>
<feColorMatrix type="matrix" values="0 0 0 0 0 0 0 0 0 0 0 0 0 0 0 0 0 0 0.12 0"/>
<feBlend mode="normal" in2="effect1_dropShadow_1_1602" result="effect2_dropShadow_1_1602"/>
<feBlend mode="normal" in="SourceGraphic" in2="effect2_dropShadow_1_1602" result="shape"/>
</filter>
</defs>
</svg>
