<svg width="248" height="127" viewBox="0 0 248 127" fill="none" xmlns="http://www.w3.org/2000/svg">
<g filter="url(#filter0_dd_1_1642)">
<rect x="32" y="14" width="184" height="60" rx="13.0358" fill="white"/>
<path d="M94.9306 52.0001V36.7841H88.7866V35.0801H103.067V36.7841H96.9226V52.0001H94.9306Z" fill="#000C2E"/>
<path d="M108.48 52.2161C106.64 52.2161 105.184 51.6801 104.112 50.6081C103.04 49.5201 102.504 48.0481 102.504 46.1921C102.504 44.9921 102.744 43.9361 103.224 43.0241C103.704 42.0961 104.36 41.3841 105.192 40.8881C106.04 40.3761 107.016 40.1201 108.12 40.1201C109.704 40.1201 110.944 40.6321 111.84 41.6561C112.736 42.6641 113.184 44.0561 113.184 45.8321V46.5761H104.4C104.464 47.9041 104.848 48.9201 105.552 49.6241C106.256 50.3121 107.232 50.6561 108.48 50.6561C109.184 50.6561 109.856 50.5521 110.496 50.3441C111.136 50.1201 111.744 49.7601 112.32 49.2641L112.992 50.6321C112.464 51.1281 111.792 51.5201 110.976 51.8081C110.16 52.0801 109.328 52.2161 108.48 52.2161ZM108.168 41.5601C107.064 41.5601 106.192 41.9041 105.552 42.5921C104.912 43.2801 104.536 44.1841 104.424 45.3041H111.504C111.456 44.1201 111.144 43.2001 110.568 42.5441C110.008 41.8881 109.208 41.5601 108.168 41.5601Z" fill="#000C2E"/>
<path d="M119.769 52.2161C118.969 52.2161 118.249 52.0641 117.609 51.7601C116.985 51.4401 116.489 51.0081 116.121 50.4641C115.753 49.9201 115.569 49.3121 115.569 48.6401C115.569 47.7921 115.785 47.1201 116.217 46.6241C116.665 46.1281 117.393 45.7761 118.401 45.5681C119.425 45.3441 120.817 45.2321 122.577 45.2321H123.345V44.4881C123.345 43.4961 123.137 42.7841 122.721 42.3521C122.321 41.9041 121.673 41.6801 120.777 41.6801C120.073 41.6801 119.393 41.7841 118.737 41.9921C118.081 42.1841 117.409 42.5041 116.721 42.9521L116.049 41.5361C116.657 41.1041 117.393 40.7601 118.257 40.5041C119.137 40.2481 119.977 40.1201 120.777 40.1201C122.281 40.1201 123.393 40.4881 124.113 41.2241C124.849 41.9601 125.217 43.1041 125.217 44.6561V52.0001H123.393V49.9841C123.089 50.6721 122.617 51.2161 121.977 51.6161C121.353 52.0161 120.617 52.2161 119.769 52.2161ZM120.081 50.7521C121.041 50.7521 121.825 50.4241 122.433 49.7681C123.041 49.0961 123.345 48.2481 123.345 47.2241V46.5041H122.601C121.305 46.5041 120.281 46.5681 119.529 46.6961C118.793 46.8081 118.273 47.0161 117.969 47.3201C117.681 47.6081 117.537 48.0081 117.537 48.5201C117.537 49.1761 117.761 49.7121 118.209 50.1281C118.673 50.5441 119.297 50.7521 120.081 50.7521Z" fill="#000C2E"/>
<path d="M128.972 52.0001V40.3361H130.868V42.3041C131.22 41.6001 131.708 41.0641 132.332 40.6961C132.956 40.3121 133.684 40.1201 134.516 40.1201C136.34 40.1201 137.508 40.9121 138.02 42.4961C138.372 41.7601 138.892 41.1841 139.58 40.7681C140.268 40.3361 141.06 40.1201 141.956 40.1201C144.548 40.1201 145.844 41.6561 145.844 44.7281V52.0001H143.9V44.8241C143.9 43.7521 143.708 42.9681 143.324 42.4721C142.956 41.9601 142.34 41.7041 141.476 41.7041C140.532 41.7041 139.78 42.0401 139.22 42.7121C138.66 43.3841 138.38 44.2801 138.38 45.4001V52.0001H136.436V44.8241C136.436 43.7521 136.244 42.9681 135.86 42.4721C135.492 41.9601 134.876 41.7041 134.012 41.7041C133.052 41.7041 132.292 42.0401 131.732 42.7121C131.188 43.3841 130.916 44.2801 130.916 45.4001V52.0001H128.972Z" fill="#000C2E"/>
<path d="M153.515 52.2161C152.603 52.2161 151.739 52.0881 150.923 51.8321C150.107 51.5761 149.435 51.2161 148.907 50.7521L149.531 49.3841C150.107 49.8481 150.739 50.1921 151.427 50.4161C152.131 50.6241 152.843 50.7281 153.563 50.7281C154.475 50.7281 155.163 50.5601 155.627 50.2241C156.091 49.8881 156.323 49.4321 156.323 48.8561C156.323 48.4081 156.171 48.0561 155.867 47.8001C155.563 47.5281 155.083 47.3201 154.427 47.1761L152.243 46.6961C150.259 46.2641 149.267 45.2401 149.267 43.6241C149.267 42.5681 149.683 41.7201 150.515 41.0801C151.363 40.4401 152.467 40.1201 153.827 40.1201C154.627 40.1201 155.387 40.2481 156.107 40.5041C156.843 40.7441 157.451 41.1041 157.931 41.5841L157.283 42.9521C156.819 42.5201 156.275 42.1921 155.651 41.9681C155.043 41.7281 154.435 41.6081 153.827 41.6081C152.931 41.6081 152.251 41.7841 151.787 42.1361C151.323 42.4881 151.091 42.9521 151.091 43.5281C151.091 44.4241 151.683 45.0001 152.867 45.2561L155.051 45.7121C156.075 45.9361 156.851 46.2961 157.379 46.7921C157.907 47.2721 158.171 47.9281 158.171 48.7601C158.171 49.8321 157.747 50.6801 156.899 51.3041C156.051 51.9121 154.923 52.2161 153.515 52.2161Z" fill="#000C2E"/>
<rect x="33.6295" y="15.6295" width="180.741" height="56.7411" rx="11.4063" stroke="#00ADB5" stroke-width="3.25895"/>
</g>
<g filter="url(#filter1_dd_1_1642)">
<circle cx="33" cy="44" r="6" fill="white"/>
<circle cx="33" cy="44" r="4.77789" stroke="#00ADB5" stroke-width="2.44421"/>
</g>
<g filter="url(#filter2_dd_1_1642)">
<circle cx="215" cy="44" r="6" fill="white"/>
<circle cx="215" cy="44" r="4.77789" stroke="#00ADB5" stroke-width="2.44421"/>
</g>
<defs>
<filter id="filter0_dd_1_1642" x="5.92842" y="0.964211" width="236.143" height="125.179" filterUnits="userSpaceOnUse" color-interpolation-filters="sRGB">
<feFlood flood-opacity="0" result="BackgroundImageFix"/>
<feColorMatrix in="SourceAlpha" type="matrix" values="0 0 0 0 0 0 0 0 0 0 0 0 0 0 0 0 0 0 127 0" result="hardAlpha"/>
<feOffset dy="26.0716"/>
<feGaussianBlur stdDeviation="13.0358"/>
<feColorMatrix type="matrix" values="0 0 0 0 0 0 0 0 0 0 0 0 0 0 0 0 0 0 0.16 0"/>
<feBlend mode="normal" in2="BackgroundImageFix" result="effect1_dropShadow_1_1642"/>
<feColorMatrix in="SourceAlpha" type="matrix" values="0 0 0 0 0 0 0 0 0 0 0 0 0 0 0 0 0 0 127 0" result="hardAlpha"/>
<feOffset/>
<feGaussianBlur stdDeviation="6.51789"/>
<feColorMatrix type="matrix" values="0 0 0 0 0 0 0 0 0 0 0 0 0 0 0 0 0 0 0.12 0"/>
<feBlend mode="normal" in2="effect1_dropShadow_1_1642" result="effect2_dropShadow_1_1642"/>
<feBlend mode="normal" in="SourceGraphic" in2="effect2_dropShadow_1_1642" result="shape"/>
</filter>
<filter id="filter1_dd_1_1642" x="0.928423" y="24.9642" width="64.1432" height="77.1789" filterUnits="userSpaceOnUse" color-interpolation-filters="sRGB">
<feFlood flood-opacity="0" result="BackgroundImageFix"/>
<feColorMatrix in="SourceAlpha" type="matrix" values="0 0 0 0 0 0 0 0 0 0 0 0 0 0 0 0 0 0 127 0" result="hardAlpha"/>
<feOffset dy="26.0716"/>
<feGaussianBlur stdDeviation="13.0358"/>
<feColorMatrix type="matrix" values="0 0 0 0 0 0 0 0 0 0 0 0 0 0 0 0 0 0 0.16 0"/>
<feBlend mode="normal" in2="BackgroundImageFix" result="effect1_dropShadow_1_1642"/>
<feColorMatrix in="SourceAlpha" type="matrix" values="0 0 0 0 0 0 0 0 0 0 0 0 0 0 0 0 0 0 127 0" result="hardAlpha"/>
<feOffset/>
<feGaussianBlur stdDeviation="6.51789"/>
<feColorMatrix type="matrix" values="0 0 0 0 0 0 0 0 0 0 0 0 0 0 0 0 0 0 0.12 0"/>
<feBlend mode="normal" in2="effect1_dropShadow_1_1642" result="effect2_dropShadow_1_1642"/>
<feBlend mode="normal" in="SourceGraphic" in2="effect2_dropShadow_1_1642" result="shape"/>
</filter>
<filter id="filter2_dd_1_1642" x="182.928" y="24.9642" width="64.1432" height="77.1789" filterUnits="userSpaceOnUse" color-interpolation-filters="sRGB">
<feFlood flood-opacity="0" result="BackgroundImageFix"/>
<feColorMatrix in="SourceAlpha" type="matrix" values="0 0 0 0 0 0 0 0 0 0 0 0 0 0 0 0 0 0 127 0" result="hardAlpha"/>
<feOffset dy="26.0716"/>
<feGaussianBlur stdDeviation="13.0358"/>
<feColorMatrix type="matrix" values="0 0 0 0 0 0 0 0 0 0 0 0 0 0 0 0 0 0 0.16 0"/>
<feBlend mode="normal" in2="BackgroundImageFix" result="effect1_dropShadow_1_1642"/>
<feColorMatrix in="SourceAlpha" type="matrix" values="0 0 0 0 0 0 0 0 0 0 0 0 0 0 0 0 0 0 127 0" result="hardAlpha"/>
<feOffset/>
<feGaussianBlur stdDeviation="6.51789"/>
<feColorMatrix type="matrix" values="0 0 0 0 0 0 0 0 0 0 0 0 0 0 0 0 0 0 0.12 0"/>
<feBlend mode="normal" in2="effect1_dropShadow_1_1642" result="effect2_dropShadow_1_1642"/>
<feBlend mode="normal" in="SourceGraphic" in2="effect2_dropShadow_1_1642" result="shape"/>
</filter>
</defs>
</svg>
