<svg width="238" height="136" viewBox="0 0 238 136" fill="none" xmlns="http://www.w3.org/2000/svg">
<g filter="url(#filter0_dd_1_1477)">
<rect width="184" height="60" rx="13.0358" transform="matrix(-1 0 0 1 211 19)" fill="white"/>
<path d="M79.7555 57L72.3635 40.08H74.4755L80.6915 54.504L86.8835 40.08H88.9475L81.5315 57H79.7555Z" fill="#000C2E"/>
<path d="M96.3366 57.216C95.0086 57.216 93.8086 57.048 92.7366 56.712C91.6646 56.36 90.7366 55.856 89.9526 55.2L90.6486 53.616C91.4646 54.24 92.3206 54.704 93.2166 55.008C94.1126 55.312 95.1526 55.464 96.3366 55.464C97.7766 55.464 98.8406 55.2 99.5286 54.672C100.233 54.128 100.585 53.416 100.585 52.536C100.585 51.832 100.329 51.272 99.8166 50.856C99.3206 50.44 98.4806 50.112 97.2966 49.872L94.8006 49.368C93.2966 49.048 92.1686 48.528 91.4166 47.808C90.6806 47.072 90.3126 46.096 90.3126 44.88C90.3126 43.872 90.5686 42.992 91.0806 42.24C91.6086 41.488 92.3366 40.904 93.2646 40.488C94.1926 40.072 95.2646 39.864 96.4806 39.864C97.6166 39.864 98.6726 40.048 99.6486 40.416C100.625 40.768 101.449 41.28 102.121 41.952L101.425 43.488C100.705 42.832 99.9446 42.36 99.1446 42.072C98.3446 41.768 97.4486 41.616 96.4566 41.616C95.1926 41.616 94.1846 41.912 93.4326 42.504C92.6806 43.08 92.3046 43.848 92.3046 44.808C92.3046 45.576 92.5366 46.184 93.0006 46.632C93.4806 47.08 94.2566 47.408 95.3286 47.616L97.8246 48.144C99.4406 48.48 100.633 48.992 101.401 49.68C102.185 50.352 102.577 51.272 102.577 52.44C102.577 53.384 102.321 54.216 101.809 54.936C101.313 55.656 100.593 56.216 99.6486 56.616C98.7206 57.016 97.6166 57.216 96.3366 57.216Z" fill="#000C2E"/>
<path d="M119.314 57.216C117.65 57.216 116.226 56.864 115.042 56.16C113.858 55.456 112.946 54.456 112.306 53.16C111.682 51.864 111.37 50.32 111.37 48.528C111.37 46.752 111.682 45.216 112.306 43.92C112.946 42.624 113.858 41.624 115.042 40.92C116.226 40.216 117.65 39.864 119.314 39.864C120.482 39.864 121.554 40.048 122.53 40.416C123.522 40.784 124.362 41.32 125.05 42.024L124.282 43.632C123.546 42.944 122.778 42.448 121.978 42.144C121.194 41.824 120.322 41.664 119.362 41.664C117.458 41.664 116.002 42.264 114.994 43.464C113.986 44.664 113.482 46.352 113.482 48.528C113.482 50.72 113.986 52.416 114.994 53.616C116.002 54.816 117.458 55.416 119.362 55.416C120.322 55.416 121.194 55.264 121.978 54.96C122.778 54.64 123.546 54.136 124.282 53.448L125.05 55.056C124.362 55.744 123.522 56.28 122.53 56.664C121.554 57.032 120.482 57.216 119.314 57.216Z" fill="#000C2E"/>
<path d="M131.983 57.216C130.847 57.216 129.863 56.968 129.031 56.472C128.199 55.976 127.551 55.28 127.087 54.384C126.639 53.472 126.415 52.4 126.415 51.168C126.415 49.936 126.639 48.872 127.087 47.976C127.551 47.064 128.199 46.36 129.031 45.864C129.863 45.368 130.847 45.12 131.983 45.12C133.103 45.12 134.079 45.368 134.911 45.864C135.759 46.36 136.407 47.064 136.855 47.976C137.319 48.872 137.551 49.936 137.551 51.168C137.551 52.4 137.319 53.472 136.855 54.384C136.407 55.28 135.759 55.976 134.911 56.472C134.079 56.968 133.103 57.216 131.983 57.216ZM131.983 55.656C133.071 55.656 133.943 55.272 134.599 54.504C135.255 53.72 135.583 52.608 135.583 51.168C135.583 49.712 135.255 48.6 134.599 47.832C133.943 47.064 133.071 46.68 131.983 46.68C130.879 46.68 129.999 47.064 129.343 47.832C128.703 48.6 128.383 49.712 128.383 51.168C128.383 52.608 128.703 53.72 129.343 54.504C129.999 55.272 130.879 55.656 131.983 55.656Z" fill="#000C2E"/>
<path d="M145.011 57.216C143.971 57.216 143.059 56.968 142.275 56.472C141.507 55.976 140.907 55.28 140.475 54.384C140.059 53.472 139.851 52.4 139.851 51.168C139.851 49.92 140.059 48.848 140.475 47.952C140.907 47.04 141.507 46.344 142.275 45.864C143.059 45.368 143.971 45.12 145.011 45.12C145.923 45.12 146.723 45.32 147.411 45.72C148.115 46.12 148.635 46.672 148.971 47.376V40.08H150.915V57H149.019V54.864C148.683 55.6 148.163 56.176 147.459 56.592C146.755 57.008 145.939 57.216 145.011 57.216ZM145.419 55.656C146.507 55.656 147.379 55.272 148.035 54.504C148.691 53.72 149.019 52.608 149.019 51.168C149.019 49.712 148.691 48.6 148.035 47.832C147.379 47.064 146.507 46.68 145.419 46.68C144.315 46.68 143.435 47.064 142.779 47.832C142.139 48.6 141.819 49.712 141.819 51.168C141.819 52.608 142.139 53.72 142.779 54.504C143.435 55.272 144.315 55.656 145.419 55.656Z" fill="#000C2E"/>
<path d="M159.919 57.216C158.079 57.216 156.623 56.68 155.551 55.608C154.479 54.52 153.943 53.048 153.943 51.192C153.943 49.992 154.183 48.936 154.663 48.024C155.143 47.096 155.799 46.384 156.631 45.888C157.479 45.376 158.455 45.12 159.559 45.12C161.143 45.12 162.383 45.632 163.279 46.656C164.175 47.664 164.623 49.056 164.623 50.832V51.576H155.839C155.903 52.904 156.287 53.92 156.991 54.624C157.695 55.312 158.671 55.656 159.919 55.656C160.623 55.656 161.295 55.552 161.935 55.344C162.575 55.12 163.183 54.76 163.759 54.264L164.431 55.632C163.903 56.128 163.231 56.52 162.415 56.808C161.599 57.08 160.767 57.216 159.919 57.216ZM159.607 46.56C158.503 46.56 157.631 46.904 156.991 47.592C156.351 48.28 155.975 49.184 155.863 50.304H162.943C162.895 49.12 162.583 48.2 162.007 47.544C161.447 46.888 160.647 46.56 159.607 46.56Z" fill="#000C2E"/>
<rect x="-1.62947" y="1.62947" width="180.741" height="56.7411" rx="11.4063" transform="matrix(-1 0 0 1 207.741 19)" stroke="#00ADB5" stroke-width="3.25895"/>
</g>
<g filter="url(#filter1_dd_1_1477)">
<circle cx="6" cy="6" r="6" transform="matrix(-1 0 0 1 124 14)" fill="white"/>
<circle cx="6" cy="6" r="4.77789" transform="matrix(-1 0 0 1 124 14)" stroke="#00ADB5" stroke-width="2.44421"/>
</g>
<g filter="url(#filter2_dd_1_1477)">
<circle cx="6" cy="6" r="6" transform="matrix(-1 0 0 1 124 71)" fill="white"/>
<circle cx="6" cy="6" r="4.77789" transform="matrix(-1 0 0 1 124 71)" stroke="#00ADB5" stroke-width="2.44421"/>
</g>
<defs>
<filter id="filter0_dd_1_1477" x="0.928423" y="5.96421" width="236.143" height="125.179" filterUnits="userSpaceOnUse" color-interpolation-filters="sRGB">
<feFlood flood-opacity="0" result="BackgroundImageFix"/>
<feColorMatrix in="SourceAlpha" type="matrix" values="0 0 0 0 0 0 0 0 0 0 0 0 0 0 0 0 0 0 127 0" result="hardAlpha"/>
<feOffset dy="26.0716"/>
<feGaussianBlur stdDeviation="13.0358"/>
<feColorMatrix type="matrix" values="0 0 0 0 0 0 0 0 0 0 0 0 0 0 0 0 0 0 0.16 0"/>
<feBlend mode="normal" in2="BackgroundImageFix" result="effect1_dropShadow_1_1477"/>
<feColorMatrix in="SourceAlpha" type="matrix" values="0 0 0 0 0 0 0 0 0 0 0 0 0 0 0 0 0 0 127 0" result="hardAlpha"/>
<feOffset/>
<feGaussianBlur stdDeviation="6.51789"/>
<feColorMatrix type="matrix" values="0 0 0 0 0 0 0 0 0 0 0 0 0 0 0 0 0 0 0.12 0"/>
<feBlend mode="normal" in2="effect1_dropShadow_1_1477" result="effect2_dropShadow_1_1477"/>
<feBlend mode="normal" in="SourceGraphic" in2="effect2_dropShadow_1_1477" result="shape"/>
</filter>
<filter id="filter1_dd_1_1477" x="85.9284" y="0.964211" width="64.1432" height="77.1789" filterUnits="userSpaceOnUse" color-interpolation-filters="sRGB">
<feFlood flood-opacity="0" result="BackgroundImageFix"/>
<feColorMatrix in="SourceAlpha" type="matrix" values="0 0 0 0 0 0 0 0 0 0 0 0 0 0 0 0 0 0 127 0" result="hardAlpha"/>
<feOffset dy="26.0716"/>
<feGaussianBlur stdDeviation="13.0358"/>
<feColorMatrix type="matrix" values="0 0 0 0 0 0 0 0 0 0 0 0 0 0 0 0 0 0 0.16 0"/>
<feBlend mode="normal" in2="BackgroundImageFix" result="effect1_dropShadow_1_1477"/>
<feColorMatrix in="SourceAlpha" type="matrix" values="0 0 0 0 0 0 0 0 0 0 0 0 0 0 0 0 0 0 127 0" result="hardAlpha"/>
<feOffset/>
<feGaussianBlur stdDeviation="6.51789"/>
<feColorMatrix type="matrix" values="0 0 0 0 0 0 0 0 0 0 0 0 0 0 0 0 0 0 0.12 0"/>
<feBlend mode="normal" in2="effect1_dropShadow_1_1477" result="effect2_dropShadow_1_1477"/>
<feBlend mode="normal" in="SourceGraphic" in2="effect2_dropShadow_1_1477" result="shape"/>
</filter>
<filter id="filter2_dd_1_1477" x="85.9284" y="57.9642" width="64.1432" height="77.1789" filterUnits="userSpaceOnUse" color-interpolation-filters="sRGB">
<feFlood flood-opacity="0" result="BackgroundImageFix"/>
<feColorMatrix in="SourceAlpha" type="matrix" values="0 0 0 0 0 0 0 0 0 0 0 0 0 0 0 0 0 0 127 0" result="hardAlpha"/>
<feOffset dy="26.0716"/>
<feGaussianBlur stdDeviation="13.0358"/>
<feColorMatrix type="matrix" values="0 0 0 0 0 0 0 0 0 0 0 0 0 0 0 0 0 0 0.16 0"/>
<feBlend mode="normal" in2="BackgroundImageFix" result="effect1_dropShadow_1_1477"/>
<feColorMatrix in="SourceAlpha" type="matrix" values="0 0 0 0 0 0 0 0 0 0 0 0 0 0 0 0 0 0 127 0" result="hardAlpha"/>
<feOffset/>
<feGaussianBlur stdDeviation="6.51789"/>
<feColorMatrix type="matrix" values="0 0 0 0 0 0 0 0 0 0 0 0 0 0 0 0 0 0 0.12 0"/>
<feBlend mode="normal" in2="effect1_dropShadow_1_1477" result="effect2_dropShadow_1_1477"/>
<feBlend mode="normal" in="SourceGraphic" in2="effect2_dropShadow_1_1477" result="shape"/>
</filter>
</defs>
</svg>
