<svg width="243" height="131" viewBox="0 0 243 131" fill="none" xmlns="http://www.w3.org/2000/svg">
<g filter="url(#filter0_dd_1_1550)">
<rect width="184" height="60" rx="13.0358" transform="matrix(-1 0 0 1 216 18)" fill="white"/>
<path d="M69.0802 45.18C67.2268 45.18 65.8202 44.6934 64.8602 43.72C63.9002 42.7334 63.4202 41.3 63.4202 39.42V30.9H65.0602V39.34C65.0602 42.26 66.4002 43.72 69.0802 43.72C71.7335 43.72 73.0602 42.26 73.0602 39.34V30.9H74.7002V39.42C74.7002 41.3 74.2202 42.7334 73.2602 43.72C72.3135 44.6934 70.9202 45.18 69.0802 45.18Z" fill="#000C2E"/>
<path d="M77.9509 45V35.28H79.5309V36.94C79.8509 36.3267 80.3043 35.8667 80.8909 35.56C81.4776 35.2534 82.1376 35.1 82.871 35.1C85.1776 35.1 86.3309 36.38 86.3309 38.94V45H84.711V39.04C84.711 38.1334 84.531 37.4734 84.1709 37.06C83.8243 36.6334 83.2643 36.42 82.4909 36.42C81.5976 36.42 80.8843 36.7 80.351 37.26C79.831 37.8067 79.5709 38.54 79.5709 39.46V45H77.9509Z" fill="#000C2E"/>
<path d="M89.4581 45V35.28H91.0381V36.92C91.3315 36.3334 91.7381 35.8867 92.2581 35.58C92.7781 35.26 93.3848 35.1 94.0781 35.1C95.5981 35.1 96.5715 35.76 96.9981 37.08C97.2915 36.4667 97.7248 35.9867 98.2981 35.64C98.8715 35.28 99.5315 35.1 100.278 35.1C102.438 35.1 103.518 36.38 103.518 38.94V45H101.898V39.02C101.898 38.1267 101.738 37.4734 101.418 37.06C101.111 36.6334 100.598 36.42 99.8781 36.42C99.0915 36.42 98.4648 36.7 97.9981 37.26C97.5315 37.82 97.2981 38.5667 97.2981 39.5V45H95.6781V39.02C95.6781 38.1267 95.5181 37.4734 95.1981 37.06C94.8915 36.6334 94.3781 36.42 93.6581 36.42C92.8581 36.42 92.2248 36.7 91.7581 37.26C91.3048 37.82 91.0781 38.5667 91.0781 39.5V45H89.4581Z" fill="#000C2E"/>
<path d="M110.687 45.18C109.74 45.18 108.92 44.9734 108.227 44.56C107.534 44.1467 106.994 43.5667 106.607 42.82C106.234 42.06 106.047 41.1667 106.047 40.14C106.047 39.1134 106.234 38.2267 106.607 37.48C106.994 36.72 107.534 36.1334 108.227 35.72C108.92 35.3067 109.74 35.1 110.687 35.1C111.62 35.1 112.434 35.3067 113.127 35.72C113.834 36.1334 114.374 36.72 114.747 37.48C115.134 38.2267 115.327 39.1134 115.327 40.14C115.327 41.1667 115.134 42.06 114.747 42.82C114.374 43.5667 113.834 44.1467 113.127 44.56C112.434 44.9734 111.62 45.18 110.687 45.18ZM110.687 43.88C111.594 43.88 112.32 43.56 112.867 42.92C113.414 42.2667 113.687 41.34 113.687 40.14C113.687 38.9267 113.414 38 112.867 37.36C112.32 36.72 111.594 36.4 110.687 36.4C109.767 36.4 109.034 36.72 108.487 37.36C107.954 38 107.687 38.9267 107.687 40.14C107.687 41.34 107.954 42.2667 108.487 42.92C109.034 43.56 109.767 43.88 110.687 43.88Z" fill="#000C2E"/>
<path d="M121.56 45.18C120.694 45.18 119.934 44.9734 119.28 44.56C118.64 44.1467 118.14 43.5667 117.78 42.82C117.434 42.06 117.26 41.1667 117.26 40.14C117.26 39.1 117.434 38.2067 117.78 37.46C118.14 36.7 118.64 36.12 119.28 35.72C119.934 35.3067 120.694 35.1 121.56 35.1C122.32 35.1 122.987 35.2667 123.56 35.6C124.147 35.9334 124.58 36.3934 124.86 36.98V30.9H126.48V45H124.9V43.22C124.62 43.8334 124.187 44.3134 123.6 44.66C123.014 45.0067 122.334 45.18 121.56 45.18ZM121.9 43.88C122.807 43.88 123.534 43.56 124.08 42.92C124.627 42.2667 124.9 41.34 124.9 40.14C124.9 38.9267 124.627 38 124.08 37.36C123.534 36.72 122.807 36.4 121.9 36.4C120.98 36.4 120.247 36.72 119.7 37.36C119.167 38 118.9 38.9267 118.9 40.14C118.9 41.34 119.167 42.2667 119.7 42.92C120.247 43.56 120.98 43.88 121.9 43.88Z" fill="#000C2E"/>
<path d="M134 45.18C132.467 45.18 131.254 44.7334 130.36 43.84C129.467 42.9334 129.02 41.7067 129.02 40.16C129.02 39.16 129.22 38.28 129.62 37.52C130.02 36.7467 130.567 36.1534 131.26 35.74C131.967 35.3134 132.78 35.1 133.7 35.1C135.02 35.1 136.054 35.5267 136.8 36.38C137.547 37.22 137.92 38.38 137.92 39.86V40.48H130.6C130.654 41.5867 130.974 42.4334 131.56 43.02C132.147 43.5934 132.96 43.88 134 43.88C134.587 43.88 135.147 43.7934 135.68 43.62C136.214 43.4334 136.72 43.1334 137.2 42.72L137.76 43.86C137.32 44.2734 136.76 44.6 136.08 44.84C135.4 45.0667 134.707 45.18 134 45.18ZM133.74 36.3C132.82 36.3 132.094 36.5867 131.56 37.16C131.027 37.7334 130.714 38.4867 130.62 39.42H136.52C136.48 38.4334 136.22 37.6667 135.74 37.12C135.274 36.5734 134.607 36.3 133.74 36.3Z" fill="#000C2E"/>
<path d="M140.365 45V35.28H141.945V37.02C142.465 35.8467 143.532 35.2 145.145 35.08L145.725 35.02L145.845 36.42L144.825 36.54C143.905 36.62 143.205 36.9134 142.725 37.42C142.245 37.9134 142.005 38.5934 142.005 39.46V45H140.365Z" fill="#000C2E"/>
<path d="M150.595 45.18C149.929 45.18 149.329 45.0534 148.795 44.8C148.275 44.5334 147.862 44.1734 147.555 43.72C147.249 43.2667 147.095 42.76 147.095 42.2C147.095 41.4934 147.275 40.9334 147.635 40.52C148.009 40.1067 148.615 39.8134 149.455 39.64C150.309 39.4534 151.469 39.36 152.935 39.36H153.575V38.74C153.575 37.9134 153.402 37.32 153.055 36.96C152.722 36.5867 152.182 36.4 151.435 36.4C150.849 36.4 150.282 36.4867 149.735 36.66C149.189 36.82 148.629 37.0867 148.055 37.46L147.495 36.28C148.002 35.92 148.615 35.6334 149.335 35.42C150.069 35.2067 150.769 35.1 151.435 35.1C152.689 35.1 153.615 35.4067 154.215 36.02C154.829 36.6334 155.135 37.5867 155.135 38.88V45H153.615V43.32C153.362 43.8934 152.969 44.3467 152.435 44.68C151.915 45.0134 151.302 45.18 150.595 45.18ZM150.855 43.96C151.655 43.96 152.309 43.6867 152.815 43.14C153.322 42.58 153.575 41.8734 153.575 41.02V40.42H152.955C151.875 40.42 151.022 40.4734 150.395 40.58C149.782 40.6734 149.349 40.8467 149.095 41.1C148.855 41.34 148.735 41.6734 148.735 42.1C148.735 42.6467 148.922 43.0934 149.295 43.44C149.682 43.7867 150.202 43.96 150.855 43.96Z" fill="#000C2E"/>
<path d="M162.141 45.18C160.994 45.18 160.134 44.88 159.561 44.28C158.987 43.6667 158.701 42.7867 158.701 41.64V36.54H156.801V35.28H158.701V32.3H160.321V35.28H163.401V36.54H160.321V41.48C160.321 42.24 160.481 42.82 160.801 43.22C161.121 43.6067 161.641 43.8 162.361 43.8C162.574 43.8 162.787 43.7734 163.001 43.72C163.214 43.6667 163.407 43.6134 163.581 43.56L163.861 44.8C163.687 44.8934 163.434 44.98 163.101 45.06C162.767 45.14 162.447 45.18 162.141 45.18Z" fill="#000C2E"/>
<path d="M169.615 45.18C168.082 45.18 166.869 44.7334 165.975 43.84C165.082 42.9334 164.635 41.7067 164.635 40.16C164.635 39.16 164.835 38.28 165.235 37.52C165.635 36.7467 166.182 36.1534 166.875 35.74C167.582 35.3134 168.395 35.1 169.315 35.1C170.635 35.1 171.669 35.5267 172.415 36.38C173.162 37.22 173.535 38.38 173.535 39.86V40.48H166.215C166.269 41.5867 166.589 42.4334 167.175 43.02C167.762 43.5934 168.575 43.88 169.615 43.88C170.202 43.88 170.762 43.7934 171.295 43.62C171.829 43.4334 172.335 43.1334 172.815 42.72L173.375 43.86C172.935 44.2734 172.375 44.6 171.695 44.84C171.015 45.0667 170.322 45.18 169.615 45.18ZM169.355 36.3C168.435 36.3 167.709 36.5867 167.175 37.16C166.642 37.7334 166.329 38.4867 166.235 39.42H172.135C172.095 38.4334 171.835 37.6667 171.355 37.12C170.889 36.5734 170.222 36.3 169.355 36.3Z" fill="#000C2E"/>
<path d="M179.68 45.18C178.813 45.18 178.053 44.9734 177.4 44.56C176.76 44.1467 176.26 43.5667 175.9 42.82C175.553 42.06 175.38 41.1667 175.38 40.14C175.38 39.1 175.553 38.2067 175.9 37.46C176.26 36.7 176.76 36.12 177.4 35.72C178.053 35.3067 178.813 35.1 179.68 35.1C180.44 35.1 181.107 35.2667 181.68 35.6C182.267 35.9334 182.7 36.3934 182.98 36.98V30.9H184.6V45H183.02V43.22C182.74 43.8334 182.307 44.3134 181.72 44.66C181.133 45.0067 180.453 45.18 179.68 45.18ZM180.02 43.88C180.927 43.88 181.653 43.56 182.2 42.92C182.747 42.2667 183.02 41.34 183.02 40.14C183.02 38.9267 182.747 38 182.2 37.36C181.653 36.72 180.927 36.4 180.02 36.4C179.1 36.4 178.367 36.72 177.82 37.36C177.287 38 177.02 38.9267 177.02 40.14C177.02 41.34 177.287 42.2667 177.82 42.92C178.367 43.56 179.1 43.88 180.02 43.88Z" fill="#000C2E"/>
<path d="M84.2084 65V50.9H89.7884C91.3084 50.9 92.4684 51.2534 93.2684 51.96C94.0818 52.6667 94.4884 53.6734 94.4884 54.98C94.4884 56.02 94.2018 56.8734 93.6284 57.54C93.0684 58.2067 92.2684 58.64 91.2284 58.84C91.8418 59.0534 92.3684 59.5734 92.8084 60.4L95.2884 65H93.4884L91.0484 60.48C90.7418 59.92 90.3884 59.54 89.9884 59.34C89.5884 59.14 89.0618 59.04 88.4084 59.04H85.8484V65H84.2084ZM85.8484 57.74H89.5484C91.7618 57.74 92.8684 56.82 92.8684 54.98C92.8684 53.1667 91.7618 52.26 89.5484 52.26H85.8484V57.74Z" fill="#000C2E"/>
<path d="M101.633 65.18C100.099 65.18 98.8858 64.7334 97.9925 63.84C97.0992 62.9334 96.6525 61.7067 96.6525 60.16C96.6525 59.16 96.8525 58.28 97.2525 57.52C97.6525 56.7467 98.1992 56.1534 98.8925 55.74C99.5992 55.3134 100.413 55.1 101.333 55.1C102.653 55.1 103.686 55.5267 104.433 56.38C105.179 57.22 105.553 58.38 105.553 59.86V60.48H98.2325C98.2858 61.5867 98.6058 62.4334 99.1925 63.02C99.7792 63.5934 100.593 63.88 101.633 63.88C102.219 63.88 102.779 63.7934 103.313 63.62C103.846 63.4334 104.353 63.1334 104.833 62.72L105.393 63.86C104.953 64.2734 104.393 64.6 103.713 64.84C103.033 65.0667 102.339 65.18 101.633 65.18ZM101.373 56.3C100.453 56.3 99.7258 56.5867 99.1925 57.16C98.6592 57.7334 98.3458 58.4867 98.2525 59.42H104.153C104.113 58.4334 103.853 57.6667 103.373 57.12C102.906 56.5734 102.239 56.3 101.373 56.3Z" fill="#000C2E"/>
<path d="M111.277 65.18C110.517 65.18 109.797 65.0734 109.117 64.86C108.437 64.6467 107.877 64.3467 107.437 63.96L107.957 62.82C108.437 63.2067 108.964 63.4934 109.537 63.68C110.124 63.8534 110.717 63.94 111.317 63.94C112.077 63.94 112.65 63.8 113.037 63.52C113.424 63.24 113.617 62.86 113.617 62.38C113.617 62.0067 113.49 61.7134 113.237 61.5C112.984 61.2734 112.584 61.1 112.037 60.98L110.217 60.58C108.564 60.22 107.737 59.3667 107.737 58.02C107.737 57.14 108.084 56.4334 108.777 55.9C109.484 55.3667 110.404 55.1 111.537 55.1C112.204 55.1 112.837 55.2067 113.437 55.42C114.05 55.62 114.557 55.92 114.957 56.32L114.417 57.46C114.03 57.1 113.577 56.8267 113.057 56.64C112.55 56.44 112.044 56.34 111.537 56.34C110.79 56.34 110.224 56.4867 109.837 56.78C109.45 57.0734 109.257 57.46 109.257 57.94C109.257 58.6867 109.75 59.1667 110.737 59.38L112.557 59.76C113.41 59.9467 114.057 60.2467 114.497 60.66C114.937 61.06 115.157 61.6067 115.157 62.3C115.157 63.1934 114.804 63.9 114.097 64.42C113.39 64.9267 112.45 65.18 111.277 65.18Z" fill="#000C2E"/>
<path d="M122.106 65.18C120.573 65.18 119.359 64.7334 118.466 63.84C117.573 62.9334 117.126 61.7067 117.126 60.16C117.126 59.16 117.326 58.28 117.726 57.52C118.126 56.7467 118.673 56.1534 119.366 55.74C120.073 55.3134 120.886 55.1 121.806 55.1C123.126 55.1 124.159 55.5267 124.906 56.38C125.653 57.22 126.026 58.38 126.026 59.86V60.48H118.706C118.759 61.5867 119.079 62.4334 119.666 63.02C120.253 63.5934 121.066 63.88 122.106 63.88C122.693 63.88 123.253 63.7934 123.786 63.62C124.319 63.4334 124.826 63.1334 125.306 62.72L125.866 63.86C125.426 64.2734 124.866 64.6 124.186 64.84C123.506 65.0667 122.813 65.18 122.106 65.18ZM121.846 56.3C120.926 56.3 120.199 56.5867 119.666 57.16C119.133 57.7334 118.819 58.4867 118.726 59.42H124.626C124.586 58.4334 124.326 57.6667 123.846 57.12C123.379 56.5734 122.713 56.3 121.846 56.3Z" fill="#000C2E"/>
<path d="M131.53 65.18C130.864 65.18 130.264 65.0534 129.73 64.8C129.21 64.5334 128.797 64.1734 128.49 63.72C128.184 63.2667 128.03 62.76 128.03 62.2C128.03 61.4934 128.21 60.9334 128.57 60.52C128.944 60.1067 129.55 59.8134 130.39 59.64C131.244 59.4534 132.404 59.36 133.87 59.36H134.51V58.74C134.51 57.9134 134.337 57.32 133.99 56.96C133.657 56.5867 133.117 56.4 132.37 56.4C131.784 56.4 131.217 56.4867 130.67 56.66C130.124 56.82 129.564 57.0867 128.99 57.46L128.43 56.28C128.937 55.92 129.55 55.6334 130.27 55.42C131.004 55.2067 131.704 55.1 132.37 55.1C133.624 55.1 134.55 55.4067 135.15 56.02C135.764 56.6334 136.07 57.5867 136.07 58.88V65H134.55V63.32C134.297 63.8934 133.904 64.3467 133.37 64.68C132.85 65.0134 132.237 65.18 131.53 65.18ZM131.79 63.96C132.59 63.96 133.244 63.6867 133.75 63.14C134.257 62.58 134.51 61.8734 134.51 61.02V60.42H133.89C132.81 60.42 131.957 60.4734 131.33 60.58C130.717 60.6734 130.284 60.8467 130.03 61.1C129.79 61.34 129.67 61.6734 129.67 62.1C129.67 62.6467 129.857 63.0934 130.23 63.44C130.617 63.7867 131.137 63.96 131.79 63.96Z" fill="#000C2E"/>
<path d="M139.176 65V55.28H140.756V57.02C141.276 55.8467 142.343 55.2 143.956 55.08L144.536 55.02L144.656 56.42L143.636 56.54C142.716 56.62 142.016 56.9134 141.536 57.42C141.056 57.9134 140.816 58.5934 140.816 59.46V65H139.176Z" fill="#000C2E"/>
<path d="M150.447 65.18C149.473 65.18 148.633 64.9734 147.927 64.56C147.22 64.1334 146.673 63.54 146.287 62.78C145.913 62.0067 145.727 61.1067 145.727 60.08C145.727 58.5334 146.147 57.32 146.987 56.44C147.827 55.5467 148.98 55.1 150.447 55.1C151.047 55.1 151.64 55.2067 152.227 55.42C152.813 55.6334 153.3 55.9334 153.687 56.32L153.127 57.5C152.74 57.1267 152.313 56.8534 151.847 56.68C151.393 56.5067 150.96 56.42 150.547 56.42C149.533 56.42 148.753 56.74 148.207 57.38C147.66 58.0067 147.387 58.9134 147.387 60.1C147.387 61.26 147.66 62.18 148.207 62.86C148.753 63.5267 149.533 63.86 150.547 63.86C150.96 63.86 151.393 63.7734 151.847 63.6C152.313 63.4267 152.74 63.1467 153.127 62.76L153.687 63.94C153.3 64.3267 152.807 64.6334 152.207 64.86C151.62 65.0734 151.033 65.18 150.447 65.18Z" fill="#000C2E"/>
<path d="M155.685 65V50.9H157.305V56.88C157.625 56.2934 158.071 55.8534 158.645 55.56C159.231 55.2534 159.885 55.1 160.605 55.1C162.911 55.1 164.065 56.38 164.065 58.94V65H162.445V59.04C162.445 58.1334 162.265 57.4734 161.905 57.06C161.558 56.6334 160.998 56.42 160.225 56.42C159.331 56.42 158.618 56.7 158.085 57.26C157.565 57.8067 157.305 58.54 157.305 59.46V65H155.685Z" fill="#000C2E"/>
<rect x="-1.62947" y="1.62947" width="180.741" height="56.7411" rx="11.4063" transform="matrix(-1 0 0 1 212.741 18)" stroke="#00ADB5" stroke-width="3.25895"/>
</g>
<g filter="url(#filter1_dd_1_1550)">
<circle cx="6" cy="6" r="6" transform="matrix(-1 0 0 1 129 14)" fill="white"/>
<circle cx="6" cy="6" r="4.77789" transform="matrix(-1 0 0 1 129 14)" stroke="#00ADB5" stroke-width="2.44421"/>
</g>
<g filter="url(#filter2_dd_1_1550)">
<circle cx="6" cy="6" r="6" transform="matrix(-1 0 0 1 39 42)" fill="white"/>
<circle cx="6" cy="6" r="4.77789" transform="matrix(-1 0 0 1 39 42)" stroke="#00ADB5" stroke-width="2.44421"/>
</g>
<defs>
<filter id="filter0_dd_1_1550" x="5.92842" y="4.96421" width="236.143" height="125.179" filterUnits="userSpaceOnUse" color-interpolation-filters="sRGB">
<feFlood flood-opacity="0" result="BackgroundImageFix"/>
<feColorMatrix in="SourceAlpha" type="matrix" values="0 0 0 0 0 0 0 0 0 0 0 0 0 0 0 0 0 0 127 0" result="hardAlpha"/>
<feOffset dy="26.0716"/>
<feGaussianBlur stdDeviation="13.0358"/>
<feColorMatrix type="matrix" values="0 0 0 0 0 0 0 0 0 0 0 0 0 0 0 0 0 0 0.16 0"/>
<feBlend mode="normal" in2="BackgroundImageFix" result="effect1_dropShadow_1_1550"/>
<feColorMatrix in="SourceAlpha" type="matrix" values="0 0 0 0 0 0 0 0 0 0 0 0 0 0 0 0 0 0 127 0" result="hardAlpha"/>
<feOffset/>
<feGaussianBlur stdDeviation="6.51789"/>
<feColorMatrix type="matrix" values="0 0 0 0 0 0 0 0 0 0 0 0 0 0 0 0 0 0 0.12 0"/>
<feBlend mode="normal" in2="effect1_dropShadow_1_1550" result="effect2_dropShadow_1_1550"/>
<feBlend mode="normal" in="SourceGraphic" in2="effect2_dropShadow_1_1550" result="shape"/>
</filter>
<filter id="filter1_dd_1_1550" x="90.9284" y="0.964211" width="64.1432" height="77.1789" filterUnits="userSpaceOnUse" color-interpolation-filters="sRGB">
<feFlood flood-opacity="0" result="BackgroundImageFix"/>
<feColorMatrix in="SourceAlpha" type="matrix" values="0 0 0 0 0 0 0 0 0 0 0 0 0 0 0 0 0 0 127 0" result="hardAlpha"/>
<feOffset dy="26.0716"/>
<feGaussianBlur stdDeviation="13.0358"/>
<feColorMatrix type="matrix" values="0 0 0 0 0 0 0 0 0 0 0 0 0 0 0 0 0 0 0.16 0"/>
<feBlend mode="normal" in2="BackgroundImageFix" result="effect1_dropShadow_1_1550"/>
<feColorMatrix in="SourceAlpha" type="matrix" values="0 0 0 0 0 0 0 0 0 0 0 0 0 0 0 0 0 0 127 0" result="hardAlpha"/>
<feOffset/>
<feGaussianBlur stdDeviation="6.51789"/>
<feColorMatrix type="matrix" values="0 0 0 0 0 0 0 0 0 0 0 0 0 0 0 0 0 0 0.12 0"/>
<feBlend mode="normal" in2="effect1_dropShadow_1_1550" result="effect2_dropShadow_1_1550"/>
<feBlend mode="normal" in="SourceGraphic" in2="effect2_dropShadow_1_1550" result="shape"/>
</filter>
<filter id="filter2_dd_1_1550" x="0.928423" y="28.9642" width="64.1432" height="77.1789" filterUnits="userSpaceOnUse" color-interpolation-filters="sRGB">
<feFlood flood-opacity="0" result="BackgroundImageFix"/>
<feColorMatrix in="SourceAlpha" type="matrix" values="0 0 0 0 0 0 0 0 0 0 0 0 0 0 0 0 0 0 127 0" result="hardAlpha"/>
<feOffset dy="26.0716"/>
<feGaussianBlur stdDeviation="13.0358"/>
<feColorMatrix type="matrix" values="0 0 0 0 0 0 0 0 0 0 0 0 0 0 0 0 0 0 0.16 0"/>
<feBlend mode="normal" in2="BackgroundImageFix" result="effect1_dropShadow_1_1550"/>
<feColorMatrix in="SourceAlpha" type="matrix" values="0 0 0 0 0 0 0 0 0 0 0 0 0 0 0 0 0 0 127 0" result="hardAlpha"/>
<feOffset/>
<feGaussianBlur stdDeviation="6.51789"/>
<feColorMatrix type="matrix" values="0 0 0 0 0 0 0 0 0 0 0 0 0 0 0 0 0 0 0.12 0"/>
<feBlend mode="normal" in2="effect1_dropShadow_1_1550" result="effect2_dropShadow_1_1550"/>
<feBlend mode="normal" in="SourceGraphic" in2="effect2_dropShadow_1_1550" result="shape"/>
</filter>
</defs>
</svg>
