<svg width="238" height="131" viewBox="0 0 238 131" fill="none" xmlns="http://www.w3.org/2000/svg">
<g filter="url(#filter0_dd_1_1579)">
<rect x="27" y="14" width="184" height="60" rx="13.0358" fill="white"/>
<path d="M111.141 52.216C108.885 52.216 107.157 51.624 105.957 50.44C104.773 49.24 104.181 47.488 104.181 45.184V35.08H106.677V45.136C106.677 48.416 108.165 50.056 111.141 50.056C114.117 50.056 115.605 48.416 115.605 45.136V35.08H118.053V45.184C118.053 47.488 117.469 49.24 116.301 50.44C115.133 51.624 113.413 52.216 111.141 52.216Z" fill="#000C2E"/>
<path d="M119.896 52L126.352 43.36L120.16 35.08H123.04L127.768 41.536L132.448 35.08H135.352L129.16 43.36L135.592 52H132.688L127.744 45.232L122.824 52H119.896Z" fill="#000C2E"/>
<rect x="28.6295" y="15.6295" width="180.741" height="56.7411" rx="11.4063" stroke="#00ADB5" stroke-width="3.25895"/>
</g>
<g filter="url(#filter1_dd_1_1579)">
<circle cx="119" cy="72" r="6" fill="white"/>
<circle cx="119" cy="72" r="4.77789" stroke="#00ADB5" stroke-width="2.44421"/>
</g>
<defs>
<filter id="filter0_dd_1_1579" x="0.928423" y="0.964211" width="236.143" height="125.179" filterUnits="userSpaceOnUse" color-interpolation-filters="sRGB">
<feFlood flood-opacity="0" result="BackgroundImageFix"/>
<feColorMatrix in="SourceAlpha" type="matrix" values="0 0 0 0 0 0 0 0 0 0 0 0 0 0 0 0 0 0 127 0" result="hardAlpha"/>
<feOffset dy="26.0716"/>
<feGaussianBlur stdDeviation="13.0358"/>
<feColorMatrix type="matrix" values="0 0 0 0 0 0 0 0 0 0 0 0 0 0 0 0 0 0 0.16 0"/>
<feBlend mode="normal" in2="BackgroundImageFix" result="effect1_dropShadow_1_1579"/>
<feColorMatrix in="SourceAlpha" type="matrix" values="0 0 0 0 0 0 0 0 0 0 0 0 0 0 0 0 0 0 127 0" result="hardAlpha"/>
<feOffset/>
<feGaussianBlur stdDeviation="6.51789"/>
<feColorMatrix type="matrix" values="0 0 0 0 0 0 0 0 0 0 0 0 0 0 0 0 0 0 0.12 0"/>
<feBlend mode="normal" in2="effect1_dropShadow_1_1579" result="effect2_dropShadow_1_1579"/>
<feBlend mode="normal" in="SourceGraphic" in2="effect2_dropShadow_1_1579" result="shape"/>
</filter>
<filter id="filter1_dd_1_1579" x="86.9284" y="52.9642" width="64.1432" height="77.1789" filterUnits="userSpaceOnUse" color-interpolation-filters="sRGB">
<feFlood flood-opacity="0" result="BackgroundImageFix"/>
<feColorMatrix in="SourceAlpha" type="matrix" values="0 0 0 0 0 0 0 0 0 0 0 0 0 0 0 0 0 0 127 0" result="hardAlpha"/>
<feOffset dy="26.0716"/>
<feGaussianBlur stdDeviation="13.0358"/>
<feColorMatrix type="matrix" values="0 0 0 0 0 0 0 0 0 0 0 0 0 0 0 0 0 0 0.16 0"/>
<feBlend mode="normal" in2="BackgroundImageFix" result="effect1_dropShadow_1_1579"/>
<feColorMatrix in="SourceAlpha" type="matrix" values="0 0 0 0 0 0 0 0 0 0 0 0 0 0 0 0 0 0 127 0" result="hardAlpha"/>
<feOffset/>
<feGaussianBlur stdDeviation="6.51789"/>
<feColorMatrix type="matrix" values="0 0 0 0 0 0 0 0 0 0 0 0 0 0 0 0 0 0 0.12 0"/>
<feBlend mode="normal" in2="effect1_dropShadow_1_1579" result="effect2_dropShadow_1_1579"/>
<feBlend mode="normal" in="SourceGraphic" in2="effect2_dropShadow_1_1579" result="shape"/>
</filter>
</defs>
</svg>
