<svg width="243" height="131" viewBox="0 0 243 131" fill="none" xmlns="http://www.w3.org/2000/svg">
<g filter="url(#filter0_dd_1_1676)">
<rect width="184" height="60" rx="13.0358" transform="matrix(-1 0 0 1 216 14)" fill="white"/>
<path d="M84.9746 52V35.08H86.9426V42.76H86.9906L95.1986 35.08H97.7186L88.8866 43.312L98.2466 52H95.6546L86.9906 44.032H86.9426V52H84.9746Z" fill="#000C2E"/>
<path d="M103.483 52.216C102.683 52.216 101.963 52.064 101.323 51.76C100.699 51.44 100.203 51.008 99.8346 50.464C99.4666 49.92 99.2826 49.312 99.2826 48.64C99.2826 47.792 99.4986 47.12 99.9306 46.624C100.379 46.128 101.107 45.776 102.115 45.568C103.139 45.344 104.531 45.232 106.291 45.232H107.059V44.488C107.059 43.496 106.851 42.784 106.435 42.352C106.035 41.904 105.387 41.68 104.491 41.68C103.787 41.68 103.107 41.784 102.451 41.992C101.795 42.184 101.123 42.504 100.435 42.952L99.7626 41.536C100.371 41.104 101.107 40.76 101.971 40.504C102.851 40.248 103.691 40.12 104.491 40.12C105.995 40.12 107.107 40.488 107.827 41.224C108.563 41.96 108.931 43.104 108.931 44.656V52H107.107V49.984C106.803 50.672 106.331 51.216 105.691 51.616C105.067 52.016 104.331 52.216 103.483 52.216ZM103.795 50.752C104.755 50.752 105.539 50.424 106.147 49.768C106.755 49.096 107.059 48.248 107.059 47.224V46.504H106.315C105.019 46.504 103.995 46.568 103.243 46.696C102.507 46.808 101.987 47.016 101.683 47.32C101.395 47.608 101.251 48.008 101.251 48.52C101.251 49.176 101.475 49.712 101.923 50.128C102.387 50.544 103.011 50.752 103.795 50.752Z" fill="#000C2E"/>
<path d="M112.637 52V40.336H114.533V42.328C114.917 41.592 115.461 41.04 116.165 40.672C116.869 40.304 117.661 40.12 118.541 40.12C121.309 40.12 122.693 41.656 122.693 44.728V52H120.749V44.848C120.749 43.76 120.533 42.968 120.101 42.472C119.685 41.96 119.013 41.704 118.085 41.704C117.013 41.704 116.157 42.04 115.517 42.712C114.893 43.368 114.581 44.248 114.581 45.352V52H112.637Z" fill="#000C2E"/>
<path d="M132.282 52.216C131.354 52.216 130.538 52.008 129.834 51.592C129.146 51.176 128.626 50.608 128.274 49.888V52H126.378V35.08H128.322V42.352C128.658 41.664 129.178 41.12 129.882 40.72C130.586 40.32 131.386 40.12 132.282 40.12C133.322 40.12 134.226 40.368 134.994 40.864C135.778 41.344 136.378 42.04 136.794 42.952C137.226 43.848 137.442 44.92 137.442 46.168C137.442 47.4 137.226 48.472 136.794 49.384C136.378 50.28 135.778 50.976 134.994 51.472C134.226 51.968 133.322 52.216 132.282 52.216ZM131.874 50.656C132.962 50.656 133.834 50.272 134.49 49.504C135.146 48.72 135.474 47.608 135.474 46.168C135.474 44.712 135.146 43.6 134.49 42.832C133.834 42.064 132.962 41.68 131.874 41.68C130.786 41.68 129.914 42.064 129.258 42.832C128.602 43.6 128.274 44.712 128.274 46.168C128.274 47.608 128.602 48.72 129.258 49.504C129.914 50.272 130.786 50.656 131.874 50.656Z" fill="#000C2E"/>
<path d="M144.142 52.216C143.342 52.216 142.622 52.064 141.982 51.76C141.358 51.44 140.862 51.008 140.494 50.464C140.126 49.92 139.942 49.312 139.942 48.64C139.942 47.792 140.158 47.12 140.59 46.624C141.038 46.128 141.766 45.776 142.774 45.568C143.798 45.344 145.19 45.232 146.95 45.232H147.718V44.488C147.718 43.496 147.51 42.784 147.094 42.352C146.694 41.904 146.046 41.68 145.15 41.68C144.446 41.68 143.766 41.784 143.11 41.992C142.454 42.184 141.782 42.504 141.094 42.952L140.422 41.536C141.03 41.104 141.766 40.76 142.63 40.504C143.51 40.248 144.35 40.12 145.15 40.12C146.654 40.12 147.766 40.488 148.486 41.224C149.222 41.96 149.59 43.104 149.59 44.656V52H147.766V49.984C147.462 50.672 146.99 51.216 146.35 51.616C145.726 52.016 144.99 52.216 144.142 52.216ZM144.454 50.752C145.414 50.752 146.198 50.424 146.806 49.768C147.414 49.096 147.718 48.248 147.718 47.224V46.504H146.974C145.678 46.504 144.654 46.568 143.902 46.696C143.166 46.808 142.646 47.016 142.342 47.32C142.054 47.608 141.91 48.008 141.91 48.52C141.91 49.176 142.134 49.712 142.582 50.128C143.046 50.544 143.67 50.752 144.454 50.752Z" fill="#000C2E"/>
<path d="M153.297 52V40.336H155.193V42.328C155.577 41.592 156.121 41.04 156.825 40.672C157.529 40.304 158.321 40.12 159.201 40.12C161.969 40.12 163.353 41.656 163.353 44.728V52H161.409V44.848C161.409 43.76 161.193 42.968 160.761 42.472C160.345 41.96 159.673 41.704 158.745 41.704C157.673 41.704 156.817 42.04 156.177 42.712C155.553 43.368 155.241 44.248 155.241 45.352V52H153.297Z" fill="#000C2E"/>
<rect x="-1.62947" y="1.62947" width="180.741" height="56.7411" rx="11.4063" transform="matrix(-1 0 0 1 212.741 14)" stroke="#00ADB5" stroke-width="3.25895"/>
</g>
<g filter="url(#filter1_dd_1_1676)">
<circle cx="6" cy="6" r="6" transform="matrix(-1 0 0 1 129 66)" fill="white"/>
<circle cx="6" cy="6" r="4.77789" transform="matrix(-1 0 0 1 129 66)" stroke="#00ADB5" stroke-width="2.44421"/>
</g>
<g filter="url(#filter2_dd_1_1676)">
<circle cx="6" cy="6" r="6" transform="matrix(-1 0 0 1 39 38)" fill="white"/>
<circle cx="6" cy="6" r="4.77789" transform="matrix(-1 0 0 1 39 38)" stroke="#00ADB5" stroke-width="2.44421"/>
</g>
<defs>
<filter id="filter0_dd_1_1676" x="5.92842" y="0.964211" width="236.143" height="125.179" filterUnits="userSpaceOnUse" color-interpolation-filters="sRGB">
<feFlood flood-opacity="0" result="BackgroundImageFix"/>
<feColorMatrix in="SourceAlpha" type="matrix" values="0 0 0 0 0 0 0 0 0 0 0 0 0 0 0 0 0 0 127 0" result="hardAlpha"/>
<feOffset dy="26.0716"/>
<feGaussianBlur stdDeviation="13.0358"/>
<feColorMatrix type="matrix" values="0 0 0 0 0 0 0 0 0 0 0 0 0 0 0 0 0 0 0.16 0"/>
<feBlend mode="normal" in2="BackgroundImageFix" result="effect1_dropShadow_1_1676"/>
<feColorMatrix in="SourceAlpha" type="matrix" values="0 0 0 0 0 0 0 0 0 0 0 0 0 0 0 0 0 0 127 0" result="hardAlpha"/>
<feOffset/>
<feGaussianBlur stdDeviation="6.51789"/>
<feColorMatrix type="matrix" values="0 0 0 0 0 0 0 0 0 0 0 0 0 0 0 0 0 0 0.12 0"/>
<feBlend mode="normal" in2="effect1_dropShadow_1_1676" result="effect2_dropShadow_1_1676"/>
<feBlend mode="normal" in="SourceGraphic" in2="effect2_dropShadow_1_1676" result="shape"/>
</filter>
<filter id="filter1_dd_1_1676" x="90.9284" y="52.9642" width="64.1432" height="77.1789" filterUnits="userSpaceOnUse" color-interpolation-filters="sRGB">
<feFlood flood-opacity="0" result="BackgroundImageFix"/>
<feColorMatrix in="SourceAlpha" type="matrix" values="0 0 0 0 0 0 0 0 0 0 0 0 0 0 0 0 0 0 127 0" result="hardAlpha"/>
<feOffset dy="26.0716"/>
<feGaussianBlur stdDeviation="13.0358"/>
<feColorMatrix type="matrix" values="0 0 0 0 0 0 0 0 0 0 0 0 0 0 0 0 0 0 0.16 0"/>
<feBlend mode="normal" in2="BackgroundImageFix" result="effect1_dropShadow_1_1676"/>
<feColorMatrix in="SourceAlpha" type="matrix" values="0 0 0 0 0 0 0 0 0 0 0 0 0 0 0 0 0 0 127 0" result="hardAlpha"/>
<feOffset/>
<feGaussianBlur stdDeviation="6.51789"/>
<feColorMatrix type="matrix" values="0 0 0 0 0 0 0 0 0 0 0 0 0 0 0 0 0 0 0.12 0"/>
<feBlend mode="normal" in2="effect1_dropShadow_1_1676" result="effect2_dropShadow_1_1676"/>
<feBlend mode="normal" in="SourceGraphic" in2="effect2_dropShadow_1_1676" result="shape"/>
</filter>
<filter id="filter2_dd_1_1676" x="0.928423" y="24.9642" width="64.1432" height="77.1789" filterUnits="userSpaceOnUse" color-interpolation-filters="sRGB">
<feFlood flood-opacity="0" result="BackgroundImageFix"/>
<feColorMatrix in="SourceAlpha" type="matrix" values="0 0 0 0 0 0 0 0 0 0 0 0 0 0 0 0 0 0 127 0" result="hardAlpha"/>
<feOffset dy="26.0716"/>
<feGaussianBlur stdDeviation="13.0358"/>
<feColorMatrix type="matrix" values="0 0 0 0 0 0 0 0 0 0 0 0 0 0 0 0 0 0 0.16 0"/>
<feBlend mode="normal" in2="BackgroundImageFix" result="effect1_dropShadow_1_1676"/>
<feColorMatrix in="SourceAlpha" type="matrix" values="0 0 0 0 0 0 0 0 0 0 0 0 0 0 0 0 0 0 127 0" result="hardAlpha"/>
<feOffset/>
<feGaussianBlur stdDeviation="6.51789"/>
<feColorMatrix type="matrix" values="0 0 0 0 0 0 0 0 0 0 0 0 0 0 0 0 0 0 0.12 0"/>
<feBlend mode="normal" in2="effect1_dropShadow_1_1676" result="effect2_dropShadow_1_1676"/>
<feBlend mode="normal" in="SourceGraphic" in2="effect2_dropShadow_1_1676" result="shape"/>
</filter>
</defs>
</svg>
