<svg width="247" height="131" viewBox="0 0 247 131" fill="none" xmlns="http://www.w3.org/2000/svg">
<g filter="url(#filter0_dd_1_1606)">
<rect x="32" y="14" width="184" height="60" rx="13.0358" fill="white"/>
<path d="M92.8528 52V35.08H103.317V36.736H94.8208V42.64H102.837V44.296H94.8208V52H92.8528Z" fill="#000C2E"/>
<path d="M105.597 37.432V35.248H107.997V37.432H105.597ZM105.837 52V40.336H107.781V52H105.837Z" fill="#000C2E"/>
<path d="M116.675 56.536C115.667 56.536 114.715 56.4 113.819 56.128C112.939 55.872 112.155 55.48 111.467 54.952L112.115 53.536C112.835 54.048 113.547 54.416 114.251 54.64C114.971 54.864 115.747 54.976 116.579 54.976C118.883 54.976 120.035 53.792 120.035 51.424V49.36C119.699 50.096 119.171 50.68 118.451 51.112C117.747 51.528 116.939 51.736 116.027 51.736C114.955 51.736 114.027 51.488 113.243 50.992C112.459 50.496 111.851 49.816 111.419 48.952C111.003 48.072 110.795 47.056 110.795 45.904C110.795 44.752 111.003 43.744 111.419 42.88C111.851 42 112.459 41.32 113.243 40.84C114.027 40.36 114.955 40.12 116.027 40.12C116.939 40.12 117.747 40.328 118.451 40.744C119.171 41.16 119.699 41.728 120.035 42.448V40.336H121.931V51.16C121.931 52.952 121.483 54.296 120.587 55.192C119.707 56.088 118.403 56.536 116.675 56.536ZM116.387 50.152C117.507 50.152 118.395 49.768 119.051 49C119.707 48.232 120.035 47.2 120.035 45.904C120.035 44.608 119.707 43.584 119.051 42.832C118.395 42.064 117.507 41.68 116.387 41.68C115.283 41.68 114.403 42.064 113.747 42.832C113.091 43.584 112.763 44.608 112.763 45.904C112.763 47.2 113.091 48.232 113.747 49C114.403 49.768 115.283 50.152 116.387 50.152Z" fill="#000C2E"/>
<path d="M125.726 52V40.336H127.622V42.304C127.974 41.6 128.462 41.064 129.086 40.696C129.71 40.312 130.438 40.12 131.27 40.12C133.094 40.12 134.262 40.912 134.774 42.496C135.126 41.76 135.646 41.184 136.334 40.768C137.022 40.336 137.814 40.12 138.71 40.12C141.302 40.12 142.598 41.656 142.598 44.728V52H140.654V44.824C140.654 43.752 140.462 42.968 140.078 42.472C139.71 41.96 139.094 41.704 138.23 41.704C137.286 41.704 136.534 42.04 135.974 42.712C135.414 43.384 135.134 44.28 135.134 45.4V52H133.19V44.824C133.19 43.752 132.998 42.968 132.614 42.472C132.246 41.96 131.63 41.704 130.766 41.704C129.806 41.704 129.046 42.04 128.486 42.712C127.942 43.384 127.67 44.28 127.67 45.4V52H125.726Z" fill="#000C2E"/>
<path d="M150.005 52.216C149.205 52.216 148.485 52.064 147.845 51.76C147.221 51.44 146.725 51.008 146.357 50.464C145.989 49.92 145.805 49.312 145.805 48.64C145.805 47.792 146.021 47.12 146.453 46.624C146.901 46.128 147.629 45.776 148.637 45.568C149.661 45.344 151.053 45.232 152.813 45.232H153.581V44.488C153.581 43.496 153.373 42.784 152.957 42.352C152.557 41.904 151.909 41.68 151.013 41.68C150.309 41.68 149.629 41.784 148.973 41.992C148.317 42.184 147.645 42.504 146.957 42.952L146.285 41.536C146.893 41.104 147.629 40.76 148.493 40.504C149.373 40.248 150.213 40.12 151.013 40.12C152.517 40.12 153.629 40.488 154.349 41.224C155.085 41.96 155.453 43.104 155.453 44.656V52H153.629V49.984C153.325 50.672 152.853 51.216 152.213 51.616C151.589 52.016 150.853 52.216 150.005 52.216ZM150.317 50.752C151.277 50.752 152.061 50.424 152.669 49.768C153.277 49.096 153.581 48.248 153.581 47.224V46.504H152.837C151.541 46.504 150.517 46.568 149.765 46.696C149.029 46.808 148.509 47.016 148.205 47.32C147.917 47.608 147.773 48.008 147.773 48.52C147.773 49.176 147.997 49.712 148.445 50.128C148.909 50.544 149.533 50.752 150.317 50.752Z" fill="#000C2E"/>
<rect x="33.6295" y="15.6295" width="180.741" height="56.7411" rx="11.4063" stroke="#00ADB5" stroke-width="3.25895"/>
</g>
<g filter="url(#filter1_dd_1_1606)">
<circle cx="214" cy="44" r="6" fill="white"/>
<circle cx="214" cy="44" r="4.77789" stroke="#00ADB5" stroke-width="2.44421"/>
</g>
<g filter="url(#filter2_dd_1_1606)">
<circle cx="124" cy="72" r="6" fill="white"/>
<circle cx="124" cy="72" r="4.77789" stroke="#00ADB5" stroke-width="2.44421"/>
</g>
<g filter="url(#filter3_dd_1_1606)">
<circle cx="33" cy="44" r="6" fill="white"/>
<circle cx="33" cy="44" r="4.77789" stroke="#00ADB5" stroke-width="2.44421"/>
</g>
<defs>
<filter id="filter0_dd_1_1606" x="5.92842" y="0.964211" width="236.143" height="125.179" filterUnits="userSpaceOnUse" color-interpolation-filters="sRGB">
<feFlood flood-opacity="0" result="BackgroundImageFix"/>
<feColorMatrix in="SourceAlpha" type="matrix" values="0 0 0 0 0 0 0 0 0 0 0 0 0 0 0 0 0 0 127 0" result="hardAlpha"/>
<feOffset dy="26.0716"/>
<feGaussianBlur stdDeviation="13.0358"/>
<feColorMatrix type="matrix" values="0 0 0 0 0 0 0 0 0 0 0 0 0 0 0 0 0 0 0.16 0"/>
<feBlend mode="normal" in2="BackgroundImageFix" result="effect1_dropShadow_1_1606"/>
<feColorMatrix in="SourceAlpha" type="matrix" values="0 0 0 0 0 0 0 0 0 0 0 0 0 0 0 0 0 0 127 0" result="hardAlpha"/>
<feOffset/>
<feGaussianBlur stdDeviation="6.51789"/>
<feColorMatrix type="matrix" values="0 0 0 0 0 0 0 0 0 0 0 0 0 0 0 0 0 0 0.12 0"/>
<feBlend mode="normal" in2="effect1_dropShadow_1_1606" result="effect2_dropShadow_1_1606"/>
<feBlend mode="normal" in="SourceGraphic" in2="effect2_dropShadow_1_1606" result="shape"/>
</filter>
<filter id="filter1_dd_1_1606" x="181.928" y="24.9642" width="64.1432" height="77.1789" filterUnits="userSpaceOnUse" color-interpolation-filters="sRGB">
<feFlood flood-opacity="0" result="BackgroundImageFix"/>
<feColorMatrix in="SourceAlpha" type="matrix" values="0 0 0 0 0 0 0 0 0 0 0 0 0 0 0 0 0 0 127 0" result="hardAlpha"/>
<feOffset dy="26.0716"/>
<feGaussianBlur stdDeviation="13.0358"/>
<feColorMatrix type="matrix" values="0 0 0 0 0 0 0 0 0 0 0 0 0 0 0 0 0 0 0.16 0"/>
<feBlend mode="normal" in2="BackgroundImageFix" result="effect1_dropShadow_1_1606"/>
<feColorMatrix in="SourceAlpha" type="matrix" values="0 0 0 0 0 0 0 0 0 0 0 0 0 0 0 0 0 0 127 0" result="hardAlpha"/>
<feOffset/>
<feGaussianBlur stdDeviation="6.51789"/>
<feColorMatrix type="matrix" values="0 0 0 0 0 0 0 0 0 0 0 0 0 0 0 0 0 0 0.12 0"/>
<feBlend mode="normal" in2="effect1_dropShadow_1_1606" result="effect2_dropShadow_1_1606"/>
<feBlend mode="normal" in="SourceGraphic" in2="effect2_dropShadow_1_1606" result="shape"/>
</filter>
<filter id="filter2_dd_1_1606" x="91.9284" y="52.9642" width="64.1432" height="77.1789" filterUnits="userSpaceOnUse" color-interpolation-filters="sRGB">
<feFlood flood-opacity="0" result="BackgroundImageFix"/>
<feColorMatrix in="SourceAlpha" type="matrix" values="0 0 0 0 0 0 0 0 0 0 0 0 0 0 0 0 0 0 127 0" result="hardAlpha"/>
<feOffset dy="26.0716"/>
<feGaussianBlur stdDeviation="13.0358"/>
<feColorMatrix type="matrix" values="0 0 0 0 0 0 0 0 0 0 0 0 0 0 0 0 0 0 0.16 0"/>
<feBlend mode="normal" in2="BackgroundImageFix" result="effect1_dropShadow_1_1606"/>
<feColorMatrix in="SourceAlpha" type="matrix" values="0 0 0 0 0 0 0 0 0 0 0 0 0 0 0 0 0 0 127 0" result="hardAlpha"/>
<feOffset/>
<feGaussianBlur stdDeviation="6.51789"/>
<feColorMatrix type="matrix" values="0 0 0 0 0 0 0 0 0 0 0 0 0 0 0 0 0 0 0.12 0"/>
<feBlend mode="normal" in2="effect1_dropShadow_1_1606" result="effect2_dropShadow_1_1606"/>
<feBlend mode="normal" in="SourceGraphic" in2="effect2_dropShadow_1_1606" result="shape"/>
</filter>
<filter id="filter3_dd_1_1606" x="0.928423" y="24.9642" width="64.1432" height="77.1789" filterUnits="userSpaceOnUse" color-interpolation-filters="sRGB">
<feFlood flood-opacity="0" result="BackgroundImageFix"/>
<feColorMatrix in="SourceAlpha" type="matrix" values="0 0 0 0 0 0 0 0 0 0 0 0 0 0 0 0 0 0 127 0" result="hardAlpha"/>
<feOffset dy="26.0716"/>
<feGaussianBlur stdDeviation="13.0358"/>
<feColorMatrix type="matrix" values="0 0 0 0 0 0 0 0 0 0 0 0 0 0 0 0 0 0 0.16 0"/>
<feBlend mode="normal" in2="BackgroundImageFix" result="effect1_dropShadow_1_1606"/>
<feColorMatrix in="SourceAlpha" type="matrix" values="0 0 0 0 0 0 0 0 0 0 0 0 0 0 0 0 0 0 127 0" result="hardAlpha"/>
<feOffset/>
<feGaussianBlur stdDeviation="6.51789"/>
<feColorMatrix type="matrix" values="0 0 0 0 0 0 0 0 0 0 0 0 0 0 0 0 0 0 0.12 0"/>
<feBlend mode="normal" in2="effect1_dropShadow_1_1606" result="effect2_dropShadow_1_1606"/>
<feBlend mode="normal" in="SourceGraphic" in2="effect2_dropShadow_1_1606" result="shape"/>
</filter>
</defs>
</svg>
