<svg width="238" height="135" viewBox="0 0 238 135" fill="none" xmlns="http://www.w3.org/2000/svg">
<g filter="url(#filter0_dd_1_1559)">
<rect x="27" y="18" width="184" height="60" rx="13.0358" fill="white"/>
<path d="M85.588 56.0001V39.0801H87.556V54.2721H96.172V56.0001H85.588Z" fill="#000C2E"/>
<path d="M103.186 56.2161C102.05 56.2161 101.066 55.9681 100.234 55.4721C99.4021 54.9761 98.7541 54.2801 98.2901 53.3841C97.8421 52.4721 97.6181 51.4001 97.6181 50.1681C97.6181 48.9361 97.8421 47.8721 98.2901 46.9761C98.7541 46.0641 99.4021 45.3601 100.234 44.8641C101.066 44.3681 102.05 44.1201 103.186 44.1201C104.306 44.1201 105.282 44.3681 106.114 44.8641C106.962 45.3601 107.61 46.0641 108.058 46.9761C108.522 47.8721 108.754 48.9361 108.754 50.1681C108.754 51.4001 108.522 52.4721 108.058 53.3841C107.61 54.2801 106.962 54.9761 106.114 55.4721C105.282 55.9681 104.306 56.2161 103.186 56.2161ZM103.186 54.6561C104.274 54.6561 105.146 54.2721 105.802 53.5041C106.458 52.7201 106.786 51.6081 106.786 50.1681C106.786 48.7121 106.458 47.6001 105.802 46.8321C105.146 46.0641 104.274 45.6801 103.186 45.6801C102.082 45.6801 101.202 46.0641 100.546 46.8321C99.9061 47.6001 99.5861 48.7121 99.5861 50.1681C99.5861 51.6081 99.9061 52.7201 100.546 53.5041C101.202 54.2721 102.082 54.6561 103.186 54.6561Z" fill="#000C2E"/>
<path d="M116.718 56.2161C115.55 56.2161 114.542 55.9681 113.694 55.4721C112.846 54.9601 112.19 54.2481 111.726 53.3361C111.278 52.4081 111.054 51.3281 111.054 50.0961C111.054 48.2401 111.558 46.7841 112.566 45.7281C113.574 44.6561 114.958 44.1201 116.718 44.1201C117.438 44.1201 118.15 44.2481 118.854 44.5041C119.558 44.7601 120.142 45.1201 120.606 45.5841L119.934 47.0001C119.47 46.5521 118.958 46.2241 118.398 46.0161C117.854 45.8081 117.334 45.7041 116.838 45.7041C115.622 45.7041 114.686 46.0881 114.03 46.8561C113.374 47.6081 113.046 48.6961 113.046 50.1201C113.046 51.5121 113.374 52.6161 114.03 53.4321C114.686 54.2321 115.622 54.6321 116.838 54.6321C117.334 54.6321 117.854 54.5281 118.398 54.3201C118.958 54.1121 119.47 53.7761 119.934 53.3121L120.606 54.7281C120.142 55.1921 119.55 55.5601 118.83 55.8321C118.126 56.0881 117.422 56.2161 116.718 56.2161Z" fill="#000C2E"/>
<path d="M127.597 56.2161C126.461 56.2161 125.477 55.9681 124.645 55.4721C123.813 54.9761 123.165 54.2801 122.701 53.3841C122.253 52.4721 122.029 51.4001 122.029 50.1681C122.029 48.9361 122.253 47.8721 122.701 46.9761C123.165 46.0641 123.813 45.3601 124.645 44.8641C125.477 44.3681 126.461 44.1201 127.597 44.1201C128.717 44.1201 129.693 44.3681 130.525 44.8641C131.373 45.3601 132.021 46.0641 132.469 46.9761C132.933 47.8721 133.165 48.9361 133.165 50.1681C133.165 51.4001 132.933 52.4721 132.469 53.3841C132.021 54.2801 131.373 54.9761 130.525 55.4721C129.693 55.9681 128.717 56.2161 127.597 56.2161ZM127.597 54.6561C128.685 54.6561 129.557 54.2721 130.213 53.5041C130.869 52.7201 131.197 51.6081 131.197 50.1681C131.197 48.7121 130.869 47.6001 130.213 46.8321C129.557 46.0641 128.685 45.6801 127.597 45.6801C126.493 45.6801 125.613 46.0641 124.957 46.8321C124.317 47.6001 123.997 48.7121 123.997 50.1681C123.997 51.6081 124.317 52.7201 124.957 53.5041C125.613 54.2721 126.493 54.6561 127.597 54.6561Z" fill="#000C2E"/>
<path d="M136.692 56.0001V45.8481H134.388V44.3361H136.692V43.9281C136.692 42.3761 137.076 41.2001 137.844 40.4001C138.628 39.6001 139.828 39.1521 141.444 39.0561L142.38 39.0081L142.548 40.4961L141.444 40.5681C140.452 40.6481 139.732 40.9441 139.284 41.4561C138.852 41.9681 138.636 42.7121 138.636 43.6881V44.3361H141.996V45.8481H138.636V56.0001H136.692Z" fill="#000C2E"/>
<path d="M145.34 60.3201L147.332 55.8081L142.412 44.3361H144.524L148.388 53.7921L152.276 44.3361H154.316L147.38 60.3201H145.34Z" fill="#000C2E"/>
<rect x="28.6295" y="19.6295" width="180.741" height="56.7411" rx="11.4063" stroke="#00ADB5" stroke-width="3.25895"/>
</g>
<g filter="url(#filter1_dd_1_1559)">
<circle cx="119" cy="20" r="6" fill="white"/>
<circle cx="119" cy="20" r="4.77789" stroke="#00ADB5" stroke-width="2.44421"/>
</g>
<g filter="url(#filter2_dd_1_1559)">
<circle cx="119" cy="76" r="6" fill="white"/>
<circle cx="119" cy="76" r="4.77789" stroke="#00ADB5" stroke-width="2.44421"/>
</g>
<defs>
<filter id="filter0_dd_1_1559" x="0.928423" y="4.96421" width="236.143" height="125.179" filterUnits="userSpaceOnUse" color-interpolation-filters="sRGB">
<feFlood flood-opacity="0" result="BackgroundImageFix"/>
<feColorMatrix in="SourceAlpha" type="matrix" values="0 0 0 0 0 0 0 0 0 0 0 0 0 0 0 0 0 0 127 0" result="hardAlpha"/>
<feOffset dy="26.0716"/>
<feGaussianBlur stdDeviation="13.0358"/>
<feColorMatrix type="matrix" values="0 0 0 0 0 0 0 0 0 0 0 0 0 0 0 0 0 0 0.16 0"/>
<feBlend mode="normal" in2="BackgroundImageFix" result="effect1_dropShadow_1_1559"/>
<feColorMatrix in="SourceAlpha" type="matrix" values="0 0 0 0 0 0 0 0 0 0 0 0 0 0 0 0 0 0 127 0" result="hardAlpha"/>
<feOffset/>
<feGaussianBlur stdDeviation="6.51789"/>
<feColorMatrix type="matrix" values="0 0 0 0 0 0 0 0 0 0 0 0 0 0 0 0 0 0 0.12 0"/>
<feBlend mode="normal" in2="effect1_dropShadow_1_1559" result="effect2_dropShadow_1_1559"/>
<feBlend mode="normal" in="SourceGraphic" in2="effect2_dropShadow_1_1559" result="shape"/>
</filter>
<filter id="filter1_dd_1_1559" x="86.9284" y="0.964211" width="64.1432" height="77.1789" filterUnits="userSpaceOnUse" color-interpolation-filters="sRGB">
<feFlood flood-opacity="0" result="BackgroundImageFix"/>
<feColorMatrix in="SourceAlpha" type="matrix" values="0 0 0 0 0 0 0 0 0 0 0 0 0 0 0 0 0 0 127 0" result="hardAlpha"/>
<feOffset dy="26.0716"/>
<feGaussianBlur stdDeviation="13.0358"/>
<feColorMatrix type="matrix" values="0 0 0 0 0 0 0 0 0 0 0 0 0 0 0 0 0 0 0.16 0"/>
<feBlend mode="normal" in2="BackgroundImageFix" result="effect1_dropShadow_1_1559"/>
<feColorMatrix in="SourceAlpha" type="matrix" values="0 0 0 0 0 0 0 0 0 0 0 0 0 0 0 0 0 0 127 0" result="hardAlpha"/>
<feOffset/>
<feGaussianBlur stdDeviation="6.51789"/>
<feColorMatrix type="matrix" values="0 0 0 0 0 0 0 0 0 0 0 0 0 0 0 0 0 0 0.12 0"/>
<feBlend mode="normal" in2="effect1_dropShadow_1_1559" result="effect2_dropShadow_1_1559"/>
<feBlend mode="normal" in="SourceGraphic" in2="effect2_dropShadow_1_1559" result="shape"/>
</filter>
<filter id="filter2_dd_1_1559" x="86.9284" y="56.9642" width="64.1432" height="77.1789" filterUnits="userSpaceOnUse" color-interpolation-filters="sRGB">
<feFlood flood-opacity="0" result="BackgroundImageFix"/>
<feColorMatrix in="SourceAlpha" type="matrix" values="0 0 0 0 0 0 0 0 0 0 0 0 0 0 0 0 0 0 127 0" result="hardAlpha"/>
<feOffset dy="26.0716"/>
<feGaussianBlur stdDeviation="13.0358"/>
<feColorMatrix type="matrix" values="0 0 0 0 0 0 0 0 0 0 0 0 0 0 0 0 0 0 0.16 0"/>
<feBlend mode="normal" in2="BackgroundImageFix" result="effect1_dropShadow_1_1559"/>
<feColorMatrix in="SourceAlpha" type="matrix" values="0 0 0 0 0 0 0 0 0 0 0 0 0 0 0 0 0 0 127 0" result="hardAlpha"/>
<feOffset/>
<feGaussianBlur stdDeviation="6.51789"/>
<feColorMatrix type="matrix" values="0 0 0 0 0 0 0 0 0 0 0 0 0 0 0 0 0 0 0.12 0"/>
<feBlend mode="normal" in2="effect1_dropShadow_1_1559" result="effect2_dropShadow_1_1559"/>
<feBlend mode="normal" in="SourceGraphic" in2="effect2_dropShadow_1_1559" result="shape"/>
</filter>
</defs>
</svg>
