<svg width="242" height="131" viewBox="0 0 242 131" fill="none" xmlns="http://www.w3.org/2000/svg">
<g filter="url(#filter0_dd_1_1545)">
<rect x="27" y="18" width="184" height="60" rx="13.0358" fill="white"/>
<path d="M77.559 45V30.9H78.939L84.359 41.08L89.739 30.9H91.119V45H89.599V33.98L84.899 42.82H83.819L79.059 34V45H77.559Z" fill="#000C2E"/>
<path d="M98.5483 45.18C97.6017 45.18 96.7817 44.9734 96.0883 44.56C95.395 44.1467 94.855 43.5667 94.4683 42.82C94.095 42.06 93.9083 41.1667 93.9083 40.14C93.9083 39.1134 94.095 38.2267 94.4683 37.48C94.855 36.72 95.395 36.1334 96.0883 35.72C96.7817 35.3067 97.6017 35.1 98.5483 35.1C99.4817 35.1 100.295 35.3067 100.988 35.72C101.695 36.1334 102.235 36.72 102.608 37.48C102.995 38.2267 103.188 39.1134 103.188 40.14C103.188 41.1667 102.995 42.06 102.608 42.82C102.235 43.5667 101.695 44.1467 100.988 44.56C100.295 44.9734 99.4817 45.18 98.5483 45.18ZM98.5483 43.88C99.455 43.88 100.182 43.56 100.728 42.92C101.275 42.2667 101.548 41.34 101.548 40.14C101.548 38.9267 101.275 38 100.728 37.36C100.182 36.72 99.455 36.4 98.5483 36.4C97.6283 36.4 96.895 36.72 96.3483 37.36C95.815 38 95.5483 38.9267 95.5483 40.14C95.5483 41.34 95.815 42.2667 96.3483 42.92C96.895 43.56 97.6283 43.88 98.5483 43.88Z" fill="#000C2E"/>
<path d="M109.422 45.18C108.555 45.18 107.795 44.9734 107.142 44.56C106.502 44.1467 106.002 43.5667 105.642 42.82C105.295 42.06 105.122 41.1667 105.122 40.14C105.122 39.1 105.295 38.2067 105.642 37.46C106.002 36.7 106.502 36.12 107.142 35.72C107.795 35.3067 108.555 35.1 109.422 35.1C110.182 35.1 110.848 35.2667 111.422 35.6C112.008 35.9334 112.442 36.3934 112.722 36.98V30.9H114.342V45H112.762V43.22C112.482 43.8334 112.048 44.3134 111.462 44.66C110.875 45.0067 110.195 45.18 109.422 45.18ZM109.762 43.88C110.668 43.88 111.395 43.56 111.942 42.92C112.488 42.2667 112.762 41.34 112.762 40.14C112.762 38.9267 112.488 38 111.942 37.36C111.395 36.72 110.668 36.4 109.762 36.4C108.842 36.4 108.108 36.72 107.562 37.36C107.028 38 106.762 38.9267 106.762 40.14C106.762 41.34 107.028 42.2667 107.562 42.92C108.108 43.56 108.842 43.88 109.762 43.88Z" fill="#000C2E"/>
<path d="M121.862 45.18C120.328 45.18 119.115 44.7334 118.222 43.84C117.328 42.9334 116.882 41.7067 116.882 40.16C116.882 39.16 117.082 38.28 117.482 37.52C117.882 36.7467 118.428 36.1534 119.122 35.74C119.828 35.3134 120.642 35.1 121.562 35.1C122.882 35.1 123.915 35.5267 124.662 36.38C125.408 37.22 125.782 38.38 125.782 39.86V40.48H118.462C118.515 41.5867 118.835 42.4334 119.422 43.02C120.008 43.5934 120.822 43.88 121.862 43.88C122.448 43.88 123.008 43.7934 123.542 43.62C124.075 43.4334 124.582 43.1334 125.062 42.72L125.622 43.86C125.182 44.2734 124.622 44.6 123.942 44.84C123.262 45.0667 122.568 45.18 121.862 45.18ZM121.602 36.3C120.682 36.3 119.955 36.5867 119.422 37.16C118.888 37.7334 118.575 38.4867 118.482 39.42H124.382C124.342 38.4334 124.082 37.6667 123.602 37.12C123.135 36.5734 122.468 36.3 121.602 36.3Z" fill="#000C2E"/>
<path d="M128.226 45V35.28H129.806V37.02C130.326 35.8467 131.393 35.2 133.006 35.08L133.586 35.02L133.706 36.42L132.686 36.54C131.766 36.62 131.066 36.9134 130.586 37.42C130.106 37.9134 129.866 38.5934 129.866 39.46V45H128.226Z" fill="#000C2E"/>
<path d="M138.457 45.18C137.79 45.18 137.19 45.0534 136.657 44.8C136.137 44.5334 135.723 44.1734 135.417 43.72C135.11 43.2667 134.957 42.76 134.957 42.2C134.957 41.4934 135.137 40.9334 135.497 40.52C135.87 40.1067 136.477 39.8134 137.317 39.64C138.17 39.4534 139.33 39.36 140.797 39.36H141.437V38.74C141.437 37.9134 141.263 37.32 140.917 36.96C140.583 36.5867 140.043 36.4 139.297 36.4C138.71 36.4 138.143 36.4867 137.597 36.66C137.05 36.82 136.49 37.0867 135.917 37.46L135.357 36.28C135.863 35.92 136.477 35.6334 137.197 35.42C137.93 35.2067 138.63 35.1 139.297 35.1C140.55 35.1 141.477 35.4067 142.077 36.02C142.69 36.6334 142.997 37.5867 142.997 38.88V45H141.477V43.32C141.223 43.8934 140.83 44.3467 140.297 44.68C139.777 45.0134 139.163 45.18 138.457 45.18ZM138.717 43.96C139.517 43.96 140.17 43.6867 140.677 43.14C141.183 42.58 141.437 41.8734 141.437 41.02V40.42H140.817C139.737 40.42 138.883 40.4734 138.257 40.58C137.643 40.6734 137.21 40.8467 136.957 41.1C136.717 41.34 136.597 41.6734 136.597 42.1C136.597 42.6467 136.783 43.0934 137.157 43.44C137.543 43.7867 138.063 43.96 138.717 43.96Z" fill="#000C2E"/>
<path d="M150.002 45.18C148.855 45.18 147.995 44.88 147.422 44.28C146.849 43.6667 146.562 42.7867 146.562 41.64V36.54H144.662V35.28H146.562V32.3H148.182V35.28H151.262V36.54H148.182V41.48C148.182 42.24 148.342 42.82 148.662 43.22C148.982 43.6067 149.502 43.8 150.222 43.8C150.435 43.8 150.649 43.7734 150.862 43.72C151.075 43.6667 151.269 43.6134 151.442 43.56L151.722 44.8C151.549 44.8934 151.295 44.98 150.962 45.06C150.629 45.14 150.309 45.18 150.002 45.18Z" fill="#000C2E"/>
<path d="M157.477 45.18C155.943 45.18 154.73 44.7334 153.837 43.84C152.943 42.9334 152.497 41.7067 152.497 40.16C152.497 39.16 152.697 38.28 153.097 37.52C153.497 36.7467 154.043 36.1534 154.737 35.74C155.443 35.3134 156.257 35.1 157.177 35.1C158.497 35.1 159.53 35.5267 160.277 36.38C161.023 37.22 161.397 38.38 161.397 39.86V40.48H154.077C154.13 41.5867 154.45 42.4334 155.037 43.02C155.623 43.5934 156.437 43.88 157.477 43.88C158.063 43.88 158.623 43.7934 159.157 43.62C159.69 43.4334 160.197 43.1334 160.677 42.72L161.237 43.86C160.797 44.2734 160.237 44.6 159.557 44.84C158.877 45.0667 158.183 45.18 157.477 45.18ZM157.217 36.3C156.297 36.3 155.57 36.5867 155.037 37.16C154.503 37.7334 154.19 38.4867 154.097 39.42H159.997C159.957 38.4334 159.697 37.6667 159.217 37.12C158.75 36.5734 158.083 36.3 157.217 36.3Z" fill="#000C2E"/>
<path d="M79.1584 65V50.9H84.7384C86.2584 50.9 87.4184 51.2534 88.2184 51.96C89.0317 52.6667 89.4384 53.6734 89.4384 54.98C89.4384 56.02 89.1517 56.8734 88.5784 57.54C88.0184 58.2067 87.2184 58.64 86.1784 58.84C86.7917 59.0534 87.3184 59.5734 87.7584 60.4L90.2384 65H88.4384L85.9984 60.48C85.6917 59.92 85.3384 59.54 84.9384 59.34C84.5384 59.14 84.0117 59.04 83.3584 59.04H80.7984V65H79.1584ZM80.7984 57.74H84.4984C86.7117 57.74 87.8184 56.82 87.8184 54.98C87.8184 53.1667 86.7117 52.26 84.4984 52.26H80.7984V57.74Z" fill="#000C2E"/>
<path d="M96.5825 65.18C95.0491 65.18 93.8358 64.7334 92.9425 63.84C92.0491 62.9334 91.6025 61.7067 91.6025 60.16C91.6025 59.16 91.8025 58.28 92.2025 57.52C92.6025 56.7467 93.1491 56.1534 93.8425 55.74C94.5491 55.3134 95.3625 55.1 96.2825 55.1C97.6025 55.1 98.6358 55.5267 99.3825 56.38C100.129 57.22 100.502 58.38 100.502 59.86V60.48H93.1825C93.2358 61.5867 93.5558 62.4334 94.1425 63.02C94.7291 63.5934 95.5425 63.88 96.5825 63.88C97.1691 63.88 97.7291 63.7934 98.2625 63.62C98.7958 63.4334 99.3025 63.1334 99.7825 62.72L100.342 63.86C99.9025 64.2734 99.3425 64.6 98.6625 64.84C97.9825 65.0667 97.2891 65.18 96.5825 65.18ZM96.3225 56.3C95.4025 56.3 94.6758 56.5867 94.1425 57.16C93.6091 57.7334 93.2958 58.4867 93.2025 59.42H99.1025C99.0625 58.4334 98.8025 57.6667 98.3225 57.12C97.8558 56.5734 97.1891 56.3 96.3225 56.3Z" fill="#000C2E"/>
<path d="M106.227 65.18C105.467 65.18 104.747 65.0734 104.067 64.86C103.387 64.6467 102.827 64.3467 102.387 63.96L102.907 62.82C103.387 63.2067 103.914 63.4934 104.487 63.68C105.074 63.8534 105.667 63.94 106.267 63.94C107.027 63.94 107.6 63.8 107.987 63.52C108.374 63.24 108.567 62.86 108.567 62.38C108.567 62.0067 108.44 61.7134 108.187 61.5C107.934 61.2734 107.534 61.1 106.987 60.98L105.167 60.58C103.514 60.22 102.687 59.3667 102.687 58.02C102.687 57.14 103.034 56.4334 103.727 55.9C104.434 55.3667 105.354 55.1 106.487 55.1C107.154 55.1 107.787 55.2067 108.387 55.42C109 55.62 109.507 55.92 109.907 56.32L109.367 57.46C108.98 57.1 108.527 56.8267 108.007 56.64C107.5 56.44 106.994 56.34 106.487 56.34C105.74 56.34 105.174 56.4867 104.787 56.78C104.4 57.0734 104.207 57.46 104.207 57.94C104.207 58.6867 104.7 59.1667 105.687 59.38L107.507 59.76C108.36 59.9467 109.007 60.2467 109.447 60.66C109.887 61.06 110.107 61.6067 110.107 62.3C110.107 63.1934 109.754 63.9 109.047 64.42C108.34 64.9267 107.4 65.18 106.227 65.18Z" fill="#000C2E"/>
<path d="M117.056 65.18C115.523 65.18 114.309 64.7334 113.416 63.84C112.523 62.9334 112.076 61.7067 112.076 60.16C112.076 59.16 112.276 58.28 112.676 57.52C113.076 56.7467 113.623 56.1534 114.316 55.74C115.023 55.3134 115.836 55.1 116.756 55.1C118.076 55.1 119.109 55.5267 119.856 56.38C120.603 57.22 120.976 58.38 120.976 59.86V60.48H113.656C113.709 61.5867 114.029 62.4334 114.616 63.02C115.203 63.5934 116.016 63.88 117.056 63.88C117.643 63.88 118.203 63.7934 118.736 63.62C119.269 63.4334 119.776 63.1334 120.256 62.72L120.816 63.86C120.376 64.2734 119.816 64.6 119.136 64.84C118.456 65.0667 117.763 65.18 117.056 65.18ZM116.796 56.3C115.876 56.3 115.149 56.5867 114.616 57.16C114.083 57.7334 113.769 58.4867 113.676 59.42H119.576C119.536 58.4334 119.276 57.6667 118.796 57.12C118.329 56.5734 117.663 56.3 116.796 56.3Z" fill="#000C2E"/>
<path d="M126.48 65.18C125.814 65.18 125.214 65.0534 124.68 64.8C124.16 64.5334 123.747 64.1734 123.44 63.72C123.134 63.2667 122.98 62.76 122.98 62.2C122.98 61.4934 123.16 60.9334 123.52 60.52C123.894 60.1067 124.5 59.8134 125.34 59.64C126.194 59.4534 127.354 59.36 128.82 59.36H129.46V58.74C129.46 57.9134 129.287 57.32 128.94 56.96C128.607 56.5867 128.067 56.4 127.32 56.4C126.734 56.4 126.167 56.4867 125.62 56.66C125.074 56.82 124.514 57.0867 123.94 57.46L123.38 56.28C123.887 55.92 124.5 55.6334 125.22 55.42C125.954 55.2067 126.654 55.1 127.32 55.1C128.574 55.1 129.5 55.4067 130.1 56.02C130.714 56.6334 131.02 57.5867 131.02 58.88V65H129.5V63.32C129.247 63.8934 128.854 64.3467 128.32 64.68C127.8 65.0134 127.187 65.18 126.48 65.18ZM126.74 63.96C127.54 63.96 128.194 63.6867 128.7 63.14C129.207 62.58 129.46 61.8734 129.46 61.02V60.42H128.84C127.76 60.42 126.907 60.4734 126.28 60.58C125.667 60.6734 125.234 60.8467 124.98 61.1C124.74 61.34 124.62 61.6734 124.62 62.1C124.62 62.6467 124.807 63.0934 125.18 63.44C125.567 63.7867 126.087 63.96 126.74 63.96Z" fill="#000C2E"/>
<path d="M134.126 65V55.28H135.706V57.02C136.226 55.8467 137.293 55.2 138.906 55.08L139.486 55.02L139.606 56.42L138.586 56.54C137.666 56.62 136.966 56.9134 136.486 57.42C136.006 57.9134 135.766 58.5934 135.766 59.46V65H134.126Z" fill="#000C2E"/>
<path d="M145.397 65.18C144.423 65.18 143.583 64.9734 142.877 64.56C142.17 64.1334 141.623 63.54 141.237 62.78C140.863 62.0067 140.677 61.1067 140.677 60.08C140.677 58.5334 141.097 57.32 141.937 56.44C142.777 55.5467 143.93 55.1 145.397 55.1C145.997 55.1 146.59 55.2067 147.177 55.42C147.763 55.6334 148.25 55.9334 148.637 56.32L148.077 57.5C147.69 57.1267 147.263 56.8534 146.797 56.68C146.343 56.5067 145.91 56.42 145.497 56.42C144.483 56.42 143.703 56.74 143.157 57.38C142.61 58.0067 142.337 58.9134 142.337 60.1C142.337 61.26 142.61 62.18 143.157 62.86C143.703 63.5267 144.483 63.86 145.497 63.86C145.91 63.86 146.343 63.7734 146.797 63.6C147.263 63.4267 147.69 63.1467 148.077 62.76L148.637 63.94C148.25 64.3267 147.757 64.6334 147.157 64.86C146.57 65.0734 145.983 65.18 145.397 65.18Z" fill="#000C2E"/>
<path d="M150.634 65V50.9H152.255V56.88C152.575 56.2934 153.021 55.8534 153.594 55.56C154.181 55.2534 154.835 55.1 155.555 55.1C157.861 55.1 159.015 56.38 159.015 58.94V65H157.395V59.04C157.395 58.1334 157.214 57.4734 156.854 57.06C156.508 56.6334 155.948 56.42 155.174 56.42C154.281 56.42 153.568 56.7 153.035 57.26C152.515 57.8067 152.255 58.54 152.255 59.46V65H150.634Z" fill="#000C2E"/>
<rect x="28.6295" y="19.6295" width="180.741" height="56.7411" rx="11.4063" stroke="#00ADB5" stroke-width="3.25895"/>
</g>
<g filter="url(#filter1_dd_1_1545)">
<circle cx="119" cy="20" r="6" fill="white"/>
<circle cx="119" cy="20" r="4.77789" stroke="#00ADB5" stroke-width="2.44421"/>
</g>
<g filter="url(#filter2_dd_1_1545)">
<circle cx="209" cy="48" r="6" fill="white"/>
<circle cx="209" cy="48" r="4.77789" stroke="#00ADB5" stroke-width="2.44421"/>
</g>
<defs>
<filter id="filter0_dd_1_1545" x="0.928423" y="4.96421" width="236.143" height="125.179" filterUnits="userSpaceOnUse" color-interpolation-filters="sRGB">
<feFlood flood-opacity="0" result="BackgroundImageFix"/>
<feColorMatrix in="SourceAlpha" type="matrix" values="0 0 0 0 0 0 0 0 0 0 0 0 0 0 0 0 0 0 127 0" result="hardAlpha"/>
<feOffset dy="26.0716"/>
<feGaussianBlur stdDeviation="13.0358"/>
<feColorMatrix type="matrix" values="0 0 0 0 0 0 0 0 0 0 0 0 0 0 0 0 0 0 0.16 0"/>
<feBlend mode="normal" in2="BackgroundImageFix" result="effect1_dropShadow_1_1545"/>
<feColorMatrix in="SourceAlpha" type="matrix" values="0 0 0 0 0 0 0 0 0 0 0 0 0 0 0 0 0 0 127 0" result="hardAlpha"/>
<feOffset/>
<feGaussianBlur stdDeviation="6.51789"/>
<feColorMatrix type="matrix" values="0 0 0 0 0 0 0 0 0 0 0 0 0 0 0 0 0 0 0.12 0"/>
<feBlend mode="normal" in2="effect1_dropShadow_1_1545" result="effect2_dropShadow_1_1545"/>
<feBlend mode="normal" in="SourceGraphic" in2="effect2_dropShadow_1_1545" result="shape"/>
</filter>
<filter id="filter1_dd_1_1545" x="86.9284" y="0.964211" width="64.1432" height="77.1789" filterUnits="userSpaceOnUse" color-interpolation-filters="sRGB">
<feFlood flood-opacity="0" result="BackgroundImageFix"/>
<feColorMatrix in="SourceAlpha" type="matrix" values="0 0 0 0 0 0 0 0 0 0 0 0 0 0 0 0 0 0 127 0" result="hardAlpha"/>
<feOffset dy="26.0716"/>
<feGaussianBlur stdDeviation="13.0358"/>
<feColorMatrix type="matrix" values="0 0 0 0 0 0 0 0 0 0 0 0 0 0 0 0 0 0 0.16 0"/>
<feBlend mode="normal" in2="BackgroundImageFix" result="effect1_dropShadow_1_1545"/>
<feColorMatrix in="SourceAlpha" type="matrix" values="0 0 0 0 0 0 0 0 0 0 0 0 0 0 0 0 0 0 127 0" result="hardAlpha"/>
<feOffset/>
<feGaussianBlur stdDeviation="6.51789"/>
<feColorMatrix type="matrix" values="0 0 0 0 0 0 0 0 0 0 0 0 0 0 0 0 0 0 0.12 0"/>
<feBlend mode="normal" in2="effect1_dropShadow_1_1545" result="effect2_dropShadow_1_1545"/>
<feBlend mode="normal" in="SourceGraphic" in2="effect2_dropShadow_1_1545" result="shape"/>
</filter>
<filter id="filter2_dd_1_1545" x="176.928" y="28.9642" width="64.1432" height="77.1789" filterUnits="userSpaceOnUse" color-interpolation-filters="sRGB">
<feFlood flood-opacity="0" result="BackgroundImageFix"/>
<feColorMatrix in="SourceAlpha" type="matrix" values="0 0 0 0 0 0 0 0 0 0 0 0 0 0 0 0 0 0 127 0" result="hardAlpha"/>
<feOffset dy="26.0716"/>
<feGaussianBlur stdDeviation="13.0358"/>
<feColorMatrix type="matrix" values="0 0 0 0 0 0 0 0 0 0 0 0 0 0 0 0 0 0 0.16 0"/>
<feBlend mode="normal" in2="BackgroundImageFix" result="effect1_dropShadow_1_1545"/>
<feColorMatrix in="SourceAlpha" type="matrix" values="0 0 0 0 0 0 0 0 0 0 0 0 0 0 0 0 0 0 127 0" result="hardAlpha"/>
<feOffset/>
<feGaussianBlur stdDeviation="6.51789"/>
<feColorMatrix type="matrix" values="0 0 0 0 0 0 0 0 0 0 0 0 0 0 0 0 0 0 0.12 0"/>
<feBlend mode="normal" in2="effect1_dropShadow_1_1545" result="effect2_dropShadow_1_1545"/>
<feBlend mode="normal" in="SourceGraphic" in2="effect2_dropShadow_1_1545" result="shape"/>
</filter>
</defs>
</svg>
