<svg width="248" height="127" viewBox="0 0 248 127" fill="none" xmlns="http://www.w3.org/2000/svg">
<g filter="url(#filter0_dd_1_1633)">
<rect x="32" y="14" width="184" height="60" rx="13.0358" fill="white"/>
<path d="M73.8176 52.0001L81.2816 35.0801H82.9616L90.4256 52.0001H88.3856L86.5136 47.6801H77.7056L75.8576 52.0001H73.8176ZM82.0976 37.3841L78.4256 46.0241H85.8176L82.1456 37.3841H82.0976Z" fill="#000C2E"/>
<path d="M97.1688 52.2161C95.7928 52.2161 94.7608 51.8561 94.0728 51.1361C93.3848 50.4001 93.0408 49.3441 93.0408 47.9681V41.8481H90.7607V40.3361H93.0408V36.7601H94.9848V40.3361H98.6808V41.8481H94.9848V47.7761C94.9848 48.6881 95.1768 49.3841 95.5608 49.8641C95.9448 50.3281 96.5688 50.5601 97.4328 50.5601C97.6888 50.5601 97.9448 50.5281 98.2008 50.4641C98.4568 50.4001 98.6888 50.3361 98.8968 50.2721L99.2328 51.7601C99.0248 51.8721 98.7208 51.9761 98.3208 52.0721C97.9208 52.1681 97.5368 52.2161 97.1688 52.2161Z" fill="#000C2E"/>
<path d="M104.555 52.2161C103.371 52.2161 102.475 51.8721 101.867 51.1841C101.275 50.4801 100.979 49.4641 100.979 48.1361V35.0801H102.923V47.9921C102.923 49.7041 103.603 50.5601 104.963 50.5601C105.363 50.5601 105.723 50.5121 106.043 50.4161L105.995 52.0481C105.499 52.1601 105.019 52.2161 104.555 52.2161Z" fill="#000C2E"/>
<path d="M111.853 52.2161C111.053 52.2161 110.333 52.0641 109.693 51.7601C109.069 51.4401 108.573 51.0081 108.205 50.4641C107.837 49.9201 107.653 49.3121 107.653 48.6401C107.653 47.7921 107.869 47.1201 108.301 46.6241C108.749 46.1281 109.477 45.7761 110.485 45.5681C111.509 45.3441 112.901 45.2321 114.661 45.2321H115.429V44.4881C115.429 43.4961 115.221 42.7841 114.805 42.3521C114.405 41.9041 113.757 41.6801 112.861 41.6801C112.157 41.6801 111.477 41.7841 110.821 41.9921C110.165 42.1841 109.493 42.5041 108.805 42.9521L108.133 41.5361C108.741 41.1041 109.477 40.7601 110.341 40.5041C111.221 40.2481 112.061 40.1201 112.861 40.1201C114.365 40.1201 115.477 40.4881 116.197 41.2241C116.933 41.9601 117.301 43.1041 117.301 44.6561V52.0001H115.477V49.9841C115.173 50.6721 114.701 51.2161 114.061 51.6161C113.437 52.0161 112.701 52.2161 111.853 52.2161ZM112.165 50.7521C113.125 50.7521 113.909 50.4241 114.517 49.7681C115.125 49.0961 115.429 48.2481 115.429 47.2241V46.5041H114.685C113.389 46.5041 112.365 46.5681 111.613 46.6961C110.877 46.8081 110.357 47.0161 110.053 47.3201C109.765 47.6081 109.621 48.0081 109.621 48.5201C109.621 49.1761 109.845 49.7121 110.293 50.1281C110.757 50.5441 111.381 50.7521 112.165 50.7521Z" fill="#000C2E"/>
<path d="M124.944 52.2161C124.032 52.2161 123.168 52.0881 122.352 51.8321C121.536 51.5761 120.864 51.2161 120.336 50.7521L120.96 49.3841C121.536 49.8481 122.168 50.1921 122.856 50.4161C123.56 50.6241 124.272 50.7281 124.992 50.7281C125.904 50.7281 126.592 50.5601 127.056 50.2241C127.52 49.8881 127.752 49.4321 127.752 48.8561C127.752 48.4081 127.6 48.0561 127.296 47.8001C126.992 47.5281 126.512 47.3201 125.856 47.1761L123.672 46.6961C121.688 46.2641 120.696 45.2401 120.696 43.6241C120.696 42.5681 121.112 41.7201 121.944 41.0801C122.792 40.4401 123.896 40.1201 125.256 40.1201C126.056 40.1201 126.816 40.2481 127.536 40.5041C128.272 40.7441 128.88 41.1041 129.36 41.5841L128.712 42.9521C128.248 42.5201 127.704 42.1921 127.08 41.9681C126.472 41.7281 125.864 41.6081 125.256 41.6081C124.36 41.6081 123.68 41.7841 123.216 42.1361C122.752 42.4881 122.52 42.9521 122.52 43.5281C122.52 44.4241 123.112 45.0001 124.296 45.2561L126.48 45.7121C127.504 45.9361 128.28 46.2961 128.808 46.7921C129.336 47.2721 129.6 47.9281 129.6 48.7601C129.6 49.8321 129.176 50.6801 128.328 51.3041C127.48 51.9121 126.352 52.2161 124.944 52.2161Z" fill="#000C2E"/>
<path d="M136.598 52.2161C135.686 52.2161 134.822 52.0881 134.006 51.8321C133.19 51.5761 132.518 51.2161 131.99 50.7521L132.614 49.3841C133.19 49.8481 133.822 50.1921 134.51 50.4161C135.214 50.6241 135.926 50.7281 136.646 50.7281C137.558 50.7281 138.246 50.5601 138.71 50.2241C139.174 49.8881 139.406 49.4321 139.406 48.8561C139.406 48.4081 139.254 48.0561 138.95 47.8001C138.646 47.5281 138.166 47.3201 137.51 47.1761L135.326 46.6961C133.342 46.2641 132.35 45.2401 132.35 43.6241C132.35 42.5681 132.766 41.7201 133.598 41.0801C134.446 40.4401 135.55 40.1201 136.91 40.1201C137.71 40.1201 138.47 40.2481 139.19 40.5041C139.926 40.7441 140.534 41.1041 141.014 41.5841L140.366 42.9521C139.902 42.5201 139.358 42.1921 138.734 41.9681C138.126 41.7281 137.518 41.6081 136.91 41.6081C136.014 41.6081 135.334 41.7841 134.87 42.1361C134.406 42.4881 134.174 42.9521 134.174 43.5281C134.174 44.4241 134.766 45.0001 135.95 45.2561L138.134 45.7121C139.158 45.9361 139.934 46.2961 140.462 46.7921C140.99 47.2721 141.254 47.9281 141.254 48.7601C141.254 49.8321 140.83 50.6801 139.982 51.3041C139.134 51.9121 138.006 52.2161 136.598 52.2161Z" fill="#000C2E"/>
<path d="M144.077 37.4321V35.2481H146.477V37.4321H144.077ZM144.317 52.0001V40.3361H146.261V52.0001H144.317Z" fill="#000C2E"/>
<path d="M153.667 52.2161C152.867 52.2161 152.147 52.0641 151.507 51.7601C150.883 51.4401 150.387 51.0081 150.019 50.4641C149.651 49.9201 149.467 49.3121 149.467 48.6401C149.467 47.7921 149.683 47.1201 150.115 46.6241C150.563 46.1281 151.291 45.7761 152.299 45.5681C153.323 45.3441 154.715 45.2321 156.475 45.2321H157.243V44.4881C157.243 43.4961 157.035 42.7841 156.619 42.3521C156.219 41.9041 155.571 41.6801 154.675 41.6801C153.971 41.6801 153.291 41.7841 152.635 41.9921C151.979 42.1841 151.307 42.5041 150.619 42.9521L149.947 41.5361C150.555 41.1041 151.291 40.7601 152.155 40.5041C153.035 40.2481 153.875 40.1201 154.675 40.1201C156.179 40.1201 157.291 40.4881 158.011 41.2241C158.747 41.9601 159.115 43.1041 159.115 44.6561V52.0001H157.291V49.9841C156.987 50.6721 156.515 51.2161 155.875 51.6161C155.251 52.0161 154.515 52.2161 153.667 52.2161ZM153.979 50.7521C154.939 50.7521 155.723 50.4241 156.331 49.7681C156.939 49.0961 157.243 48.2481 157.243 47.2241V46.5041H156.499C155.203 46.5041 154.179 46.5681 153.427 46.6961C152.691 46.8081 152.171 47.0161 151.867 47.3201C151.579 47.6081 151.435 48.0081 151.435 48.5201C151.435 49.1761 151.659 49.7121 152.107 50.1281C152.571 50.5441 153.195 50.7521 153.979 50.7521Z" fill="#000C2E"/>
<path d="M162.822 52.0001V40.3361H164.718V42.3281C165.102 41.5921 165.646 41.0401 166.35 40.6721C167.054 40.3041 167.846 40.1201 168.726 40.1201C171.494 40.1201 172.878 41.6561 172.878 44.7281V52.0001H170.934V44.8481C170.934 43.7601 170.718 42.9681 170.286 42.4721C169.87 41.9601 169.198 41.7041 168.27 41.7041C167.198 41.7041 166.342 42.0401 165.702 42.7121C165.078 43.3681 164.766 44.2481 164.766 45.3521V52.0001H162.822Z" fill="#000C2E"/>
<rect x="33.6295" y="15.6295" width="180.741" height="56.7411" rx="11.4063" stroke="#00ADB5" stroke-width="3.25895"/>
</g>
<g filter="url(#filter1_dd_1_1633)">
<circle cx="33" cy="44" r="6" fill="white"/>
<circle cx="33" cy="44" r="4.77789" stroke="#00ADB5" stroke-width="2.44421"/>
</g>
<g filter="url(#filter2_dd_1_1633)">
<circle cx="215" cy="44" r="6" fill="white"/>
<circle cx="215" cy="44" r="4.77789" stroke="#00ADB5" stroke-width="2.44421"/>
</g>
<defs>
<filter id="filter0_dd_1_1633" x="5.92842" y="0.964211" width="236.143" height="125.179" filterUnits="userSpaceOnUse" color-interpolation-filters="sRGB">
<feFlood flood-opacity="0" result="BackgroundImageFix"/>
<feColorMatrix in="SourceAlpha" type="matrix" values="0 0 0 0 0 0 0 0 0 0 0 0 0 0 0 0 0 0 127 0" result="hardAlpha"/>
<feOffset dy="26.0716"/>
<feGaussianBlur stdDeviation="13.0358"/>
<feColorMatrix type="matrix" values="0 0 0 0 0 0 0 0 0 0 0 0 0 0 0 0 0 0 0.16 0"/>
<feBlend mode="normal" in2="BackgroundImageFix" result="effect1_dropShadow_1_1633"/>
<feColorMatrix in="SourceAlpha" type="matrix" values="0 0 0 0 0 0 0 0 0 0 0 0 0 0 0 0 0 0 127 0" result="hardAlpha"/>
<feOffset/>
<feGaussianBlur stdDeviation="6.51789"/>
<feColorMatrix type="matrix" values="0 0 0 0 0 0 0 0 0 0 0 0 0 0 0 0 0 0 0.12 0"/>
<feBlend mode="normal" in2="effect1_dropShadow_1_1633" result="effect2_dropShadow_1_1633"/>
<feBlend mode="normal" in="SourceGraphic" in2="effect2_dropShadow_1_1633" result="shape"/>
</filter>
<filter id="filter1_dd_1_1633" x="0.928423" y="24.9642" width="64.1432" height="77.1789" filterUnits="userSpaceOnUse" color-interpolation-filters="sRGB">
<feFlood flood-opacity="0" result="BackgroundImageFix"/>
<feColorMatrix in="SourceAlpha" type="matrix" values="0 0 0 0 0 0 0 0 0 0 0 0 0 0 0 0 0 0 127 0" result="hardAlpha"/>
<feOffset dy="26.0716"/>
<feGaussianBlur stdDeviation="13.0358"/>
<feColorMatrix type="matrix" values="0 0 0 0 0 0 0 0 0 0 0 0 0 0 0 0 0 0 0.16 0"/>
<feBlend mode="normal" in2="BackgroundImageFix" result="effect1_dropShadow_1_1633"/>
<feColorMatrix in="SourceAlpha" type="matrix" values="0 0 0 0 0 0 0 0 0 0 0 0 0 0 0 0 0 0 127 0" result="hardAlpha"/>
<feOffset/>
<feGaussianBlur stdDeviation="6.51789"/>
<feColorMatrix type="matrix" values="0 0 0 0 0 0 0 0 0 0 0 0 0 0 0 0 0 0 0.12 0"/>
<feBlend mode="normal" in2="effect1_dropShadow_1_1633" result="effect2_dropShadow_1_1633"/>
<feBlend mode="normal" in="SourceGraphic" in2="effect2_dropShadow_1_1633" result="shape"/>
</filter>
<filter id="filter2_dd_1_1633" x="182.928" y="24.9642" width="64.1432" height="77.1789" filterUnits="userSpaceOnUse" color-interpolation-filters="sRGB">
<feFlood flood-opacity="0" result="BackgroundImageFix"/>
<feColorMatrix in="SourceAlpha" type="matrix" values="0 0 0 0 0 0 0 0 0 0 0 0 0 0 0 0 0 0 127 0" result="hardAlpha"/>
<feOffset dy="26.0716"/>
<feGaussianBlur stdDeviation="13.0358"/>
<feColorMatrix type="matrix" values="0 0 0 0 0 0 0 0 0 0 0 0 0 0 0 0 0 0 0.16 0"/>
<feBlend mode="normal" in2="BackgroundImageFix" result="effect1_dropShadow_1_1633"/>
<feColorMatrix in="SourceAlpha" type="matrix" values="0 0 0 0 0 0 0 0 0 0 0 0 0 0 0 0 0 0 127 0" result="hardAlpha"/>
<feOffset/>
<feGaussianBlur stdDeviation="6.51789"/>
<feColorMatrix type="matrix" values="0 0 0 0 0 0 0 0 0 0 0 0 0 0 0 0 0 0 0.12 0"/>
<feBlend mode="normal" in2="effect1_dropShadow_1_1633" result="effect2_dropShadow_1_1633"/>
<feBlend mode="normal" in="SourceGraphic" in2="effect2_dropShadow_1_1633" result="shape"/>
</filter>
</defs>
</svg>
