<svg width="243" height="127" viewBox="0 0 243 127" fill="none" xmlns="http://www.w3.org/2000/svg">
<g filter="url(#filter0_dd_1_1612)">
<rect x="32" y="14" width="184" height="60" rx="13.0358" fill="white"/>
<path d="M68.5911 52L76.0551 35.08H77.7351L85.1991 52H83.1591L81.2871 47.68H72.4791L70.6311 52H68.5911ZM76.8711 37.384L73.1991 46.024H80.5911L76.9191 37.384H76.8711Z" fill="#000C2E"/>
<path d="M87.5434 52V40.336H89.4394V42.328C89.8234 41.592 90.3674 41.04 91.0714 40.672C91.7754 40.304 92.5674 40.12 93.4474 40.12C96.2154 40.12 97.5994 41.656 97.5994 44.728V52H95.6554V44.848C95.6554 43.76 95.4394 42.968 95.0074 42.472C94.5914 41.96 93.9194 41.704 92.9914 41.704C91.9194 41.704 91.0634 42.04 90.4234 42.712C89.7994 43.368 89.4874 44.248 89.4874 45.352V52H87.5434Z" fill="#000C2E"/>
<path d="M101.044 37.432V35.248H103.444V37.432H101.044ZM101.284 52V40.336H103.228V52H101.284Z" fill="#000C2E"/>
<path d="M107.01 52V40.336H108.906V42.304C109.258 41.6 109.746 41.064 110.37 40.696C110.994 40.312 111.722 40.12 112.554 40.12C114.378 40.12 115.546 40.912 116.058 42.496C116.41 41.76 116.93 41.184 117.618 40.768C118.306 40.336 119.098 40.12 119.994 40.12C122.586 40.12 123.882 41.656 123.882 44.728V52H121.938V44.824C121.938 43.752 121.746 42.968 121.362 42.472C120.994 41.96 120.378 41.704 119.514 41.704C118.57 41.704 117.818 42.04 117.258 42.712C116.698 43.384 116.418 44.28 116.418 45.4V52H114.474V44.824C114.474 43.752 114.282 42.968 113.898 42.472C113.53 41.96 112.914 41.704 112.05 41.704C111.09 41.704 110.33 42.04 109.77 42.712C109.226 43.384 108.954 44.28 108.954 45.4V52H107.01Z" fill="#000C2E"/>
<path d="M131.289 52.216C130.489 52.216 129.769 52.064 129.129 51.76C128.505 51.44 128.009 51.008 127.641 50.464C127.273 49.92 127.089 49.312 127.089 48.64C127.089 47.792 127.305 47.12 127.737 46.624C128.185 46.128 128.913 45.776 129.921 45.568C130.945 45.344 132.337 45.232 134.097 45.232H134.865V44.488C134.865 43.496 134.657 42.784 134.241 42.352C133.841 41.904 133.193 41.68 132.297 41.68C131.593 41.68 130.913 41.784 130.257 41.992C129.601 42.184 128.929 42.504 128.241 42.952L127.569 41.536C128.177 41.104 128.913 40.76 129.777 40.504C130.657 40.248 131.497 40.12 132.297 40.12C133.801 40.12 134.913 40.488 135.633 41.224C136.369 41.96 136.737 43.104 136.737 44.656V52H134.913V49.984C134.609 50.672 134.137 51.216 133.497 51.616C132.873 52.016 132.137 52.216 131.289 52.216ZM131.601 50.752C132.561 50.752 133.345 50.424 133.953 49.768C134.561 49.096 134.865 48.248 134.865 47.224V46.504H134.121C132.825 46.504 131.801 46.568 131.049 46.696C130.313 46.808 129.793 47.016 129.489 47.32C129.201 47.608 129.057 48.008 129.057 48.52C129.057 49.176 129.281 49.712 129.729 50.128C130.193 50.544 130.817 50.752 131.601 50.752Z" fill="#000C2E"/>
<path d="M145.123 52.216C143.747 52.216 142.715 51.856 142.027 51.136C141.339 50.4 140.995 49.344 140.995 47.968V41.848H138.715V40.336H140.995V36.76H142.939V40.336H146.635V41.848H142.939V47.776C142.939 48.688 143.131 49.384 143.515 49.864C143.899 50.328 144.523 50.56 145.387 50.56C145.643 50.56 145.899 50.528 146.155 50.464C146.411 50.4 146.643 50.336 146.851 50.272L147.187 51.76C146.979 51.872 146.675 51.976 146.275 52.072C145.875 52.168 145.491 52.216 145.123 52.216Z" fill="#000C2E"/>
<path d="M148.694 37.432V35.248H151.094V37.432H148.694ZM148.934 52V40.336H150.878V52H148.934Z" fill="#000C2E"/>
<path d="M159.46 52.216C158.324 52.216 157.34 51.968 156.508 51.472C155.676 50.976 155.028 50.28 154.564 49.384C154.116 48.472 153.892 47.4 153.892 46.168C153.892 44.936 154.116 43.872 154.564 42.976C155.028 42.064 155.676 41.36 156.508 40.864C157.34 40.368 158.324 40.12 159.46 40.12C160.58 40.12 161.556 40.368 162.388 40.864C163.236 41.36 163.884 42.064 164.332 42.976C164.796 43.872 165.028 44.936 165.028 46.168C165.028 47.4 164.796 48.472 164.332 49.384C163.884 50.28 163.236 50.976 162.388 51.472C161.556 51.968 160.58 52.216 159.46 52.216ZM159.46 50.656C160.548 50.656 161.42 50.272 162.076 49.504C162.732 48.72 163.06 47.608 163.06 46.168C163.06 44.712 162.732 43.6 162.076 42.832C161.42 42.064 160.548 41.68 159.46 41.68C158.356 41.68 157.476 42.064 156.82 42.832C156.18 43.6 155.86 44.712 155.86 46.168C155.86 47.608 156.18 48.72 156.82 49.504C157.476 50.272 158.356 50.656 159.46 50.656Z" fill="#000C2E"/>
<path d="M168.048 52V40.336H169.944V42.328C170.328 41.592 170.872 41.04 171.576 40.672C172.28 40.304 173.072 40.12 173.952 40.12C176.72 40.12 178.104 41.656 178.104 44.728V52H176.16V44.848C176.16 43.76 175.944 42.968 175.512 42.472C175.096 41.96 174.424 41.704 173.496 41.704C172.424 41.704 171.568 42.04 170.928 42.712C170.304 43.368 169.992 44.248 169.992 45.352V52H168.048Z" fill="#000C2E"/>
<rect x="33.6295" y="15.6295" width="180.741" height="56.7411" rx="11.4063" stroke="#00ADB5" stroke-width="3.25895"/>
</g>
<g filter="url(#filter1_dd_1_1612)">
<circle cx="33" cy="44" r="6" fill="white"/>
<circle cx="33" cy="44" r="4.77789" stroke="#00ADB5" stroke-width="2.44421"/>
</g>
<defs>
<filter id="filter0_dd_1_1612" x="5.92842" y="0.964211" width="236.143" height="125.179" filterUnits="userSpaceOnUse" color-interpolation-filters="sRGB">
<feFlood flood-opacity="0" result="BackgroundImageFix"/>
<feColorMatrix in="SourceAlpha" type="matrix" values="0 0 0 0 0 0 0 0 0 0 0 0 0 0 0 0 0 0 127 0" result="hardAlpha"/>
<feOffset dy="26.0716"/>
<feGaussianBlur stdDeviation="13.0358"/>
<feColorMatrix type="matrix" values="0 0 0 0 0 0 0 0 0 0 0 0 0 0 0 0 0 0 0.16 0"/>
<feBlend mode="normal" in2="BackgroundImageFix" result="effect1_dropShadow_1_1612"/>
<feColorMatrix in="SourceAlpha" type="matrix" values="0 0 0 0 0 0 0 0 0 0 0 0 0 0 0 0 0 0 127 0" result="hardAlpha"/>
<feOffset/>
<feGaussianBlur stdDeviation="6.51789"/>
<feColorMatrix type="matrix" values="0 0 0 0 0 0 0 0 0 0 0 0 0 0 0 0 0 0 0.12 0"/>
<feBlend mode="normal" in2="effect1_dropShadow_1_1612" result="effect2_dropShadow_1_1612"/>
<feBlend mode="normal" in="SourceGraphic" in2="effect2_dropShadow_1_1612" result="shape"/>
</filter>
<filter id="filter1_dd_1_1612" x="0.928423" y="24.9642" width="64.1432" height="77.1789" filterUnits="userSpaceOnUse" color-interpolation-filters="sRGB">
<feFlood flood-opacity="0" result="BackgroundImageFix"/>
<feColorMatrix in="SourceAlpha" type="matrix" values="0 0 0 0 0 0 0 0 0 0 0 0 0 0 0 0 0 0 127 0" result="hardAlpha"/>
<feOffset dy="26.0716"/>
<feGaussianBlur stdDeviation="13.0358"/>
<feColorMatrix type="matrix" values="0 0 0 0 0 0 0 0 0 0 0 0 0 0 0 0 0 0 0.16 0"/>
<feBlend mode="normal" in2="BackgroundImageFix" result="effect1_dropShadow_1_1612"/>
<feColorMatrix in="SourceAlpha" type="matrix" values="0 0 0 0 0 0 0 0 0 0 0 0 0 0 0 0 0 0 127 0" result="hardAlpha"/>
<feOffset/>
<feGaussianBlur stdDeviation="6.51789"/>
<feColorMatrix type="matrix" values="0 0 0 0 0 0 0 0 0 0 0 0 0 0 0 0 0 0 0.12 0"/>
<feBlend mode="normal" in2="effect1_dropShadow_1_1612" result="effect2_dropShadow_1_1612"/>
<feBlend mode="normal" in="SourceGraphic" in2="effect2_dropShadow_1_1612" result="shape"/>
</filter>
</defs>
</svg>
