<svg width="238" height="136" viewBox="0 0 238 136" fill="none" xmlns="http://www.w3.org/2000/svg">
<g filter="url(#filter0_dd_1_1564)">
<rect width="184" height="60" rx="13.0358" transform="matrix(-1 0 0 1 211 19)" fill="white"/>
<path d="M56.3586 57V40.08H58.0146L64.5186 52.296L70.9746 40.08H72.6306V57H70.8066V43.776L65.1666 54.384H63.8706L58.1586 43.8V57H56.3586Z" fill="#000C2E"/>
<path d="M76.4379 42.432V40.248H78.8379V42.432H76.4379ZM76.6779 57V45.336H78.6219V57H76.6779Z" fill="#000C2E"/>
<path d="M82.356 57V45.336H84.252V47.424C84.876 46.016 86.156 45.24 88.092 45.096L88.788 45.024L88.932 46.704L87.708 46.848C86.604 46.944 85.764 47.296 85.188 47.904C84.612 48.496 84.324 49.312 84.324 50.352V57H82.356Z" fill="#000C2E"/>
<path d="M95.765 57.216C94.629 57.216 93.645 56.968 92.813 56.472C91.981 55.976 91.333 55.28 90.869 54.384C90.421 53.472 90.197 52.4 90.197 51.168C90.197 49.936 90.421 48.872 90.869 47.976C91.333 47.064 91.981 46.36 92.813 45.864C93.645 45.368 94.629 45.12 95.765 45.12C96.885 45.12 97.861 45.368 98.693 45.864C99.541 46.36 100.189 47.064 100.637 47.976C101.101 48.872 101.333 49.936 101.333 51.168C101.333 52.4 101.101 53.472 100.637 54.384C100.189 55.28 99.541 55.976 98.693 56.472C97.861 56.968 96.885 57.216 95.765 57.216ZM95.765 55.656C96.853 55.656 97.725 55.272 98.381 54.504C99.037 53.72 99.365 52.608 99.365 51.168C99.365 49.712 99.037 48.6 98.381 47.832C97.725 47.064 96.853 46.68 95.765 46.68C94.661 46.68 93.781 47.064 93.125 47.832C92.485 48.6 92.165 49.712 92.165 51.168C92.165 52.608 92.485 53.72 93.125 54.504C93.781 55.272 94.661 55.656 95.765 55.656Z" fill="#000C2E"/>
<path d="M103.609 58.512L102.073 58.056L108.217 38.952L109.777 39.408L103.609 58.512Z" fill="#000C2E"/>
<path d="M111.514 57V40.08H121.978V41.736H113.482V47.64H121.498V49.296H113.482V57H111.514Z" fill="#000C2E"/>
<path d="M124.258 42.432V40.248H126.658V42.432H124.258ZM124.498 57V45.336H126.442V57H124.498Z" fill="#000C2E"/>
<path d="M135.336 61.536C134.328 61.536 133.376 61.4 132.48 61.128C131.6 60.872 130.816 60.48 130.128 59.952L130.776 58.536C131.496 59.048 132.208 59.416 132.912 59.64C133.632 59.864 134.408 59.976 135.24 59.976C137.544 59.976 138.696 58.792 138.696 56.424V54.36C138.36 55.096 137.832 55.68 137.112 56.112C136.408 56.528 135.6 56.736 134.688 56.736C133.616 56.736 132.688 56.488 131.904 55.992C131.12 55.496 130.512 54.816 130.08 53.952C129.664 53.072 129.456 52.056 129.456 50.904C129.456 49.752 129.664 48.744 130.08 47.88C130.512 47 131.12 46.32 131.904 45.84C132.688 45.36 133.616 45.12 134.688 45.12C135.6 45.12 136.408 45.328 137.112 45.744C137.832 46.16 138.36 46.728 138.696 47.448V45.336H140.592V56.16C140.592 57.952 140.144 59.296 139.248 60.192C138.368 61.088 137.064 61.536 135.336 61.536ZM135.048 55.152C136.168 55.152 137.056 54.768 137.712 54C138.368 53.232 138.696 52.2 138.696 50.904C138.696 49.608 138.368 48.584 137.712 47.832C137.056 47.064 136.168 46.68 135.048 46.68C133.944 46.68 133.064 47.064 132.408 47.832C131.752 48.584 131.424 49.608 131.424 50.904C131.424 52.2 131.752 53.232 132.408 54C133.064 54.768 133.944 55.152 135.048 55.152Z" fill="#000C2E"/>
<path d="M142.419 57.168L142.275 55.512L143.715 55.416C144.531 55.352 145.155 55.072 145.587 54.576C146.019 54.064 146.235 53.368 146.235 52.488V40.08H148.203V52.512C148.203 53.904 147.843 54.992 147.123 55.776C146.403 56.544 145.355 56.976 143.979 57.072L142.419 57.168Z" fill="#000C2E"/>
<path d="M155.892 57.216C155.092 57.216 154.372 57.064 153.732 56.76C153.108 56.44 152.612 56.008 152.244 55.464C151.876 54.92 151.692 54.312 151.692 53.64C151.692 52.792 151.908 52.12 152.34 51.624C152.788 51.128 153.516 50.776 154.524 50.568C155.548 50.344 156.94 50.232 158.7 50.232H159.468V49.488C159.468 48.496 159.26 47.784 158.844 47.352C158.444 46.904 157.796 46.68 156.9 46.68C156.196 46.68 155.516 46.784 154.86 46.992C154.204 47.184 153.532 47.504 152.844 47.952L152.172 46.536C152.78 46.104 153.516 45.76 154.38 45.504C155.26 45.248 156.1 45.12 156.9 45.12C158.404 45.12 159.516 45.488 160.236 46.224C160.972 46.96 161.34 48.104 161.34 49.656V57H159.516V54.984C159.212 55.672 158.74 56.216 158.1 56.616C157.476 57.016 156.74 57.216 155.892 57.216ZM156.204 55.752C157.164 55.752 157.948 55.424 158.556 54.768C159.164 54.096 159.468 53.248 159.468 52.224V51.504H158.724C157.428 51.504 156.404 51.568 155.652 51.696C154.916 51.808 154.396 52.016 154.092 52.32C153.804 52.608 153.66 53.008 153.66 53.52C153.66 54.176 153.884 54.712 154.332 55.128C154.796 55.544 155.42 55.752 156.204 55.752Z" fill="#000C2E"/>
<path d="M165.095 57V45.336H166.991V47.304C167.343 46.6 167.831 46.064 168.455 45.696C169.079 45.312 169.807 45.12 170.639 45.12C172.463 45.12 173.631 45.912 174.143 47.496C174.495 46.76 175.015 46.184 175.703 45.768C176.391 45.336 177.183 45.12 178.079 45.12C180.671 45.12 181.967 46.656 181.967 49.728V57H180.023V49.824C180.023 48.752 179.831 47.968 179.447 47.472C179.079 46.96 178.463 46.704 177.599 46.704C176.655 46.704 175.903 47.04 175.343 47.712C174.783 48.384 174.503 49.28 174.503 50.4V57H172.559V49.824C172.559 48.752 172.367 47.968 171.983 47.472C171.615 46.96 170.999 46.704 170.135 46.704C169.175 46.704 168.415 47.04 167.855 47.712C167.311 48.384 167.039 49.28 167.039 50.4V57H165.095Z" fill="#000C2E"/>
<rect x="-1.62947" y="1.62947" width="180.741" height="56.7411" rx="11.4063" transform="matrix(-1 0 0 1 207.741 19)" stroke="#00ADB5" stroke-width="3.25895"/>
</g>
<g filter="url(#filter1_dd_1_1564)">
<circle cx="6" cy="6" r="6" transform="matrix(-1 0 0 1 124 14)" fill="white"/>
<circle cx="6" cy="6" r="4.77789" transform="matrix(-1 0 0 1 124 14)" stroke="#00ADB5" stroke-width="2.44421"/>
</g>
<g filter="url(#filter2_dd_1_1564)">
<circle cx="6" cy="6" r="6" transform="matrix(-1 0 0 1 124 71)" fill="white"/>
<circle cx="6" cy="6" r="4.77789" transform="matrix(-1 0 0 1 124 71)" stroke="#00ADB5" stroke-width="2.44421"/>
</g>
<defs>
<filter id="filter0_dd_1_1564" x="0.928423" y="5.96421" width="236.143" height="125.179" filterUnits="userSpaceOnUse" color-interpolation-filters="sRGB">
<feFlood flood-opacity="0" result="BackgroundImageFix"/>
<feColorMatrix in="SourceAlpha" type="matrix" values="0 0 0 0 0 0 0 0 0 0 0 0 0 0 0 0 0 0 127 0" result="hardAlpha"/>
<feOffset dy="26.0716"/>
<feGaussianBlur stdDeviation="13.0358"/>
<feColorMatrix type="matrix" values="0 0 0 0 0 0 0 0 0 0 0 0 0 0 0 0 0 0 0.16 0"/>
<feBlend mode="normal" in2="BackgroundImageFix" result="effect1_dropShadow_1_1564"/>
<feColorMatrix in="SourceAlpha" type="matrix" values="0 0 0 0 0 0 0 0 0 0 0 0 0 0 0 0 0 0 127 0" result="hardAlpha"/>
<feOffset/>
<feGaussianBlur stdDeviation="6.51789"/>
<feColorMatrix type="matrix" values="0 0 0 0 0 0 0 0 0 0 0 0 0 0 0 0 0 0 0.12 0"/>
<feBlend mode="normal" in2="effect1_dropShadow_1_1564" result="effect2_dropShadow_1_1564"/>
<feBlend mode="normal" in="SourceGraphic" in2="effect2_dropShadow_1_1564" result="shape"/>
</filter>
<filter id="filter1_dd_1_1564" x="85.9284" y="0.964211" width="64.1432" height="77.1789" filterUnits="userSpaceOnUse" color-interpolation-filters="sRGB">
<feFlood flood-opacity="0" result="BackgroundImageFix"/>
<feColorMatrix in="SourceAlpha" type="matrix" values="0 0 0 0 0 0 0 0 0 0 0 0 0 0 0 0 0 0 127 0" result="hardAlpha"/>
<feOffset dy="26.0716"/>
<feGaussianBlur stdDeviation="13.0358"/>
<feColorMatrix type="matrix" values="0 0 0 0 0 0 0 0 0 0 0 0 0 0 0 0 0 0 0.16 0"/>
<feBlend mode="normal" in2="BackgroundImageFix" result="effect1_dropShadow_1_1564"/>
<feColorMatrix in="SourceAlpha" type="matrix" values="0 0 0 0 0 0 0 0 0 0 0 0 0 0 0 0 0 0 127 0" result="hardAlpha"/>
<feOffset/>
<feGaussianBlur stdDeviation="6.51789"/>
<feColorMatrix type="matrix" values="0 0 0 0 0 0 0 0 0 0 0 0 0 0 0 0 0 0 0.12 0"/>
<feBlend mode="normal" in2="effect1_dropShadow_1_1564" result="effect2_dropShadow_1_1564"/>
<feBlend mode="normal" in="SourceGraphic" in2="effect2_dropShadow_1_1564" result="shape"/>
</filter>
<filter id="filter2_dd_1_1564" x="85.9284" y="57.9642" width="64.1432" height="77.1789" filterUnits="userSpaceOnUse" color-interpolation-filters="sRGB">
<feFlood flood-opacity="0" result="BackgroundImageFix"/>
<feColorMatrix in="SourceAlpha" type="matrix" values="0 0 0 0 0 0 0 0 0 0 0 0 0 0 0 0 0 0 127 0" result="hardAlpha"/>
<feOffset dy="26.0716"/>
<feGaussianBlur stdDeviation="13.0358"/>
<feColorMatrix type="matrix" values="0 0 0 0 0 0 0 0 0 0 0 0 0 0 0 0 0 0 0.16 0"/>
<feBlend mode="normal" in2="BackgroundImageFix" result="effect1_dropShadow_1_1564"/>
<feColorMatrix in="SourceAlpha" type="matrix" values="0 0 0 0 0 0 0 0 0 0 0 0 0 0 0 0 0 0 127 0" result="hardAlpha"/>
<feOffset/>
<feGaussianBlur stdDeviation="6.51789"/>
<feColorMatrix type="matrix" values="0 0 0 0 0 0 0 0 0 0 0 0 0 0 0 0 0 0 0.12 0"/>
<feBlend mode="normal" in2="effect1_dropShadow_1_1564" result="effect2_dropShadow_1_1564"/>
<feBlend mode="normal" in="SourceGraphic" in2="effect2_dropShadow_1_1564" result="shape"/>
</filter>
</defs>
</svg>
