<svg width="243" height="127" viewBox="0 0 243 127" fill="none" xmlns="http://www.w3.org/2000/svg">
<g filter="url(#filter0_dd_1_1638)">
<rect x="27" y="14" width="184" height="60" rx="13.0358" fill="white"/>
<path d="M59.2416 50.9999V36.8999H64.0016C66.2816 36.8999 68.0416 37.5066 69.2816 38.7199C70.5216 39.9199 71.1416 41.6599 71.1416 43.9399C71.1416 46.2199 70.5216 47.9666 69.2816 49.1799C68.0416 50.3932 66.2816 50.9999 64.0016 50.9999H59.2416ZM60.8816 49.5999H63.8816C67.5616 49.5999 69.4016 47.7132 69.4016 43.9399C69.4016 40.1799 67.5616 38.2999 63.8816 38.2999H60.8816V49.5999Z" fill="#000C2E"/>
<path d="M77.0253 51.1799C76.3587 51.1799 75.7587 51.0532 75.2253 50.7999C74.7053 50.5332 74.292 50.1732 73.9853 49.7199C73.6787 49.2666 73.5253 48.7599 73.5253 48.1999C73.5253 47.4932 73.7053 46.9332 74.0653 46.5199C74.4387 46.1066 75.0453 45.8132 75.8853 45.6399C76.7387 45.4532 77.8987 45.3599 79.3653 45.3599H80.0053V44.7399C80.0053 43.9132 79.832 43.3199 79.4853 42.9599C79.152 42.5866 78.612 42.3999 77.8653 42.3999C77.2787 42.3999 76.712 42.4866 76.1653 42.6599C75.6187 42.8199 75.0587 43.0866 74.4853 43.4599L73.9253 42.2799C74.432 41.9199 75.0453 41.6332 75.7653 41.4199C76.4987 41.2066 77.1987 41.0999 77.8653 41.0999C79.1187 41.0999 80.0453 41.4066 80.6453 42.0199C81.2587 42.6332 81.5653 43.5866 81.5653 44.8799V50.9999H80.0453V49.3199C79.792 49.8932 79.3987 50.3466 78.8653 50.6799C78.3453 51.0132 77.732 51.1799 77.0253 51.1799ZM77.2853 49.9599C78.0853 49.9599 78.7387 49.6866 79.2453 49.1399C79.752 48.5799 80.0053 47.8732 80.0053 47.0199V46.4199H79.3853C78.3053 46.4199 77.452 46.4732 76.8253 46.5799C76.212 46.6732 75.7787 46.8466 75.5253 47.0999C75.2853 47.3399 75.1653 47.6732 75.1653 48.0999C75.1653 48.6466 75.352 49.0932 75.7253 49.4399C76.112 49.7866 76.632 49.9599 77.2853 49.9599Z" fill="#000C2E"/>
<path d="M88.5708 51.1799C87.4241 51.1799 86.5641 50.8799 85.9908 50.2799C85.4175 49.6666 85.1308 48.7866 85.1308 47.6399V42.5399H83.2308V41.2799H85.1308V38.2999H86.7508V41.2799H89.8308V42.5399H86.7508V47.4799C86.7508 48.2399 86.9108 48.8199 87.2308 49.2199C87.5508 49.6066 88.0708 49.7999 88.7908 49.7999C89.0041 49.7999 89.2175 49.7732 89.4308 49.7199C89.6441 49.6666 89.8375 49.6132 90.0108 49.5599L90.2908 50.7999C90.1175 50.8932 89.8641 50.9799 89.5308 51.0599C89.1975 51.1399 88.8775 51.1799 88.5708 51.1799Z" fill="#000C2E"/>
<path d="M94.823 51.1799C94.1563 51.1799 93.5563 51.0532 93.023 50.7999C92.503 50.5332 92.0896 50.1732 91.783 49.7199C91.4763 49.2666 91.323 48.7599 91.323 48.1999C91.323 47.4932 91.503 46.9332 91.863 46.5199C92.2363 46.1066 92.843 45.8132 93.683 45.6399C94.5363 45.4532 95.6963 45.3599 97.163 45.3599H97.803V44.7399C97.803 43.9132 97.6296 43.3199 97.283 42.9599C96.9496 42.5866 96.4096 42.3999 95.663 42.3999C95.0763 42.3999 94.5096 42.4866 93.963 42.6599C93.4163 42.8199 92.8563 43.0866 92.283 43.4599L91.723 42.2799C92.2297 41.9199 92.843 41.6332 93.563 41.4199C94.2963 41.2066 94.9963 41.0999 95.663 41.0999C96.9163 41.0999 97.843 41.4066 98.443 42.0199C99.0563 42.6332 99.363 43.5866 99.363 44.8799V50.9999H97.843V49.3199C97.5897 49.8932 97.1963 50.3466 96.663 50.6799C96.143 51.0132 95.5296 51.1799 94.823 51.1799ZM95.083 49.9599C95.883 49.9599 96.5363 49.6866 97.043 49.1399C97.5497 48.5799 97.803 47.8732 97.803 47.0199V46.4199H97.183C96.103 46.4199 95.2496 46.4732 94.623 46.5799C94.0096 46.6732 93.5763 46.8466 93.323 47.0999C93.083 47.3399 92.963 47.6732 92.963 48.0999C92.963 48.6466 93.1497 49.0932 93.523 49.4399C93.9097 49.7866 94.4296 49.9599 95.083 49.9599Z" fill="#000C2E"/>
<path d="M106.565 50.9999L112.785 36.8999H114.185L120.405 50.9999H118.705L117.145 47.3999H109.805L108.265 50.9999H106.565ZM113.465 38.8199L110.405 46.0199H116.565L113.505 38.8199H113.465Z" fill="#000C2E"/>
<path d="M122.375 50.9999V41.2799H123.955V42.9399C124.275 42.3266 124.729 41.8666 125.315 41.5599C125.902 41.2532 126.562 41.0999 127.295 41.0999C129.602 41.0999 130.755 42.3799 130.755 44.9399V50.9999H129.135V45.0399C129.135 44.1332 128.955 43.4732 128.595 43.0599C128.249 42.6332 127.689 42.4199 126.915 42.4199C126.022 42.4199 125.309 42.6999 124.775 43.2599C124.255 43.8066 123.995 44.5399 123.995 45.4599V50.9999H122.375Z" fill="#000C2E"/>
<path d="M136.903 51.1799C136.236 51.1799 135.636 51.0532 135.103 50.7999C134.583 50.5332 134.169 50.1732 133.863 49.7199C133.556 49.2666 133.403 48.7599 133.403 48.1999C133.403 47.4932 133.583 46.9332 133.943 46.5199C134.316 46.1066 134.923 45.8132 135.763 45.6399C136.616 45.4532 137.776 45.3599 139.243 45.3599H139.883V44.7399C139.883 43.9132 139.709 43.3199 139.363 42.9599C139.029 42.5866 138.489 42.3999 137.743 42.3999C137.156 42.3999 136.589 42.4866 136.043 42.6599C135.496 42.8199 134.936 43.0866 134.363 43.4599L133.803 42.2799C134.309 41.9199 134.923 41.6332 135.643 41.4199C136.376 41.2066 137.076 41.0999 137.743 41.0999C138.996 41.0999 139.923 41.4066 140.523 42.0199C141.136 42.6332 141.443 43.5866 141.443 44.8799V50.9999H139.923V49.3199C139.669 49.8932 139.276 50.3466 138.743 50.6799C138.223 51.0132 137.609 51.1799 136.903 51.1799ZM137.163 49.9599C137.963 49.9599 138.616 49.6866 139.123 49.1399C139.629 48.5799 139.883 47.8732 139.883 47.0199V46.4199H139.263C138.183 46.4199 137.329 46.4732 136.703 46.5799C136.089 46.6732 135.656 46.8466 135.403 47.0999C135.163 47.3399 135.043 47.6732 135.043 48.0999C135.043 48.6466 135.229 49.0932 135.603 49.4399C135.989 49.7866 136.509 49.9599 137.163 49.9599Z" fill="#000C2E"/>
<path d="M147.528 51.1799C146.541 51.1799 145.795 50.8932 145.288 50.3199C144.795 49.7332 144.548 48.8866 144.548 47.7799V36.8999H146.168V47.6599C146.168 49.0866 146.735 49.7999 147.868 49.7999C148.201 49.7999 148.501 49.7599 148.768 49.6799L148.728 51.0399C148.315 51.1332 147.915 51.1799 147.528 51.1799Z" fill="#000C2E"/>
<path d="M151.471 54.5999L153.131 50.8399L149.031 41.2799H150.791L154.011 49.1599L157.251 41.2799H158.951L153.171 54.5999H151.471Z" fill="#000C2E"/>
<path d="M164.82 51.1799C163.673 51.1799 162.813 50.8799 162.24 50.2799C161.667 49.6666 161.38 48.7866 161.38 47.6399V42.5399H159.48V41.2799H161.38V38.2999H163V41.2799H166.08V42.5399H163V47.4799C163 48.2399 163.16 48.8199 163.48 49.2199C163.8 49.6066 164.32 49.7999 165.04 49.7999C165.253 49.7999 165.467 49.7732 165.68 49.7199C165.893 49.6666 166.087 49.6132 166.26 49.5599L166.54 50.7999C166.367 50.8932 166.113 50.9799 165.78 51.0599C165.447 51.1399 165.127 51.1799 164.82 51.1799Z" fill="#000C2E"/>
<path d="M167.812 38.8599V37.0399H169.812V38.8599H167.812ZM168.012 50.9999V41.2799H169.632V50.9999H168.012Z" fill="#000C2E"/>
<path d="M176.881 51.1799C175.907 51.1799 175.067 50.9732 174.361 50.5599C173.654 50.1332 173.107 49.5399 172.721 48.7799C172.347 48.0066 172.161 47.1066 172.161 46.0799C172.161 44.5332 172.581 43.3199 173.421 42.4399C174.261 41.5466 175.414 41.0999 176.881 41.0999C177.481 41.0999 178.074 41.2066 178.661 41.4199C179.247 41.6332 179.734 41.9332 180.121 42.3199L179.561 43.4999C179.174 43.1266 178.747 42.8532 178.281 42.6799C177.827 42.5066 177.394 42.4199 176.981 42.4199C175.967 42.4199 175.187 42.7399 174.641 43.3799C174.094 44.0066 173.821 44.9132 173.821 46.0999C173.821 47.2599 174.094 48.1799 174.641 48.8599C175.187 49.5266 175.967 49.8599 176.981 49.8599C177.394 49.8599 177.827 49.7732 178.281 49.5999C178.747 49.4266 179.174 49.1466 179.561 48.7599L180.121 49.9399C179.734 50.3266 179.241 50.6332 178.641 50.8599C178.054 51.0732 177.467 51.1799 176.881 51.1799Z" fill="#000C2E"/>
<rect x="28.6295" y="15.6295" width="180.741" height="56.7411" rx="11.4063" stroke="#00ADB5" stroke-width="3.25895"/>
</g>
<g filter="url(#filter1_dd_1_1638)">
<circle cx="210" cy="44" r="6" fill="white"/>
<circle cx="210" cy="44" r="4.77789" stroke="#00ADB5" stroke-width="2.44421"/>
</g>
<defs>
<filter id="filter0_dd_1_1638" x="0.928423" y="0.964211" width="236.143" height="125.179" filterUnits="userSpaceOnUse" color-interpolation-filters="sRGB">
<feFlood flood-opacity="0" result="BackgroundImageFix"/>
<feColorMatrix in="SourceAlpha" type="matrix" values="0 0 0 0 0 0 0 0 0 0 0 0 0 0 0 0 0 0 127 0" result="hardAlpha"/>
<feOffset dy="26.0716"/>
<feGaussianBlur stdDeviation="13.0358"/>
<feColorMatrix type="matrix" values="0 0 0 0 0 0 0 0 0 0 0 0 0 0 0 0 0 0 0.16 0"/>
<feBlend mode="normal" in2="BackgroundImageFix" result="effect1_dropShadow_1_1638"/>
<feColorMatrix in="SourceAlpha" type="matrix" values="0 0 0 0 0 0 0 0 0 0 0 0 0 0 0 0 0 0 127 0" result="hardAlpha"/>
<feOffset/>
<feGaussianBlur stdDeviation="6.51789"/>
<feColorMatrix type="matrix" values="0 0 0 0 0 0 0 0 0 0 0 0 0 0 0 0 0 0 0.12 0"/>
<feBlend mode="normal" in2="effect1_dropShadow_1_1638" result="effect2_dropShadow_1_1638"/>
<feBlend mode="normal" in="SourceGraphic" in2="effect2_dropShadow_1_1638" result="shape"/>
</filter>
<filter id="filter1_dd_1_1638" x="177.928" y="24.9642" width="64.1432" height="77.1789" filterUnits="userSpaceOnUse" color-interpolation-filters="sRGB">
<feFlood flood-opacity="0" result="BackgroundImageFix"/>
<feColorMatrix in="SourceAlpha" type="matrix" values="0 0 0 0 0 0 0 0 0 0 0 0 0 0 0 0 0 0 127 0" result="hardAlpha"/>
<feOffset dy="26.0716"/>
<feGaussianBlur stdDeviation="13.0358"/>
<feColorMatrix type="matrix" values="0 0 0 0 0 0 0 0 0 0 0 0 0 0 0 0 0 0 0.16 0"/>
<feBlend mode="normal" in2="BackgroundImageFix" result="effect1_dropShadow_1_1638"/>
<feColorMatrix in="SourceAlpha" type="matrix" values="0 0 0 0 0 0 0 0 0 0 0 0 0 0 0 0 0 0 127 0" result="hardAlpha"/>
<feOffset/>
<feGaussianBlur stdDeviation="6.51789"/>
<feColorMatrix type="matrix" values="0 0 0 0 0 0 0 0 0 0 0 0 0 0 0 0 0 0 0.12 0"/>
<feBlend mode="normal" in2="effect1_dropShadow_1_1638" result="effect2_dropShadow_1_1638"/>
<feBlend mode="normal" in="SourceGraphic" in2="effect2_dropShadow_1_1638" result="shape"/>
</filter>
</defs>
</svg>
