<svg width="238" height="136" viewBox="0 0 238 136" fill="none" xmlns="http://www.w3.org/2000/svg">
<g filter="url(#filter0_dd_1_1666)">
<rect width="184" height="60" rx="13.0358" transform="matrix(-1 0 0 1 211 19)" fill="white"/>
<path d="M83.7368 57V41.784H77.5928V40.08H91.8728V41.784H85.7288V57H83.7368Z" fill="#000C2E"/>
<path d="M92.6607 51.408V49.8H99.3807V51.408H92.6607Z" fill="#000C2E"/>
<path d="M108.296 57.216C106.968 57.216 105.768 57.048 104.696 56.712C103.624 56.36 102.696 55.856 101.912 55.2L102.608 53.616C103.424 54.24 104.28 54.704 105.176 55.008C106.072 55.312 107.112 55.464 108.296 55.464C109.736 55.464 110.8 55.2 111.488 54.672C112.192 54.128 112.544 53.416 112.544 52.536C112.544 51.832 112.288 51.272 111.776 50.856C111.28 50.44 110.44 50.112 109.256 49.872L106.76 49.368C105.256 49.048 104.128 48.528 103.376 47.808C102.64 47.072 102.272 46.096 102.272 44.88C102.272 43.872 102.528 42.992 103.04 42.24C103.568 41.488 104.296 40.904 105.224 40.488C106.152 40.072 107.224 39.864 108.44 39.864C109.576 39.864 110.632 40.048 111.608 40.416C112.584 40.768 113.408 41.28 114.08 41.952L113.384 43.488C112.664 42.832 111.904 42.36 111.104 42.072C110.304 41.768 109.408 41.616 108.416 41.616C107.152 41.616 106.144 41.912 105.392 42.504C104.64 43.08 104.264 43.848 104.264 44.808C104.264 45.576 104.496 46.184 104.96 46.632C105.44 47.08 106.216 47.408 107.288 47.616L109.784 48.144C111.4 48.48 112.592 48.992 113.36 49.68C114.144 50.352 114.536 51.272 114.536 52.44C114.536 53.384 114.28 54.216 113.768 54.936C113.272 55.656 112.552 56.216 111.608 56.616C110.68 57.016 109.576 57.216 108.296 57.216Z" fill="#000C2E"/>
<path d="M117.425 57V40.08H119.369V47.256C119.753 46.552 120.289 46.024 120.977 45.672C121.681 45.304 122.465 45.12 123.329 45.12C126.097 45.12 127.481 46.656 127.481 49.728V57H125.537V49.848C125.537 48.76 125.321 47.968 124.889 47.472C124.473 46.96 123.801 46.704 122.873 46.704C121.801 46.704 120.945 47.04 120.305 47.712C119.681 48.368 119.369 49.248 119.369 50.352V57H117.425Z" fill="#000C2E"/>
<path d="M136.014 57.216C134.878 57.216 133.894 56.968 133.062 56.472C132.23 55.976 131.582 55.28 131.118 54.384C130.67 53.472 130.446 52.4 130.446 51.168C130.446 49.936 130.67 48.872 131.118 47.976C131.582 47.064 132.23 46.36 133.062 45.864C133.894 45.368 134.878 45.12 136.014 45.12C137.134 45.12 138.11 45.368 138.942 45.864C139.79 46.36 140.438 47.064 140.886 47.976C141.35 48.872 141.582 49.936 141.582 51.168C141.582 52.4 141.35 53.472 140.886 54.384C140.438 55.28 139.79 55.976 138.942 56.472C138.11 56.968 137.134 57.216 136.014 57.216ZM136.014 55.656C137.102 55.656 137.974 55.272 138.63 54.504C139.286 53.72 139.614 52.608 139.614 51.168C139.614 49.712 139.286 48.6 138.63 47.832C137.974 47.064 137.102 46.68 136.014 46.68C134.91 46.68 134.03 47.064 133.374 47.832C132.734 48.6 132.414 49.712 132.414 51.168C132.414 52.608 132.734 53.72 133.374 54.504C134.03 55.272 134.91 55.656 136.014 55.656Z" fill="#000C2E"/>
<path d="M144.602 57V45.336H146.498V47.424C147.122 46.016 148.402 45.24 150.338 45.096L151.034 45.024L151.178 46.704L149.954 46.848C148.85 46.944 148.01 47.296 147.434 47.904C146.858 48.496 146.57 49.312 146.57 50.352V57H144.602Z" fill="#000C2E"/>
<path d="M158.616 57.216C157.24 57.216 156.208 56.856 155.52 56.136C154.832 55.4 154.488 54.344 154.488 52.968V46.848H152.208V45.336H154.488V41.76H156.432V45.336H160.128V46.848H156.432V52.776C156.432 53.688 156.624 54.384 157.008 54.864C157.392 55.328 158.016 55.56 158.88 55.56C159.136 55.56 159.392 55.528 159.648 55.464C159.904 55.4 160.136 55.336 160.344 55.272L160.68 56.76C160.472 56.872 160.168 56.976 159.768 57.072C159.368 57.168 158.984 57.216 158.616 57.216Z" fill="#000C2E"/>
<rect x="-1.62947" y="1.62947" width="180.741" height="56.7411" rx="11.4063" transform="matrix(-1 0 0 1 207.741 19)" stroke="#00ADB5" stroke-width="3.25895"/>
</g>
<g filter="url(#filter1_dd_1_1666)">
<circle cx="6" cy="6" r="6" transform="matrix(-1 0 0 1 124 14)" fill="white"/>
<circle cx="6" cy="6" r="4.77789" transform="matrix(-1 0 0 1 124 14)" stroke="#00ADB5" stroke-width="2.44421"/>
</g>
<g filter="url(#filter2_dd_1_1666)">
<circle cx="6" cy="6" r="6" transform="matrix(-1 0 0 1 124 71)" fill="white"/>
<circle cx="6" cy="6" r="4.77789" transform="matrix(-1 0 0 1 124 71)" stroke="#00ADB5" stroke-width="2.44421"/>
</g>
<defs>
<filter id="filter0_dd_1_1666" x="0.928423" y="5.96421" width="236.143" height="125.179" filterUnits="userSpaceOnUse" color-interpolation-filters="sRGB">
<feFlood flood-opacity="0" result="BackgroundImageFix"/>
<feColorMatrix in="SourceAlpha" type="matrix" values="0 0 0 0 0 0 0 0 0 0 0 0 0 0 0 0 0 0 127 0" result="hardAlpha"/>
<feOffset dy="26.0716"/>
<feGaussianBlur stdDeviation="13.0358"/>
<feColorMatrix type="matrix" values="0 0 0 0 0 0 0 0 0 0 0 0 0 0 0 0 0 0 0.16 0"/>
<feBlend mode="normal" in2="BackgroundImageFix" result="effect1_dropShadow_1_1666"/>
<feColorMatrix in="SourceAlpha" type="matrix" values="0 0 0 0 0 0 0 0 0 0 0 0 0 0 0 0 0 0 127 0" result="hardAlpha"/>
<feOffset/>
<feGaussianBlur stdDeviation="6.51789"/>
<feColorMatrix type="matrix" values="0 0 0 0 0 0 0 0 0 0 0 0 0 0 0 0 0 0 0.12 0"/>
<feBlend mode="normal" in2="effect1_dropShadow_1_1666" result="effect2_dropShadow_1_1666"/>
<feBlend mode="normal" in="SourceGraphic" in2="effect2_dropShadow_1_1666" result="shape"/>
</filter>
<filter id="filter1_dd_1_1666" x="85.9284" y="0.964211" width="64.1432" height="77.1789" filterUnits="userSpaceOnUse" color-interpolation-filters="sRGB">
<feFlood flood-opacity="0" result="BackgroundImageFix"/>
<feColorMatrix in="SourceAlpha" type="matrix" values="0 0 0 0 0 0 0 0 0 0 0 0 0 0 0 0 0 0 127 0" result="hardAlpha"/>
<feOffset dy="26.0716"/>
<feGaussianBlur stdDeviation="13.0358"/>
<feColorMatrix type="matrix" values="0 0 0 0 0 0 0 0 0 0 0 0 0 0 0 0 0 0 0.16 0"/>
<feBlend mode="normal" in2="BackgroundImageFix" result="effect1_dropShadow_1_1666"/>
<feColorMatrix in="SourceAlpha" type="matrix" values="0 0 0 0 0 0 0 0 0 0 0 0 0 0 0 0 0 0 127 0" result="hardAlpha"/>
<feOffset/>
<feGaussianBlur stdDeviation="6.51789"/>
<feColorMatrix type="matrix" values="0 0 0 0 0 0 0 0 0 0 0 0 0 0 0 0 0 0 0.12 0"/>
<feBlend mode="normal" in2="effect1_dropShadow_1_1666" result="effect2_dropShadow_1_1666"/>
<feBlend mode="normal" in="SourceGraphic" in2="effect2_dropShadow_1_1666" result="shape"/>
</filter>
<filter id="filter2_dd_1_1666" x="85.9284" y="57.9642" width="64.1432" height="77.1789" filterUnits="userSpaceOnUse" color-interpolation-filters="sRGB">
<feFlood flood-opacity="0" result="BackgroundImageFix"/>
<feColorMatrix in="SourceAlpha" type="matrix" values="0 0 0 0 0 0 0 0 0 0 0 0 0 0 0 0 0 0 127 0" result="hardAlpha"/>
<feOffset dy="26.0716"/>
<feGaussianBlur stdDeviation="13.0358"/>
<feColorMatrix type="matrix" values="0 0 0 0 0 0 0 0 0 0 0 0 0 0 0 0 0 0 0.16 0"/>
<feBlend mode="normal" in2="BackgroundImageFix" result="effect1_dropShadow_1_1666"/>
<feColorMatrix in="SourceAlpha" type="matrix" values="0 0 0 0 0 0 0 0 0 0 0 0 0 0 0 0 0 0 127 0" result="hardAlpha"/>
<feOffset/>
<feGaussianBlur stdDeviation="6.51789"/>
<feColorMatrix type="matrix" values="0 0 0 0 0 0 0 0 0 0 0 0 0 0 0 0 0 0 0.12 0"/>
<feBlend mode="normal" in2="effect1_dropShadow_1_1666" result="effect2_dropShadow_1_1666"/>
<feBlend mode="normal" in="SourceGraphic" in2="effect2_dropShadow_1_1666" result="shape"/>
</filter>
</defs>
</svg>
