<svg width="248" height="131" viewBox="0 0 248 131" fill="none" xmlns="http://www.w3.org/2000/svg">
<g filter="url(#filter0_dd_1_1529)">
<rect x="32" y="18" width="184" height="60" rx="13.0358" fill="white"/>
<path d="M79.9731 56L87.4371 39.08H89.1171L96.5811 56H94.5411L92.6691 51.68H83.8611L82.0131 56H79.9731ZM88.2531 41.384L84.5811 50.024H91.9731L88.3011 41.384H88.2531Z" fill="#000C2E"/>
<path d="M98.9081 57.512L97.3721 57.056L103.516 37.952L105.076 38.408L98.9081 57.512Z" fill="#000C2E"/>
<path d="M106.813 56V39.08H113.581C115.325 39.08 116.669 39.472 117.613 40.256C118.573 41.024 119.053 42.104 119.053 43.496C119.053 44.424 118.813 45.216 118.333 45.872C117.853 46.528 117.189 47.008 116.341 47.312C117.317 47.568 118.077 48.04 118.621 48.728C119.181 49.416 119.461 50.288 119.461 51.344C119.461 52.848 118.973 54 117.997 54.8C117.021 55.6 115.645 56 113.869 56H106.813ZM108.733 46.64H113.293C115.837 46.64 117.109 45.648 117.109 43.664C117.109 41.664 115.837 40.664 113.293 40.664H108.733V46.64ZM108.733 54.416H113.677C116.237 54.416 117.517 53.384 117.517 51.32C117.517 49.256 116.237 48.224 113.677 48.224H108.733V54.416Z" fill="#000C2E"/>
<path d="M133.812 56.216C132.436 56.216 131.404 55.856 130.716 55.136C130.028 54.4 129.684 53.344 129.684 51.968V45.848H127.404V44.336H129.684V40.76H131.628V44.336H135.324V45.848H131.628V51.776C131.628 52.688 131.82 53.384 132.204 53.864C132.588 54.328 133.212 54.56 134.076 54.56C134.332 54.56 134.588 54.528 134.844 54.464C135.1 54.4 135.332 54.336 135.54 54.272L135.876 55.76C135.668 55.872 135.364 55.976 134.964 56.072C134.564 56.168 134.18 56.216 133.812 56.216Z" fill="#000C2E"/>
<path d="M142.761 56.216C140.921 56.216 139.465 55.68 138.393 54.608C137.321 53.52 136.785 52.048 136.785 50.192C136.785 48.992 137.025 47.936 137.505 47.024C137.985 46.096 138.641 45.384 139.473 44.888C140.321 44.376 141.297 44.12 142.401 44.12C143.985 44.12 145.225 44.632 146.121 45.656C147.017 46.664 147.465 48.056 147.465 49.832V50.576H138.681C138.745 51.904 139.129 52.92 139.833 53.624C140.537 54.312 141.513 54.656 142.761 54.656C143.465 54.656 144.137 54.552 144.777 54.344C145.417 54.12 146.025 53.76 146.601 53.264L147.273 54.632C146.745 55.128 146.073 55.52 145.257 55.808C144.441 56.08 143.609 56.216 142.761 56.216ZM142.449 45.56C141.345 45.56 140.473 45.904 139.833 46.592C139.193 47.28 138.817 48.184 138.705 49.304H145.785C145.737 48.12 145.425 47.2 144.849 46.544C144.289 45.888 143.489 45.56 142.449 45.56Z" fill="#000C2E"/>
<path d="M154.315 56.216C153.403 56.216 152.539 56.088 151.723 55.832C150.907 55.576 150.235 55.216 149.707 54.752L150.331 53.384C150.907 53.848 151.539 54.192 152.227 54.416C152.931 54.624 153.643 54.728 154.363 54.728C155.275 54.728 155.963 54.56 156.427 54.224C156.891 53.888 157.123 53.432 157.123 52.856C157.123 52.408 156.971 52.056 156.667 51.8C156.363 51.528 155.883 51.32 155.227 51.176L153.043 50.696C151.059 50.264 150.067 49.24 150.067 47.624C150.067 46.568 150.483 45.72 151.315 45.08C152.163 44.44 153.267 44.12 154.627 44.12C155.427 44.12 156.187 44.248 156.907 44.504C157.643 44.744 158.251 45.104 158.731 45.584L158.083 46.952C157.619 46.52 157.075 46.192 156.451 45.968C155.843 45.728 155.235 45.608 154.627 45.608C153.731 45.608 153.051 45.784 152.587 46.136C152.123 46.488 151.891 46.952 151.891 47.528C151.891 48.424 152.483 49 153.667 49.256L155.851 49.712C156.875 49.936 157.651 50.296 158.179 50.792C158.707 51.272 158.971 51.928 158.971 52.76C158.971 53.832 158.547 54.68 157.699 55.304C156.851 55.912 155.723 56.216 154.315 56.216Z" fill="#000C2E"/>
<path d="M166.596 56.216C165.22 56.216 164.188 55.856 163.5 55.136C162.812 54.4 162.468 53.344 162.468 51.968V45.848H160.188V44.336H162.468V40.76H164.412V44.336H168.108V45.848H164.412V51.776C164.412 52.688 164.604 53.384 164.988 53.864C165.372 54.328 165.996 54.56 166.86 54.56C167.116 54.56 167.372 54.528 167.628 54.464C167.884 54.4 168.116 54.336 168.324 54.272L168.66 55.76C168.452 55.872 168.148 55.976 167.748 56.072C167.348 56.168 166.964 56.216 166.596 56.216Z" fill="#000C2E"/>
<rect x="33.6295" y="19.6295" width="180.741" height="56.7411" rx="11.4063" stroke="#00ADB5" stroke-width="3.25895"/>
</g>
<g filter="url(#filter1_dd_1_1529)">
<circle cx="33" cy="48" r="6" fill="white"/>
<circle cx="33" cy="48" r="4.77789" stroke="#00ADB5" stroke-width="2.44421"/>
</g>
<g filter="url(#filter2_dd_1_1529)">
<circle cx="215" cy="48" r="6" fill="white"/>
<circle cx="215" cy="48" r="4.77789" stroke="#00ADB5" stroke-width="2.44421"/>
</g>
<g filter="url(#filter3_dd_1_1529)">
<circle cx="124" cy="20" r="6" fill="white"/>
<circle cx="124" cy="20" r="4.77789" stroke="#00ADB5" stroke-width="2.44421"/>
</g>
<defs>
<filter id="filter0_dd_1_1529" x="5.92842" y="4.96421" width="236.143" height="125.179" filterUnits="userSpaceOnUse" color-interpolation-filters="sRGB">
<feFlood flood-opacity="0" result="BackgroundImageFix"/>
<feColorMatrix in="SourceAlpha" type="matrix" values="0 0 0 0 0 0 0 0 0 0 0 0 0 0 0 0 0 0 127 0" result="hardAlpha"/>
<feOffset dy="26.0716"/>
<feGaussianBlur stdDeviation="13.0358"/>
<feColorMatrix type="matrix" values="0 0 0 0 0 0 0 0 0 0 0 0 0 0 0 0 0 0 0.16 0"/>
<feBlend mode="normal" in2="BackgroundImageFix" result="effect1_dropShadow_1_1529"/>
<feColorMatrix in="SourceAlpha" type="matrix" values="0 0 0 0 0 0 0 0 0 0 0 0 0 0 0 0 0 0 127 0" result="hardAlpha"/>
<feOffset/>
<feGaussianBlur stdDeviation="6.51789"/>
<feColorMatrix type="matrix" values="0 0 0 0 0 0 0 0 0 0 0 0 0 0 0 0 0 0 0.12 0"/>
<feBlend mode="normal" in2="effect1_dropShadow_1_1529" result="effect2_dropShadow_1_1529"/>
<feBlend mode="normal" in="SourceGraphic" in2="effect2_dropShadow_1_1529" result="shape"/>
</filter>
<filter id="filter1_dd_1_1529" x="0.928423" y="28.9642" width="64.1432" height="77.1789" filterUnits="userSpaceOnUse" color-interpolation-filters="sRGB">
<feFlood flood-opacity="0" result="BackgroundImageFix"/>
<feColorMatrix in="SourceAlpha" type="matrix" values="0 0 0 0 0 0 0 0 0 0 0 0 0 0 0 0 0 0 127 0" result="hardAlpha"/>
<feOffset dy="26.0716"/>
<feGaussianBlur stdDeviation="13.0358"/>
<feColorMatrix type="matrix" values="0 0 0 0 0 0 0 0 0 0 0 0 0 0 0 0 0 0 0.16 0"/>
<feBlend mode="normal" in2="BackgroundImageFix" result="effect1_dropShadow_1_1529"/>
<feColorMatrix in="SourceAlpha" type="matrix" values="0 0 0 0 0 0 0 0 0 0 0 0 0 0 0 0 0 0 127 0" result="hardAlpha"/>
<feOffset/>
<feGaussianBlur stdDeviation="6.51789"/>
<feColorMatrix type="matrix" values="0 0 0 0 0 0 0 0 0 0 0 0 0 0 0 0 0 0 0.12 0"/>
<feBlend mode="normal" in2="effect1_dropShadow_1_1529" result="effect2_dropShadow_1_1529"/>
<feBlend mode="normal" in="SourceGraphic" in2="effect2_dropShadow_1_1529" result="shape"/>
</filter>
<filter id="filter2_dd_1_1529" x="182.928" y="28.9642" width="64.1432" height="77.1789" filterUnits="userSpaceOnUse" color-interpolation-filters="sRGB">
<feFlood flood-opacity="0" result="BackgroundImageFix"/>
<feColorMatrix in="SourceAlpha" type="matrix" values="0 0 0 0 0 0 0 0 0 0 0 0 0 0 0 0 0 0 127 0" result="hardAlpha"/>
<feOffset dy="26.0716"/>
<feGaussianBlur stdDeviation="13.0358"/>
<feColorMatrix type="matrix" values="0 0 0 0 0 0 0 0 0 0 0 0 0 0 0 0 0 0 0.16 0"/>
<feBlend mode="normal" in2="BackgroundImageFix" result="effect1_dropShadow_1_1529"/>
<feColorMatrix in="SourceAlpha" type="matrix" values="0 0 0 0 0 0 0 0 0 0 0 0 0 0 0 0 0 0 127 0" result="hardAlpha"/>
<feOffset/>
<feGaussianBlur stdDeviation="6.51789"/>
<feColorMatrix type="matrix" values="0 0 0 0 0 0 0 0 0 0 0 0 0 0 0 0 0 0 0.12 0"/>
<feBlend mode="normal" in2="effect1_dropShadow_1_1529" result="effect2_dropShadow_1_1529"/>
<feBlend mode="normal" in="SourceGraphic" in2="effect2_dropShadow_1_1529" result="shape"/>
</filter>
<filter id="filter3_dd_1_1529" x="91.9284" y="0.964211" width="64.1432" height="77.1789" filterUnits="userSpaceOnUse" color-interpolation-filters="sRGB">
<feFlood flood-opacity="0" result="BackgroundImageFix"/>
<feColorMatrix in="SourceAlpha" type="matrix" values="0 0 0 0 0 0 0 0 0 0 0 0 0 0 0 0 0 0 127 0" result="hardAlpha"/>
<feOffset dy="26.0716"/>
<feGaussianBlur stdDeviation="13.0358"/>
<feColorMatrix type="matrix" values="0 0 0 0 0 0 0 0 0 0 0 0 0 0 0 0 0 0 0.16 0"/>
<feBlend mode="normal" in2="BackgroundImageFix" result="effect1_dropShadow_1_1529"/>
<feColorMatrix in="SourceAlpha" type="matrix" values="0 0 0 0 0 0 0 0 0 0 0 0 0 0 0 0 0 0 127 0" result="hardAlpha"/>
<feOffset/>
<feGaussianBlur stdDeviation="6.51789"/>
<feColorMatrix type="matrix" values="0 0 0 0 0 0 0 0 0 0 0 0 0 0 0 0 0 0 0.12 0"/>
<feBlend mode="normal" in2="effect1_dropShadow_1_1529" result="effect2_dropShadow_1_1529"/>
<feBlend mode="normal" in="SourceGraphic" in2="effect2_dropShadow_1_1529" result="shape"/>
</filter>
</defs>
</svg>
