<svg width="249" height="131" viewBox="0 0 249 131" fill="none" xmlns="http://www.w3.org/2000/svg">
<g filter="url(#filter0_dd_1_1446)">
<rect x="32" y="14" width="184" height="60" rx="13.0358" fill="white"/>
<path d="M65.4208 52.192L65.2288 50.152L66.7888 50.056C68.3568 49.928 69.1408 49.032 69.1408 47.368V35.08H71.6128V47.368C71.6128 48.824 71.2368 49.952 70.4848 50.752C69.7328 51.552 68.6208 52 67.1488 52.096L65.4208 52.192Z" fill="#000C2E"/>
<path d="M79.1261 52.216C78.3101 52.216 77.5821 52.056 76.9421 51.736C76.3021 51.416 75.7901 50.984 75.4061 50.44C75.0381 49.896 74.8541 49.28 74.8541 48.592C74.8541 47.728 75.0701 47.048 75.5021 46.552C75.9501 46.056 76.6781 45.696 77.6861 45.472C78.7101 45.248 80.0861 45.136 81.8141 45.136H82.6301V44.512C82.6301 43.6 82.4381 42.944 82.0541 42.544C81.6701 42.144 81.0381 41.944 80.1581 41.944C79.4861 41.944 78.8141 42.048 78.1421 42.256C77.4701 42.448 76.7821 42.76 76.0781 43.192L75.3341 41.488C75.9421 41.056 76.7021 40.712 77.6141 40.456C78.5261 40.2 79.3981 40.072 80.2301 40.072C81.8301 40.072 83.0141 40.456 83.7821 41.224C84.5501 41.976 84.9341 43.16 84.9341 44.776V52H82.6541V50.056C82.3661 50.728 81.9181 51.256 81.3101 51.64C80.7021 52.024 79.9741 52.216 79.1261 52.216ZM79.6061 50.488C80.4701 50.488 81.1901 50.184 81.7661 49.576C82.3421 48.968 82.6301 48.2 82.6301 47.272V46.624H81.8381C80.6701 46.624 79.7501 46.68 79.0781 46.792C78.4221 46.904 77.9501 47.096 77.6621 47.368C77.3901 47.624 77.2541 47.984 77.2541 48.448C77.2541 49.056 77.4621 49.552 77.8781 49.936C78.2941 50.304 78.8701 50.488 79.6061 50.488Z" fill="#000C2E"/>
<path d="M91.6876 52L86.6476 40.288H89.2636L92.8396 49.192L96.5116 40.288H98.9836L93.8716 52H91.6876Z" fill="#000C2E"/>
<path d="M104.334 52.216C103.518 52.216 102.79 52.056 102.15 51.736C101.51 51.416 100.998 50.984 100.614 50.44C100.246 49.896 100.062 49.28 100.062 48.592C100.062 47.728 100.278 47.048 100.71 46.552C101.158 46.056 101.886 45.696 102.894 45.472C103.918 45.248 105.294 45.136 107.022 45.136H107.838V44.512C107.838 43.6 107.646 42.944 107.262 42.544C106.878 42.144 106.246 41.944 105.366 41.944C104.694 41.944 104.022 42.048 103.35 42.256C102.678 42.448 101.99 42.76 101.286 43.192L100.542 41.488C101.15 41.056 101.91 40.712 102.822 40.456C103.734 40.2 104.606 40.072 105.438 40.072C107.038 40.072 108.222 40.456 108.99 41.224C109.758 41.976 110.142 43.16 110.142 44.776V52H107.862V50.056C107.574 50.728 107.126 51.256 106.518 51.64C105.91 52.024 105.182 52.216 104.334 52.216ZM104.814 50.488C105.678 50.488 106.398 50.184 106.974 49.576C107.55 48.968 107.838 48.2 107.838 47.272V46.624H107.046C105.878 46.624 104.958 46.68 104.286 46.792C103.63 46.904 103.158 47.096 102.87 47.368C102.598 47.624 102.462 47.984 102.462 48.448C102.462 49.056 102.67 49.552 103.086 49.936C103.502 50.304 104.078 50.488 104.814 50.488Z" fill="#000C2E"/>
<path d="M125.889 52.216C124.561 52.216 123.345 52.048 122.241 51.712C121.137 51.36 120.201 50.872 119.433 50.248L120.225 48.28C121.025 48.888 121.881 49.344 122.793 49.648C123.705 49.952 124.737 50.104 125.889 50.104C127.249 50.104 128.249 49.864 128.889 49.384C129.545 48.888 129.873 48.248 129.873 47.464C129.873 46.824 129.641 46.32 129.177 45.952C128.713 45.568 127.937 45.264 126.849 45.04L124.281 44.512C122.761 44.192 121.625 43.664 120.873 42.928C120.137 42.192 119.769 41.2 119.769 39.952C119.769 38.944 120.033 38.056 120.561 37.288C121.105 36.52 121.857 35.928 122.817 35.512C123.777 35.08 124.881 34.864 126.129 34.864C127.281 34.864 128.345 35.04 129.321 35.392C130.313 35.728 131.153 36.224 131.841 36.88L131.025 38.776C129.665 37.576 128.025 36.976 126.105 36.976C124.921 36.976 123.977 37.24 123.273 37.768C122.585 38.296 122.241 39 122.241 39.88C122.241 40.552 122.457 41.088 122.889 41.488C123.321 41.888 124.041 42.192 125.049 42.4L127.593 42.928C129.193 43.264 130.385 43.784 131.169 44.488C131.953 45.176 132.345 46.112 132.345 47.296C132.345 48.288 132.081 49.152 131.553 49.888C131.025 50.624 130.281 51.2 129.321 51.616C128.361 52.016 127.217 52.216 125.889 52.216Z" fill="#000C2E"/>
<path d="M140.175 52.216C138.975 52.216 137.935 51.968 137.055 51.472C136.191 50.96 135.519 50.248 135.039 49.336C134.559 48.408 134.319 47.32 134.319 46.072C134.319 44.216 134.847 42.752 135.903 41.68C136.959 40.608 138.383 40.072 140.175 40.072C140.911 40.072 141.639 40.2 142.359 40.456C143.079 40.712 143.671 41.064 144.135 41.512L143.367 43.216C142.919 42.8 142.423 42.496 141.879 42.304C141.351 42.096 140.847 41.992 140.367 41.992C139.231 41.992 138.351 42.352 137.727 43.072C137.119 43.776 136.815 44.784 136.815 46.096C136.815 47.408 137.119 48.44 137.727 49.192C138.351 49.928 139.231 50.296 140.367 50.296C140.847 50.296 141.351 50.2 141.879 50.008C142.423 49.8 142.919 49.488 143.367 49.072L144.135 50.8C143.671 51.232 143.071 51.576 142.335 51.832C141.615 52.088 140.895 52.216 140.175 52.216Z" fill="#000C2E"/>
<path d="M146.318 52V40.288H148.67V42.376C149.278 40.984 150.542 40.208 152.462 40.048L153.254 40L153.422 42.064L151.958 42.208C149.83 42.416 148.766 43.512 148.766 45.496V52H146.318Z" fill="#000C2E"/>
<path d="M155.155 37.576V35.056H157.987V37.576H155.155ZM155.371 52V40.288H157.795V52H155.371Z" fill="#000C2E"/>
<path d="M161.307 56.32V40.288H163.683V42.28C164.019 41.608 164.531 41.072 165.219 40.672C165.907 40.272 166.699 40.072 167.595 40.072C168.635 40.072 169.539 40.32 170.307 40.816C171.091 41.312 171.691 42.016 172.107 42.928C172.539 43.824 172.755 44.896 172.755 46.144C172.755 47.392 172.539 48.472 172.107 49.384C171.691 50.296 171.091 51 170.307 51.496C169.539 51.976 168.635 52.216 167.595 52.216C166.731 52.216 165.955 52.032 165.267 51.664C164.595 51.28 164.083 50.76 163.731 50.104V56.32H161.307ZM166.995 50.344C168.003 50.344 168.803 49.984 169.395 49.264C170.003 48.544 170.307 47.504 170.307 46.144C170.307 44.784 170.003 43.752 169.395 43.048C168.803 42.328 168.003 41.968 166.995 41.968C165.987 41.968 165.179 42.328 164.571 43.048C163.979 43.752 163.683 44.784 163.683 46.144C163.683 47.504 163.979 48.544 164.571 49.264C165.179 49.984 165.987 50.344 166.995 50.344Z" fill="#000C2E"/>
<path d="M180.462 52.216C178.99 52.216 177.894 51.84 177.174 51.088C176.454 50.336 176.094 49.248 176.094 47.824V42.16H173.814V40.288H176.094V36.76H178.518V40.288H182.142V42.16H178.518V47.632C178.518 48.48 178.694 49.12 179.046 49.552C179.414 49.984 180.006 50.2 180.822 50.2C181.078 50.2 181.326 50.176 181.566 50.128C181.806 50.064 182.046 49.992 182.286 49.912L182.67 51.736C182.43 51.88 182.094 51.992 181.662 52.072C181.246 52.168 180.846 52.216 180.462 52.216Z" fill="#000C2E"/>
<rect x="33.6295" y="15.6295" width="180.741" height="56.7411" rx="11.4063" stroke="#00ADB5" stroke-width="3.25895"/>
</g>
<g filter="url(#filter1_dd_1_1446)">
<circle cx="124" cy="72" r="6" fill="white"/>
<circle cx="124" cy="72" r="4.77789" stroke="#00ADB5" stroke-width="2.44421"/>
</g>
<g filter="url(#filter2_dd_1_1446)">
<circle cx="216" cy="44" r="6" fill="white"/>
<circle cx="216" cy="44" r="4.77789" stroke="#00ADB5" stroke-width="2.44421"/>
</g>
<g filter="url(#filter3_dd_1_1446)">
<circle cx="33" cy="44" r="6" fill="white"/>
<circle cx="33" cy="44" r="4.77789" stroke="#00ADB5" stroke-width="2.44421"/>
</g>
<defs>
<filter id="filter0_dd_1_1446" x="5.92842" y="0.964211" width="236.143" height="125.179" filterUnits="userSpaceOnUse" color-interpolation-filters="sRGB">
<feFlood flood-opacity="0" result="BackgroundImageFix"/>
<feColorMatrix in="SourceAlpha" type="matrix" values="0 0 0 0 0 0 0 0 0 0 0 0 0 0 0 0 0 0 127 0" result="hardAlpha"/>
<feOffset dy="26.0716"/>
<feGaussianBlur stdDeviation="13.0358"/>
<feColorMatrix type="matrix" values="0 0 0 0 0 0 0 0 0 0 0 0 0 0 0 0 0 0 0.16 0"/>
<feBlend mode="normal" in2="BackgroundImageFix" result="effect1_dropShadow_1_1446"/>
<feColorMatrix in="SourceAlpha" type="matrix" values="0 0 0 0 0 0 0 0 0 0 0 0 0 0 0 0 0 0 127 0" result="hardAlpha"/>
<feOffset/>
<feGaussianBlur stdDeviation="6.51789"/>
<feColorMatrix type="matrix" values="0 0 0 0 0 0 0 0 0 0 0 0 0 0 0 0 0 0 0.12 0"/>
<feBlend mode="normal" in2="effect1_dropShadow_1_1446" result="effect2_dropShadow_1_1446"/>
<feBlend mode="normal" in="SourceGraphic" in2="effect2_dropShadow_1_1446" result="shape"/>
</filter>
<filter id="filter1_dd_1_1446" x="91.9284" y="52.9642" width="64.1432" height="77.1789" filterUnits="userSpaceOnUse" color-interpolation-filters="sRGB">
<feFlood flood-opacity="0" result="BackgroundImageFix"/>
<feColorMatrix in="SourceAlpha" type="matrix" values="0 0 0 0 0 0 0 0 0 0 0 0 0 0 0 0 0 0 127 0" result="hardAlpha"/>
<feOffset dy="26.0716"/>
<feGaussianBlur stdDeviation="13.0358"/>
<feColorMatrix type="matrix" values="0 0 0 0 0 0 0 0 0 0 0 0 0 0 0 0 0 0 0.16 0"/>
<feBlend mode="normal" in2="BackgroundImageFix" result="effect1_dropShadow_1_1446"/>
<feColorMatrix in="SourceAlpha" type="matrix" values="0 0 0 0 0 0 0 0 0 0 0 0 0 0 0 0 0 0 127 0" result="hardAlpha"/>
<feOffset/>
<feGaussianBlur stdDeviation="6.51789"/>
<feColorMatrix type="matrix" values="0 0 0 0 0 0 0 0 0 0 0 0 0 0 0 0 0 0 0.12 0"/>
<feBlend mode="normal" in2="effect1_dropShadow_1_1446" result="effect2_dropShadow_1_1446"/>
<feBlend mode="normal" in="SourceGraphic" in2="effect2_dropShadow_1_1446" result="shape"/>
</filter>
<filter id="filter2_dd_1_1446" x="183.928" y="24.9642" width="64.1432" height="77.1789" filterUnits="userSpaceOnUse" color-interpolation-filters="sRGB">
<feFlood flood-opacity="0" result="BackgroundImageFix"/>
<feColorMatrix in="SourceAlpha" type="matrix" values="0 0 0 0 0 0 0 0 0 0 0 0 0 0 0 0 0 0 127 0" result="hardAlpha"/>
<feOffset dy="26.0716"/>
<feGaussianBlur stdDeviation="13.0358"/>
<feColorMatrix type="matrix" values="0 0 0 0 0 0 0 0 0 0 0 0 0 0 0 0 0 0 0.16 0"/>
<feBlend mode="normal" in2="BackgroundImageFix" result="effect1_dropShadow_1_1446"/>
<feColorMatrix in="SourceAlpha" type="matrix" values="0 0 0 0 0 0 0 0 0 0 0 0 0 0 0 0 0 0 127 0" result="hardAlpha"/>
<feOffset/>
<feGaussianBlur stdDeviation="6.51789"/>
<feColorMatrix type="matrix" values="0 0 0 0 0 0 0 0 0 0 0 0 0 0 0 0 0 0 0.12 0"/>
<feBlend mode="normal" in2="effect1_dropShadow_1_1446" result="effect2_dropShadow_1_1446"/>
<feBlend mode="normal" in="SourceGraphic" in2="effect2_dropShadow_1_1446" result="shape"/>
</filter>
<filter id="filter3_dd_1_1446" x="0.928423" y="24.9642" width="64.1432" height="77.1789" filterUnits="userSpaceOnUse" color-interpolation-filters="sRGB">
<feFlood flood-opacity="0" result="BackgroundImageFix"/>
<feColorMatrix in="SourceAlpha" type="matrix" values="0 0 0 0 0 0 0 0 0 0 0 0 0 0 0 0 0 0 127 0" result="hardAlpha"/>
<feOffset dy="26.0716"/>
<feGaussianBlur stdDeviation="13.0358"/>
<feColorMatrix type="matrix" values="0 0 0 0 0 0 0 0 0 0 0 0 0 0 0 0 0 0 0.16 0"/>
<feBlend mode="normal" in2="BackgroundImageFix" result="effect1_dropShadow_1_1446"/>
<feColorMatrix in="SourceAlpha" type="matrix" values="0 0 0 0 0 0 0 0 0 0 0 0 0 0 0 0 0 0 127 0" result="hardAlpha"/>
<feOffset/>
<feGaussianBlur stdDeviation="6.51789"/>
<feColorMatrix type="matrix" values="0 0 0 0 0 0 0 0 0 0 0 0 0 0 0 0 0 0 0.12 0"/>
<feBlend mode="normal" in2="effect1_dropShadow_1_1446" result="effect2_dropShadow_1_1446"/>
<feBlend mode="normal" in="SourceGraphic" in2="effect2_dropShadow_1_1446" result="shape"/>
</filter>
</defs>
</svg>
