<svg width="243" height="131" viewBox="0 0 243 131" fill="none" xmlns="http://www.w3.org/2000/svg">
<g filter="url(#filter0_dd_1_1652)">
<rect width="184" height="60" rx="13.0358" transform="matrix(-1 0 0 1 216 18)" fill="white"/>
<path d="M78.8199 55.18C76.5532 55.18 74.8265 54.54 73.6399 53.26C72.4532 51.98 71.8599 50.2133 71.8599 47.96C71.8599 46.4666 72.1265 45.18 72.6599 44.1C73.1932 43.02 73.9599 42.1866 74.9599 41.6C75.9599 41.0133 77.1665 40.72 78.5799 40.72C79.5799 40.72 80.4999 40.8733 81.3399 41.18C82.1799 41.4733 82.8932 41.9066 83.4799 42.48L82.8399 43.8C82.1999 43.24 81.5399 42.8333 80.8599 42.58C80.1799 42.3266 79.4132 42.2 78.5599 42.2C76.9599 42.2 75.7332 42.7066 74.8799 43.72C74.0265 44.72 73.5999 46.1333 73.5999 47.96C73.5999 49.8266 74.0399 51.2533 74.9199 52.24C75.7999 53.2266 77.1132 53.72 78.8599 53.72C79.9932 53.72 81.0799 53.5266 82.1199 53.14V48.96H78.5399V47.66H83.5399V54.18C83.1665 54.38 82.7132 54.5533 82.1799 54.7C81.6599 54.8466 81.1065 54.96 80.5199 55.04C79.9332 55.1333 79.3665 55.18 78.8199 55.18Z" fill="#000C2E"/>
<path d="M90.8116 55.18C89.8649 55.18 89.0449 54.9733 88.3516 54.56C87.6583 54.1466 87.1183 53.5666 86.7316 52.82C86.3583 52.06 86.1716 51.1666 86.1716 50.14C86.1716 49.1133 86.3583 48.2266 86.7316 47.48C87.1183 46.72 87.6583 46.1333 88.3516 45.72C89.0449 45.3066 89.8649 45.1 90.8116 45.1C91.7449 45.1 92.5583 45.3066 93.2516 45.72C93.9583 46.1333 94.4983 46.72 94.8716 47.48C95.2583 48.2266 95.4516 49.1133 95.4516 50.14C95.4516 51.1666 95.2583 52.06 94.8716 52.82C94.4983 53.5666 93.9583 54.1466 93.2516 54.56C92.5583 54.9733 91.7449 55.18 90.8116 55.18ZM90.8116 53.88C91.7183 53.88 92.4449 53.56 92.9916 52.92C93.5383 52.2666 93.8116 51.34 93.8116 50.14C93.8116 48.9266 93.5383 48 92.9916 47.36C92.4449 46.72 91.7183 46.4 90.8116 46.4C89.8916 46.4 89.1583 46.72 88.6116 47.36C88.0783 48 87.8116 48.9266 87.8116 50.14C87.8116 51.34 88.0783 52.2666 88.6116 52.92C89.1583 53.56 89.8916 53.88 90.8116 53.88Z" fill="#000C2E"/>
<path d="M102.025 55.18C101.078 55.18 100.258 54.9733 99.5649 54.56C98.8715 54.1466 98.3315 53.5666 97.9449 52.82C97.5715 52.06 97.3849 51.1666 97.3849 50.14C97.3849 49.1133 97.5715 48.2266 97.9449 47.48C98.3315 46.72 98.8715 46.1333 99.5649 45.72C100.258 45.3066 101.078 45.1 102.025 45.1C102.958 45.1 103.772 45.3066 104.465 45.72C105.172 46.1333 105.712 46.72 106.085 47.48C106.472 48.2266 106.665 49.1133 106.665 50.14C106.665 51.1666 106.472 52.06 106.085 52.82C105.712 53.5666 105.172 54.1466 104.465 54.56C103.772 54.9733 102.958 55.18 102.025 55.18ZM102.025 53.88C102.932 53.88 103.658 53.56 104.205 52.92C104.752 52.2666 105.025 51.34 105.025 50.14C105.025 48.9266 104.752 48 104.205 47.36C103.658 46.72 102.932 46.4 102.025 46.4C101.105 46.4 100.372 46.72 99.8249 47.36C99.2915 48 99.0249 48.9266 99.0249 50.14C99.0249 51.34 99.2915 52.2666 99.8249 52.92C100.372 53.56 101.105 53.88 102.025 53.88Z" fill="#000C2E"/>
<path d="M113.498 58.78C112.658 58.78 111.865 58.6666 111.118 58.44C110.385 58.2266 109.731 57.9 109.158 57.46L109.698 56.28C110.298 56.7066 110.891 57.0133 111.478 57.2C112.078 57.3866 112.725 57.48 113.418 57.48C115.338 57.48 116.298 56.4933 116.298 54.52V52.8C116.018 53.4133 115.578 53.9 114.978 54.26C114.391 54.6066 113.718 54.78 112.958 54.78C112.065 54.78 111.291 54.5733 110.638 54.16C109.985 53.7466 109.478 53.18 109.118 52.46C108.771 51.7266 108.598 50.88 108.598 49.92C108.598 48.96 108.771 48.12 109.118 47.4C109.478 46.6666 109.985 46.1 110.638 45.7C111.291 45.3 112.065 45.1 112.958 45.1C113.718 45.1 114.391 45.2733 114.978 45.62C115.578 45.9666 116.018 46.44 116.298 47.04V45.28H117.878V54.3C117.878 55.7933 117.505 56.9133 116.758 57.66C116.025 58.4066 114.938 58.78 113.498 58.78ZM113.258 53.46C114.191 53.46 114.931 53.14 115.478 52.5C116.025 51.86 116.298 51 116.298 49.92C116.298 48.84 116.025 47.9866 115.478 47.36C114.931 46.72 114.191 46.4 113.258 46.4C112.338 46.4 111.605 46.72 111.058 47.36C110.511 47.9866 110.238 48.84 110.238 49.92C110.238 51 110.511 51.86 111.058 52.5C111.605 53.14 112.338 53.46 113.258 53.46Z" fill="#000C2E"/>
<path d="M123.997 55.18C123.01 55.18 122.264 54.8933 121.757 54.32C121.264 53.7333 121.017 52.8866 121.017 51.78V40.9H122.637V51.66C122.637 53.0866 123.204 53.8 124.337 53.8C124.67 53.8 124.97 53.76 125.237 53.68L125.197 55.04C124.784 55.1333 124.384 55.18 123.997 55.18Z" fill="#000C2E"/>
<path d="M131.317 55.18C129.784 55.18 128.571 54.7333 127.677 53.84C126.784 52.9333 126.337 51.7066 126.337 50.16C126.337 49.16 126.537 48.28 126.937 47.52C127.337 46.7466 127.884 46.1533 128.577 45.74C129.284 45.3133 130.097 45.1 131.017 45.1C132.337 45.1 133.371 45.5266 134.117 46.38C134.864 47.22 135.237 48.38 135.237 49.86V50.48H127.917C127.971 51.5866 128.291 52.4333 128.877 53.02C129.464 53.5933 130.277 53.88 131.317 53.88C131.904 53.88 132.464 53.7933 132.997 53.62C133.531 53.4333 134.037 53.1333 134.517 52.72L135.077 53.86C134.637 54.2733 134.077 54.6 133.397 54.84C132.717 55.0666 132.024 55.18 131.317 55.18ZM131.057 46.3C130.137 46.3 129.411 46.5866 128.877 47.16C128.344 47.7333 128.031 48.4866 127.937 49.42H133.837C133.797 48.4333 133.537 47.6666 133.057 47.12C132.591 46.5733 131.924 46.3 131.057 46.3Z" fill="#000C2E"/>
<path d="M141.778 55L147.998 40.9H149.398L155.618 55H153.918L152.358 51.4H145.018L143.478 55H141.778ZM148.678 42.82L145.618 50.02H151.778L148.718 42.82H148.678Z" fill="#000C2E"/>
<path d="M161.191 55.18C160.324 55.18 159.564 54.9733 158.911 54.56C158.271 54.1466 157.771 53.5666 157.411 52.82C157.064 52.06 156.891 51.1666 156.891 50.14C156.891 49.1 157.064 48.2066 157.411 47.46C157.771 46.7 158.271 46.12 158.911 45.72C159.564 45.3066 160.324 45.1 161.191 45.1C161.951 45.1 162.618 45.2666 163.191 45.6C163.778 45.9333 164.211 46.3933 164.491 46.98V40.9H166.111V55H164.531V53.22C164.251 53.8333 163.818 54.3133 163.231 54.66C162.644 55.0066 161.964 55.18 161.191 55.18ZM161.531 53.88C162.438 53.88 163.164 53.56 163.711 52.92C164.258 52.2666 164.531 51.34 164.531 50.14C164.531 48.9266 164.258 48 163.711 47.36C163.164 46.72 162.438 46.4 161.531 46.4C160.611 46.4 159.878 46.72 159.331 47.36C158.798 48 158.531 48.9266 158.531 50.14C158.531 51.34 158.798 52.2666 159.331 52.92C159.878 53.56 160.611 53.88 161.531 53.88Z" fill="#000C2E"/>
<path d="M172.531 55.18C171.771 55.18 171.051 55.0733 170.371 54.86C169.691 54.6466 169.131 54.3466 168.691 53.96L169.211 52.82C169.691 53.2066 170.218 53.4933 170.791 53.68C171.378 53.8533 171.971 53.94 172.571 53.94C173.331 53.94 173.905 53.8 174.291 53.52C174.678 53.24 174.871 52.86 174.871 52.38C174.871 52.0066 174.745 51.7133 174.491 51.5C174.238 51.2733 173.838 51.1 173.291 50.98L171.471 50.58C169.818 50.22 168.991 49.3666 168.991 48.02C168.991 47.14 169.338 46.4333 170.031 45.9C170.738 45.3666 171.658 45.1 172.791 45.1C173.458 45.1 174.091 45.2066 174.691 45.42C175.305 45.62 175.811 45.92 176.211 46.32L175.671 47.46C175.285 47.1 174.831 46.8266 174.311 46.64C173.805 46.44 173.298 46.34 172.791 46.34C172.045 46.34 171.478 46.4866 171.091 46.78C170.705 47.0733 170.511 47.46 170.511 47.94C170.511 48.6866 171.005 49.1666 171.991 49.38L173.811 49.76C174.665 49.9466 175.311 50.2466 175.751 50.66C176.191 51.06 176.411 51.6066 176.411 52.3C176.411 53.1933 176.058 53.9 175.351 54.42C174.645 54.9266 173.705 55.18 172.531 55.18Z" fill="#000C2E"/>
<rect x="-1.62947" y="1.62947" width="180.741" height="56.7411" rx="11.4063" transform="matrix(-1 0 0 1 212.741 18)" stroke="#00ADB5" stroke-width="3.25895"/>
</g>
<g filter="url(#filter1_dd_1_1652)">
<circle cx="6" cy="6" r="6" transform="matrix(-1 0 0 1 129 14)" fill="white"/>
<circle cx="6" cy="6" r="4.77789" transform="matrix(-1 0 0 1 129 14)" stroke="#00ADB5" stroke-width="2.44421"/>
</g>
<g filter="url(#filter2_dd_1_1652)">
<circle cx="6" cy="6" r="6" transform="matrix(-1 0 0 1 39 42)" fill="white"/>
<circle cx="6" cy="6" r="4.77789" transform="matrix(-1 0 0 1 39 42)" stroke="#00ADB5" stroke-width="2.44421"/>
</g>
<defs>
<filter id="filter0_dd_1_1652" x="5.92842" y="4.96421" width="236.143" height="125.179" filterUnits="userSpaceOnUse" color-interpolation-filters="sRGB">
<feFlood flood-opacity="0" result="BackgroundImageFix"/>
<feColorMatrix in="SourceAlpha" type="matrix" values="0 0 0 0 0 0 0 0 0 0 0 0 0 0 0 0 0 0 127 0" result="hardAlpha"/>
<feOffset dy="26.0716"/>
<feGaussianBlur stdDeviation="13.0358"/>
<feColorMatrix type="matrix" values="0 0 0 0 0 0 0 0 0 0 0 0 0 0 0 0 0 0 0.16 0"/>
<feBlend mode="normal" in2="BackgroundImageFix" result="effect1_dropShadow_1_1652"/>
<feColorMatrix in="SourceAlpha" type="matrix" values="0 0 0 0 0 0 0 0 0 0 0 0 0 0 0 0 0 0 127 0" result="hardAlpha"/>
<feOffset/>
<feGaussianBlur stdDeviation="6.51789"/>
<feColorMatrix type="matrix" values="0 0 0 0 0 0 0 0 0 0 0 0 0 0 0 0 0 0 0.12 0"/>
<feBlend mode="normal" in2="effect1_dropShadow_1_1652" result="effect2_dropShadow_1_1652"/>
<feBlend mode="normal" in="SourceGraphic" in2="effect2_dropShadow_1_1652" result="shape"/>
</filter>
<filter id="filter1_dd_1_1652" x="90.9284" y="0.964211" width="64.1432" height="77.1789" filterUnits="userSpaceOnUse" color-interpolation-filters="sRGB">
<feFlood flood-opacity="0" result="BackgroundImageFix"/>
<feColorMatrix in="SourceAlpha" type="matrix" values="0 0 0 0 0 0 0 0 0 0 0 0 0 0 0 0 0 0 127 0" result="hardAlpha"/>
<feOffset dy="26.0716"/>
<feGaussianBlur stdDeviation="13.0358"/>
<feColorMatrix type="matrix" values="0 0 0 0 0 0 0 0 0 0 0 0 0 0 0 0 0 0 0.16 0"/>
<feBlend mode="normal" in2="BackgroundImageFix" result="effect1_dropShadow_1_1652"/>
<feColorMatrix in="SourceAlpha" type="matrix" values="0 0 0 0 0 0 0 0 0 0 0 0 0 0 0 0 0 0 127 0" result="hardAlpha"/>
<feOffset/>
<feGaussianBlur stdDeviation="6.51789"/>
<feColorMatrix type="matrix" values="0 0 0 0 0 0 0 0 0 0 0 0 0 0 0 0 0 0 0.12 0"/>
<feBlend mode="normal" in2="effect1_dropShadow_1_1652" result="effect2_dropShadow_1_1652"/>
<feBlend mode="normal" in="SourceGraphic" in2="effect2_dropShadow_1_1652" result="shape"/>
</filter>
<filter id="filter2_dd_1_1652" x="0.928423" y="28.9642" width="64.1432" height="77.1789" filterUnits="userSpaceOnUse" color-interpolation-filters="sRGB">
<feFlood flood-opacity="0" result="BackgroundImageFix"/>
<feColorMatrix in="SourceAlpha" type="matrix" values="0 0 0 0 0 0 0 0 0 0 0 0 0 0 0 0 0 0 127 0" result="hardAlpha"/>
<feOffset dy="26.0716"/>
<feGaussianBlur stdDeviation="13.0358"/>
<feColorMatrix type="matrix" values="0 0 0 0 0 0 0 0 0 0 0 0 0 0 0 0 0 0 0.16 0"/>
<feBlend mode="normal" in2="BackgroundImageFix" result="effect1_dropShadow_1_1652"/>
<feColorMatrix in="SourceAlpha" type="matrix" values="0 0 0 0 0 0 0 0 0 0 0 0 0 0 0 0 0 0 127 0" result="hardAlpha"/>
<feOffset/>
<feGaussianBlur stdDeviation="6.51789"/>
<feColorMatrix type="matrix" values="0 0 0 0 0 0 0 0 0 0 0 0 0 0 0 0 0 0 0.12 0"/>
<feBlend mode="normal" in2="effect1_dropShadow_1_1652" result="effect2_dropShadow_1_1652"/>
<feBlend mode="normal" in="SourceGraphic" in2="effect2_dropShadow_1_1652" result="shape"/>
</filter>
</defs>
</svg>
