<svg width="331" height="331" viewBox="0 0 331 331" fill="none" xmlns="http://www.w3.org/2000/svg">
<circle cx="164.326" cy="164.326" r="163.826" transform="matrix(-0.707107 -0.707107 -0.707107 0.707107 398.775 164.723)" stroke="white" stroke-opacity="0.2"/>
<circle cx="148.86" cy="148.86" r="148.36" transform="matrix(-0.707107 -0.707107 -0.707107 0.707107 387.84 153.787)" stroke="white" stroke-opacity="0.2"/>
<circle cx="133.394" cy="133.394" r="132.894" transform="matrix(-0.707107 -0.707107 -0.707107 0.707107 376.904 142.85)" stroke="white" stroke-opacity="0.2"/>
<circle cx="117.928" cy="117.928" r="117.428" transform="matrix(-0.707107 -0.707107 -0.707107 0.707107 365.967 131.915)" stroke="white" stroke-opacity="0.2"/>
<circle cx="102.462" cy="102.462" r="101.962" transform="matrix(-0.707107 -0.707107 -0.707107 0.707107 355.029 120.978)" stroke="white" stroke-opacity="0.2"/>
<circle cx="86.9963" cy="86.9963" r="86.4963" transform="matrix(-0.707107 -0.707107 -0.707107 0.707107 344.096 110.042)" stroke="white" stroke-opacity="0.2"/>
<circle cx="71.5303" cy="71.5303" r="71.0303" transform="matrix(-0.707107 -0.707107 -0.707107 0.707107 333.158 99.106)" stroke="white" stroke-opacity="0.2"/>
<circle cx="86.9963" cy="86.9963" r="86.4963" transform="matrix(-0.707107 -0.707107 -0.707107 0.707107 344.096 110.042)" stroke="white" stroke-opacity="0.2"/>
<circle cx="56.0643" cy="56.0643" r="55.5643" transform="matrix(-0.707107 -0.707107 -0.707107 0.707107 322.223 88.1699)" stroke="white" stroke-opacity="0.2"/>
<circle cx="40.5983" cy="40.5983" r="40.0983" transform="matrix(-0.707107 -0.707107 -0.707107 0.707107 311.287 77.2339)" stroke="white" stroke-opacity="0.2"/>
</svg>
