<svg width="919" height="900" viewBox="0 0 919 900" fill="none" xmlns="http://www.w3.org/2000/svg">
<path d="M839.572 159.825C879.959 203.674 874.246 267.864 832.048 336.315C789.867 404.739 711.302 477.284 606.335 537.708C501.367 598.132 389.915 634.971 294.594 645.7C199.235 656.433 120.207 641.024 79.8198 597.175C39.4325 553.326 45.1458 489.136 87.3435 420.685C129.524 352.261 208.09 279.716 313.057 219.292C418.025 158.868 529.477 122.029 624.798 111.3C720.157 100.567 799.185 115.976 839.572 159.825Z" stroke="white" stroke-opacity="0.2"/>
<path d="M866.465 564.1C832.17 611.06 755.653 632.983 659.382 630.269C563.157 627.555 447.403 600.223 334.949 548.896C222.495 497.568 134.677 431.984 83.5923 367.46C32.483 302.905 18.2405 239.556 52.5352 192.597C86.8298 145.637 163.347 123.714 259.618 126.429C355.843 129.142 471.597 156.474 584.051 207.801C696.505 259.129 784.323 324.713 835.408 389.237C886.517 453.792 900.759 517.141 866.465 564.1Z" stroke="white" stroke-opacity="0.2"/>
<path d="M913.512 282.131C922.381 308.299 918.207 335.943 902.984 363.553C887.759 391.165 861.498 418.713 826.26 444.652C755.786 496.529 649.482 541.914 524.048 568.484C398.615 595.055 277.849 597.771 184.006 580.702C137.084 572.167 96.9178 558.69 66.2694 540.795C35.6239 522.901 14.5244 500.61 5.65521 474.443C-3.21401 448.275 0.9607 420.63 16.1836 393.02C31.408 365.408 57.669 337.86 92.9069 311.921C163.381 260.044 269.686 214.66 395.119 188.089C520.552 161.518 641.318 158.802 735.161 175.872C782.084 184.407 822.25 197.884 852.898 215.779C883.543 233.672 904.643 255.963 913.512 282.131Z" stroke="white" stroke-opacity="0.2"/>
<path d="M913.632 474.754C904.763 500.922 883.663 523.213 853.018 541.106C822.369 559.001 782.204 572.478 735.281 581.013C641.438 598.083 520.672 595.367 395.239 568.796C269.806 542.225 163.501 496.841 93.0268 444.964C57.7889 419.025 31.5279 391.477 16.3035 363.865C1.08059 336.255 -3.09412 308.61 5.7751 282.442C14.6443 256.275 35.7438 233.984 66.3893 216.09C97.0377 198.195 137.204 184.718 184.126 176.183C277.969 159.114 398.735 161.83 524.168 188.401C649.601 214.972 755.906 260.356 826.38 312.233C861.618 338.172 887.879 365.72 903.104 393.332C918.326 420.942 922.501 448.587 913.632 474.754Z" stroke="white" stroke-opacity="0.2"/>
</svg>
