<svg width="238" height="127" viewBox="0 0 238 127" fill="none" xmlns="http://www.w3.org/2000/svg">
<g filter="url(#filter0_dd_1_1392)">
<path d="M197.964 14H40.0358C32.8364 14 27 19.8363 27 27.0358V60.9642C27 68.1637 32.8364 74 40.0358 74H197.964C205.164 74 211 68.1637 211 60.9642V27.0358C211 19.8363 205.164 14 197.964 14Z" fill="white"/>
<path d="M88.8901 52V35.08H95.9001C97.7201 35.08 99.1301 35.52 100.12 36.4C101.11 37.264 101.61 38.48 101.61 40.048C101.61 41.312 101.27 42.352 100.6 43.168C99.9301 43.968 98.9801 44.504 97.7501 44.776C98.5101 45.032 99.1601 45.648 99.6901 46.624L102.62 52H99.8801L96.9501 46.6C96.6201 45.976 96.2302 45.56 95.7802 45.352C95.3502 45.128 94.7901 45.016 94.1001 45.016H91.3901V52H88.8901ZM91.3901 43.144H95.4901C97.9501 43.144 99.1901 42.128 99.1901 40.096C99.1901 38.08 97.9501 37.072 95.4901 37.072H91.3901V43.144ZM110.18 52.216C108.26 52.216 106.75 51.68 105.65 50.608C104.54 49.52 103.99 48.04 103.99 46.168C103.99 44.968 104.23 43.912 104.71 43C105.21 42.072 105.89 41.352 106.75 40.84C107.61 40.328 108.61 40.072 109.73 40.072C111.34 40.072 112.61 40.592 113.54 41.632C114.47 42.656 114.93 44.072 114.93 45.88V46.696H106.34C106.52 49.128 107.81 50.344 110.21 50.344C110.88 50.344 111.53 50.24 112.17 50.032C112.83 49.824 113.45 49.48 114.02 49L114.74 50.68C114.21 51.16 113.53 51.536 112.7 51.808C111.87 52.08 111.03 52.216 110.18 52.216ZM109.82 41.776C108.81 41.776 108.01 42.088 107.42 42.712C106.83 43.336 106.47 44.168 106.34 45.208H112.89C112.85 44.12 112.56 43.28 112.03 42.688C111.5 42.08 110.77 41.776 109.82 41.776ZM122.65 52.216C121.17 52.216 120.08 51.84 119.36 51.088C118.64 50.336 118.28 49.248 118.28 47.824V42.16H116V40.288H118.28V36.76H120.7V40.288H124.33V42.16H120.7V47.632C120.7 48.48 120.88 49.12 121.23 49.552C121.6 49.984 122.19 50.2 123.01 50.2C123.26 50.2 123.51 50.176 123.75 50.128C123.99 50.064 124.23 49.992 124.47 49.912L124.85 51.736C124.61 51.88 124.28 51.992 123.85 52.072C123.43 52.168 123.03 52.216 122.65 52.216ZM130.26 52.216C129.45 52.216 128.72 52.056 128.08 51.736C127.44 51.416 126.93 50.984 126.54 50.44C126.18 49.896 125.99 49.28 125.99 48.592C125.99 47.728 126.21 47.048 126.64 46.552C127.09 46.056 127.82 45.696 128.82 45.472C129.85 45.248 131.22 45.136 132.95 45.136H133.77V44.512C133.77 43.6 133.58 42.944 133.19 42.544C132.81 42.144 132.18 41.944 131.3 41.944C130.62 41.944 129.95 42.048 129.28 42.256C128.61 42.448 127.92 42.76 127.22 43.192L126.47 41.488C127.08 41.056 127.84 40.712 128.75 40.456C129.66 40.2 130.54 40.072 131.37 40.072C132.97 40.072 134.15 40.456 134.92 41.224C135.69 41.976 136.07 43.16 136.07 44.776V52H133.79V50.056C133.5 50.728 133.06 51.256 132.45 51.64C131.84 52.024 131.11 52.216 130.26 52.216ZM130.74 50.488C131.61 50.488 132.33 50.184 132.9 49.576C133.48 48.968 133.77 48.2 133.77 47.272V46.624H132.98C131.81 46.624 130.89 46.68 130.22 46.792C129.56 46.904 129.09 47.096 128.8 47.368C128.53 47.624 128.39 47.984 128.39 48.448C128.39 49.056 128.6 49.552 129.02 49.936C129.43 50.304 130.01 50.488 130.74 50.488ZM139.29 37.576V35.056H142.13V37.576H139.29ZM139.51 52V40.288H141.93V52H139.51ZM149.26 52.216C147.98 52.216 147.02 51.856 146.38 51.136C145.76 50.416 145.45 49.36 145.45 47.968V35.08H147.87V47.824C147.87 49.408 148.52 50.2 149.81 50.2C150.01 50.2 150.18 50.192 150.34 50.176C150.52 50.16 150.69 50.128 150.87 50.08L150.82 52.024C150.28 52.152 149.76 52.216 149.26 52.216Z" fill="#000C2E"/>
<path d="M197.964 15.6295H40.0352C33.7356 15.6295 28.6289 20.7363 28.6289 27.0358V60.9643C28.6289 67.2638 33.7356 72.3706 40.0352 72.3706H197.964C204.263 72.3706 209.37 67.2638 209.37 60.9643V27.0358C209.37 20.7363 204.263 15.6295 197.964 15.6295Z" stroke="#00ADB5" stroke-width="3.25895"/>
</g>
<defs>
<filter id="filter0_dd_1_1392" x="0.927912" y="0.96422" width="236.144" height="125.179" filterUnits="userSpaceOnUse" color-interpolation-filters="sRGB">
<feFlood flood-opacity="0" result="BackgroundImageFix"/>
<feColorMatrix in="SourceAlpha" type="matrix" values="0 0 0 0 0 0 0 0 0 0 0 0 0 0 0 0 0 0 127 0" result="hardAlpha"/>
<feOffset dy="26.0716"/>
<feGaussianBlur stdDeviation="13.0358"/>
<feColorMatrix type="matrix" values="0 0 0 0 0 0 0 0 0 0 0 0 0 0 0 0 0 0 0.16 0"/>
<feBlend mode="normal" in2="BackgroundImageFix" result="effect1_dropShadow_1_1392"/>
<feColorMatrix in="SourceAlpha" type="matrix" values="0 0 0 0 0 0 0 0 0 0 0 0 0 0 0 0 0 0 127 0" result="hardAlpha"/>
<feOffset/>
<feGaussianBlur stdDeviation="6.51789"/>
<feColorMatrix type="matrix" values="0 0 0 0 0 0 0 0 0 0 0 0 0 0 0 0 0 0 0.12 0"/>
<feBlend mode="normal" in2="effect1_dropShadow_1_1392" result="effect2_dropShadow_1_1392"/>
<feBlend mode="normal" in="SourceGraphic" in2="effect2_dropShadow_1_1392" result="shape"/>
</filter>
</defs>
</svg>
