<svg width="238" height="127" viewBox="0 0 238 127" fill="none" xmlns="http://www.w3.org/2000/svg">
<g filter="url(#filter0_dd_1_1382)">
<path d="M197.964 14H40.0358C32.8363 14 27 19.8363 27 27.0358V60.9642C27 68.1637 32.8363 74 40.0358 74H197.964C205.164 74 211 68.1637 211 60.9642V27.0358C211 19.8363 205.164 14 197.964 14Z" fill="white"/>
<path d="M75.984 52V35.08H83.04C84.8 35.08 86.16 35.472 87.12 36.256C88.096 37.024 88.584 38.104 88.584 39.496C88.584 40.408 88.344 41.192 87.864 41.848C87.384 42.504 86.728 42.984 85.896 43.288C86.872 43.544 87.632 44.016 88.176 44.704C88.72 45.392 88.992 46.264 88.992 47.32C88.992 48.824 88.488 49.984 87.48 50.8C86.488 51.6 85.104 52 83.328 52H75.984ZM78.384 42.472H82.656C84.992 42.472 86.16 41.56 86.16 39.736C86.16 37.912 84.992 37 82.656 37H78.384V42.472ZM78.384 50.08H83.04C85.392 50.08 86.568 49.128 86.568 47.224C86.568 45.336 85.392 44.392 83.04 44.392H78.384V50.08ZM95.924 52.216C95.108 52.216 94.38 52.056 93.74 51.736C93.1 51.416 92.588 50.984 92.204 50.44C91.836 49.896 91.652 49.28 91.652 48.592C91.652 47.728 91.868 47.048 92.3 46.552C92.748 46.056 93.476 45.696 94.484 45.472C95.508 45.248 96.884 45.136 98.612 45.136H99.428V44.512C99.428 43.6 99.236 42.944 98.852 42.544C98.468 42.144 97.836 41.944 96.956 41.944C96.284 41.944 95.612 42.048 94.94 42.256C94.268 42.448 93.58 42.76 92.876 43.192L92.132 41.488C92.74 41.056 93.5 40.712 94.412 40.456C95.324 40.2 96.196 40.072 97.028 40.072C98.628 40.072 99.812 40.456 100.58 41.224C101.348 41.976 101.732 43.16 101.732 44.776V52H99.452V50.056C99.164 50.728 98.716 51.256 98.108 51.64C97.5 52.024 96.772 52.216 95.924 52.216ZM96.404 50.488C97.268 50.488 97.988 50.184 98.564 49.576C99.14 48.968 99.428 48.2 99.428 47.272V46.624H98.636C97.468 46.624 96.548 46.68 95.876 46.792C95.22 46.904 94.748 47.096 94.46 47.368C94.188 47.624 94.052 47.984 94.052 48.448C94.052 49.056 94.26 49.552 94.676 49.936C95.092 50.304 95.668 50.488 96.404 50.488ZM105.17 52V40.288H107.522V42.232C107.922 41.528 108.466 40.992 109.154 40.624C109.858 40.256 110.642 40.072 111.506 40.072C114.274 40.072 115.658 41.64 115.658 44.776V52H113.234V44.92C113.234 43.912 113.034 43.176 112.634 42.712C112.25 42.248 111.642 42.016 110.81 42.016C109.834 42.016 109.05 42.328 108.458 42.952C107.882 43.56 107.594 44.368 107.594 45.376V52H105.17ZM119.099 52V35.08H121.523V45.4H121.571L126.659 40.288H129.659L124.043 45.928L130.091 52H127.067L121.571 46.648H121.523V52H119.099ZM131.358 37.576V35.056H134.19V37.576H131.358ZM131.574 52V40.288H133.998V52H131.574ZM137.509 52V40.288H139.861V42.232C140.261 41.528 140.805 40.992 141.493 40.624C142.197 40.256 142.981 40.072 143.845 40.072C146.613 40.072 147.997 41.64 147.997 44.776V52H145.573V44.92C145.573 43.912 145.373 43.176 144.973 42.712C144.589 42.248 143.981 42.016 143.149 42.016C142.173 42.016 141.389 42.328 140.797 42.952C140.221 43.56 139.933 44.368 139.933 45.376V52H137.509ZM156.742 56.536C155.686 56.536 154.702 56.408 153.79 56.152C152.878 55.912 152.07 55.528 151.366 55L152.11 53.272C152.814 53.752 153.534 54.104 154.27 54.328C155.006 54.552 155.774 54.664 156.574 54.664C158.814 54.664 159.934 53.544 159.934 51.304V49.456C159.598 50.16 159.07 50.712 158.35 51.112C157.646 51.512 156.854 51.712 155.974 51.712C154.918 51.712 153.998 51.472 153.214 50.992C152.43 50.496 151.822 49.816 151.39 48.952C150.958 48.072 150.742 47.048 150.742 45.88C150.742 44.728 150.958 43.72 151.39 42.856C151.822 41.976 152.43 41.296 153.214 40.816C153.998 40.32 154.918 40.072 155.974 40.072C156.87 40.072 157.67 40.272 158.374 40.672C159.078 41.072 159.598 41.624 159.934 42.328V40.288H162.286V51.016C162.286 52.856 161.814 54.232 160.87 55.144C159.926 56.072 158.55 56.536 156.742 56.536ZM156.55 49.816C157.574 49.816 158.39 49.464 158.998 48.76C159.606 48.056 159.91 47.096 159.91 45.88C159.91 44.664 159.606 43.712 158.998 43.024C158.39 42.32 157.574 41.968 156.55 41.968C155.526 41.968 154.71 42.32 154.102 43.024C153.494 43.712 153.19 44.664 153.19 45.88C153.19 47.096 153.494 48.056 154.102 48.76C154.71 49.464 155.526 49.816 156.55 49.816Z" fill="#000C2E"/>
<path d="M197.964 15.6295H40.0353C33.7358 15.6295 28.629 20.7363 28.629 27.0358V60.9643C28.629 67.2638 33.7358 72.3706 40.0353 72.3706H197.964C204.263 72.3706 209.37 67.2638 209.37 60.9643V27.0358C209.37 20.7363 204.263 15.6295 197.964 15.6295Z" stroke="#00ADB5" stroke-width="3.25895"/>
</g>
<defs>
<filter id="filter0_dd_1_1382" x="0.927912" y="0.96422" width="236.144" height="125.179" filterUnits="userSpaceOnUse" color-interpolation-filters="sRGB">
<feFlood flood-opacity="0" result="BackgroundImageFix"/>
<feColorMatrix in="SourceAlpha" type="matrix" values="0 0 0 0 0 0 0 0 0 0 0 0 0 0 0 0 0 0 127 0" result="hardAlpha"/>
<feOffset dy="26.0716"/>
<feGaussianBlur stdDeviation="13.0358"/>
<feColorMatrix type="matrix" values="0 0 0 0 0 0 0 0 0 0 0 0 0 0 0 0 0 0 0.16 0"/>
<feBlend mode="normal" in2="BackgroundImageFix" result="effect1_dropShadow_1_1382"/>
<feColorMatrix in="SourceAlpha" type="matrix" values="0 0 0 0 0 0 0 0 0 0 0 0 0 0 0 0 0 0 127 0" result="hardAlpha"/>
<feOffset/>
<feGaussianBlur stdDeviation="6.51789"/>
<feColorMatrix type="matrix" values="0 0 0 0 0 0 0 0 0 0 0 0 0 0 0 0 0 0 0.12 0"/>
<feBlend mode="normal" in2="effect1_dropShadow_1_1382" result="effect2_dropShadow_1_1382"/>
<feBlend mode="normal" in="SourceGraphic" in2="effect2_dropShadow_1_1382" result="shape"/>
</filter>
</defs>
</svg>
