<svg width="238" height="127" viewBox="0 0 238 127" fill="none" xmlns="http://www.w3.org/2000/svg">
<g filter="url(#filter0_dd_1_1412)">
<path d="M197.964 14H40.0358C32.8364 14 27 19.8363 27 27.0358V60.9642C27 68.1637 32.8364 74 40.0358 74H197.964C205.164 74 211 68.1637 211 60.9642V27.0358C211 19.8363 205.164 14 197.964 14Z" fill="white"/>
<path d="M98.6381 52.216C97.3101 52.216 96.0941 52.048 94.9901 51.712C93.8861 51.36 92.9501 50.872 92.1821 50.248L92.9741 48.28C93.7741 48.888 94.6301 49.344 95.5421 49.648C96.4541 49.952 97.4861 50.104 98.6381 50.104C99.9981 50.104 100.998 49.864 101.638 49.384C102.294 48.888 102.622 48.248 102.622 47.464C102.622 46.824 102.39 46.32 101.926 45.952C101.462 45.568 100.686 45.264 99.5981 45.04L97.0302 44.512C95.5102 44.192 94.3741 43.664 93.6221 42.928C92.8861 42.192 92.5181 41.2 92.5181 39.952C92.5181 38.944 92.7821 38.056 93.3101 37.288C93.8541 36.52 94.6061 35.928 95.5661 35.512C96.5261 35.08 97.6301 34.864 98.8781 34.864C100.03 34.864 101.094 35.04 102.07 35.392C103.062 35.728 103.902 36.224 104.59 36.88L103.774 38.776C102.414 37.576 100.774 36.976 98.8541 36.976C97.6701 36.976 96.7261 37.24 96.0221 37.768C95.3341 38.296 94.9901 39 94.9901 39.88C94.9901 40.552 95.2061 41.088 95.6381 41.488C96.0701 41.888 96.7901 42.192 97.7981 42.4L100.342 42.928C101.942 43.264 103.134 43.784 103.918 44.488C104.702 45.176 105.094 46.112 105.094 47.296C105.094 48.288 104.83 49.152 104.302 49.888C103.774 50.624 103.03 51.2 102.07 51.616C101.11 52.016 99.9661 52.216 98.6381 52.216ZM111.507 52.216C110.691 52.216 109.963 52.056 109.323 51.736C108.683 51.416 108.171 50.984 107.787 50.44C107.419 49.896 107.235 49.28 107.235 48.592C107.235 47.728 107.451 47.048 107.883 46.552C108.331 46.056 109.059 45.696 110.067 45.472C111.091 45.248 112.467 45.136 114.195 45.136H115.011V44.512C115.011 43.6 114.819 42.944 114.435 42.544C114.051 42.144 113.419 41.944 112.539 41.944C111.867 41.944 111.195 42.048 110.523 42.256C109.851 42.448 109.163 42.76 108.459 43.192L107.715 41.488C108.323 41.056 109.083 40.712 109.995 40.456C110.907 40.2 111.779 40.072 112.611 40.072C114.211 40.072 115.395 40.456 116.163 41.224C116.931 41.976 117.315 43.16 117.315 44.776V52H115.035V50.056C114.747 50.728 114.299 51.256 113.691 51.64C113.083 52.024 112.355 52.216 111.507 52.216ZM111.987 50.488C112.851 50.488 113.571 50.184 114.147 49.576C114.723 48.968 115.011 48.2 115.011 47.272V46.624H114.219C113.051 46.624 112.131 46.68 111.459 46.792C110.803 46.904 110.331 47.096 110.043 47.368C109.771 47.624 109.635 47.984 109.635 48.448C109.635 49.056 109.843 49.552 110.259 49.936C110.675 50.304 111.251 50.488 111.987 50.488ZM124.498 52.216C123.682 52.216 122.954 52.056 122.314 51.736C121.674 51.416 121.162 50.984 120.778 50.44C120.41 49.896 120.226 49.28 120.226 48.592C120.226 47.728 120.442 47.048 120.874 46.552C121.322 46.056 122.05 45.696 123.058 45.472C124.082 45.248 125.458 45.136 127.186 45.136H128.002V44.512C128.002 43.6 127.81 42.944 127.426 42.544C127.042 42.144 126.41 41.944 125.53 41.944C124.858 41.944 124.186 42.048 123.514 42.256C122.842 42.448 122.154 42.76 121.45 43.192L120.706 41.488C121.314 41.056 122.074 40.712 122.986 40.456C123.898 40.2 124.77 40.072 125.602 40.072C127.202 40.072 128.386 40.456 129.154 41.224C129.922 41.976 130.306 43.16 130.306 44.776V52H128.026V50.056C127.738 50.728 127.29 51.256 126.682 51.64C126.074 52.024 125.346 52.216 124.498 52.216ZM124.978 50.488C125.842 50.488 126.562 50.184 127.138 49.576C127.714 48.968 128.002 48.2 128.002 47.272V46.624H127.21C126.042 46.624 125.122 46.68 124.45 46.792C123.794 46.904 123.322 47.096 123.034 47.368C122.762 47.624 122.626 47.984 122.626 48.448C122.626 49.056 122.834 49.552 123.25 49.936C123.666 50.304 124.242 50.488 124.978 50.488ZM139.649 52.216C138.321 52.216 137.105 52.048 136.001 51.712C134.897 51.36 133.961 50.872 133.193 50.248L133.985 48.28C134.785 48.888 135.641 49.344 136.553 49.648C137.465 49.952 138.497 50.104 139.649 50.104C141.009 50.104 142.009 49.864 142.649 49.384C143.305 48.888 143.633 48.248 143.633 47.464C143.633 46.824 143.401 46.32 142.937 45.952C142.473 45.568 141.697 45.264 140.609 45.04L138.041 44.512C136.521 44.192 135.385 43.664 134.633 42.928C133.897 42.192 133.529 41.2 133.529 39.952C133.529 38.944 133.793 38.056 134.321 37.288C134.865 36.52 135.617 35.928 136.577 35.512C137.537 35.08 138.641 34.864 139.889 34.864C141.041 34.864 142.105 35.04 143.081 35.392C144.073 35.728 144.913 36.224 145.601 36.88L144.785 38.776C143.425 37.576 141.785 36.976 139.865 36.976C138.681 36.976 137.737 37.24 137.033 37.768C136.345 38.296 136.001 39 136.001 39.88C136.001 40.552 136.217 41.088 136.649 41.488C137.081 41.888 137.801 42.192 138.809 42.4L141.353 42.928C142.953 43.264 144.145 43.784 144.929 44.488C145.713 45.176 146.105 46.112 146.105 47.296C146.105 48.288 145.841 49.152 145.313 49.888C144.785 50.624 144.041 51.2 143.081 51.616C142.121 52.016 140.977 52.216 139.649 52.216Z" fill="#000C2E"/>
<path d="M197.964 15.6295H40.0352C33.7356 15.6295 28.6289 20.7363 28.6289 27.0358V60.9643C28.6289 67.2638 33.7356 72.3706 40.0352 72.3706H197.964C204.263 72.3706 209.37 67.2638 209.37 60.9643V27.0358C209.37 20.7363 204.263 15.6295 197.964 15.6295Z" stroke="#00ADB5" stroke-width="3.25895"/>
</g>
<defs>
<filter id="filter0_dd_1_1412" x="0.927912" y="0.96422" width="236.144" height="125.179" filterUnits="userSpaceOnUse" color-interpolation-filters="sRGB">
<feFlood flood-opacity="0" result="BackgroundImageFix"/>
<feColorMatrix in="SourceAlpha" type="matrix" values="0 0 0 0 0 0 0 0 0 0 0 0 0 0 0 0 0 0 127 0" result="hardAlpha"/>
<feOffset dy="26.0716"/>
<feGaussianBlur stdDeviation="13.0358"/>
<feColorMatrix type="matrix" values="0 0 0 0 0 0 0 0 0 0 0 0 0 0 0 0 0 0 0.16 0"/>
<feBlend mode="normal" in2="BackgroundImageFix" result="effect1_dropShadow_1_1412"/>
<feColorMatrix in="SourceAlpha" type="matrix" values="0 0 0 0 0 0 0 0 0 0 0 0 0 0 0 0 0 0 127 0" result="hardAlpha"/>
<feOffset/>
<feGaussianBlur stdDeviation="6.51789"/>
<feColorMatrix type="matrix" values="0 0 0 0 0 0 0 0 0 0 0 0 0 0 0 0 0 0 0.12 0"/>
<feBlend mode="normal" in2="effect1_dropShadow_1_1412" result="effect2_dropShadow_1_1412"/>
<feBlend mode="normal" in="SourceGraphic" in2="effect2_dropShadow_1_1412" result="shape"/>
</filter>
</defs>
</svg>
