<svg width="238" height="127" viewBox="0 0 238 127" fill="none" xmlns="http://www.w3.org/2000/svg">
<g filter="url(#filter0_dd_1_1402)">
<path d="M197.964 14H40.0358C32.8363 14 27 19.8363 27 27.0358V60.9642C27 68.1637 32.8363 74 40.0358 74H197.964C205.164 74 211 68.1637 211 60.9642V27.0358C211 19.8363 205.164 14 197.964 14Z" fill="white"/>
<path d="M81.238 52V35.08H92.182V37.096H83.638V42.4H91.678V44.416H83.638V49.984H92.182V52H81.238ZM99.5771 52.216C98.5531 52.216 97.649 51.976 96.865 51.496C96.097 51 95.497 50.296 95.065 49.384C94.633 48.472 94.417 47.392 94.417 46.144C94.417 44.896 94.633 43.824 95.065 42.928C95.497 42.016 96.097 41.312 96.865 40.816C97.633 40.32 98.5371 40.072 99.5771 40.072C100.457 40.072 101.241 40.264 101.929 40.648C102.617 41.032 103.129 41.552 103.465 42.208V35.08H105.889V52H103.513V49.96C103.177 50.664 102.657 51.216 101.953 51.616C101.265 52.016 100.473 52.216 99.5771 52.216ZM100.201 50.344C101.193 50.344 101.993 49.984 102.601 49.264C103.209 48.544 103.513 47.504 103.513 46.144C103.513 44.784 103.209 43.752 102.601 43.048C101.993 42.328 101.193 41.968 100.201 41.968C99.193 41.968 98.385 42.328 97.777 43.048C97.169 43.752 96.865 44.784 96.865 46.144C96.865 47.504 97.169 48.544 97.777 49.264C98.385 49.984 99.193 50.344 100.201 50.344ZM113.784 52V37.168H107.784V35.08H122.256V37.168H116.256V52H113.784ZM127.809 52.216C125.889 52.216 124.377 51.68 123.273 50.608C122.169 49.52 121.617 48.04 121.617 46.168C121.617 44.968 121.857 43.912 122.337 43C122.833 42.072 123.513 41.352 124.377 40.84C125.241 40.328 126.233 40.072 127.353 40.072C128.969 40.072 130.241 40.592 131.169 41.632C132.097 42.656 132.561 44.072 132.561 45.88V46.696H123.969C124.145 49.128 125.433 50.344 127.833 50.344C128.505 50.344 129.161 50.24 129.801 50.032C130.457 49.824 131.073 49.48 131.649 49L132.369 50.68C131.841 51.16 131.161 51.536 130.329 51.808C129.497 52.08 128.657 52.216 127.809 52.216ZM127.449 41.776C126.441 41.776 125.641 42.088 125.049 42.712C124.457 43.336 124.097 44.168 123.969 45.208H130.521C130.473 44.12 130.185 43.28 129.657 42.688C129.129 42.08 128.393 41.776 127.449 41.776ZM140.463 52.216C139.263 52.216 138.223 51.968 137.343 51.472C136.479 50.96 135.807 50.248 135.327 49.336C134.847 48.408 134.607 47.32 134.607 46.072C134.607 44.216 135.135 42.752 136.191 41.68C137.247 40.608 138.671 40.072 140.463 40.072C141.199 40.072 141.927 40.2 142.647 40.456C143.367 40.712 143.959 41.064 144.423 41.512L143.655 43.216C143.207 42.8 142.711 42.496 142.167 42.304C141.639 42.096 141.135 41.992 140.655 41.992C139.519 41.992 138.639 42.352 138.015 43.072C137.407 43.776 137.103 44.784 137.103 46.096C137.103 47.408 137.407 48.44 138.015 49.192C138.639 49.928 139.519 50.296 140.655 50.296C141.135 50.296 141.639 50.2 142.167 50.008C142.711 49.8 143.207 49.488 143.655 49.072L144.423 50.8C143.959 51.232 143.359 51.576 142.623 51.832C141.903 52.088 141.183 52.216 140.463 52.216ZM146.606 52V35.08H149.03V42.112C149.43 41.44 149.966 40.936 150.638 40.6C151.326 40.248 152.094 40.072 152.942 40.072C155.71 40.072 157.094 41.64 157.094 44.776V52H154.67V44.92C154.67 43.912 154.47 43.176 154.07 42.712C153.686 42.248 153.078 42.016 152.246 42.016C151.27 42.016 150.486 42.328 149.894 42.952C149.318 43.56 149.03 44.368 149.03 45.376V52H146.606Z" fill="#000C2E"/>
<path d="M197.964 15.6295H40.0352C33.7357 15.6295 28.6289 20.7363 28.6289 27.0358V60.9643C28.6289 67.2638 33.7357 72.3706 40.0352 72.3706H197.964C204.263 72.3706 209.37 67.2638 209.37 60.9643V27.0358C209.37 20.7363 204.263 15.6295 197.964 15.6295Z" stroke="#00ADB5" stroke-width="3.25895"/>
</g>
<defs>
<filter id="filter0_dd_1_1402" x="0.927912" y="0.96422" width="236.144" height="125.179" filterUnits="userSpaceOnUse" color-interpolation-filters="sRGB">
<feFlood flood-opacity="0" result="BackgroundImageFix"/>
<feColorMatrix in="SourceAlpha" type="matrix" values="0 0 0 0 0 0 0 0 0 0 0 0 0 0 0 0 0 0 127 0" result="hardAlpha"/>
<feOffset dy="26.0716"/>
<feGaussianBlur stdDeviation="13.0358"/>
<feColorMatrix type="matrix" values="0 0 0 0 0 0 0 0 0 0 0 0 0 0 0 0 0 0 0.16 0"/>
<feBlend mode="normal" in2="BackgroundImageFix" result="effect1_dropShadow_1_1402"/>
<feColorMatrix in="SourceAlpha" type="matrix" values="0 0 0 0 0 0 0 0 0 0 0 0 0 0 0 0 0 0 127 0" result="hardAlpha"/>
<feOffset/>
<feGaussianBlur stdDeviation="6.51789"/>
<feColorMatrix type="matrix" values="0 0 0 0 0 0 0 0 0 0 0 0 0 0 0 0 0 0 0.12 0"/>
<feBlend mode="normal" in2="effect1_dropShadow_1_1402" result="effect2_dropShadow_1_1402"/>
<feBlend mode="normal" in="SourceGraphic" in2="effect2_dropShadow_1_1402" result="shape"/>
</filter>
</defs>
</svg>
