<svg width="24" height="24" viewBox="0 0 24 24" fill="none" xmlns="http://www.w3.org/2000/svg">
<g clip-path="url(#clip0_643_11764)">
<path d="M22.2283 0.00012207H1.77167C1.30179 0.00012207 0.851161 0.18678 0.518909 0.519032C0.186657 0.851283 0 1.30191 0 1.77179V22.2285C0 22.6983 0.186657 23.149 0.518909 23.4812C0.851161 23.8135 1.30179 24.0001 1.77167 24.0001H22.2283C22.6982 24.0001 23.1488 23.8135 23.4811 23.4812C23.8133 23.149 24 22.6983 24 22.2285V1.77179C24 1.30191 23.8133 0.851283 23.4811 0.519032C23.1488 0.18678 22.6982 0.00012207 22.2283 0.00012207ZM7.15333 20.4451H3.545V8.98346H7.15333V20.4451ZM5.34667 7.39512C4.93736 7.39282 4.53792 7.26932 4.19873 7.04021C3.85955 6.8111 3.59584 6.48665 3.44088 6.10781C3.28591 5.72897 3.24665 5.31271 3.32803 4.91158C3.40941 4.51044 3.6078 4.1424 3.89816 3.8539C4.18851 3.56541 4.55782 3.36939 4.95947 3.29058C5.36112 3.21178 5.77711 3.25372 6.15495 3.41111C6.53279 3.5685 6.85554 3.83429 7.08247 4.17493C7.30939 4.51558 7.43032 4.91581 7.43 5.32512C7.43386 5.59916 7.38251 5.87116 7.27901 6.12493C7.17551 6.37869 7.02198 6.60902 6.82757 6.80219C6.63316 6.99536 6.40185 7.1474 6.14742 7.24927C5.893 7.35114 5.62067 7.40074 5.34667 7.39512ZM20.4533 20.4551H16.8467V14.1935C16.8467 12.3468 16.0617 11.7768 15.0483 11.7768C13.9783 11.7768 12.9283 12.5835 12.9283 14.2401V20.4551H9.32V8.99179H12.79V10.5801H12.8367C13.185 9.87512 14.405 8.67012 16.2667 8.67012C18.28 8.67012 20.455 9.86512 20.455 13.3651L20.4533 20.4551Z" fill="#0A66C2"/>
</g>
<defs>
<clipPath id="clip0_643_11764">
<rect width="24" height="24" fill="white"/>
</clipPath>
</defs>
</svg>
