<svg width="24" height="24" viewBox="0 0 24 24" fill="none" xmlns="http://www.w3.org/2000/svg">
<g clip-path="url(#clip0_650_11784)">
<path d="M12 2.16106C15.2063 2.16106 15.5859 2.17512 16.8469 2.23137C18.0188 2.28293 18.6516 2.47981 19.0734 2.64387C19.6313 2.8595 20.0344 3.122 20.4516 3.53918C20.8734 3.96106 21.1313 4.3595 21.3469 4.91731C21.5109 5.33918 21.7078 5.97668 21.7594 7.14387C21.8156 8.4095 21.8297 8.78918 21.8297 11.9907C21.8297 15.197 21.8156 15.5767 21.7594 16.8376C21.7078 18.0095 21.5109 18.6423 21.3469 19.0642C21.1313 19.622 20.8688 20.0251 20.4516 20.4423C20.0297 20.8642 19.6313 21.122 19.0734 21.3376C18.6516 21.5017 18.0141 21.6986 16.8469 21.7501C15.5813 21.8064 15.2016 21.8204 12 21.8204C8.79375 21.8204 8.41406 21.8064 7.15313 21.7501C5.98125 21.6986 5.34844 21.5017 4.92656 21.3376C4.36875 21.122 3.96563 20.8595 3.54844 20.4423C3.12656 20.0204 2.86875 19.622 2.65313 19.0642C2.48906 18.6423 2.29219 18.0048 2.24063 16.8376C2.18438 15.572 2.17031 15.1923 2.17031 11.9907C2.17031 8.7845 2.18438 8.40481 2.24063 7.14387C2.29219 5.972 2.48906 5.33918 2.65313 4.91731C2.86875 4.3595 3.13125 3.95637 3.54844 3.53918C3.97031 3.11731 4.36875 2.8595 4.92656 2.64387C5.34844 2.47981 5.98594 2.28293 7.15313 2.23137C8.41406 2.17512 8.79375 2.16106 12 2.16106ZM12 0.00012207C8.74219 0.00012207 8.33438 0.0141846 7.05469 0.0704346C5.77969 0.126685 4.90313 0.332934 4.14375 0.628247C3.35156 0.937622 2.68125 1.34543 2.01563 2.01575C1.34531 2.68137 0.9375 3.35168 0.628125 4.13918C0.332812 4.90325 0.126563 5.77512 0.0703125 7.05012C0.0140625 8.3345 0 8.74231 0 12.0001C0 15.2579 0.0140625 15.6657 0.0703125 16.9454C0.126563 18.2204 0.332812 19.097 0.628125 19.8564C0.9375 20.6486 1.34531 21.3189 2.01563 21.9845C2.68125 22.6501 3.35156 23.0626 4.13906 23.3673C4.90313 23.6626 5.775 23.8689 7.05 23.9251C8.32969 23.9814 8.7375 23.9954 11.9953 23.9954C15.2531 23.9954 15.6609 23.9814 16.9406 23.9251C18.2156 23.8689 19.0922 23.6626 19.8516 23.3673C20.6391 23.0626 21.3094 22.6501 21.975 21.9845C22.6406 21.3189 23.0531 20.6486 23.3578 19.8611C23.6531 19.097 23.8594 18.2251 23.9156 16.9501C23.9719 15.6704 23.9859 15.2626 23.9859 12.0048C23.9859 8.747 23.9719 8.33918 23.9156 7.0595C23.8594 5.7845 23.6531 4.90793 23.3578 4.14856C23.0625 3.35168 22.6547 2.68137 21.9844 2.01575C21.3188 1.35012 20.6484 0.937622 19.8609 0.632935C19.0969 0.337622 18.225 0.131372 16.95 0.0751221C15.6656 0.0141846 15.2578 0.00012207 12 0.00012207Z" fill="#000100"/>
<path d="M12 5.83606C8.59688 5.83606 5.83594 8.597 5.83594 12.0001C5.83594 15.4032 8.59688 18.1642 12 18.1642C15.4031 18.1642 18.1641 15.4032 18.1641 12.0001C18.1641 8.597 15.4031 5.83606 12 5.83606ZM12 15.9986C9.79219 15.9986 8.00156 14.2079 8.00156 12.0001C8.00156 9.79231 9.79219 8.00168 12 8.00168C14.2078 8.00168 15.9984 9.79231 15.9984 12.0001C15.9984 14.2079 14.2078 15.9986 12 15.9986Z" fill="#000100"/>
<path d="M19.8469 5.59239C19.8469 6.38926 19.2 7.03145 18.4078 7.03145C17.6109 7.03145 16.9688 6.38457 16.9688 5.59239C16.9688 4.79551 17.6156 4.15332 18.4078 4.15332C19.2 4.15332 19.8469 4.8002 19.8469 5.59239Z" fill="#000100"/>
</g>
<defs>
<clipPath id="clip0_650_11784">
<rect width="24" height="24" fill="white"/>
</clipPath>
</defs>
</svg>
