<svg width="24" height="24" viewBox="0 0 24 24" fill="none" xmlns="http://www.w3.org/2000/svg">
<path d="M23.9995 11.8278C23.9995 15.0072 23.4667 17.5861 22.8092 17.5861C22.1517 17.5861 21.6191 15.0078 21.6191 11.8278C21.6191 8.64782 22.152 6.06958 22.8092 6.06958C23.4665 6.06958 23.9995 8.64759 23.9995 11.8278Z" fill="black"/>
<path d="M20.9632 11.8278C20.9632 15.3771 19.4479 18.2555 17.5788 18.2555C15.7096 18.2555 14.1943 15.3771 14.1943 11.8278C14.1943 8.27846 15.7094 5.40002 17.5785 5.40002C19.4477 5.40002 20.9629 8.27754 20.9629 11.8278" fill="black"/>
<path d="M13.5374 11.8278C13.5374 15.5985 10.5069 18.6553 6.76884 18.6553C3.03073 18.6553 0 15.5978 0 11.8278C0 8.0578 3.0305 5.00012 6.76884 5.00012C10.5072 5.00012 13.5374 8.05711 13.5374 11.8278Z" fill="black"/>
</svg>
