<svg width="24" height="24" viewBox="0 0 24 24" fill="none" xmlns="http://www.w3.org/2000/svg">
<path d="M12 23.6251C18.4203 23.6251 23.625 18.4204 23.625 12.0001C23.625 5.57981 18.4203 0.375122 12 0.375122C5.57969 0.375122 0.375 5.57981 0.375 12.0001C0.375 18.4204 5.57969 23.6251 12 23.6251Z" fill="#EA4C89"/>
<path fill-rule="evenodd" clip-rule="evenodd" d="M12 0.00012207C5.37527 0.00012207 0 5.37539 0 12.0001C0 18.6249 5.37527 24.0001 12 24.0001C18.6117 24.0001 24 18.6249 24 12.0001C24 5.37539 18.6117 0.00012207 12 0.00012207ZM19.9262 5.53157C21.3579 7.27561 22.217 9.5012 22.243 11.909C21.9046 11.844 18.5206 11.1541 15.1106 11.5836C15.0325 11.4144 14.9675 11.2322 14.8894 11.05C14.6811 10.5555 14.4469 10.0479 14.2126 9.5663C17.9869 8.03052 19.705 5.81791 19.9262 5.53157ZM12 1.77019C14.603 1.77019 16.9848 2.74633 18.7939 4.3472C18.6117 4.6075 17.0629 6.67691 13.4186 8.0435C11.7397 4.9589 9.87855 2.43396 9.5922 2.0435C10.3601 1.86129 11.1671 1.77019 12 1.77019ZM7.63995 2.73331C7.91325 3.09773 9.73538 5.6357 11.4404 8.6552C6.65076 9.93072 2.42083 9.9047 1.96529 9.9047C2.62906 6.72897 4.77657 4.08689 7.63995 2.73331ZM1.74404 12.0132C1.74404 11.909 1.74404 11.8049 1.74404 11.7008C2.18655 11.7138 7.15835 11.7789 12.2733 10.2431C12.5727 10.8157 12.846 11.4014 13.1063 11.9871C12.9761 12.0261 12.8329 12.0652 12.7028 12.1042C7.41865 13.8092 4.60738 18.4686 4.3731 18.8591C2.7462 17.05 1.74404 14.6422 1.74404 12.0132ZM12 22.2561C9.6312 22.2561 7.44469 21.4491 5.71366 20.0955C5.89588 19.7181 7.97827 15.7095 13.757 13.6921C13.783 13.6791 13.7961 13.6791 13.8221 13.6661C15.2668 17.4014 15.8525 20.538 16.0087 21.4361C14.7722 21.9697 13.4186 22.2561 12 22.2561ZM17.7137 20.499C17.6096 19.8743 17.0629 16.8808 15.7223 13.1975C18.9371 12.6899 21.7484 13.5229 22.0998 13.6401C21.6573 16.4904 20.0174 18.9502 17.7137 20.499Z" fill="#C32361"/>
</svg>
