<svg width="416" height="47" viewBox="0 0 416 47" fill="none" xmlns="http://www.w3.org/2000/svg">
<path d="M0 37.0638V0H4.22952V16.8233H4.33267L21.9728 0H27.3887L8.40745 18.0324L28.5234 37.0638H22.9529L4.33267 19.6096H4.22952V37.0638H0Z" fill="white"/>
<path d="M39.5614 37.5369C37.8421 37.5369 36.2947 37.204 34.9193 36.538C33.5782 35.8371 32.5122 34.8908 31.7214 33.6991C30.9305 32.5075 30.535 31.1756 30.535 29.7036C30.535 27.846 30.9993 26.374 31.9277 25.2875C32.8905 24.201 34.4551 23.4299 36.6214 22.9743C38.8221 22.4836 41.8137 22.2383 45.5962 22.2383H47.2468V20.6085C47.2468 18.4355 46.7998 16.8758 45.9057 15.9295C45.0461 14.9482 43.6534 14.4575 41.7278 14.4575C40.2148 14.4575 38.7534 14.6853 37.3435 15.1409C35.9337 15.5615 34.4895 16.2625 33.0109 17.2438L31.5666 14.1421C32.8733 13.1957 34.4551 12.4422 36.3119 11.8814C38.2032 11.3207 40.0085 11.0403 41.7278 11.0403C44.9601 11.0403 47.3499 11.8464 48.8973 13.4586C50.4791 15.0708 51.27 17.5768 51.27 20.9765V37.0638H47.3499V32.6476C46.6966 34.1547 45.6822 35.3464 44.3068 36.2226C42.9657 37.0988 41.3839 37.5369 39.5614 37.5369ZM40.232 34.33C42.2952 34.33 43.9801 33.6115 45.2868 32.1745C46.5934 30.7025 47.2468 28.8449 47.2468 26.6018V25.0246H45.6478C42.8625 25.0246 40.6618 25.1648 39.0456 25.4452C37.4639 25.6905 36.3463 26.1462 35.693 26.8121C35.074 27.443 34.7646 28.3192 34.7646 29.4407C34.7646 30.8777 35.246 32.0518 36.2088 32.9631C37.206 33.8743 38.547 34.33 40.232 34.33Z" fill="white"/>
<path d="M57.9378 37.0638V34.2248L72.2769 14.8255H57.9378V11.5134H76.9191V14.3523L62.58 33.7517H77.4864V37.0638H57.9378Z" fill="white"/>
<path d="M90.5365 37.5369C88.8171 37.5369 87.2698 37.204 85.8943 36.538C84.5532 35.8371 83.4873 34.8908 82.6964 33.6991C81.9055 32.5075 81.51 31.1756 81.51 29.7036C81.51 27.846 81.9743 26.374 82.9027 25.2875C83.8655 24.201 85.4301 23.4299 87.5964 22.9743C89.7971 22.4836 92.7887 22.2383 96.5712 22.2383H98.2218V20.6085C98.2218 18.4355 97.7748 16.8758 96.8807 15.9295C96.0211 14.9482 94.6284 14.4575 92.7028 14.4575C91.1898 14.4575 89.7284 14.6853 88.3185 15.1409C86.9087 15.5615 85.4645 16.2625 83.9859 17.2438L82.5416 14.1421C83.8483 13.1957 85.4301 12.4422 87.2869 11.8814C89.1782 11.3207 90.9835 11.0403 92.7028 11.0403C95.9351 11.0403 98.3249 11.8464 99.8723 13.4586C101.454 15.0708 102.245 17.5768 102.245 20.9765V37.0638H98.3249V32.6476C97.6716 34.1547 96.6572 35.3464 95.2818 36.2226C93.9407 37.0988 92.3589 37.5369 90.5365 37.5369ZM91.207 34.33C93.2702 34.33 94.9551 33.6115 96.2618 32.1745C97.5684 30.7025 98.2218 28.8449 98.2218 26.6018V25.0246H96.6228C93.8375 25.0246 91.6368 25.1648 90.0207 25.4452C88.4389 25.6905 87.3213 26.1462 86.668 26.8121C86.049 27.443 85.7396 28.3192 85.7396 29.4407C85.7396 30.8777 86.221 32.0518 87.1838 32.9631C88.181 33.8743 89.5221 34.33 91.207 34.33Z" fill="white"/>
<path d="M109.996 37.0638V11.5134H114.071V16.0872C115.412 13.003 118.163 11.3031 122.323 10.9877L123.819 10.83L124.129 14.5101L121.498 14.8255C119.126 15.0358 117.32 15.8069 116.082 17.1387C114.844 18.4355 114.226 20.223 114.226 22.5011V37.0638H109.996Z" fill="white"/>
<path d="M127.966 5.15212V0.36801H133.124V5.15212H127.966ZM128.482 37.0638V11.5134H132.66V37.0638H128.482Z" fill="white"/>
<path d="M151.096 37.5369C148.585 37.5369 146.419 36.9937 144.597 35.9072C142.774 34.7856 141.364 33.2259 140.367 31.2282C139.404 29.1954 138.923 26.8296 138.923 24.1309C138.923 20.0653 140.006 16.8758 142.172 14.5626C144.339 12.2144 147.313 11.0403 151.096 11.0403C152.643 11.0403 154.173 11.3207 155.686 11.8814C157.199 12.4422 158.454 13.2308 159.451 14.2472L158.007 17.349C157.01 16.3676 155.91 15.6491 154.706 15.1935C153.537 14.7379 152.419 14.5101 151.353 14.5101C148.74 14.5101 146.728 15.3512 145.319 17.0336C143.909 18.6808 143.204 21.0641 143.204 24.1834C143.204 27.2327 143.909 29.651 145.319 31.4385C146.728 33.1909 148.74 34.0671 151.353 34.0671C152.419 34.0671 153.537 33.8393 154.706 33.3837C155.91 32.928 157.01 32.192 158.007 31.1756L159.451 34.2774C158.454 35.2938 157.182 36.0999 155.635 36.6957C154.122 37.2565 152.609 37.5369 151.096 37.5369Z" fill="white"/>
<path d="M164.346 37.0638V0H168.524V15.7192C169.349 14.1771 170.501 13.0205 171.98 12.2494C173.493 11.4433 175.178 11.0403 177.034 11.0403C182.983 11.0403 185.958 14.4049 185.958 21.1342V37.0638H181.78V21.3971C181.78 19.0138 181.315 17.2789 180.387 16.1924C179.493 15.0708 178.049 14.5101 176.054 14.5101C173.75 14.5101 171.911 15.2461 170.535 16.7181C169.194 18.1551 168.524 20.0828 168.524 22.5011V37.0638H164.346Z" fill="white"/>
<path d="M202.533 37.5369C196.516 37.5369 193.507 34.1547 193.507 27.3904V11.5134H197.685V27.3378C197.685 29.616 198.132 31.2983 199.026 32.3848C199.954 33.4713 201.398 34.0145 203.358 34.0145C205.49 34.0145 207.227 33.296 208.568 31.8591C209.909 30.387 210.58 28.4418 210.58 26.0235V11.5134H214.757V37.0638H210.683V32.7528C209.892 34.2949 208.774 35.4866 207.33 36.3277C205.92 37.1339 204.321 37.5369 202.533 37.5369Z" fill="white"/>
<path d="M222.574 37.0638V0H226.752V22.8691H226.855L238.461 11.5134H243.773L231.188 23.8154L244.857 37.0638H239.544L226.855 25.0772H226.752V37.0638H222.574Z" fill="white"/>
<path d="M262.179 37.0638V0H274.455C280.335 0 284.874 1.59471 288.072 4.78412C291.27 7.93848 292.869 12.5123 292.869 18.5056C292.869 24.4989 291.27 29.0902 288.072 32.2796C284.874 35.4691 280.335 37.0638 274.455 37.0638H262.179ZM266.408 33.3837H274.145C283.636 33.3837 288.381 28.4243 288.381 18.5056C288.381 8.62192 283.636 3.68009 274.145 3.68009H266.408V33.3837Z" fill="white"/>
<path d="M311.189 37.5369C307.235 37.5369 304.105 36.3628 301.801 34.0145C299.498 31.6312 298.346 28.4068 298.346 24.3412C298.346 21.7125 298.861 19.3993 299.893 17.4016C300.925 15.3688 302.334 13.8091 304.123 12.7226C305.945 11.601 308.043 11.0403 310.415 11.0403C313.819 11.0403 316.484 12.1618 318.41 14.4049C320.336 16.613 321.298 19.6622 321.298 23.5526V25.1823H302.42C302.558 28.0913 303.383 30.3169 304.896 31.8591C306.409 33.3661 308.507 34.1197 311.189 34.1197C312.702 34.1197 314.146 33.8919 315.522 33.4362C316.897 32.9456 318.204 32.157 319.442 31.0705L320.886 34.0671C319.751 35.1536 318.307 36.0123 316.553 36.6432C314.799 37.239 313.011 37.5369 311.189 37.5369ZM310.518 14.1946C308.146 14.1946 306.272 14.9482 304.896 16.4553C303.521 17.9623 302.713 19.9426 302.472 22.396H317.688C317.585 19.8024 316.914 17.7871 315.676 16.3501C314.473 14.9131 312.753 14.1946 310.518 14.1946Z" fill="white"/>
<path d="M335.804 37.5369C333.844 37.5369 331.987 37.2565 330.233 36.6957C328.48 36.135 327.036 35.3464 325.901 34.33L327.242 31.3333C328.48 32.3497 329.838 33.1033 331.317 33.594C332.83 34.0496 334.36 34.2774 335.907 34.2774C337.867 34.2774 339.346 33.9094 340.343 33.1734C341.34 32.4374 341.839 31.4385 341.839 30.1767C341.839 29.1954 341.512 28.4243 340.859 27.8635C340.205 27.2677 339.174 26.8121 337.764 26.4966L333.07 25.4452C328.806 24.4989 326.674 22.2558 326.674 18.7159C326.674 16.4027 327.568 14.5451 329.357 13.1432C331.179 11.7412 333.552 11.0403 336.475 11.0403C338.194 11.0403 339.827 11.3207 341.375 11.8814C342.956 12.4072 344.263 13.1957 345.295 14.2472L343.902 17.2438C342.905 16.2975 341.736 15.579 340.395 15.0884C339.088 14.5626 337.781 14.2998 336.475 14.2998C334.549 14.2998 333.087 14.6853 332.09 15.4564C331.093 16.2274 330.594 17.2438 330.594 18.5056C330.594 20.4683 331.867 21.7301 334.411 22.2908L339.105 23.2897C341.306 23.7804 342.974 24.569 344.108 25.6555C345.243 26.7069 345.81 28.1439 345.81 29.9664C345.81 32.3147 344.899 34.1723 343.077 35.5391C341.254 36.871 338.83 37.5369 335.804 37.5369Z" fill="white"/>
<path d="M351.662 5.15212V0.36801H356.82V5.15212H351.662ZM352.178 37.0638V11.5134H356.356V37.0638H352.178Z" fill="white"/>
<path d="M375.255 47C373.089 47 371.043 46.7021 369.117 46.1063C367.226 45.5455 365.541 44.6868 364.063 43.5302L365.455 40.4284C367.003 41.55 368.533 42.3561 370.046 42.8468C371.593 43.3374 373.261 43.5828 375.049 43.5828C380.001 43.5828 382.477 40.9892 382.477 35.802V31.2808C381.754 32.893 380.62 34.1723 379.072 35.1186C377.559 36.0298 375.823 36.4855 373.863 36.4855C371.559 36.4855 369.564 35.9422 367.88 34.8557C366.195 33.7692 364.888 32.2796 363.96 30.387C363.065 28.4594 362.618 26.2338 362.618 23.7103C362.618 21.1868 363.065 18.9787 363.96 17.0861C364.888 15.1585 366.195 13.6689 367.88 12.6174C369.564 11.566 371.559 11.0403 373.863 11.0403C375.823 11.0403 377.559 11.4959 379.072 12.4072C380.62 13.3184 381.754 14.5626 382.477 16.1398V11.5134H386.551V35.2237C386.551 39.1491 385.589 42.0932 383.663 44.0559C381.772 46.0186 378.969 47 375.255 47ZM374.636 33.0157C377.044 33.0157 378.952 32.1745 380.362 30.4922C381.772 28.8098 382.477 26.5492 382.477 23.7103C382.477 20.8714 381.772 18.6283 380.362 16.981C378.952 15.2987 377.044 14.4575 374.636 14.4575C372.264 14.4575 370.373 15.2987 368.963 16.981C367.553 18.6283 366.848 20.8714 366.848 23.7103C366.848 26.5492 367.553 28.8098 368.963 30.4922C370.373 32.1745 372.264 33.0157 374.636 33.0157Z" fill="white"/>
<path d="M394.388 37.0638V11.5134H398.463V15.877C399.288 14.2647 400.457 13.0556 401.97 12.2494C403.483 11.4433 405.185 11.0403 407.077 11.0403C413.026 11.0403 416 14.4049 416 21.1342V37.0638H411.822V21.3971C411.822 19.0138 411.358 17.2789 410.429 16.1924C409.535 15.0708 408.091 14.5101 406.097 14.5101C403.793 14.5101 401.953 15.2461 400.578 16.7181C399.237 18.1551 398.566 20.0828 398.566 22.5011V37.0638H394.388Z" fill="white"/>
</svg>
