<svg width="313" height="35" viewBox="0 0 313 35" fill="none" xmlns="http://www.w3.org/2000/svg">
<path d="M0 27.6007V0H3.1823V12.528H3.25992L16.5325 0H20.6074L6.3258 13.4284L21.4611 27.6007H17.2698L3.25992 14.6029H3.1823V27.6007H0Z" fill="white"/>
<path d="M29.7662 27.953C28.4726 27.953 27.3083 27.7051 26.2734 27.2092C25.2644 26.6872 24.4623 25.9825 23.8673 25.0951C23.2722 24.2077 22.9747 23.2159 22.9747 22.1197C22.9747 20.7364 23.324 19.6402 24.0225 18.8311C24.7469 18.022 25.9241 17.4478 27.5541 17.1085C29.2099 16.7431 31.4608 16.5604 34.3068 16.5604H35.5487V15.3468C35.5487 13.7286 35.2123 12.5671 34.5396 11.8624C33.8928 11.1316 32.845 10.7662 31.3961 10.7662C30.2578 10.7662 29.1582 10.9359 28.0974 11.2752C27.0366 11.5884 25.95 12.1104 24.8375 12.8412L23.7509 10.5313C24.734 9.82662 25.9241 9.26547 27.3212 8.84787C28.7442 8.43028 30.1025 8.22148 31.3961 8.22148C33.8281 8.22148 35.6263 8.82177 36.7905 10.0224C37.9807 11.223 38.5757 13.0891 38.5757 15.6208V27.6007H35.6263V24.3121C35.1347 25.4344 34.3715 26.3218 33.3366 26.9743C32.3275 27.6268 31.1374 27.953 29.7662 27.953ZM30.2707 25.5649C31.823 25.5649 33.0908 25.0298 34.0739 23.9597C35.0571 22.8635 35.5487 21.4802 35.5487 19.8098V18.6353H34.3456C32.2499 18.6353 30.5941 18.7397 29.3781 18.9485C28.188 19.1312 27.3471 19.4705 26.8555 19.9664C26.3898 20.4362 26.157 21.0887 26.157 21.9239C26.157 22.994 26.5192 23.8684 27.2436 24.547C27.9939 25.2256 29.0029 25.5649 30.2707 25.5649Z" fill="white"/>
<path d="M43.5926 27.6007V25.4866L54.3814 11.0403H43.5926V8.57383H57.8742V10.6879L47.0854 25.1342H58.3011V27.6007H43.5926Z" fill="white"/>
<path d="M68.12 27.953C66.8264 27.953 65.6621 27.7051 64.6272 27.2092C63.6182 26.6872 62.8161 25.9825 62.2211 25.0951C61.626 24.2077 61.3285 23.2159 61.3285 22.1197C61.3285 20.7364 61.6778 19.6402 62.3763 18.8311C63.1007 18.022 64.2779 17.4478 65.9079 17.1085C67.5637 16.7431 69.8146 16.5604 72.6606 16.5604H73.9025V15.3468C73.9025 13.7286 73.5661 12.5671 72.8934 11.8624C72.2466 11.1316 71.1988 10.7662 69.7499 10.7662C68.6116 10.7662 67.512 10.9359 66.4512 11.2752C65.3904 11.5884 64.3038 12.1104 63.1913 12.8412L62.1046 10.5313C63.0878 9.82662 64.2779 9.26547 65.675 8.84787C67.098 8.43028 68.4563 8.22148 69.7499 8.22148C72.1819 8.22148 73.9801 8.82177 75.1443 10.0224C76.3345 11.223 76.9295 13.0891 76.9295 15.6208V27.6007H73.9801V24.3121C73.4885 25.4344 72.7253 26.3218 71.6904 26.9743C70.6813 27.6268 69.4912 27.953 68.12 27.953ZM68.6245 25.5649C70.1768 25.5649 71.4446 25.0298 72.4277 23.9597C73.4109 22.8635 73.9025 21.4802 73.9025 19.8098V18.6353H72.6994C70.6037 18.6353 68.9479 18.7397 67.7319 18.9485C66.5418 19.1312 65.7009 19.4705 65.2093 19.9664C64.7436 20.4362 64.5108 21.0887 64.5108 21.9239C64.5108 22.994 64.873 23.8684 65.5974 24.547C66.3477 25.2256 67.3567 25.5649 68.6245 25.5649Z" fill="white"/>
<path d="M82.7614 27.6007V8.57383H85.8273V11.9799C86.8363 9.68307 88.9061 8.41723 92.0367 8.18233L93.1621 8.06488L93.395 10.8054L91.4157 11.0403C89.6305 11.1969 88.2722 11.7711 87.3408 12.7629C86.4094 13.7286 85.9437 15.0597 85.9437 16.7562V27.6007H82.7614Z" fill="white"/>
<path d="M96.2823 3.83669V0.27405H100.163V3.83669H96.2823ZM96.6704 27.6007V8.57383H99.8139V27.6007H96.6704Z" fill="white"/>
<path d="M113.685 27.953C111.796 27.953 110.166 27.5485 108.795 26.7394C107.424 25.9042 106.363 24.7427 105.613 23.255C104.888 21.7412 104.526 19.9795 104.526 17.9698C104.526 14.9422 105.341 12.5671 106.971 10.8445C108.601 9.09582 110.839 8.22148 113.685 8.22148C114.849 8.22148 116 8.43028 117.139 8.84787C118.277 9.26547 119.222 9.85272 119.972 10.6096L118.885 12.9195C118.135 12.1887 117.307 11.6536 116.401 11.3143C115.522 10.975 114.681 10.8054 113.879 10.8054C111.913 10.8054 110.399 11.4318 109.338 12.6846C108.278 13.9113 107.747 15.6861 107.747 18.0089C107.747 20.2796 108.278 22.0805 109.338 23.4116C110.399 24.7166 111.913 25.3691 113.879 25.3691C114.681 25.3691 115.522 25.1995 116.401 24.8602C117.307 24.5209 118.135 23.9728 118.885 23.2159L119.972 25.5257C119.222 26.2826 118.264 26.8829 117.1 27.3266C115.962 27.7442 114.823 27.953 113.685 27.953Z" fill="white"/>
<path d="M123.654 27.6007V0H126.798V11.7058C127.419 10.5574 128.286 9.69612 129.398 9.12192C130.536 8.52163 131.804 8.22148 133.201 8.22148C137.677 8.22148 139.915 10.7271 139.915 15.7383V27.6007H136.772V15.934C136.772 14.1592 136.422 12.8673 135.724 12.0582C135.051 11.223 133.965 10.8054 132.464 10.8054C130.731 10.8054 129.346 11.3535 128.311 12.4497C127.302 13.5198 126.798 14.9553 126.798 16.7562V27.6007H123.654Z" fill="white"/>
<path d="M152.387 27.953C147.859 27.953 145.595 25.4344 145.595 20.3971V8.57383H148.739V20.3579C148.739 22.0544 149.075 23.3072 149.748 24.1163C150.446 24.9254 151.533 25.33 153.008 25.33C154.612 25.33 155.918 24.7949 156.927 23.7248C157.936 22.6286 158.441 21.1801 158.441 19.3792V8.57383H161.584V27.6007H158.518V24.3904C157.923 25.5388 157.083 26.4262 155.996 27.0526C154.935 27.6529 153.732 27.953 152.387 27.953Z" fill="white"/>
<path d="M167.466 27.6007V0H170.609V17.0302H170.687L179.419 8.57383H183.416L173.947 17.7349L184.231 27.6007H180.234L170.687 18.6745H170.609V27.6007H167.466Z" fill="white"/>
<path d="M197.264 27.6007V0H206.501C210.925 0 214.34 1.18755 216.746 3.56264C219.152 5.91163 220.355 9.31767 220.355 13.7808C220.355 18.2438 219.152 21.6629 216.746 24.038C214.34 26.4131 210.925 27.6007 206.501 27.6007H197.264ZM200.447 24.8602H206.268C213.409 24.8602 216.979 21.167 216.979 13.7808C216.979 6.42058 213.409 2.74049 206.268 2.74049H200.447V24.8602Z" fill="white"/>
<path d="M234.14 27.953C231.164 27.953 228.81 27.0787 227.077 25.33C225.343 23.5552 224.476 21.154 224.476 18.1264C224.476 16.1689 224.864 14.4463 225.641 12.9586C226.417 11.4448 227.478 10.2834 228.823 9.47427C230.194 8.63907 231.772 8.22148 233.558 8.22148C236.119 8.22148 238.124 9.05667 239.573 10.7271C241.022 12.3714 241.746 14.6421 241.746 17.5392V18.7528H227.542C227.646 20.9191 228.267 22.5764 229.405 23.7248C230.543 24.8471 232.122 25.4083 234.14 25.4083C235.278 25.4083 236.365 25.2386 237.4 24.8993C238.435 24.5339 239.418 23.9467 240.349 23.1376L241.436 25.3691C240.582 26.1782 239.495 26.8177 238.176 27.2875C236.856 27.7312 235.511 27.953 234.14 27.953ZM233.635 10.5705C231.85 10.5705 230.44 11.1316 229.405 12.2539C228.37 13.3762 227.762 14.8509 227.581 16.6779H239.03C238.952 14.7465 238.447 13.2457 237.516 12.1756C236.611 11.1055 235.317 10.5705 233.635 10.5705Z" fill="white"/>
<path d="M252.66 27.953C251.185 27.953 249.788 27.7442 248.469 27.3266C247.149 26.909 246.063 26.3218 245.209 25.5649L246.218 23.3333C247.149 24.0902 248.171 24.6514 249.284 25.0168C250.422 25.3561 251.574 25.5257 252.738 25.5257C254.213 25.5257 255.325 25.2517 256.075 24.7036C256.826 24.1555 257.201 23.4116 257.201 22.472C257.201 21.7412 256.955 21.167 256.463 20.7494C255.972 20.3057 255.196 19.9664 254.135 19.7315L250.603 18.9485C247.395 18.2438 245.791 16.5735 245.791 13.9374C245.791 12.2148 246.464 10.8315 247.809 9.78747C249.18 8.74347 250.966 8.22148 253.165 8.22148C254.458 8.22148 255.687 8.43028 256.852 8.84787C258.042 9.23937 259.025 9.82662 259.801 10.6096L258.753 12.8412C258.003 12.1365 257.123 11.6014 256.114 11.236C255.131 10.8445 254.148 10.6488 253.165 10.6488C251.716 10.6488 250.616 10.9359 249.866 11.5101C249.116 12.0843 248.741 12.8412 248.741 13.7808C248.741 15.2424 249.698 16.182 251.612 16.5996L255.144 17.3434C256.8 17.7088 258.055 18.296 258.908 19.1051C259.762 19.8881 260.189 20.9582 260.189 22.3154C260.189 24.0641 259.503 25.4474 258.132 26.4653C256.761 27.4571 254.937 27.953 252.66 27.953Z" fill="white"/>
<path d="M264.592 3.83669V0.27405H268.473V3.83669H264.592ZM264.98 27.6007V8.57383H268.123V27.6007H264.98Z" fill="white"/>
<path d="M282.344 35C280.714 35 279.174 34.7782 277.725 34.3345C276.302 33.9169 275.035 33.2774 273.922 32.4161L274.97 30.1063C276.134 30.9415 277.286 31.5418 278.424 31.9072C279.588 32.2726 280.843 32.4553 282.188 32.4553C285.914 32.4553 287.777 30.5239 287.777 26.6611V23.2942C287.234 24.4948 286.38 25.4474 285.215 26.1521C284.077 26.8307 282.771 27.17 281.296 27.17C279.562 27.17 278.062 26.7655 276.794 25.9564C275.526 25.1473 274.543 24.038 273.845 22.6286C273.172 21.1931 272.836 19.5358 272.836 17.6566C272.836 15.7774 273.172 14.1331 273.845 12.7237C274.543 11.2882 275.526 10.179 276.794 9.39597C278.062 8.61297 279.562 8.22148 281.296 8.22148C282.771 8.22148 284.077 8.56078 285.215 9.23937C286.38 9.91797 287.234 10.8445 287.777 12.019V8.57383H290.843V26.2304C290.843 29.1536 290.118 31.346 288.669 32.8076C287.246 34.2692 285.138 35 282.344 35ZM281.878 24.5861C283.689 24.5861 285.125 23.9597 286.186 22.7069C287.246 21.4541 287.777 19.7707 287.777 17.6566C287.777 15.5425 287.246 13.8721 286.186 12.6454C285.125 11.3926 283.689 10.7662 281.878 10.7662C280.093 10.7662 278.67 11.3926 277.609 12.6454C276.548 13.8721 276.018 15.5425 276.018 17.6566C276.018 19.7707 276.548 21.4541 277.609 22.7069C278.67 23.9597 280.093 24.5861 281.878 24.5861Z" fill="white"/>
<path d="M296.739 27.6007V8.57383H299.805V11.8233C300.426 10.6227 301.306 9.72222 302.444 9.12192C303.582 8.52163 304.863 8.22148 306.286 8.22148C310.762 8.22148 313 10.7271 313 15.7383V27.6007H309.856V15.934C309.856 14.1592 309.507 12.8673 308.809 12.0582C308.136 11.223 307.049 10.8054 305.549 10.8054C303.815 10.8054 302.431 11.3535 301.396 12.4497C300.387 13.5198 299.883 14.9553 299.883 16.7562V27.6007H296.739Z" fill="white"/>
</svg>
