<svg width="24" height="24" viewBox="0 0 24 24" fill="none" xmlns="http://www.w3.org/2000/svg">
<path fill-rule="evenodd" clip-rule="evenodd" d="M12.5547 5.84568C12.2188 5.62175 11.7812 5.62175 11.4453 5.84568L5.72955 9.65619L10.4651 13.3394L10.2133 13.6633L10.4651 13.3394C11.3679 14.0416 12.6321 14.0416 13.5349 13.3394L18.2704 9.65618L12.5547 5.84568ZM18.625 10.6473L14.1488 14.1288C12.8849 15.1118 11.1151 15.1118 9.85121 14.1288L5.375 10.6473L5.375 17.625C5.375 18.1772 5.82272 18.625 6.375 18.625H17.625C18.1773 18.625 18.625 18.1772 18.625 17.625V10.6473ZM13.1094 5.01363L12.8321 5.42966L13.1094 5.01363L19.4024 9.20893C19.5414 9.30167 19.625 9.45778 19.625 9.62496V17.625C19.625 18.7295 18.7296 19.625 17.625 19.625L6.375 19.625C5.27043 19.625 4.375 18.7295 4.375 17.625L4.375 9.62497C4.375 9.45779 4.45855 9.30168 4.59765 9.20895L10.8906 5.01363L11.166 5.42667L10.8906 5.01363C11.5624 4.56577 12.4376 4.56577 13.1094 5.01363Z" fill="white"/>
</svg>
