<svg width="25" height="24" viewBox="0 0 25 24" fill="none" xmlns="http://www.w3.org/2000/svg">
<path fill-rule="evenodd" clip-rule="evenodd" d="M12.6667 4.375C12.9428 4.375 13.1667 4.59886 13.1667 4.875V6.03983C16.071 6.28021 18.3865 8.59573 18.6269 11.5H19.7917C20.0678 11.5 20.2917 11.7239 20.2917 12C20.2917 12.2761 20.0678 12.5 19.7917 12.5H18.6269C18.3865 15.4043 16.071 17.7198 13.1667 17.9602V19.125C13.1667 19.4011 12.9428 19.625 12.6667 19.625C12.3905 19.625 12.1667 19.4011 12.1667 19.125V17.9602C9.26242 17.7198 6.9469 15.4043 6.70652 12.5H5.54169C5.26554 12.5 5.04169 12.2761 5.04169 12C5.04169 11.7239 5.26554 11.5 5.54169 11.5H6.70652C6.9469 8.59573 9.26242 6.28021 12.1667 6.03983V4.875C12.1667 4.59886 12.3905 4.375 12.6667 4.375ZM12.6667 7.01923C9.91588 7.01923 7.68592 9.2492 7.68592 12C7.68592 14.7508 9.91588 16.9808 12.6667 16.9808C15.4175 16.9808 17.6475 14.7508 17.6475 12C17.6475 9.2492 15.4175 7.01923 12.6667 7.01923ZM12.6667 10.8558C12.0347 10.8558 11.5225 11.3681 11.5225 12C11.5225 12.6319 12.0347 13.1442 12.6667 13.1442C13.2986 13.1442 13.8109 12.6319 13.8109 12C13.8109 11.3681 13.2986 10.8558 12.6667 10.8558ZM10.5225 12C10.5225 10.8158 11.4825 9.85577 12.6667 9.85577C13.8509 9.85577 14.8109 10.8158 14.8109 12C14.8109 13.1842 13.8509 14.1442 12.6667 14.1442C11.4825 14.1442 10.5225 13.1842 10.5225 12Z" fill="white"/>
</svg>
