<svg width="24" height="24" viewBox="0 0 24 24" fill="none" xmlns="http://www.w3.org/2000/svg">
<path d="M13.9169 9.0584L14.356 9.29768L14.356 9.29767L13.9169 9.0584ZM11.392 10C11.1159 10 10.892 10.2239 10.892 10.5C10.892 10.7761 11.1159 11 11.392 11V10ZM10.0454 5.01637C9.79044 5.12237 9.66966 5.41501 9.77566 5.67C9.88166 5.92498 10.1743 6.04576 10.4293 5.93976L10.0454 5.01637ZM9.48356 8.08844C9.68228 8.28017 9.99882 8.2745 10.1905 8.07577C10.3823 7.87704 10.3766 7.56051 10.1779 7.36877L9.48356 8.08844ZM9.40484 6.68094L8.90542 6.65692L8.90542 6.65692L9.40484 6.68094ZM10.4664 5.92453C10.7176 5.80985 10.8282 5.51323 10.7135 5.26204C10.5989 5.01084 10.3022 4.90017 10.051 5.01486L10.4664 5.92453ZM10.1869 14.0943C10.1869 13.8182 9.963 13.5943 9.68685 13.5943C9.41071 13.5943 9.18685 13.8182 9.18685 14.0943H10.1869ZM13.4844 12.7936C13.3174 12.5737 13.0038 12.5307 12.7838 12.6976C12.5638 12.8646 12.5209 13.1782 12.6878 13.3982L13.4844 12.7936ZM16.75 13.6875C16.75 16.1729 14.5678 18.25 11.7962 18.25V19.25C15.0487 19.25 17.75 16.794 17.75 13.6875H16.75ZM11.7962 18.25C10.1034 18.25 8.61935 17.4692 7.72871 16.2921L6.93125 16.8954C8.01383 18.3263 9.79496 19.25 11.7962 19.25V18.25ZM13.7345 9.48756C13.7394 9.48946 13.7442 9.49137 13.7491 9.49328L14.117 8.56343C14.1112 8.56114 14.1054 8.55886 14.0997 8.55659L13.7345 9.48756ZM13.7491 9.49328C15.5319 10.1987 16.75 11.8249 16.75 13.6875H17.75C17.75 11.3662 16.2342 9.40118 14.117 8.56343L13.7491 9.49328ZM11.392 5.75C12.7134 5.75 13.7199 6.7358 13.7199 7.875H14.7199C14.7199 6.1147 13.1943 4.75 11.392 4.75V5.75ZM13.7199 7.875C13.7199 8.20439 13.6381 8.51602 13.4908 8.79498L14.3752 9.26173C14.5955 8.84443 14.7199 8.3732 14.7199 7.875H13.7199ZM13.4908 8.79499C13.4865 8.80316 13.4822 8.81121 13.4779 8.81912L14.356 9.29767C14.3625 9.28564 14.3689 9.27365 14.3752 9.26172L13.4908 8.79499ZM13.4779 8.81912C13.1024 9.50804 12.3186 10 11.392 10V11C12.6717 11 13.7992 10.3193 14.356 9.29768L13.4779 8.81912ZM10.4293 5.93976C10.7215 5.8183 11.0471 5.75 11.392 5.75V4.75C10.9143 4.75 10.4584 4.84471 10.0454 5.01637L10.4293 5.93976ZM7.25 14.8123C7.25 13.3625 8.52784 12.1248 10.1839 12.1248V11.1248C8.04698 11.1248 6.25 12.7414 6.25 14.8123H7.25ZM7.86634 16.4599C7.47727 16.0016 7.25 15.4299 7.25 14.8123H6.25C6.25 15.683 6.57218 16.4806 7.10398 17.1071L7.86634 16.4599ZM10.1839 12.1248C11.3915 12.1248 12.4101 12.7904 12.8627 13.7149L13.7609 13.2753C13.1334 11.9935 11.7572 11.1248 10.1839 11.1248V12.1248ZM12.8626 13.7147L12.8641 13.7177L13.7625 13.2786L13.761 13.2755L12.8626 13.7147ZM10.1779 7.36877C9.99229 7.18972 9.8923 6.95372 9.90426 6.70497L8.90542 6.65692C8.87846 7.21734 9.10842 7.7265 9.48356 8.08844L10.1779 7.36877ZM9.90426 6.70497C9.92004 6.37691 10.1313 6.07751 10.4664 5.92453L10.051 5.01486C9.41649 5.30458 8.94124 5.91223 8.90542 6.65692L9.90426 6.70497ZM12.9262 14.0943C12.9262 14.7423 12.3487 15.3298 11.5565 15.3298V16.3298C12.8296 16.3298 13.9262 15.3634 13.9262 14.0943H12.9262ZM11.5565 15.3298C10.7644 15.3298 10.1869 14.7423 10.1869 14.0943H9.18685C9.18685 15.3634 10.2835 16.3298 11.5565 16.3298V15.3298ZM12.6878 13.3982C12.7541 13.4855 12.8076 13.58 12.847 13.6793L13.7766 13.3109C13.7028 13.1246 13.6038 12.951 13.4844 12.7936L12.6878 13.3982ZM12.847 13.6793C12.8983 13.8089 12.9262 13.9483 12.9262 14.0943H13.9262C13.9262 13.8191 13.8733 13.5548 13.7766 13.3109L12.847 13.6793Z" fill="white"/>
</svg>
