<svg width="25" height="24" viewBox="0 0 25 24" fill="none" xmlns="http://www.w3.org/2000/svg">
<path fill-rule="evenodd" clip-rule="evenodd" d="M8.83331 3.75C8.83331 3.47386 9.05717 3.25 9.33331 3.25H16.0833C16.3595 3.25 16.5833 3.47386 16.5833 3.75C16.5833 4.02614 16.3595 4.25 16.0833 4.25H15.619V5.46531H16.4672C17.7697 5.46531 18.8333 6.51276 18.8333 7.81445V17.0998C18.8333 18.3262 17.889 19.327 16.6905 19.4386V20.25C16.6905 20.5261 16.4666 20.75 16.1905 20.75C15.9143 20.75 15.6905 20.5261 15.6905 20.25V19.4489H9.72617V20.25C9.72617 20.5261 9.50231 20.75 9.22617 20.75C8.95003 20.75 8.72617 20.5261 8.72617 20.25V19.4386C7.52759 19.327 6.58331 18.3262 6.58331 17.0998V7.81445C6.58331 6.51276 7.64698 5.46531 8.94943 5.46531H9.7976V4.25H9.33331C9.05717 4.25 8.83331 4.02614 8.83331 3.75ZM10.7976 4.25V5.46531H14.619V4.25H10.7976ZM8.94943 6.46531C8.19063 6.46531 7.58331 7.07364 7.58331 7.81445V17.0998C7.58331 17.8406 8.19063 18.4489 8.94943 18.4489H16.4672C17.226 18.4489 17.8333 17.8406 17.8333 17.0998V7.81445C17.8333 7.07364 17.226 6.46531 16.4672 6.46531H8.94943ZM15.4404 7.67795C15.7166 7.67795 15.9404 7.90181 15.9404 8.17795V16.8381L15.4404 16.8391L14.9404 16.839V8.17795C14.9404 7.90181 15.1643 7.67795 15.4404 7.67795ZM9.97618 7.67798C10.2523 7.67798 10.4762 7.90184 10.4762 8.17798V16.8382L9.97618 16.8391L9.47618 16.8391V8.17798C9.47618 7.90184 9.70004 7.67798 9.97618 7.67798ZM12.7083 7.67798C12.9845 7.67798 13.2083 7.90184 13.2083 8.17798V16.8391C13.2083 17.1153 12.9845 17.3391 12.7083 17.3391C12.4322 17.3391 12.2083 17.1153 12.2083 16.8391V8.17798C12.2083 7.90184 12.4322 7.67798 12.7083 7.67798ZM15.4404 17.3391C15.1643 17.3391 14.9404 17.1152 14.9404 16.839L15.4404 16.8391L15.9404 16.8381C15.9404 17.1143 15.7166 17.3391 15.4404 17.3391ZM9.97618 17.3391C9.70004 17.3391 9.47618 17.1152 9.47618 16.8391L9.97618 16.8391L10.4762 16.8382C10.4762 17.1143 10.2523 17.3391 9.97618 17.3391Z" fill="white"/>
</svg>
